<svg data-name="レイヤー 2" xmlns="http://www.w3.org/2000/svg" viewBox="0 0 406.93 406.93"><g data-name="レイヤー 3"><circle cx="203.46" cy="203.46" r="203.46" style="fill:#eb6100;opacity:.85"/><path d="M154.09 132.75c.5-1.19.73-1.37 1.1-1.37.41 0 .87.18 2.01 1 1.05.78 1.55 1.28 1.55 1.78 0 .55-.37 1.1-2.83 2.06 1.05 6.71 3.2 12.15 6.07 16.67 2.92 4.61 7.95 9.64 13.75 12.65l-.32.64c-1.74.27-3.47 1.32-4.7 2.69-.41.5-.69.73-.96.73-.23 0-.5-.18-.96-.5-4.06-3.33-7.99-8.59-10.41-13.75-1.46-3.11-2.42-6.39-3.06-9.96-.73 2.06-1.46 4.02-2.47 5.98a42.891 42.891 0 0 1-7.85 11.05c-2.06 2.1-4.38 3.97-6.8 5.62-1.51.96-3.06 1.83-4.66 2.65l-.41-.5c9.18-7.4 15.07-17.45 18.36-30.83l3.15 1c-.18-1.78-.27-3.56-.32-5.34h-5.3l-4.57.23v-2.74l4.57.23h5.07Zm46.81 29.78c-.05-.82-.09-1.69-.14-2.51-.55.23-1.14.46-1.74.69l-.32-.59c4.7-2.97 7.72-6.71 9.04-12.51-1.19-1.14-2.47-2.1-3.65-2.69l.27-.64c1.37.18 2.65.5 3.84.96.23-1.64.32-3.24.37-4.89l-3.65.41-.09-2.74 3.79.05c0-3.93-.05-6.3-.18-8.45 4.79.55 5.98.82 5.98 1.46 0 .5-.37.87-1.37 1.28v5.57l2.65-.09c.55-1.37.91-1.64 1.37-1.64.64 0 1.23.32 2.56 1.28 1.46 1.1 1.83 1.55 1.83 2.19 0 .46-.41.82-1.46 1.42 0 6.9.87 10.87 1.51 12.19.18.37.41.73.69.73.37 0 .87-.46 2.33-3.33l.64.18c-.64 2.74-.78 3.84-.78 4.79 0 1.42.59 1.87.59 2.83 0 1.55-1 2.33-2.19 2.33-1.37 0-2.6-.64-4.02-2.92-1.96-3.15-3.06-8.36-3.11-17.76l-2.65.09c-.09 2.33-.27 4.66-.87 6.94 2.05 1.32 3.29 2.88 3.29 4.2 0 1.42-.82 2.33-2.01 2.33-1.1 0-1.69-.55-2.56-2.19-.05-.09-.09-.18-.18-.32-.82 1.69-1.87 3.2-3.2 4.52a18.248 18.248 0 0 1-4.7 3.38c4.02.41 4.7.69 4.7 1.28 0 .46-.55.91-1.64 1.23v.96h7.99c.91-1.19 1.78-2.19 2.83-3.38 4.25 3.33 4.8 4.06 4.8 4.57 0 .59-.23 1.1-.73 1.1h-14.89v4.11h10.69c.96-1.28 1.92-2.51 3.11-3.93 4.66 3.97 5.11 4.57 5.11 5.21 0 .69-.32 1-.64 1h-37.63l-4.57.18v-2.69l4.57.23h14.43v-4.11h-11.23l-4.57.18v-2.69l4.57.23h11.23Zm-8.17-7.08c-2.69.55-5.34 1-7.72 1.37-.41.91-.78 1.19-1.19 1.19-.59 0-.87-.46-1.92-5.02 3.56 0 7.22-.09 10.78-.23 0-1-.09-1.87-.18-2.88 1.42.14 2.47.27 3.24.37.59-.41 1.19-.87 1.74-1.37h-10.92l-3.56.18v-2.69l3.56.23h12.42c.82-.96 1.19-1.19 1.64-1.19.59.05.96.23 2.33 1.37 1.1.91 1.32 1.42 1.32 1.74 0 .59-.46.82-2.1.96-1.55.55-2.88 1-4.29 1.42v.14c0 .32-.18.59-1.19 1.05v.5c2.74-.14 5.39-.32 7.81-.5l.14.59c-2.56.69-5.25 1.37-7.9 1.96.05 1.23.18 2.69.18 3.65 0 2.28-1.6 3.7-4.57 3.7-.82 0-.96-.09-1.14-.91-.27-1.19-.96-1.83-3.01-2.47l.05-.59c1.32.14 2.24.18 3.24.18s1.23-.18 1.23-1.28v-1.46Zm-.69-21.83c0-1.83-.05-3.06-.18-4.29 5.3.55 5.85.82 5.85 1.37 0 .46-.23.78-1.46 1.32v1.74h3.47c.73-.91 1.42-1.74 2.51-2.92 3.75 3.24 3.93 3.84 3.93 4.2 0 .59-.27 1-.73 1H186.2l-3.56.18v-2.7l3.56.23h5.85v-.14Zm6.17 4.15c.5-.91.87-1.19 1.23-1.19.46 0 .91.09 2.24 1.1s1.51 1.37 1.51 1.74c0 .46-.32.78-1.28 1.28v.5c0 .78.14 1.74.14 2.38 0 1-1.23 1.55-2.97 1.55-.5 0-.82-.18-.96-.55h-8.31c-.46.64-1.55.96-2.69.96-.64 0-1.14-.37-1.14-1.05 0-.78.14-2.51.14-4.34 0-1.28 0-2.28-.14-3.47 1.69.5 2.79.82 3.56 1.1h8.68Zm-8.17 2.29v2.24h8.04v-2.24h-8.04Zm65.44 7.62c-.14.23-.32.37-.55.5v5.16h6.21c.96-1.28 1.96-2.33 3.2-3.75 4.7 3.84 5.11 4.38 5.11 5.02 0 .69-.32 1-.64 1h-13.88v12.24h9.64c.96-1.28 1.92-2.38 3.24-3.79 4.7 3.84 5.16 4.43 5.16 5.07 0 .68-.32 1-.64 1h-35.62l-4.57.18v-2.7l4.57.23H250V155.6h-10.92l-4.57.18v-2.69l4.57.23H250v-5.66h-2.1l-4.57.18v-2.15c-3.65 2.97-7.67 5.43-11.97 7.26l-.41-.55c7.31-5.11 14.25-13.11 18.82-22.56 6.17 1.6 6.71 1.92 6.71 2.6 0 .41-.27.87-1.83 1.1 4.38 5.34 11.46 9.59 19.59 12.1l-.14.69c-1.55.5-2.88 1.55-3.79 2.97-.37.69-.59.96-.96.96-.23 0-.55-.14-.96-.37-6.53-3.52-11.83-9.13-14.8-15.66a51.1 51.1 0 0 1-9.64 10.96l3.93.18h5.98c.73-.87 1.92-2.15 3.01-3.29 4.34 3.65 4.57 4.2 4.57 4.57 0 .59-.27 1-.73 1h-5.25Zm-15.43 9.5c4.89 1.55 7.31 4.52 7.31 7.12 0 1.83-1.14 2.88-2.65 2.88-1.37 0-2.37-.69-2.47-2.42-.18-2.88-1.14-5.57-2.65-7.12l.46-.46Zm16.12 9.82c1.69-2.92 3.15-6.35 4.48-10.23 5.39 2.1 5.8 2.51 5.8 3.06s-.5.91-2.15 1c-2.06 2.51-4.93 4.98-7.58 6.58l-.55-.41ZM79.56 245.57c2.97-4.4 4.79-6.45 9.65-11.19 7.88-7.76 9.93-11.19 9.93-16.27 0-4.28-2.4-6.91-6.39-6.91-3.14 0-5.48 1.77-5.48 4.17 0 .69.11 1.14.4 2 .34.91.46 1.43.46 1.94 0 2-1.54 3.71-3.43 3.71-2.05 0-3.77-2-3.77-4.34 0-5.59 5.65-9.99 12.62-9.99 7.48 0 12.56 4.22 12.56 10.45 0 5.25-2.63 8.68-11.19 14.79-5.31 3.77-7.71 5.82-9.93 8.5h11.19c5.14 0 6.28-.86 8.33-6.62l2.05.57-2.8 12.27h-24.2v-3.08Zm36.36 0c2.97-4.4 4.79-6.45 9.65-11.19 7.88-7.76 9.93-11.19 9.93-16.27 0-4.28-2.4-6.91-6.39-6.91-3.14 0-5.48 1.77-5.48 4.17 0 .69.11 1.14.4 2 .34.91.46 1.43.46 1.94 0 2-1.54 3.71-3.43 3.71-2.05 0-3.77-2-3.77-4.34 0-5.59 5.65-9.99 12.62-9.99 7.48 0 12.56 4.22 12.56 10.45 0 5.25-2.63 8.68-11.19 14.79-5.31 3.77-7.71 5.82-9.93 8.5h11.19c5.14 0 6.28-.86 8.33-6.62l2.05.57-2.8 12.27h-24.2v-3.08Zm37.74 10.9c3.54-2.11 5.42-4.62 5.42-6.45 0-1.03-.57-1.43-1.77-1.43-2.23 0-3.88-1.66-3.88-3.77 0-2.28 1.71-3.82 4.11-3.82 2.91 0 5.31 2.63 5.31 5.94 0 4.57-3.14 8.16-8.51 10.39l-.69-.86Zm32.71-47.78c7.71 0 13.76 8.96 13.76 20.44s-6.05 20.44-13.76 20.44-13.87-9.25-13.87-20.44 6.17-20.44 13.87-20.44Zm-.06 38.53c4.62 0 6.91-5.99 6.91-18.04s-2.28-18.15-6.85-18.15-7.02 6.05-7.02 17.41c0 12.67 2.23 18.78 6.96 18.78Zm36.42-38.53c7.71 0 13.76 8.96 13.76 20.44s-6.05 20.44-13.76 20.44-13.87-9.25-13.87-20.44 6.17-20.44 13.87-20.44Zm-.05 38.53c4.62 0 6.91-5.99 6.91-18.04s-2.28-18.15-6.85-18.15-7.02 6.05-7.02 17.41c0 12.67 2.23 18.78 6.96 18.78Zm36.42-38.53c7.71 0 13.76 8.96 13.76 20.44s-6.05 20.44-13.76 20.44-13.87-9.25-13.87-20.44 6.17-20.44 13.87-20.44Zm-.06 38.53c4.62 0 6.91-5.99 6.91-18.04s-2.28-18.15-6.85-18.15-7.02 6.05-7.02 17.41c0 12.67 2.23 18.78 6.96 18.78Zm38.57 1.12c0 1-1.36 1.64-3.36 1.64-.8 0-1.16-.32-1.16-.92 0-1.48.2-6.72.2-28.36 0-2.6 0-4.32-.12-6.04 2.64.76 4 1.24 4.72 1.6h23.12c.84-1.8 1.16-2 1.68-2 .6 0 1.08.2 2.6 1.36 1.52 1.16 1.76 1.6 1.76 2.12s-.4.96-1.6 1.44v1.8c0 19.12.28 22.76.28 24.2 0 2.8-2.12 4.52-5.44 4.52-.72 0-.8-.08-1-.84-.48-1.96-1.72-2.8-4.28-3.68l.04-.6c1.32.16 2.68.24 4.16.24 1.28 0 1.92-.24 1.92-1.56v-9.36h-23.52v14.44Zm9.16-16.44v-13.64h-8.96l-.2.24v13.4h9.16Zm14.35-13.64h-9.44c-.12.24-.36.32-.6.4v13.24h10.04v-13.64Zm-49.09 53.09c2.5.22 3.47 1.42 3.47 2.5 0 .83-.5 1.35-1.32 1.35-.68 0-1.05-.42-1.2-1.12-.2-.95-.47-1.62-.95-2.12.05 7.92.15 9.85.15 10.57 0 .62-.87 1.05-1.97 1.05-.48 0-.75-.22-.75-.6 0-.72.1-2.47.15-9.02-.87 1.42-2.02 2.8-3.37 3.95l-.3-.22c1.6-2.57 2.75-5.85 3.3-9.07h-.97l-2.2.12v-1.5l2.2.12h1.37v-3.95c-1.15.1-2.32.2-3.5.25l-.05-.38c2.45-.55 5.12-1.67 6.92-2.77 2.1 1.28 2.22 1.47 2.22 1.72s-.2.38-1.17.4c-.5.12-1.05.25-1.62.35-.02.33-.17.5-.4.6v3.77h.27c.4-.53.75-.97 1.32-1.6 2 1.8 2.12 2.12 2.12 2.32 0 .3-.15.53-.4.53h-3.32v2.75Zm.18 12.07c2.05-.8 3.55-2.02 4.6-4 .82-1.47 1.2-3.12 1.47-4.77-.32.2-.8.33-1.45.33-.55 0-.8-.22-.8-.65 0-.6.12-1.88.12-5 0-1.25-.02-2.17-.07-3.05 1.45.4 2.27.65 2.75.85h3.4c.75-1.67 1.55-3.85 2.25-6.37 3 .88 3.35 1.1 3.35 1.42 0 .3-.3.53-1.02.62-1.1 1.72-2.32 3.25-3.35 4.32h1.7c.38-.78.6-.98.85-.98.33 0 .65.1 1.57.83.85.65 1.05.92 1.05 1.15 0 .3-.17.53-.82.88v.8c0 1.77.12 3.12.12 3.77 0 .77-.8 1.12-2.1 1.12-.42 0-.67-.17-.67-.6h-.15c-.08.15-.18.2-.33.25v5.87c0 .52.27.57 1 .57.95 0 1.4-.17 1.8-.85.33-.55.65-1.37.92-2.2l.38.08c-.12.92-.2 1.8-.2 2.2 0 .47 1 .58 1 1.35 0 .97-.92 1.75-4.07 1.75-2.95 0-3.55-.43-3.55-1.62 0-1.08.12-2.82.12-5.85v-1.55h-3.35c-.05.15-.12.3-.25.4 2.9.5 3.15.67 3.15.95 0 .3-.2.48-.9.67-1.07 4.8-3.87 7.15-8.42 7.62l-.1-.32Zm4.62-22.2c3 .73 4.22 2.27 4.22 3.6 0 1.08-.67 1.7-1.47 1.7-.75 0-1.27-.38-1.42-1.42-.2-1.37-.72-2.7-1.57-3.6l.25-.28Zm2 7.15-.07.08v4.4h6.4v-4.47h-6.32Zm37.6 11.9c-.58.47-1 1.07-1.27 1.72-.2.62-.3.7-.95.75-1.62.12-3.55.17-6.6.17-6.47 0-8.02-.78-9.75-4.1-.88 1.25-1.88 2.42-2.85 3.38-.1.6-.27.9-.57.9s-.57-.4-1.75-2.9c1.22-.47 2.37-.95 3.45-1.5v-6.85h-.92l-2 .12v-1.5l2 .12h.9c.45-.88.75-1.2 1.02-1.2.35 0 .62.05 1.57.8.92.72 1.02 1 1.02 1.25 0 .3-.23.58-.9.88v6.57c1.5 1.25 3.55 1.55 8.65 1.55 3.17 0 5.92-.17 8.95-.55v.38Zm-22.07-19.52c2.77.38 4.47 1.72 4.47 3.2 0 1.1-.67 1.62-1.55 1.62-.6 0-1.07-.38-1.25-1.05-.38-1.47-1-2.72-1.82-3.45l.15-.33Zm12.69 1.2c.35-.65.58-.78.75-.78.27 0 .57.12 1.2.65.52.42.77.7.77 1s-.25.58-1.25 1.03c.9 5.17 3.87 9.45 8.05 12.17l-.15.35c-.85.17-1.65.65-2.3 1.33-.23.27-.38.4-.5.4s-.27-.12-.48-.35c-2.8-3.12-4.32-6.65-4.9-10.92-1.48 5.05-4.35 9-8.4 11.7l-.25-.27c3.02-3.42 5.45-8.67 6.7-15.05h-3.65l-2.15.12v-1.5l2.15.12h4.4Z" style="fill:#fff"/></g></svg>