<svg data-name="レイヤー 2" xmlns="http://www.w3.org/2000/svg" width="406.93" height="406.93"><g data-name="レイヤー 3"><circle cx="203.46" cy="203.46" r="203.46" style="fill:#fff"/><path d="M144.13 129.66c.82-1 1.69-1.96 2.83-3.15 4.43 3.24 4.57 4.02 4.57 4.43 0 .27-.27 1-.73 1h-14.07l-3.47.23v-2.74l3.47.23h7.4Zm-1.64-6.17c.82-1 1.64-1.87 2.74-2.97 3.97 3.01 4.2 3.88 4.2 4.25 0 .27-.27 1-.73 1h-10.82l-3.47.23v-2.74l3.47.23h4.61Zm1.96 24.67c.69-1.37 1.19-1.87 1.64-1.87.59 0 1.28.23 2.74 1.37 1.46 1.14 1.69 1.55 1.69 1.96 0 .55-.32.96-1.46 1.51v1.74c0 3.97.18 6.26.18 7.31 0 1.14-1.28 1.96-3.38 1.96-.96 0-1.37-.32-1.37-1.23v-1.1h-5.34v1.46c0 .91-1.19 1.83-3.52 1.83-.78 0-1.19-.37-1.19-1.14 0-.55.14-2.92.14-9.13 0-2.97-.05-4.48-.14-6.21 2.19.73 3.56 1.19 4.43 1.55h5.57Zm-2.1-12.43c.82-1 1.64-1.87 2.74-2.97 3.97 3.01 4.2 3.88 4.2 4.25 0 .27-.27 1-.73 1h-10.05l-3.47.23v-2.74l3.47.23h3.84Zm.09 6.26c.82-1 1.64-1.87 2.74-2.97 3.97 3.01 4.2 3.88 4.2 4.25 0 .27-.27 1-.73 1h-10.14l-3.47.23v-2.74l3.47.23h3.93Zm-3.06 8.45-.23.27v6.8h5.34v-7.08h-5.12Zm11.51-.55c1.46-1.19 2.88-2.47 4.25-3.79 0-1.51-.05-2.69-.09-4.02 1.28.37 2.28.69 3.01.96 1.32-1.46 2.56-3.01 3.74-4.57h-7.26l-4.57.23v-2.74l4.57.23h3.38v-5.66h-1.23l-4.57.23v-2.74l4.57.23h1.23v-1.78c0-2.1-.05-3.61-.14-5.3 5.8.46 6.26.78 6.26 1.33 0 .46-.32.82-1.55 1.28v4.48h.23c.64-.96 1.32-1.92 2.06-2.92 1.92 1.64 2.79 2.65 3.2 3.24.78-1.46 1.46-2.97 2.15-4.52 4.84 2.1 5.48 2.51 5.48 3.11 0 .55-.46 1.05-2.28 1.14-1.64 2.88-3.33 5.48-5.16 7.9h1.1c.73-.96 1.55-2.01 2.51-3.11 4.2 3.01 4.38 3.84 4.38 4.29 0 .32-.23 1.1-.73 1.1h-9.13c-1.51 1.83-3.2 3.52-4.93 5.07h6.99c.82-1.74 1.14-1.92 1.69-1.92.64 0 1.1.23 2.74 1.42 1.55 1.19 1.78 1.6 1.78 2.1 0 .59-.37 1.05-1.55 1.55v1.19c0 8.68.32 11.69.32 12.74s-1.51 1.69-3.65 1.69c-.87 0-1.23-.32-1.23-1v-.82h-8.72v.73c0 1.05-1.32 1.74-3.47 1.74-.87 0-1.28-.32-1.28-1 0-1.23.18-5.48.18-13.75a48.55 48.55 0 0 1-3.79 2.19l-.46-.5Zm8.91-4.06-.09.09v4.8h8.72v-4.89h-8.63Zm8.63 12.37v-5.21h-8.72v5.21h8.72Zm-5.94-27.67v5.66h.96c1.23-1.83 2.42-3.7 3.47-5.66h-4.43Zm20.19 32.33c4.89-1.28 10.23-3.65 14.11-6.3 4.34 2.56 4.75 2.92 4.75 3.52 0 .5-.5.87-2.51.78-4.75 1.32-10.82 2.38-16.12 2.65l-.23-.64Zm6.44-26.9-.32 1.1c-.23.82-1.19 1.23-2.97 1.23-1.32 0-1.92-.27-1.92-1.05.96-2.83 1.92-6.07 2.65-9.5 2.15.59 3.47.96 4.2 1.28h4.7c.09-.73.14-1.46.18-2.19h-7.31l-3.65.23v-2.74l3.65.23h7.44c.05-1.19.05-2.51.05-3.93 5.39.5 6.21.82 6.21 1.42 0 .55-.27.91-1.51 1.28v1.23h4.98c0-1.42-.05-2.6-.14-3.93 5.62.41 5.98.73 5.98 1.23 0 .46-.32.82-1.28 1.14v1.55h5.75c.73-1.51 1.1-1.78 1.6-1.78.64 0 1.05.18 2.69 1.37 1.46 1.05 1.78 1.46 1.78 1.92 0 .59-.41 1-1.55 1.51v.78c0 1.23.09 2.01.09 2.51 0 .96-1.42 1.6-3.38 1.6-.82 0-1.19-.37-1.19-1.05v-.09h-5.8c.05.78.05 1.6.05 2.38h9.32c.55-1.1.87-1.32 1.32-1.32.55 0 1 .18 2.38 1.19 1.46 1.1 1.69 1.42 1.69 1.83 0 .46-.23.82-1.19 1.14-.23 1.37-.55 2.47-1 3.24-.59 1-1.6 1.55-3.06 1.83-1.19.14-1.37.04-1.78-1.19-.55-1-1.42-1.6-2.92-2.06l.09-.68c1 .14 1.74.18 2.56.18.96 0 1.28-.23 1.46-.73.14-.37.23-.73.32-1.14h-9.13c.05 1.23.05 1.92.05 2.42 0 1-1.46 1.64-3.65 1.64-.82 0-1.23-.27-1.23-.96 0-.59.05-1.46.09-3.11h-7.17c-.59 1.23-1.37 2.28-2.24 3.29-.32.37-.69.73-1.1 1.1h17.67c.5-.96.91-1.14 1.32-1.14.59 0 1.19.23 2.83 1.46 1.28.96 1.6 1.37 1.6 1.87 0 .55-.32.91-1.19 1.37v2.05c0 6.3.18 7.9.18 8.91 0 1.33-1.64 1.96-3.61 1.96-.41 0-.82-.04-1.05-.41h-17.99c-.41 1.23-2.47 1.42-3.52 1.46-.82 0-1.28-.37-1.28-1.14s.18-2.88.18-11.33v-2.15c-.64.27-1.28.55-1.92.78-1.64.59-3.33.96-5.02 1.28l-.32-.59c4.57-1.64 8.04-4.34 9.86-7.12.37-.55.69-1.1.96-1.64h-4.52Zm5.44-2.28c.23-.78.46-1.55.59-2.38h-4.57l-.09.05-.69 2.33h4.75Zm17.94 8.95h-17.67l-.09.09v2.19h17.77v-2.28Zm-17.76 4.57v2.33h17.77v-2.33h-17.77Zm0 4.61v2.33h17.77v-2.33h-17.77Zm10.73-18.13v-2.38h-5.62c-.18.82-.37 1.6-.64 2.38h6.26Zm-5.02-6.85c-.05.73-.14 1.46-.23 2.19h5.3v-2.19h-5.07Zm6.53 30.09c4.57 0 9.04.32 12.19 1.19 2.56.68 4.02 1.74 4.02 3.2s-.96 2.24-2.42 2.24c-1 0-2.19-.5-3.47-1.37-3.38-2.28-7.35-3.88-10.55-4.61l.23-.64Zm3.1-27.9h5.8v-2.19h-5.8v2.19Zm54.9-5.43c.96-2.05 1.32-2.28 1.92-2.28.69 0 1.23.23 2.97 1.55s2.01 1.83 2.01 2.42-.46 1.1-1.83 1.64v2.05c0 21.92.32 26.08.32 27.72 0 3.2-2.19 5.16-5.98 5.16-.87 0-.96-.09-1.14-.96-.46-2.19-1.37-3.15-4.29-4.16l.05-.69c1.74.14 2.69.23 3.93.23 1.46 0 2.19-.27 2.19-1.78v-7.63h-9.91c.05 9.73.18 12.15.18 12.88 0 1.14-1.83 1.87-4.11 1.87-.87 0-1.32-.37-1.32-1.05 0-1.19.14-4.43.23-13.7h-9.68c-.91 7.35-3.47 11.01-8.91 15.16l-.5-.46c4.11-6.49 4.98-9.96 4.98-24.11 0-10.78-.14-13.29-.27-15.39 2.6.68 4.16 1.14 5.07 1.51H265Zm-23.97 13.88c-.05 2.38-.05 4.75-.23 7.12h9.41c0-2.83.05-5.62.05-8.45h-9.23v1.32Zm0-11.51v7.9h9.23v-7.99h-9.13l-.09.09Zm24.11-.09h-9.27c-.14.27-.41.37-.69.46v7.54h9.96v-7.99Zm0 10.27h-9.96c0 2.83.05 5.62.05 8.45h9.91v-8.45Zm-104.48 62.77c-5.25-3.81-8.04-8.49-8.04-14.67s2.79-10.86 8.04-14.67l.3.36c-4.26 4.68-5.94 8.76-5.94 14.31s1.68 9.63 5.94 14.31l-.3.36Zm17.28-14.76c0-2.34-.03-3.18-.09-4.11 1.74.48 2.76.78 3.36 1.02h5.25v-5.1h-5.58c-1.71 2.37-3.99 4.62-7.14 6.6l-.33-.3c3.09-3.72 5.19-7.95 6.39-12.27 3.81 1.08 4.47 1.41 4.47 1.89 0 .42-.48.63-1.38.75-.3.63-.63 1.23-1.02 1.83h13.2a32.1 32.1 0 0 1 2.07-2.55c3.09 2.49 3.51 2.91 3.51 3.36 0 .42-.18.69-.48.69h-9.9c-.09.21-.27.3-.51.36v4.74h3.3c.66-.9 1.23-1.62 2.01-2.49 2.97 2.49 3.36 2.94 3.36 3.3 0 .42-.18.69-.48.69h-8.19c0 1.92.03 3.81.03 5.73h6.12c.69-.93 1.41-1.86 2.13-2.67 3.27 2.7 3.63 3.24 3.63 3.54 0 .36-.18.63-.48.63h-11.4c.06 4.86.12 6.48.12 7.14 0 .81-1.29 1.29-2.7 1.29-.63 0-.93-.24-.93-.75 0-.69.09-2.37.15-7.68H176.3l-3 .15v-1.8l3 .15h1.62v-4.14Zm8.49 4.14c0-1.92.03-3.81.03-5.73h-5.1l-.15.18v5.55h5.22Zm28.56-16.44c.51-.96.75-1.14 1.08-1.14.42 0 .66.09 1.71.87.99.75 1.17.99 1.17 1.32 0 .39-.24.69-1.02 1.02v.78c0 3.24.09 4.92.09 5.61s-.93 1.14-2.28 1.14c-.57 0-.81-.21-.81-.66v-.12h-4.92v16.29c0 .75-.9 1.2-2.46 1.2-.54 0-.81-.21-.81-.66 0-1.05.15-4.32.15-22.38 0-1.95-.03-3.09-.09-4.26 1.71.48 2.7.75 3.27.99h4.92Zm-.06 1.5h-4.77l-.15.15v1.92h4.92v-2.07Zm0 3.57h-4.92v2.25h4.92v-2.25Zm1.77 16.62c0 .69-.87 1.14-2.31 1.14-.51 0-.78-.24-.78-.75 0-.6.09-2.13.09-7.95 0-1.53-.03-2.31-.09-3.15 1.62.42 2.55.69 3.09.9h5.7c.51-1.02.78-1.17 1.08-1.17.45 0 .9.15 1.77.84.96.75 1.14 1.05 1.14 1.38 0 .39-.24.6-.99.96v.78c0 4.44.09 5.82.09 6.45 0 .87-.93 1.26-2.31 1.26-.51 0-.78-.21-.78-.72v-.57h-5.7v.6Zm5.7-6.09v-2.22h-5.64l-.06.06v2.16h5.7Zm-5.7 3.99h5.7v-2.49h-5.7v2.49Zm7.32-10.77c-.18.54-.99.87-2.22.87-.57 0-.81-.21-.81-.66 0-.72.09-2.55.09-6.54 0-1.65 0-2.25-.09-3.36 1.5.39 2.43.66 2.97.87h5.37c.57-1.14.9-1.32 1.26-1.32.45 0 .72.15 1.71.93 1.05.84 1.29 1.08 1.29 1.47s-.3.69-1.17 1.05v1.32c0 15.36.18 18.51.18 19.59 0 2.01-1.41 3.24-3.63 3.24-.54 0-.6-.06-.75-.63-.33-1.35-1.08-2.01-2.85-2.61l.03-.45c1.02.12 2.13.21 2.97.21.75 0 .93-.18.93-1.14v-12.84H224Zm5.28-5.25v-2.07h-5.1l-.12.18v1.89h5.22Zm-5.22 3.75h5.22v-2.25h-5.22v2.25Zm21.93 19.38c4.26-4.68 5.94-8.76 5.94-14.31s-1.68-9.63-5.94-14.31l.3-.36c5.25 3.81 8.04 8.49 8.04 14.67s-2.79 10.86-8.04 14.67l-.3-.36Zm-138.26 65.51c2.97-4.4 4.79-6.45 9.65-11.19 7.88-7.76 9.93-11.19 9.93-16.27 0-4.28-2.4-6.91-6.39-6.91-3.14 0-5.48 1.77-5.48 4.17 0 .69.11 1.14.4 2 .34.91.46 1.43.46 1.94 0 2-1.54 3.71-3.43 3.71-2.05 0-3.77-2-3.77-4.34 0-5.59 5.65-9.99 12.62-9.99 7.48 0 12.56 4.22 12.56 10.45 0 5.25-2.63 8.68-11.19 14.79-5.31 3.77-7.71 5.82-9.93 8.5h11.19c5.14 0 6.28-.86 8.33-6.62l2.05.57-2.8 12.27h-24.2v-3.08Zm64.22-33.68c-8.68 14.73-12.27 23.97-12.16 32.08.06 3.37-1.43 5.59-3.88 5.59-2.11 0-3.6-1.88-3.6-4.45 0-3.2 1.66-7.48 5.77-14.61 3.37-5.94 6.39-10.62 9.65-14.78h-10.67c-6.74 0-6.85.11-9.76 7.48l-1.88-.63 2.91-12.96h23.63v2.28Zm11.25 18.5c.69-6.05 1.08-11.64 1.43-20.78h21.06l-1.2 5.99h-17.7c-.17 3.42-.4 5.94-.91 11.99 2.68-2.74 5.71-4 9.36-4 7.25 0 12.56 5.31 12.56 12.44 0 7.82-6.17 13.53-14.78 13.53-6.62 0-11.65-3.43-11.65-8.05 0-2.11 1.66-3.77 3.6-3.77s3.54 1.77 3.54 4.17c0 .4-.06.68-.17 1.26-.06.29-.06.4-.06.51 0 2.11 2 3.48 4.79 3.48 5.08 0 7.82-3.65 7.82-10.5 0-6.34-2.57-9.82-7.19-9.82-3.48 0-5.65 1.14-8.62 4.4l-1.88-.86Zm47.73-21.7c7.71 0 13.76 8.96 13.76 20.44s-6.05 20.44-13.76 20.44-13.87-9.25-13.87-20.44 6.17-20.44 13.87-20.44Zm-.06 38.54c4.62 0 6.91-5.99 6.91-18.04s-2.28-18.15-6.85-18.15-7.02 6.05-7.02 17.41c0 12.67 2.23 18.78 6.96 18.78Zm38.56 1.11c0 1-1.36 1.64-3.36 1.64-.8 0-1.16-.32-1.16-.92 0-1.48.2-6.72.2-28.36 0-2.6 0-4.32-.12-6.04 2.64.76 4 1.24 4.72 1.6h23.12c.84-1.8 1.16-2 1.68-2 .6 0 1.08.2 2.6 1.36 1.52 1.16 1.76 1.6 1.76 2.12s-.4.96-1.6 1.44v1.8c0 19.12.28 22.76.28 24.2 0 2.8-2.12 4.52-5.44 4.52-.72 0-.8-.08-1-.84-.48-1.96-1.72-2.8-4.28-3.68l.04-.6c1.32.16 2.68.24 4.16.24 1.28 0 1.92-.24 1.92-1.56v-9.36h-23.52v14.44Zm9.16-16.44v-13.64h-8.96l-.2.24v13.4h9.16Zm14.36-13.64h-9.44c-.12.24-.36.32-.6.4v13.24h10.04v-13.64Zm-38.16 50.03c2.5.22 3.47 1.42 3.47 2.5 0 .83-.5 1.35-1.32 1.35-.68 0-1.05-.42-1.2-1.12-.2-.95-.47-1.62-.95-2.12.05 7.92.15 9.85.15 10.57 0 .62-.87 1.05-1.97 1.05-.48 0-.75-.22-.75-.6 0-.72.1-2.47.15-9.02-.87 1.42-2.02 2.8-3.37 3.95l-.3-.22c1.6-2.57 2.75-5.85 3.3-9.07h-.97l-2.2.12v-1.5l2.2.12h1.37v-3.95c-1.15.1-2.32.2-3.5.25l-.05-.38c2.45-.55 5.12-1.67 6.92-2.77 2.1 1.28 2.22 1.47 2.22 1.72s-.2.38-1.17.4c-.5.12-1.05.25-1.62.35-.02.33-.17.5-.4.6v3.77h.27c.4-.53.75-.97 1.32-1.6 2 1.8 2.12 2.12 2.12 2.32 0 .3-.15.53-.4.53h-3.32v2.75Zm.18 12.07c2.05-.8 3.55-2.02 4.6-4 .82-1.47 1.2-3.12 1.47-4.77-.32.2-.8.33-1.45.33-.55 0-.8-.22-.8-.65 0-.6.12-1.88.12-5 0-1.25-.02-2.17-.07-3.05 1.45.4 2.27.65 2.75.85h3.4c.75-1.67 1.55-3.85 2.25-6.37 3 .88 3.35 1.1 3.35 1.42 0 .3-.3.53-1.02.62-1.1 1.72-2.32 3.25-3.35 4.32h1.7c.38-.78.6-.98.85-.98.33 0 .65.1 1.57.83.85.65 1.05.92 1.05 1.15 0 .3-.17.53-.82.88v.8c0 1.77.12 3.12.12 3.77 0 .77-.8 1.12-2.1 1.12-.42 0-.67-.17-.67-.6h-.15c-.08.15-.18.2-.33.25v5.87c0 .52.27.57 1 .57.95 0 1.4-.17 1.8-.85.33-.55.65-1.37.92-2.2l.38.08c-.12.92-.2 1.8-.2 2.2 0 .47 1 .58 1 1.35 0 .97-.92 1.75-4.07 1.75-2.95 0-3.55-.43-3.55-1.62 0-1.08.12-2.82.12-5.85v-1.55h-3.35c-.05.15-.12.3-.25.4 2.9.5 3.15.67 3.15.95 0 .3-.2.48-.9.67-1.07 4.8-3.87 7.15-8.42 7.62l-.1-.32Zm4.62-22.19c3 .73 4.22 2.27 4.22 3.6 0 1.08-.67 1.7-1.47 1.7-.75 0-1.27-.38-1.42-1.42-.2-1.37-.72-2.7-1.57-3.6l.25-.28Zm2 7.15-.07.08v4.4h6.4v-4.47h-6.32Zm37.6 11.89c-.58.47-1 1.07-1.27 1.72-.2.62-.3.7-.95.75-1.62.12-3.55.17-6.6.17-6.47 0-8.02-.78-9.75-4.1-.88 1.25-1.88 2.42-2.85 3.38-.1.6-.27.9-.57.9s-.57-.4-1.75-2.9c1.22-.47 2.37-.95 3.45-1.5v-6.85h-.92l-2 .12v-1.5l2 .12h.9c.45-.88.75-1.2 1.02-1.2.35 0 .62.05 1.57.8.92.72 1.02 1 1.02 1.25 0 .3-.23.58-.9.88v6.57c1.5 1.25 3.55 1.55 8.65 1.55 3.17 0 5.92-.17 8.95-.55v.38Zm-22.07-19.52c2.77.38 4.47 1.72 4.47 3.2 0 1.1-.67 1.62-1.55 1.62-.6 0-1.07-.38-1.25-1.05-.38-1.47-1-2.72-1.82-3.45l.15-.33Zm12.69 1.2c.35-.65.58-.78.75-.78.27 0 .57.12 1.2.65.52.42.77.7.77 1s-.25.58-1.25 1.03c.9 5.17 3.87 9.45 8.05 12.17l-.15.35c-.85.17-1.65.65-2.3 1.33-.23.27-.38.4-.5.4s-.27-.12-.48-.35c-2.8-3.12-4.32-6.65-4.9-10.92-1.48 5.05-4.35 9-8.4 11.7l-.25-.27c3.02-3.42 5.45-8.67 6.7-15.05h-3.65l-2.15.12v-1.5l2.15.12h4.4Z" style="fill:#2e3192"/></g></svg>