<?xml version="1.0" encoding="UTF-8"?>
<svg id="_レイヤー_2" data-name="レイヤー 2" xmlns="http://www.w3.org/2000/svg" width="386.96" height="80.09" viewBox="0 0 386.96 80.09">
  <defs>
    <style>
      .cls-1 {
        fill: #fff;
      }
    </style>
  </defs>
  <g id="_レイヤー_3" data-name="レイヤー 3">
    <g>
      <g>
        <path class="cls-1" d="M62.83,53.48c-1.67,0-3.02,1.35-3.02,3.02s1.36,3.02,3.02,3.02,3.02-1.35,3.02-3.02-1.36-3.02-3.02-3.02Z"/>
        <polygon class="cls-1" points="81.76 70.81 74.53 58.28 67.29 70.81 81.76 70.81"/>
        <path class="cls-1" d="M40.88,0L0,70.81h65.5l8.13-14.09L40.88,0ZM62.83,60.82c-2.38,0-4.32-1.94-4.32-4.32s1.94-4.32,4.32-4.32,4.32,1.94,4.32,4.32-1.94,4.32-4.32,4.32Z"/>
      </g>
      <g>
        <path class="cls-1" d="M195.38,38.41h-4.81l-9.48,27.6-3.75.55v2.5h10.03v-2.5l-3.58-.57,1.89-5.82h9.38l1.91,6.01-3.59.48v2.4h14.35v-2.4l-2.82-.33-9.54-27.92ZM186.57,57.46l3.86-11.88,3.78,11.88h-7.64Z"/>
        <path class="cls-1" d="M224.44,48.25c.3,0,.59.02.87.05l.3,2.35c.23,3.28,1.74,4.41,3.58,4.41,1.67,0,2.63-.76,3.14-2.43-.34-3.71-3.78-6.78-8.7-6.78-6.95,0-12.57,4.41-12.57,12.02s5.25,11.89,11.59,11.89c4.41,0,7.76-1.8,9.55-5.6l-1.62-1.43c-1.34,1.56-3.01,2.59-5.24,2.59-3.91,0-6.49-2.94-6.49-8.3,0-6.29,2.92-8.77,5.59-8.77Z"/>
        <path class="cls-1" d="M258.22,66.41c-.67,0-1.05-.44-1.05-1.36v-10.44c0-6.23-2.36-8.76-8.33-8.76-6.7,0-10.45,2.62-10.7,6.5.36,1.53,1.48,2.33,3.14,2.33,1.79,0,3.3-1.25,3.42-4.34l.21-2.02c.46-.05.87-.07,1.28-.07,2.97,0,3.77,1.22,3.77,5.34v1.52c-1.32.35-2.6.7-3.54.98-7.18,2.08-9.01,4.41-9.01,7.72,0,3.83,2.5,5.95,6.1,5.95,3.18,0,4.65-1.28,6.7-3.42.67,2.15,2.33,3.39,5.06,3.39s4.49-.97,5.6-3.52l-1.23-.82c-.55.77-.92,1.02-1.41,1.02ZM247.08,66c-1.57,0-2.8-1.08-2.8-3.41,0-2.19,1.37-3.76,3.48-4.65.57-.26,1.34-.53,2.19-.8v7.56c-1.33.95-2.03,1.29-2.88,1.29Z"/>
        <path class="cls-1" d="M287.37,42.23l.19-6.51-.75-.47-9.84,2.09v1.97l3.26.47v8.55c-1.44-1.63-3.13-2.48-5.63-2.48-5.25,0-10.25,4.58-10.25,12.16s4.02,11.75,9.29,11.75c2.64,0,4.74-.92,6.52-2.87l.39,2.7,9.1-.53v-2.17l-2.29-.51v-24.15ZM272.24,57.92c0-5.5,2.15-8.13,4.97-8.13,1.03,0,1.89.34,2.75.98v13.88c-.84.67-1.77,1.08-2.87,1.08-2.86,0-4.85-2.69-4.85-7.81Z"/>
        <path class="cls-1" d="M315.01,55.68c0-5.63-3.48-9.83-9.62-9.83s-11.99,4.21-11.99,11.97,4.82,11.94,11.6,11.94c4.5,0,7.85-1.79,9.76-5.43l-1.61-1.51c-1.41,1.45-3.13,2.5-5.64,2.5-3.24,0-5.9-2.23-6.25-7.13h13.49c.19-.77.26-1.5.26-2.51ZM305.26,55.73h-4.01c.22-5.65,1.87-7.48,3.68-7.48,1.69,0,3.15,1.51,3.15,4.57,0,2.08-.58,2.91-2.81,2.91Z"/>
        <path class="cls-1" d="M357.54,59.28v-5.2c0-5.54-2.09-8.23-6.78-8.23-2.66,0-4.92.99-7.52,4.14-.91-2.77-2.97-4.14-6.15-4.14-2.8,0-5.06,1.31-7.29,3.93l-.28-3.43-.8-.5-9.18,3.09v1.83l2.85.42c.13,1.86.14,2.84.14,5.4v2.69c0,1.96-.02,4.79-.06,7.07l-2.51.54v2.17h12.25v-2.17l-2.19-.47c-.04-2.29-.07-5.16-.07-7.14v-7.23c1.17-.98,2.53-1.7,3.85-1.7,2.05,0,2.7,1.19,2.7,4.45v4.48c0,2.01-.02,4.81-.06,7.06l-2.41.55v2.17h12.01v-2.17l-2.19-.48c-.04-2.26-.07-5.1-.07-7.13v-5.42c0-.65-.03-1.26-.1-1.82,1.26-1.06,2.57-1.68,3.93-1.68,1.91,0,2.65.92,2.65,4.42v4.51c0,2.02-.02,4.82-.06,7.07l-2.24.54v2.17h11.98v-2.17l-2.33-.49c-.04-2.26-.06-5.09-.06-7.11Z"/>
        <path class="cls-1" d="M386.96,46.56h-8.79v2.03l3.08.55-4.44,12.58-4.54-12.59,3.14-.57v-2.01h-13.26v2.03l2.19.38,9.29,21.86v.03c-.75,2.11-1.86,3.94-3.18,5.33l-.3-.44c-1.26-1.83-2.76-2.16-4-2.16-1.83,0-3.45.95-3.84,3,.17,1.98,2.32,3.51,4.81,3.51,4.32,0,6.42-3.17,8.72-9.13l8.43-21.9,2.71-.47v-2.03Z"/>
        <path class="cls-1" d="M99.94,41.92h25.21c.59,0,.93-.19,1.02-.56-.45-.4-.95-.81-1.5-1.25-.55-.43-1.08-.85-1.58-1.23-.5-.39-1.09-.83-1.74-1.32l-2.22,2.8h-19.47v.6h0l.28.96Z"/>
        <path class="cls-1" d="M128.07,64.48l-.11-5.63h-.35c-.28.85-.55,1.62-.79,2.32-.25.7-.48,1.31-.69,1.83-.21.52-.4.9-.56,1.16-.12.23-.24.39-.37.46-.13.07-.31.11-.55.11-.23.02-.51.03-.83.03h-3.4c-.42,0-.7-.05-.85-.16-.14-.11-.21-.3-.21-.58v-13.24h8.66c.61,0,.96-.19,1.06-.56-.47-.4-.99-.83-1.57-1.3-.58-.47-1.12-.91-1.64-1.32-.52-.41-1.11-.87-1.8-1.39l-2.28,2.99h-25.74v.6h0l.28.99h8.33c-.02,1.84-.12,3.64-.34,5.37-.23,1.89-.68,3.69-1.32,5.4-.65,1.71-1.57,3.31-2.76,4.81-1.2,1.49-2.77,2.86-4.72,4.1l.14.32c2.89-.85,5.26-1.94,7.13-3.27,1.87-1.34,3.34-2.89,4.42-4.66,1.08-1.77,1.87-3.71,2.36-5.83.46-1.96.75-4.04.88-6.23h3.7v14.61c0,1.15.13,2.04.4,2.66.27.62.76,1.06,1.48,1.3.72.25,1.73.37,3.05.37h3.1c1.92,0,3.43-.11,4.51-.33s1.84-.56,2.29-1.02c.45-.46.67-1.03.67-1.71,0-.52-.1-.94-.3-1.27-.2-.33-.63-.63-1.29-.91Z"/>
        <path class="cls-1" d="M147,56.74l-.11-.32c-1.35.38-2.68.75-4.01,1.11v-9.21h3.49c.52,0,.82-.19.91-.56-.33-.47-.74-.99-1.23-1.57s-1.1-1.27-1.83-2.1l-1.34,2.41v-7.06c.49-.07.83-.19,1-.37s.28-.38.3-.62l-6.05-.53v8.8h-3.03v.6h0l.28.99h2.75v10.47c-.19.05-.39.1-.58.14-1.3.32-2.29.55-2.97.69l2.36,5.63c.23-.07.44-.21.62-.4s.3-.42.37-.65c2.18-1.6,4.02-3.03,5.53-4.29,1.5-1.27,2.69-2.32,3.56-3.17Z"/>
        <path class="cls-1" d="M168.39,38.17c-.85-.28-2.02-.39-3.52-.32l-.25.18c.38.45.76,1.03,1.14,1.76.39.73.64,1.46.76,2.18.63.4,1.23.57,1.8.51.56-.06,1.04-.26,1.43-.6.39-.34.63-.75.72-1.21.09-.47-.02-.93-.33-1.39-.32-.46-.9-.83-1.74-1.11Z"/>
        <path class="cls-1" d="M169.26,65.5l.85-6.3-.35-.07c-.31.75-.65,1.52-1.04,2.31s-.71,1.41-.97,1.88c-.16.31-.31.46-.44.48-.13.01-.29-.13-.48-.44-.75-1.1-1.37-2.34-1.87-3.7,1.42-2.33,2.66-5.05,3.7-8.2.47.02.8-.02,1-.12.2-.11.35-.28.44-.51l-5.35-1.83c-.36,1.61-.76,3.12-1.21,4.54-.05-.32-.11-.62-.15-.95-.25-2.11-.39-4.28-.42-6.51,0-.02,0-.05,0-.07h6.07c.56,0,.89-.19.99-.56-.49-.44-1.06-.91-1.69-1.41-.63-.49-1.41-1.09-2.32-1.8l-2.18,2.78h-.87c-.02-1.87,0-3.74.06-5.6.47-.05.79-.16.97-.35.18-.19.28-.4.3-.63l-5.88-.6c0,2.45.05,4.84.12,7.18h-5.83l-5.32-1.83v9.19c0,2-.11,4.04-.32,6.14-.21,2.1-.69,4.15-1.43,6.16-.74,2.01-1.88,3.89-3.43,5.65l.28.28c2.18-1.17,3.91-2.51,5.19-4s2.23-3.06,2.85-4.7c.05-.12.08-.24.12-.36.34.13.65.27.91.47.35.26.61.53.77.81.19.26.31.6.37,1.04.06.43.09.89.09,1.36.7-.02,1.35-.1,1.94-.23s1.1-.37,1.55-.72c.52-.42.9-1.07,1.16-1.94.26-.87.44-2.06.55-3.57.11-1.51.18-3.43.23-5.76.33-.05.61-.13.85-.26,0,0,0,0,0,0,.05.43.08.87.14,1.29.3,2.26.75,4.42,1.34,6.5-.86,1.52-1.81,2.93-2.87,4.18-1.63,1.94-3.55,3.64-5.76,5.12l.28.49c2.79-1.17,5.22-2.6,7.27-4.29.79-.65,1.53-1.37,2.23-2.12.54,1.31,1.15,2.57,1.87,3.78.26.42.62.85,1.07,1.29.46.43.97.8,1.53,1.11.56.3,1.14.49,1.74.55.6.06,1.18-.09,1.74-.44.4-.26.55-.78.46-1.57-.09-.79-.39-1.82-.88-3.12ZM153.24,60.89c-.12.14-.29.21-.53.21-.14,0-.35,0-.62-.02-.27-.01-.56-.02-.86-.04-.13,0-.25-.02-.38-.02.44-1.35.75-2.7.89-4.04.18-1.64.26-3.18.26-4.61v-.07h1.99c-.05,2.58-.12,4.54-.21,5.86-.11,1.49-.29,2.4-.55,2.73ZM155.81,49.24l-2.15,2.08h-1.65v-5.32h6.56c0,.06,0,.13,0,.19.08,1.94.23,3.82.42,5.66l-3.18-2.62Z"/>
        <g>
          <path class="cls-1" d="M131.9,7.01h3.99v.46c-.8,1.5-1.94,2.82-3.42,3.95-1.48,1.13-3.18,2.09-5.08,2.87l-.26-.37c1.12-.89,2.09-1.95,2.9-3.17.81-1.22,1.43-2.46,1.87-3.74ZM136.75,16.59h4.42c-.49,1.98-1.33,3.72-2.51,5.22-1.18,1.5-2.71,2.77-4.58,3.79-1.87,1.03-4.1,1.83-6.69,2.42l-.14-.31c1.92-.84,3.54-1.81,4.86-2.92,1.32-1.11,2.36-2.36,3.12-3.74.76-1.38,1.26-2.87,1.51-4.46ZM127.39,16.25h11.01l1.88-2.37c.78.59,1.44,1.09,1.97,1.51.53.42,1.01.82,1.43,1.2-.08.3-.34.46-.8.46h-15.26l-.23-.8ZM127.48,6.81h11.12l1.57-2.2c.65.55,1.19,1.03,1.63,1.43.44.4.83.77,1.17,1.11-.06.3-.3.46-.74.46h-14.52l-.23-.8ZM131.95,13.57l4.85.77c-.04.21-.15.38-.34.51-.19.13-.48.21-.88.23-.17.42-.4.96-.7,1.61-.3.66-.62,1.35-.97,2.1-.35.74-.7,1.45-1.06,2.14-.35.68-.66,1.27-.93,1.77-.44.17-1.02.24-1.74.2-.72-.04-1.45-.22-2.17-.54.32-.55.68-1.22,1.08-2.01.4-.79.79-1.61,1.17-2.47.38-.86.72-1.66,1.03-2.42.3-.76.52-1.39.66-1.88ZM128.56,1.56c1.14.25,2.02.58,2.62.98.61.41,1.01.83,1.2,1.27.19.44.23.85.11,1.24s-.33.7-.66.94c-.32.24-.7.34-1.13.31-.43-.03-.86-.23-1.3-.61,0-.7-.12-1.42-.36-2.14-.24-.72-.49-1.34-.76-1.85l.26-.14ZM131.93,20.47c2.02-.15,3.65-.1,4.91.14s2.2.61,2.82,1.1c.63.48,1.01,1,1.16,1.55.14.55.09,1.05-.16,1.5-.25.45-.62.77-1.13.96-.5.19-1.07.15-1.7-.11-.29-.38-.72-.85-1.31-1.4-.59-.55-1.28-1.13-2.08-1.74-.8-.61-1.66-1.18-2.6-1.71l.09-.29ZM132.98.91l4.65.4c-.02.17-.1.32-.23.44-.13.12-.37.21-.71.27v10.55c0,.1-.16.21-.47.36s-.7.27-1.17.38c-.47.11-.94.17-1.41.17h-.66V.91ZM136.35,8.09c1.33.08,2.39.29,3.17.64.78.35,1.33.76,1.65,1.21.32.46.47.91.43,1.35-.04.45-.21.83-.51,1.16-.3.32-.69.51-1.16.56-.47.05-.97-.1-1.53-.44-.11-.51-.3-1.03-.54-1.55-.25-.52-.52-1.03-.83-1.51-.3-.48-.61-.91-.91-1.27l.23-.14ZM138.11,1.56l3.96,1.43c-.08.17-.2.31-.37.41s-.42.15-.74.13c-.55.51-1.14,1.02-1.77,1.51s-1.23.9-1.8,1.23l-.4-.2c.17-.55.36-1.24.56-2.05.2-.82.39-1.64.56-2.45ZM148.35,7.44h4.48c-.17,2.34-.52,4.56-1.06,6.66-.53,2.1-1.35,4.04-2.44,5.82-1.09,1.78-2.57,3.35-4.42,4.72-1.85,1.37-4.2,2.48-7.03,3.34l-.17-.29c2.07-1.18,3.79-2.51,5.15-3.99,1.36-1.48,2.43-3.09,3.22-4.82.79-1.73,1.35-3.56,1.7-5.48.34-1.92.53-3.91.57-5.96ZM143.79.96l5.42,1.23c-.06.19-.18.34-.36.46-.18.11-.43.18-.76.2-.65,2.66-1.5,5.02-2.55,7.09-1.06,2.06-2.36,3.82-3.92,5.26l-.34-.2c.44-1.24.83-2.63,1.18-4.18.35-1.55.65-3.17.88-4.86.24-1.69.39-3.36.44-4.99ZM144.02,7.9c.38,2.72,1.03,5.13,1.94,7.23.91,2.1,2.12,3.91,3.62,5.43,1.5,1.52,3.32,2.78,5.45,3.77l-.09.29c-.97.21-1.74.59-2.3,1.16-.56.56-.97,1.31-1.24,2.24-1.73-1.29-3.12-2.9-4.16-4.82-1.05-1.92-1.84-4.12-2.37-6.59-.53-2.47-.92-5.17-1.17-8.1l.31-.6ZM144.25,7.44h4.99l2-2.65c.49.4.93.75,1.3,1.06.37.3.76.63,1.17.97.41.34.77.67,1.1.97-.08.3-.34.46-.8.46h-9.76v-.8Z"/>
          <path class="cls-1" d="M160.65,4.87l.34-.03c.7,1.31,1.1,2.5,1.2,3.55.09,1.06-.02,1.94-.34,2.65-.32.71-.76,1.22-1.31,1.53-.57.32-1.16.4-1.75.21s-1-.58-1.21-1.18c-.19-.61-.14-1.13.16-1.57.29-.44.7-.78,1.21-1.03.51-.32.96-.86,1.35-1.61.39-.75.51-1.59.36-2.52ZM157.8,17.82h20.59l2.17-2.88c.53.42,1.01.79,1.43,1.13.42.33.85.68,1.3,1.06.45.37.85.72,1.21,1.04-.08.3-.36.46-.86.46h-25.61l-.23-.8ZM161.28,7.32h19.97v.8h-19.97v-.8ZM161.99,1.22c1.48.19,2.64.51,3.48.97.84.46,1.42.96,1.74,1.51.32.55.45,1.09.37,1.61-.08.52-.3.95-.67,1.28-.37.33-.82.51-1.35.54-.53.03-1.09-.19-1.68-.64-.06-.61-.19-1.22-.4-1.84-.21-.62-.46-1.21-.76-1.78-.3-.57-.61-1.07-.96-1.51l.23-.14ZM162.62,11.2h13.15v.8h-12.89l-.26-.8ZM168.75,14.86l5.33.43c-.06.38-.37.63-.94.74v7.22c0,.93-.13,1.73-.4,2.4-.27.67-.81,1.19-1.63,1.58-.82.39-2.07.66-3.77.81-.08-.68-.18-1.27-.31-1.75-.13-.48-.37-.89-.71-1.21-.34-.32-.75-.6-1.23-.83-.48-.23-1.22-.44-2.22-.63v-.34c.61.04,1.15.07,1.63.1.48.03.96.06,1.47.09.5.03.96.05,1.35.07.4.02.67.03.83.03.23,0,.39-.04.47-.11.09-.08.13-.21.13-.4v-8.19ZM168.55.88c1.43.32,2.52.74,3.28,1.25.76.51,1.26,1.06,1.48,1.63.23.57.27,1.1.11,1.6-.15.49-.44.88-.86,1.17-.42.29-.9.4-1.45.36-.55-.05-1.1-.33-1.65-.84.02-.61-.02-1.21-.13-1.8-.1-.59-.25-1.16-.43-1.73-.18-.56-.38-1.07-.58-1.53l.23-.11ZM174.43,11.2h-.34l2.28-2.14,3.68,3.51c-.11.13-.25.22-.41.27-.16.05-.4.09-.73.13-.67.3-1.45.64-2.35,1-.9.36-1.81.71-2.72,1.04-.91.33-1.75.61-2.51.84l-.14-.17c.36-.42.75-.89,1.16-1.43.41-.53.8-1.07,1.17-1.63.37-.55.68-1.03.93-1.43ZM176.36.88l5.11,1.91c-.08.15-.2.28-.39.37-.18.1-.43.12-.76.09-.74.65-1.64,1.38-2.7,2.2-1.06.82-2.12,1.54-3.18,2.17h-.68c.32-.65.65-1.36.97-2.15.32-.79.63-1.59.91-2.4s.52-1.54.71-2.18ZM179.13,7.32h-.31l2.2-2.2,3.77,3.54c-.11.13-.25.23-.41.29-.16.06-.4.1-.73.11-.46.29-1,.58-1.64.9-.64.31-1.29.61-1.97.9-.68.29-1.31.52-1.9.71l-.14-.14c.15-.4.3-.85.44-1.34.14-.49.28-.99.4-1.48.12-.49.22-.92.3-1.28Z"/>
          <path class="cls-1" d="M190.93,16.95c-.46,0-.87-.11-1.25-.34-.37-.23-.68-.53-.9-.9-.23-.37-.34-.79-.34-1.25s.11-.88.34-1.26.53-.68.9-.9c.37-.22.79-.33,1.25-.33s.88.11,1.26.33c.38.22.68.52.9.9.22.38.33.8.33,1.26s-.11.87-.33,1.25c-.22.37-.52.68-.9.9-.38.23-.8.34-1.26.34Z"/>
          <path class="cls-1" d="M198.19,18.05h22.22l1.8-2.62c.44.4.83.75,1.17,1.06.34.3.7.63,1.07.97.37.34.7.66.98.94-.08.3-.34.46-.8.46h-26.21l-.23-.8ZM198.25,4.73h6.76V.94l4.99.43c-.02.19-.09.35-.21.48-.12.13-.38.23-.76.29v2.6h5.16V.94l5.11.43c-.02.19-.1.35-.23.48s-.39.23-.77.29v2.6h1.6l1.91-2.62c.48.38.9.72,1.27,1.03.37.3.75.63,1.14.97.39.34.74.67,1.04.97-.08.3-.34.46-.8.46h-6.16v2.25c0,.17-.34.36-1.03.56s-1.49.3-2.42.3h-.66v-3.11h-5.16v2.42c0,.1-.16.21-.47.36-.31.14-.73.26-1.24.36-.51.1-1.07.14-1.65.14h-.66v-3.28h-6.56l-.2-.8ZM209.4,7.32l5.05.48c-.02.19-.1.35-.24.48-.14.13-.39.23-.76.29v5.68c-.02,1.25-.15,2.47-.4,3.64-.25,1.17-.68,2.28-1.3,3.32-.62,1.05-1.48,2.01-2.58,2.9-1.1.88-2.52,1.66-4.25,2.32-1.73.67-3.84,1.2-6.33,1.6l-.11-.29c2.32-.78,4.2-1.66,5.65-2.65,1.44-.99,2.55-2.06,3.31-3.21.76-1.15,1.28-2.37,1.55-3.67.28-1.29.41-2.62.41-3.99v-6.9ZM202.7,11.26v-1.54l4.14,1.54h9.44l1.68-2.11,3.96,2.68c-.1.13-.24.25-.43.34-.19.1-.48.18-.86.26v6.13h-4.08v-6.5h-9.98v6.5h-3.88v-7.3ZM213.28,18.28c.51,1.01,1.19,1.85,2.04,2.52.85.68,1.81,1.22,2.9,1.64,1.08.42,2.24.74,3.48.96,1.24.22,2.49.39,3.77.5v.34c-.78.25-1.42.69-1.93,1.34-.5.65-.86,1.46-1.07,2.45-1.62-.53-3.04-1.18-4.28-1.95-1.24-.77-2.29-1.76-3.15-2.98-.87-1.22-1.55-2.77-2.04-4.65l.29-.17Z"/>
          <path class="cls-1" d="M228.26,6.73h7.27l1.6-2.14c.67.53,1.23.99,1.7,1.38.47.39.88.76,1.24,1.1-.08.3-.33.46-.77.46h-10.81l-.23-.8ZM229.25,18.16v-1.45l3.68,1.45h3.79v.8h-3.91v7.93c0,.1-.15.23-.44.41-.3.18-.68.34-1.14.48-.47.14-.96.21-1.47.21h-.51v-9.84ZM229.28,10.46h5.13l1.57-2.11c.67.53,1.22.99,1.67,1.37.45.38.84.74,1.18,1.08-.06.3-.31.46-.77.46h-8.56l-.23-.8ZM229.28,14.2h5.13l1.57-2.11c.67.53,1.22.99,1.67,1.37.45.38.84.74,1.18,1.08-.06.3-.31.46-.77.46h-8.56l-.23-.8ZM229.43,3.1h4.88l1.63-2.17c.67.55,1.23,1.02,1.7,1.41.47.39.88.76,1.24,1.1-.08.3-.33.46-.77.46h-8.44l-.23-.8ZM231.08,24.81h5.65v.8h-5.65v-.8ZM234.96,18.16h-.26l1.6-1.71,3.28,2.48c-.08.1-.2.2-.37.3s-.39.18-.66.21v6.85c0,.08-.16.19-.48.36-.32.16-.71.31-1.17.44-.46.13-.89.2-1.31.2h-.63v-9.13ZM239.01,14.14h13.26l1.37-2.42c.55.63,1.01,1.16,1.38,1.58s.68.82.93,1.18c-.08.3-.32.46-.74.46h-15.97l-.23-.8ZM239.67,3.39h9.67l1.88-2.45c.46.36.86.68,1.21.97.35.29.72.59,1.11.91.39.32.74.63,1.04.91-.06.3-.32.46-.8.46h-13.89l-.23-.8ZM240.21,7.9h10.15v.8h-9.9l-.26-.8ZM240.86,17.45v-1.54l3.99,1.54h6.76v.8h-6.93v8.53c0,.11-.16.27-.48.46-.32.19-.73.36-1.23.51-.49.15-1.02.23-1.57.23h-.54v-10.52ZM243.49,3.5h3.77c-.08.76-.18,1.62-.3,2.58-.12.96-.25,1.95-.39,2.97-.13,1.02-.27,1.99-.41,2.92-.14.93-.28,1.75-.41,2.45h-3.77c.13-.72.27-1.55.41-2.5.14-.94.29-1.92.43-2.94.14-1.02.27-2,.39-2.95.11-.95.21-1.8.29-2.54ZM242.63,24.64h8.39v.8h-8.39v-.8ZM248.65,7.9h-.29l1.68-1.74,3.28,2.45c-.15.25-.49.43-1.03.54v5.28h-3.65v-6.53ZM249.39,17.45h-.29l1.77-1.91,3.59,2.74c-.08.1-.2.2-.39.31-.18.11-.41.2-.7.26v7.73c0,.08-.18.2-.54.38-.36.18-.8.34-1.31.48s-1,.21-1.45.21h-.68v-10.21Z"/>
          <path class="cls-1" d="M267.45,18.93h20.99l1.91-2.54c.48.38.89.72,1.26,1.01.36.29.74.61,1.13.94.39.33.75.64,1.07.93-.08.3-.34.46-.8.46h-25.33l-.23-.8ZM268.33,4.22h19.4l1.91-2.62c.46.38.87.72,1.23,1.03.36.3.74.63,1.13.97.39.34.74.67,1.04.97-.08.3-.34.46-.8.46h-23.67l-.23-.8ZM271.04,7.55v-1.6l4.16,1.6h13.32v.8h-13.58v8.04c0,.11-.17.27-.5.47-.33.2-.76.38-1.27.53s-1.04.23-1.57.23h-.57V7.55ZM272.58,20.39c1.64-.02,2.94.15,3.91.5.97.35,1.67.79,2.11,1.33.44.53.66,1.07.66,1.63s-.17,1.04-.5,1.45c-.33.42-.78.67-1.33.77-.55.1-1.16-.05-1.83-.43-.15-.63-.39-1.25-.73-1.88-.33-.63-.71-1.22-1.14-1.77-.43-.55-.87-1.03-1.33-1.43l.17-.17ZM272.5,11.18h15.74v.8h-15.74v-.8ZM272.5,14.91h15.74v.8h-15.74v-.8ZM278.43,1.05l5.02.43c-.02.19-.1.36-.23.5-.13.14-.4.24-.8.3v13.09h-3.99V1.05ZM283.16,16.54l4.93.4c-.06.4-.37.64-.94.71v5.99c0,.88-.11,1.62-.33,2.24-.22.62-.68,1.1-1.37,1.45-.69.35-1.76.58-3.21.7-.04-.61-.1-1.14-.2-1.58-.1-.45-.27-.81-.51-1.1-.23-.29-.52-.54-.87-.76-.35-.22-.9-.39-1.64-.53v-.34c.63.04,1.16.07,1.6.09.44.02.85.04,1.24.06.39.02.65.03.78.03.21,0,.35-.03.41-.1.07-.07.1-.17.1-.3v-6.96ZM286.02,7.55h-.29l1.77-1.94,3.65,2.77c-.08.11-.21.23-.4.34-.19.11-.44.2-.74.26v6.67c0,.08-.19.2-.56.37-.37.17-.81.32-1.31.46-.5.13-.98.2-1.44.2h-.68V7.55Z"/>
          <path class="cls-1" d="M298.54,3.39v-1.74l4.16,1.74h4.65v.8h-4.76v22.31c0,.17-.15.38-.46.61-.3.24-.71.45-1.23.63-.51.18-1.07.27-1.68.27h-.68V3.39ZM300.45,7.5h6.62v.8h-6.62v-.8ZM300.45,11.72h6.62v.8h-6.62v-.8ZM305.64,3.39h-.29l1.68-1.8,3.39,2.57c-.08.11-.2.22-.36.33-.16.1-.38.18-.64.21v8.61c-.02.06-.2.16-.56.3-.35.14-.77.28-1.24.4-.48.12-.92.19-1.34.19h-.66V3.39ZM311.49,3.39v-1.54l3.96,1.54h4.68v.8h-4.79v8.76c0,.11-.16.27-.48.46-.32.19-.74.36-1.24.51-.5.15-1.03.23-1.58.23h-.54V3.39ZM318.48,3.39h-.29l1.85-2.08,3.71,2.91c-.08.13-.21.25-.4.36-.19.1-.43.19-.71.27v18.51c0,.89-.12,1.65-.37,2.28-.25.63-.77,1.13-1.55,1.51-.79.38-1.99.65-3.61.8-.08-.67-.18-1.24-.31-1.71-.13-.48-.36-.86-.68-1.14-.34-.32-.75-.6-1.21-.83-.47-.23-1.19-.43-2.18-.6v-.34c.87.04,1.62.08,2.22.11.61.04,1.18.07,1.73.09.54.02.92.03,1.13.03.27,0,.45-.06.54-.17.09-.11.14-.28.14-.48V3.39ZM313.66,7.5h6.62v.8h-6.62v-.8ZM313.66,11.72h6.62v.8h-6.62v-.8Z"/>
          <path class="cls-1" d="M327.18,26.26h21.54l1.97-2.57c.49.38.93.72,1.3,1.01.37.3.76.61,1.17.96.41.34.78.66,1.13.94-.08.3-.35.46-.83.46h-26.04l-.23-.8ZM327.26,13.86c.82.02,1.95.02,3.41.01,1.45,0,3.11-.03,4.96-.07,1.85-.04,3.77-.09,5.75-.14v.43c-1.33.36-2.98.77-4.95,1.21-1.97.45-4.34.96-7.12,1.53-.1.19-.22.33-.39.43-.16.1-.32.16-.47.2l-1.2-3.59ZM327.4,3.67h9.27l1.68-2.08c.7.53,1.3.98,1.78,1.35s.92.73,1.3,1.07c-.08.3-.33.46-.77.46h-13.04l-.23-.8ZM328.66,10.95h8.53v.8h-8.27l-.26-.8ZM329.06,5.9v-1.43l3.82,1.43h-.4v3.79c0,.1-.25.26-.74.5-.49.24-1.18.36-2.05.36h-.63v-4.65ZM329.57,21.87h17l1.94-2.51c.47.36.89.69,1.26.98.36.29.74.61,1.14.94.4.33.76.64,1.08.93-.06.3-.32.46-.8.46h-21.39l-.23-.8ZM332.65,12.66l4.56.37c-.06.4-.37.64-.94.71v3.37c0,.76-.09,1.4-.27,1.91-.18.51-.56.91-1.14,1.2-.58.29-1.48.48-2.7.57-.02-.48-.06-.89-.11-1.24-.06-.35-.16-.64-.31-.87-.13-.19-.31-.37-.54-.54-.23-.17-.62-.3-1.17-.4v-.37c.38.04.7.06.97.07.27,0,.52.02.77.04.25.02.42.03.51.03.25,0,.37-.12.37-.37v-4.48ZM331.03,5.9h6.73v.8h-6.73v-.8ZM331.03,8.58h6.73v.8h-6.73v-.8ZM332.45.88l4.88.37c-.02.19-.1.35-.23.48s-.4.24-.8.31v2.02h-3.85V.88ZM336.56,10.95h-.31l1.51-1.54,2.74,2.4c-.11.11-.26.19-.43.23s-.4.07-.68.09c-.59.25-1.26.5-2.03.76-.76.26-1.5.46-2.22.61h-.4c.23-.23.46-.5.7-.81.24-.31.46-.62.66-.93.2-.3.36-.57.47-.8ZM336.25,5.9h-.26l1.51-1.57,3.17,2.31c-.08.08-.19.16-.34.26-.15.1-.34.17-.57.23v2.08c0,.08-.16.19-.48.33-.32.14-.71.28-1.16.4-.45.12-.86.19-1.24.19h-.63v-4.22ZM343.18,1.02l4.85.43c-.04.19-.13.36-.29.5-.15.14-.39.23-.71.27-.04,1.71-.1,3.32-.17,4.82-.08,1.5-.27,2.9-.57,4.21-.3,1.3-.81,2.5-1.51,3.59-.7,1.09-1.69,2.09-2.95,2.98-1.26.89-2.91,1.7-4.95,2.42l-.23-.37c1.41-.87,2.53-1.82,3.38-2.82.85-1.01,1.49-2.09,1.94-3.24.45-1.15.75-2.39.91-3.71.16-1.32.25-2.73.27-4.24.02-1.5.03-3.12.03-4.85ZM338.59,18.85l5.16.4c-.02.19-.1.36-.23.5-.13.14-.4.24-.8.3v6.53h-4.14v-7.73ZM340.27,9.61c1.73.21,3.14.56,4.22,1.04s1.9,1.04,2.45,1.65c.55.62.87,1.22.97,1.81.09.59.02,1.1-.21,1.54-.24.44-.6.72-1.08.84s-1.04.02-1.67-.3c-.23-.57-.52-1.15-.88-1.73-.36-.58-.77-1.16-1.21-1.73-.45-.57-.91-1.1-1.4-1.6-.48-.49-.96-.94-1.41-1.34l.23-.2ZM340.72,5.96h8.93v.8h-8.67l-.26-.8ZM348.11,5.96h-.31l1.77-1.85,3.31,2.54c-.08.1-.21.19-.41.27s-.42.15-.67.19c-.06.7-.09,1.47-.09,2.3s.03,1.64.09,2.44c.06.8.14,1.51.26,2.12.11.62.26,1.07.43,1.35.08.08.15.11.21.1.07,0,.13-.08.19-.21.15-.32.3-.69.46-1.11.15-.42.29-.84.43-1.25l.26.06-.26,3.54c.3.61.49,1.17.57,1.67.08.5-.02.92-.29,1.24-.34.4-.74.61-1.2.63-.46.02-.9-.09-1.34-.31-.44-.23-.81-.5-1.11-.83-.51-.63-.93-1.41-1.24-2.34-.31-.93-.55-1.97-.71-3.12-.16-1.15-.26-2.36-.3-3.62-.04-1.26-.05-2.52-.03-3.78Z"/>
        </g>
      </g>
    </g>
  </g>
</svg>