<?xml version="1.0" encoding="UTF-8"?>
<svg id="_レイヤー_2" data-name="レイヤー 2" xmlns="http://www.w3.org/2000/svg" width="51.96" height="2593.83" viewBox="0 0 51.96 2593.83">
  <defs>
    <style>
      .cls-1 {
        fill: #2e3192;
      }

      .cls-2 {
        opacity: .5;
      }
    </style>
  </defs>
  <g id="_レイヤー_3" data-name="レイヤー 3">
    <g class="cls-2">
      <g>
        <path class="cls-1" d="M39.93,33.99c-1.06,0-1.92.86-1.92,1.92s.86,1.92,1.92,1.92,1.92-.86,1.92-1.92-.86-1.92-1.92-1.92Z"/>
        <polygon class="cls-1" points="51.96 45 47.36 37.04 42.77 45 51.96 45"/>
        <path class="cls-1" d="M25.98,0L0,45h41.63l5.17-8.95L25.98,0ZM39.93,38.65c-1.51,0-2.74-1.23-2.74-2.74s1.23-2.74,2.74-2.74,2.74,1.23,2.74,2.74-1.23,2.74-2.74,2.74Z"/>
      </g>
      <polygon class="cls-1" points="25.98 48.83 0 93.83 51.96 93.83 25.98 48.83"/>
      <polygon class="cls-1" points="25.98 98.83 0 143.83 51.96 143.83 25.98 98.83"/>
      <polygon class="cls-1" points="25.98 148.83 0 193.83 51.96 193.83 25.98 148.83"/>
      <polygon class="cls-1" points="25.98 198.83 0 243.83 51.96 243.83 25.98 198.83"/>
      <polygon class="cls-1" points="25.98 248.83 0 293.83 51.96 293.83 25.98 248.83"/>
      <polygon class="cls-1" points="25.98 298.83 0 343.83 51.96 343.83 25.98 298.83"/>
      <polygon class="cls-1" points="25.98 348.83 0 393.83 51.96 393.83 25.98 348.83"/>
      <polygon class="cls-1" points="25.98 398.83 0 443.83 51.96 443.83 25.98 398.83"/>
      <polygon class="cls-1" points="25.98 448.83 0 493.83 51.96 493.83 25.98 448.83"/>
      <polygon class="cls-1" points="25.98 498.83 0 543.83 51.96 543.83 25.98 498.83"/>
      <polygon class="cls-1" points="25.98 548.83 0 593.83 51.96 593.83 25.98 548.83"/>
      <polygon class="cls-1" points="25.98 598.83 0 643.83 51.96 643.83 25.98 598.83"/>
      <polygon class="cls-1" points="25.98 648.83 0 693.83 51.96 693.83 25.98 648.83"/>
      <polygon class="cls-1" points="25.98 698.83 0 743.83 51.96 743.83 25.98 698.83"/>
      <polygon class="cls-1" points="25.98 748.83 0 793.83 51.96 793.83 25.98 748.83"/>
      <polygon class="cls-1" points="25.98 798.83 0 843.83 51.96 843.83 25.98 798.83"/>
      <polygon class="cls-1" points="25.98 848.83 0 893.83 51.96 893.83 25.98 848.83"/>
      <polygon class="cls-1" points="25.98 898.83 0 943.83 51.96 943.83 25.98 898.83"/>
      <polygon class="cls-1" points="25.98 948.83 0 993.83 51.96 993.83 25.98 948.83"/>
      <polygon class="cls-1" points="25.98 998.83 0 1043.83 51.96 1043.83 25.98 998.83"/>
      <polygon class="cls-1" points="25.98 1048.83 0 1093.83 51.96 1093.83 25.98 1048.83"/>
      <polygon class="cls-1" points="25.98 1098.83 0 1143.83 51.96 1143.83 25.98 1098.83"/>
      <polygon class="cls-1" points="25.98 1148.83 0 1193.83 51.96 1193.83 25.98 1148.83"/>
      <polygon class="cls-1" points="25.98 1198.83 0 1243.83 51.96 1243.83 25.98 1198.83"/>
      <polygon class="cls-1" points="25.98 1248.83 0 1293.83 51.96 1293.83 25.98 1248.83"/>
      <polygon class="cls-1" points="25.98 1298.83 0 1343.83 51.96 1343.83 25.98 1298.83"/>
      <polygon class="cls-1" points="25.98 1348.83 0 1393.83 51.96 1393.83 25.98 1348.83"/>
      <polygon class="cls-1" points="25.98 1398.83 0 1443.83 51.96 1443.83 25.98 1398.83"/>
      <polygon class="cls-1" points="25.98 1448.83 0 1493.83 51.96 1493.83 25.98 1448.83"/>
      <polygon class="cls-1" points="25.98 1498.83 0 1543.83 51.96 1543.83 25.98 1498.83"/>
      <polygon class="cls-1" points="25.98 1548.83 0 1593.83 51.96 1593.83 25.98 1548.83"/>
      <polygon class="cls-1" points="25.98 1598.83 0 1643.83 51.96 1643.83 25.98 1598.83"/>
      <polygon class="cls-1" points="25.98 1648.83 0 1693.83 51.96 1693.83 25.98 1648.83"/>
      <polygon class="cls-1" points="25.98 1698.83 0 1743.83 51.96 1743.83 25.98 1698.83"/>
      <polygon class="cls-1" points="25.98 1748.83 0 1793.83 51.96 1793.83 25.98 1748.83"/>
      <polygon class="cls-1" points="25.98 1798.83 0 1843.83 51.96 1843.83 25.98 1798.83"/>
      <polygon class="cls-1" points="25.98 1848.83 0 1893.83 51.96 1893.83 25.98 1848.83"/>
      <polygon class="cls-1" points="25.98 1898.83 0 1943.83 51.96 1943.83 25.98 1898.83"/>
      <polygon class="cls-1" points="25.98 1948.83 0 1993.83 51.96 1993.83 25.98 1948.83"/>
      <polygon class="cls-1" points="25.98 1998.83 0 2043.83 51.96 2043.83 25.98 1998.83"/>
      <polygon class="cls-1" points="25.98 2048.83 0 2093.83 51.96 2093.83 25.98 2048.83"/>
      <polygon class="cls-1" points="25.98 2098.83 0 2143.83 51.96 2143.83 25.98 2098.83"/>
      <polygon class="cls-1" points="25.98 2148.83 0 2193.83 51.96 2193.83 25.98 2148.83"/>
      <polygon class="cls-1" points="25.98 2198.83 0 2243.83 51.96 2243.83 25.98 2198.83"/>
      <polygon class="cls-1" points="25.98 2248.83 0 2293.83 51.96 2293.83 25.98 2248.83"/>
      <polygon class="cls-1" points="25.98 2298.83 0 2343.83 51.96 2343.83 25.98 2298.83"/>
      <polygon class="cls-1" points="25.98 2348.83 0 2393.83 51.96 2393.83 25.98 2348.83"/>
      <polygon class="cls-1" points="25.98 2398.83 0 2443.83 51.96 2443.83 25.98 2398.83"/>
      <polygon class="cls-1" points="25.98 2448.83 0 2493.83 51.96 2493.83 25.98 2448.83"/>
      <polygon class="cls-1" points="25.98 2498.83 0 2543.83 51.96 2543.83 25.98 2498.83"/>
      <polygon class="cls-1" points="25.98 2548.83 0 2593.83 51.96 2593.83 25.98 2548.83"/>
    </g>
  </g>
</svg>