<?xml version="1.0" encoding="UTF-8"?>
<svg id="_レイヤー_2" data-name="レイヤー 2" xmlns="http://www.w3.org/2000/svg" width="235.45" height="235.45" viewBox="0 0 235.45 235.45">
  <defs>
    <style>
      .cls-1 {
        fill: #323232;
      }

      .cls-2 {
        stroke: #323232;
        stroke-linecap: round;
        stroke-linejoin: round;
        stroke-width: 4px;
      }

      .cls-2, .cls-3 {
        fill: #32c8c8;
      }

      .cls-4 {
        fill: #e6e6e6;
      }

      .cls-5 {
        fill: #fff;
      }
    </style>
  </defs>
  <g id="_レイヤー_3" data-name="レイヤー 3">
    <g>
      <path class="cls-4" d="M235.45,117.72c0,28.68-10.25,54.96-27.29,75.38-.46.55-.92,1.09-1.38,1.63-.47.54-.94,1.08-1.42,1.61-21.55,24.01-52.83,39.11-87.63,39.11-20.79,0-40.33-5.39-57.28-14.85-.4-.22-.79-.44-1.19-.67-.4-.23-.8-.46-1.19-.69-.4-.23-.79-.47-1.19-.71-.4-.24-.8-.49-1.2-.73-6.74-4.19-13.03-9.04-18.77-14.46-.91-.86-1.81-1.74-2.7-2.63-.04-.04-.09-.09-.13-.14h0c-.42-.43-.83-.85-1.24-1.28-.05-.05-.09-.09-.13-.14-.5-.52-.98-1.04-1.47-1.56-.27-.3-.55-.59-.82-.89-1.17-1.29-2.31-2.61-3.42-3.95-.29-.35-.58-.7-.87-1.06h0c-.17-.21-.34-.42-.51-.63-.46-.58-.92-1.16-1.37-1.75-.39-.5-.77-1.01-1.15-1.52C8.58,168.2,0,143.96,0,117.72,0,52.71,52.71,0,117.72,0s117.72,52.71,117.72,117.72Z"/>
      <path class="cls-2" d="M168.74,180.5c-17.35-15.57-3.21-54.56-3.21-54.56h-88.32s14.14,38.99-3.21,54.56h94.75Z"/>
      <g>
        <g>
          <path class="cls-1" d="M206.77,194.73c-.47.54-.94,1.08-1.42,1.61-21.55,24.01-52.83,39.11-87.63,39.11-20.79,0-40.33-5.39-57.28-14.85-.4-.22-.79-.44-1.19-.67-.4-.23-.8-.46-1.19-.69-.4-.23-.79-.47-1.19-.71-.4-.24-.8-.49-1.2-.73-6.74-4.19-13.03-9.04-18.77-14.46-.91-.86-1.81-1.74-2.7-2.63-.04-.04-.09-.09-.13-.14h0c-.42-.43-.83-.85-1.24-1.28-.05-.05-.09-.09-.13-.14.06-.08.12-.16.18-.23.24-.3.5-.6.76-.89,3.04-3.33,7.51-5.86,14.25-8.99.65-.3,1.48-.68,2.43-1.11,2.9-1.3,7.05-3.13,11.58-5.1.83-.36,1.68-.73,2.54-1.1,5.53-2.39,11.39-4.88,16.11-6.84.49-.21.97-.42,1.44-.63.68-.3,1.34-.58,1.99-.86.34.27.68.55,1.02.81.1.08.2.16.3.23,0,0,.02.01.02.02.13.1.26.2.4.3.05.04.11.08.16.12.2.15.4.3.6.45.18.13.35.26.53.39.18.13.35.26.53.38.28.2.56.39.83.58.14.1.28.19.42.29.23.15.45.3.67.45.12.08.23.15.35.23.17.11.34.22.51.33.14.09.27.17.41.26.28.18.56.35.85.52.13.08.27.16.4.24,0,0,.01,0,.02.01.17.1.34.2.51.3.12.07.23.14.35.2.14.08.29.17.43.25.13.08.26.15.39.22.18.1.36.2.54.3.04.02.08.04.11.06.17.1.35.19.52.28.02.01.04.02.06.03.13.07.27.14.4.21.14.07.27.14.41.21.19.1.39.2.58.3.59.3,1.19.58,1.78.85.4.18.79.36,1.19.53.4.17.79.34,1.19.5.2.08.4.16.59.24,1.3.52,2.59.98,3.88,1.39.18.06.36.11.54.17.24.07.47.15.71.22.22.07.44.13.66.19.27.08.53.15.8.22.23.06.45.12.67.17.18.05.37.09.55.14.75.18,1.49.35,2.23.5.19.04.37.08.56.11.17.03.34.06.51.1.12.02.24.04.36.06.45.08.91.16,1.36.22.18.03.37.06.55.08.18.03.37.05.55.08.21.03.41.05.62.08.21.03.41.05.62.07.11.01.23.03.34.04.04,0,.08,0,.12.01.17.02.34.03.5.05.19.02.39.03.58.05s.39.03.58.04c.08,0,.16.01.24.02.08,0,.16.01.24.02.31.02.62.04.93.05.15,0,.3.01.44.02.15,0,.3.01.44.02.15,0,.29,0,.44.01.15,0,.29,0,.44,0,.33,0,.67,0,1,0,.27,0,.53,0,.8,0,.27,0,.53,0,.79-.02.89-.02,1.76-.06,2.62-.12.18-.01.36-.03.54-.04.19-.01.38-.03.56-.05,0,0,.02,0,.03,0,.13,0,.25-.02.38-.03.07,0,.14-.01.21-.02.14,0,.27-.03.41-.04.7-.07,1.39-.16,2.07-.26.14-.02.27-.04.41-.06.02,0,.04,0,.07,0,.13-.02.26-.04.38-.06.03,0,.06,0,.1-.02.39-.06.77-.13,1.16-.2.22-.04.44-.08.66-.12.22-.04.44-.09.65-.13.2-.04.39-.08.59-.13.2-.04.39-.09.58-.13.19-.04.39-.09.58-.14.19-.05.38-.1.57-.14.17-.04.33-.09.5-.13.12-.03.25-.07.37-.1.84-.23,1.66-.47,2.47-.74.19-.06.37-.12.56-.18.42-.14.83-.29,1.24-.44.14-.05.27-.1.41-.15.18-.07.37-.14.55-.21.24-.09.48-.19.72-.29.08-.03.16-.06.24-.1.28-.11.57-.23.84-.36.12-.05.24-.1.36-.16.84-.37,1.66-.75,2.47-1.16.11-.05.22-.11.33-.17.17-.09.34-.17.51-.26.34-.18.68-.36,1.02-.54.17-.09.33-.18.5-.28.21-.12.42-.23.62-.36.21-.12.41-.24.62-.36.18-.11.36-.21.53-.32.23-.14.46-.28.69-.43.16-.1.32-.2.48-.31.16-.1.32-.21.48-.31.32-.21.63-.42.95-.63.16-.11.31-.21.47-.32.19-.13.37-.26.55-.39.12-.09.25-.18.37-.27.15-.11.3-.22.46-.33.15-.11.3-.22.45-.34.23-.17.45-.34.67-.51.22-.17.44-.35.66-.52.15-.12.3-.24.45-.36.63-.51,1.26-1.03,1.88-1.56.64.28,1.3.57,1.98.86.51.22,1.02.44,1.55.67,10.74,4.45,27.29,11.65,32.66,14.14,4.37,2.03,7.78,3.8,10.48,5.71Z"/>
          <path class="cls-5" d="M145.35,149.31c-.42,2.99-.33,7.16-.01,11.41.39,5.93,5.82,8.7,14.76,12.62-9.97,8.6-22.24,14.54-38.58,14.29-12.09-.19-25.21-4.28-37.54-14.25,9.01-3.94,14.48-6.71,14.87-12.67.32-4.25.41-8.42-.01-11.41,13.89,10.26,33.02,9.97,46.63-.84-.02.08-.12.84-.12.84Z"/>
          <path class="cls-5" d="M160.66,127.63s-.85.31-1.3.34h-.01c-12.59,38.28-62.54,38.49-75.36.29h0c-.18.02-1.36-.31-1.36-.31-10.75-3.07-17.1-14.78-15.68-25.56.22-4.53,2.46-7.25,5.12-7.86,2.13-.49,4.52.36,6.35,2.71-.27,1.2-.61,2.34-1.05,3.43,1.03.23,2,.26,2.94.1,7.91-1.32,13.04-15.71,21.88-29.77,17.23-32.23,35.73-19.13,35.73-19.13,15.75,8.59,15.33,31.5,23.13,46.13.39.74.93,1.43,1.54,1.95.7.6,1.51.96,2.34.91-.28-1.17-.42-2.58-.47-4,2.02-2.33,4.62-2.98,6.81-2.1,2.31.92,4.16,3.53,4.36,7.63,1.35,10.42-4.55,22.11-14.97,25.24Z"/>
          <g>
            <path class="cls-3" d="M130.67,51.29s.05,0,.08,0c-.03,0-.05,0-.08,0Z"/>
            <path class="cls-3" d="M134.8,52.4s.08.04.16.07c-.01,0-.02,0-.03-.01-.04-.02-.08-.03-.13-.05Z"/>
            <path class="cls-3" d="M176.63,67.33c-1.05-8.95-4.25-17.76-10.37-24.51-3.16-3.49-7.02-6.17-11.3-8.07-3.86-6.33-10.43-10.52-17.38-12.78-4.3-1.4-8.85-2.08-13.36-2.2-5.23-.14-10.6.39-15.62,1.89-9.36,2.8-17.89,7.88-24.89,14.68-6.71,6.52-12.7,14.79-15.14,23.92-3.06,11.47-1.19,23.48,1.64,34.78.26,1.05,1.37,1.55,2.36,1.34,1.44-.3,2.71.4,3.72,1.38-.22.81-.48,1.61-.78,2.39-.36.93.4,2.17,1.34,2.36,5.95,1.23,10.19-2.89,13.39-7.36,4.05-5.65,7.05-12.03,10.51-18.04,1-1.73,2.08-3.42,3.08-5.14.96-1.66,1.86-3.34,2.88-4.96,1.67-2.64,3.51-5.16,5.63-7.45,1.69-1.83,3.51-3.49,5.46-4.81.86-.58,1.75-1.12,2.68-1.59.42-.21.84-.41,1.27-.6.1-.04.19-.08.29-.12.26-.1.52-.2.79-.29.8-.28,1.61-.5,2.44-.67.35-.07.71-.13,1.07-.19.08,0,.15-.02.23-.03.21-.02.42-.04.63-.06.71-.05,1.42-.06,2.12-.03.33.01.66.04.99.07.11.01.23.03.34.04-.12-.01-.11-.03.21.03,1.09.19,2.16.44,3.2.81.22.08.44.16.65.24.02,0,.04.02.07.03-.05-.02-.01-.01.13.05.04.01.07.03.11.04-.03-.01-.05-.02-.08-.03,0,0,0,0,0,0,.32.15.63.29.94.46,2,1.05,3.9,2.32,5.53,3.86,3.61,3.4,6.01,7.89,7.79,12.5,1.97,5.11,3.33,10.42,4.87,15.67.76,2.59,1.56,5.18,2.5,7.71.92,2.47,1.89,5.25,3.48,7.37,1.18,1.57,2.83,2.76,4.85,2.76,1.29,0,2.13-1.23,1.85-2.43-.2-.9-.31-1.81-.37-2.73,1.23-1.11,2.68-1.62,4.34-1.01.75.28,1.82-.17,2.17-.88,1.06-2.13,1.64-4.68,2.21-6.98.61-2.44,1.05-4.91,1.37-7.41.6-4.65.67-9.36.12-14.02ZM121.81,52.55c.11-.05.06-.03,0,0h0Z"/>
          </g>
          <path class="cls-1" d="M158.6,171.82c-7.37,6.33-16.03,10.89-25.6,12.74-10.23,1.97-20.92.89-30.63-2.83-6.09-2.33-11.8-5.77-16.88-9.85-.9-.72-2.14-.88-3.02,0-.75.75-.9,2.29,0,3.02,9.41,7.56,20.42,12.8,32.44,14.38,10.99,1.44,22.34-.21,32.38-4.94,5.21-2.45,9.97-5.75,14.33-9.5.88-.75.77-2.25,0-3.02-.87-.87-2.14-.75-3.02,0h0Z"/>
          <path class="cls-1" d="M101.19,157.33c-.1,2.27-.08,4.68-.94,6.82-.69,1.71-1.79,3.21-3.18,4.43-2.6,2.3-5.77,3.89-8.95,5.31-.75.34-1.49.66-2.23.98-.19.08-.37.16-.56.24-.55.24-1.11.49-1.66.73h0c-6.73,2.93-13.52,5.76-20.27,8.65-1.78.77-3.56,1.54-5.34,2.31-1.86.82-3.76,1.62-5.65,2.44-.14.06-.27.12-.41.18-.87.38-1.74.77-2.61,1.16,0,0,0,0,0,0-3.69,1.68-7.31,3.51-10.6,5.79-1.03.71-2.02,1.52-2.91,2.42-.58.57-1.12,1.18-1.6,1.82-.02.03-.04.05-.05.07-.04-.04-.09-.09-.13-.14h0c-.42-.43-.83-.85-1.24-1.28-.05-.05-.09-.09-.13-.14-.5-.52-.98-1.04-1.47-1.56.13-.17.27-.34.41-.5.04-.05.09-.1.14-.16t0,0c2-2.32,4.57-4.16,7.19-5.71,6.52-3.86,13.72-6.68,20.65-9.7.2-.09.4-.17.6-.26.72-.31,1.44-.62,2.16-.93.66-.28,1.32-.56,1.98-.84,6.12-2.59,12.29-5.09,18.36-7.81,0,0,0,0,0,0,.26-.11.52-.23.77-.35,1.24-.56,2.47-1.12,3.69-1.7,3.17-1.5,7.12-3.32,8.8-6.38.84-1.52.82-3.43.91-5.44.12-2.44.17-4.91-.06-7.34h0c-.03-.39-.08-.77-.13-1.15-.06-.49.13-.96.45-1.32.43-.49,1.09-.81,1.69-.81,1.26,0,1.98.99,2.14,2.14.07.52.12,1.04.17,1.57h0c.07.85.1,1.7.12,2.56.02,1.3-.01,2.59-.07,3.89Z"/>
          <path class="cls-1" d="M199.89,193.14c-7.18-3.7-14.71-6.77-22.12-9.96-4.39-1.89-8.78-3.77-13.18-5.61-1.38-.57-2.77-1.15-4.16-1.73-.74-.31-1.47-.62-2.2-.94-.74-.32-1.47-.65-2.2-.98-1.86-.87-3.69-1.8-5.44-2.84-3.12-1.87-6.07-4.41-7.04-8.06-.67-2.54-.59-5.41-.62-8.02,0-.72,0-1.44.02-2.16.02-.88.07-1.76.15-2.63h0c.07-.78.17-1.55.31-2.31.06-.33.22-.63.45-.86.13-.14.28-.25.44-.35h0c.52-.32,1.18-.43,1.74-.28.45.12.81.37,1.06.69.41.52.56,1.23.44,1.93-.08.42-.03.1-.09.57h0s0,.03,0,.05c-.07.63-.13,1.26-.17,1.9-.08,1.37-.08,2.75-.05,4.13.05,2.32-.09,4.83.67,6.88.43,1.17,1.47,2.37,2.66,3.34,2.9,2.34,6.53,3.87,10,5.34.27.11.53.22.79.33.43.18.85.36,1.27.55,8.94,3.89,17.96,7.61,26.89,11.53,6.31,2.77,13.04,5.37,18.65,9.45-.46.55-.92,1.09-1.38,1.63-.47.54-.94,1.08-1.42,1.61-1.7-1.18-3.57-2.22-5.46-3.19Z"/>
          <path class="cls-1" d="M177.87,103.42c-.32-3.85-1.12-7.85-4.65-10.05-3.47-2.17-7.77-.89-10.34,2.05-.76.87-.85,2.17,0,3.02.77.77,2.26.87,3.02,0,.25-.29.51-.56.8-.82.08-.07.16-.14.24-.21.03-.02.21-.14.25-.17.23-.14.46-.28.71-.4-.03.03.5-.18.65-.22.15-.04.3-.07.45-.09.02,0,.04,0,.07,0,.09,0,.49.02.62,0,.1.02.23.04.24.04.12.03.23.06.35.09.11.03.23.07.34.11-.45-.17.14.08.23.13.1.05.54.37.5.32.2.17.37.35.56.54.04.04.17.19.2.22.06.08.11.16.17.24.22.34.42.7.59,1.06.02.04.03.06.03.07.01.04.03.1.06.18.05.15.11.31.15.47.11.37.2.75.27,1.13.14.75.19,1.6.26,2.41.49,6.32-1.67,12.89-6.13,17.45-1.24,1.27-2.49,2.26-4.05,3.13-.31.18-.62.34-.92.49.24-.98.45-1.96.65-2.95.22-1.13-.32-2.31-1.49-2.63-1.05-.29-2.41.35-2.63,1.49-.43,2.22-.98,4.42-1.67,6.57-.32.99-.67,1.97-1.05,2.93-.18.47-.37.92-.45,1.1-.21.49-.43.98-.66,1.46-.84,1.77-1.8,3.49-2.87,5.14-.53.81-1.08,1.59-1.66,2.37-.02.02-.1.14-.15.2-.03.03-.05.07-.06.07-.14.18-.28.36-.43.53-.31.38-.62.75-.94,1.11-1.21,1.38-2.51,2.68-3.9,3.88-.3.26-.61.52-.93.78-.17.14-.34.27-.51.4,0,0-.02.01-.03.02-.09.07-.18.14-.27.21-.71.53-1.44,1.03-2.18,1.52-1.44.93-2.94,1.76-4.49,2.49-.35.16-.7.32-1.05.47-.09.04-.25.1-.32.13-.22.09-.44.18-.66.26-.8.31-1.61.59-2.43.84-1.6.49-3.23.88-4.88,1.16-.2.03-.4.07-.61.1-.07.01-.3.04-.41.06-.11.01-.34.04-.41.05-.23.03-.46.05-.7.07-.84.08-1.69.14-2.54.16-1.66.05-3.33,0-4.99-.17-.37-.04-.73-.08-1.1-.13-.09-.01-.25-.04-.34-.05-.23-.04-.46-.07-.69-.11-.84-.14-1.67-.31-2.5-.51-1.63-.39-3.24-.89-4.81-1.5-.19-.07-.39-.15-.58-.23-.09-.04-.18-.07-.27-.11-.4-.17-.79-.35-1.18-.53-.79-.37-1.56-.77-2.32-1.19-1.51-.84-2.96-1.79-4.35-2.83-.07-.06-.15-.11-.22-.17,0,0,0,0,0,0-.17-.13-.34-.27-.51-.4-.36-.29-.72-.59-1.07-.9-.69-.6-1.35-1.22-1.99-1.87-.63-.63-1.24-1.29-1.83-1.96-.3-.34-.59-.69-.88-1.04-.14-.18-.29-.36-.43-.53,0-.01-.01-.02-.02-.03-.08-.11-.16-.22-.24-.32-1.15-1.54-2.19-3.16-3.13-4.83-1.38-2.49-2.44-4.89-3.31-7.48-.03-.11-.06-.22-.1-.32-.38-1.17-.73-2.38-1.05-3.66-.28-1.12-.53-2.25-.75-3.39-.22-1.13-1.58-1.78-2.63-1.49-1.19.33-1.71,1.49-1.49,2.63.22,1.18.49,2.35.79,3.51-.04-.02-.09-.04-.14-.06-1.46-.69-2.9-1.59-4.09-2.6-2.59-2.21-4.58-4.95-5.91-8.09-1.27-2.98-1.88-6.24-1.79-9.51.05-1.69.15-3.37.66-4.96.17-.52.34-.92.74-1.53,0-.01.23-.31.24-.34.06-.07.11-.13.17-.2.09-.1.18-.19.27-.28.08-.08.17-.16.26-.23.25-.18.52-.34.8-.47,0,0,0,0,.01,0,.2-.07.4-.11.59-.17.05-.02.15-.03.22-.04.12,0,.23-.01.35-.02.12,0,.24.02.36,0,.04,0,.07,0,.09,0,.03.01.08.02.14.04.15.04.3.08.45.11.03,0,.32.11.35.12.28.13.54.29.8.45.28.17.28.18.64.53.33.32.64.67.92,1.03.71.91,2.27.75,3.02,0,.9-.9.72-2.11,0-3.02-2.13-2.71-5.77-4.35-9.15-3.13-3.85,1.39-5.64,5.3-5.99,9.15-.37,4.13-.18,8.16,1.16,12.13,1.33,3.92,3.52,7.58,6.5,10.48,1.63,1.59,3.51,2.97,5.54,4,1.32.67,2.83,1.36,4.35,1.73,1.97,5.41,4.83,10.47,8.63,14.85,4.94,5.67,11.45,9.91,18.64,12.14,6.89,2.13,14.34,2.34,21.35.68,7.24-1.71,13.95-5.51,19.22-10.75,4.86-4.84,8.43-10.83,10.73-17.27,3.19-.8,6.23-2.72,8.61-4.88,2.98-2.7,5.16-6.18,6.6-9.91,1.41-3.64,2.02-7.69,1.7-11.59ZM72.03,96.77c-.28.14-.1.04,0,0h0ZM143.75,147.12c-.08.06-.22.16,0,0h0Z"/>
          <path class="cls-1" d="M101.87,93.39c.4-.08.79-.16,1.19-.23.24-.05.46-.05.09-.02.19-.02.39-.04.58-.04,1.05-.05,2.12.07,3.16.17,1.15.11,2.14-1.06,2.14-2.14,0-1.25-.98-2.03-2.14-2.14-2.15-.2-4.05-.14-6.16.28-1.13.22-1.78,1.57-1.49,2.63.32,1.18,1.49,1.72,2.63,1.49h0Z"/>
          <path class="cls-1" d="M141.95,89.27c-2.11-.42-4.01-.48-6.16-.28-1.15.11-2.14.9-2.14,2.14,0,1.07.98,2.25,2.14,2.14,1.05-.1,2.11-.22,3.16-.17.17,0,.33.02.5.04.16.01-.4-.08.09.02.43.08.85.16,1.28.25,1.13.22,2.31-.32,2.63-1.49.29-1.05-.35-2.4-1.49-2.63h0Z"/>
          <path class="cls-1" d="M111.53,133.46c6.24,3.25,14.13,3.11,20.33-.16,2.43-1.28.28-4.97-2.16-3.69-4.81,2.54-11.22,2.65-16.02.16-2.44-1.27-4.6,2.42-2.16,3.69h0Z"/>
          <path class="cls-1" d="M89.38,52.86c-5.22,5.64-8.72,12.46-10.29,19.98-1.3,6.21-1.35,12.55-1.96,18.84-.26,2.72-.71,5.61-1.81,8.43-.42,1.07.46,2.34,1.49,2.63,1.21.33,2.2-.41,2.63-1.49,2.03-5.16,2.09-10.93,2.46-16.39.42-6.28,1.11-12.49,3.59-18.38,1.65-3.92,4.04-7.47,6.92-10.58,1.87-2.01-1.15-5.04-3.02-3.02h0Z"/>
          <path class="cls-1" d="M139,50.03c-1.39-.98-3.12-1.63-4.74-2.11-3.8-1.11-7.93-1.07-11.71.07-6.07,1.83-11.1,6.12-15.03,10.98-1.44,1.78-2.79,3.64-4.02,5.57-1.4,2.18-2.6,4.47-3.95,6.67-2.61,4.26-4.97,8.66-7.4,13.03-2.15,3.87-4.36,8.01-7.27,11.2-.59.65-1.22,1.27-1.91,1.82.26-.2-.01,0-.06.04-.22.16-.43.31-.66.45-.33.2-.66.39-1.01.55-.08.04-.38.15,0,0-.23.09-.46.17-.7.23-.12.03-.24.06-.35.09-.11.02-.86.11-.34.07-.34.03-.68.04-1.02.03-.16,0-.32-.02-.48-.03.49.05-.32-.07-.41-.09-1.13-.24-2.31.34-2.63,1.49-.29,1.07.36,2.38,1.49,2.63,7.42,1.6,12.32-5.12,15.74-10.66,2.42-3.92,4.55-8,6.8-12.02,1.26-2.25,2.54-4.49,3.89-6.68,1.35-2.2,2.55-4.49,3.95-6.67,2.13-3.31,4.55-6.43,7.45-9.11,2.04-1.89,4.16-3.43,6.87-4.67.16-.07.32-.15.48-.21-.07.03-.4.16-.03.02.26-.1.53-.2.79-.3.56-.2,1.13-.37,1.7-.52.52-.13,1.04-.24,1.56-.33.12-.02.24-.04.36-.06.48-.09-.38.04-.07,0,.28-.03.56-.06.84-.08.94-.07,1.88-.07,2.82,0,.2.02.4.04.61.06.57.05-.44-.08.14.02.41.07.81.14,1.21.23.76.17,1.5.38,2.23.64.15.05.3.11.45.17.38.15.46.07.01,0,.25.04.55.24.78.36.5.24,1,.5,1.45.82.94.67,2.38.17,2.92-.77.62-1.07.18-2.26-.77-2.92h0Z"/>
          <path class="cls-1" d="M164.93,98.74c-1.11,0-1.93-1.57-2.46-2.62-.65-1.3-1.21-2.58-1.73-3.92-1.17-3.03-2.11-6.14-3.01-9.26-1.85-6.4-3.53-12.88-6.38-18.93-1.53-3.25-3.47-6.31-5.92-8.96-1.87-2.02-4.88,1-3.02,3.02,4.34,4.7,6.68,10.93,8.57,16.98,2,6.43,3.5,13.05,6.04,19.3,1.43,3.51,3.32,8.7,7.9,8.67,2.75-.02,2.75-4.3,0-4.27h0Z"/>
          <path class="cls-1" d="M159.04,61.42c2.57,4.21,3.58,9.28,3.91,14.27.21,3.19.17,6.39-.02,9.58-.15,2.43-.45,4.84-.57,7.27-.15,2.95-.16,6,.51,8.9.61,2.68,4.73,1.54,4.12-1.14-1.06-4.62-.11-9.88.19-14.68.39-6.08.29-12.34-1.18-18.28-.69-2.82-1.75-5.59-3.27-8.07-1.43-2.34-5.13-.2-3.69,2.16h0Z"/>
          <path class="cls-1" d="M176.8,66.94c-1.12-8.92-4.34-17.65-10.47-24.36-3.15-3.45-6.98-6.1-11.22-7.99-3.89-6.35-10.49-10.55-17.47-12.83-4.32-1.41-8.89-2.09-13.42-2.21-5.24-.14-10.64.39-15.68,1.9-9.39,2.81-17.96,7.91-24.99,14.74-6.74,6.54-12.75,14.85-15.19,24.02-3.05,11.43-1.31,23.64,1.64,34.89.7,2.66,4.82,1.53,4.12-1.14-2.47-9.4-4.13-19.49-2.4-29.17.81-4.56,2.4-8.79,4.76-12.77,2.17-3.65,4.69-7.08,7.57-10.21,5.94-6.47,13.25-11.67,21.48-14.81,8.76-3.34,18.49-4.2,27.66-2.04,4.11.97,7.89,2.47,11.41,4.83,2.9,1.94,5.45,4.54,7.17,7.54.33.58.81.89,1.31,1,7.2,2.99,12.66,8.92,15.96,16.09,3.5,7.6,4.45,16.45,3.64,24.91-.48,5.01-1.7,10.09-3.47,14.88-.4,1.08.45,2.34,1.49,2.63,1.19.33,2.23-.41,2.63-1.49,3.32-8.99,4.66-18.86,3.47-28.39Z"/>
          <path class="cls-1" d="M107.31,99.92c-1.79-2.46-4.58-1.87-5.92.16-1.51,2.26-1.31,6.27.2,8.51.52.73,1.24,1.18,2.09,1.33,3.32.59,4.7-2.48,4.68-5.01,0-1.54-.11-3.7-1.05-4.99Z"/>
          <path class="cls-1" d="M141.5,99.92c-1.79-2.46-4.58-1.87-5.92.16-1.51,2.26-1.31,6.27.2,8.51.52.73,1.24,1.18,2.09,1.33,3.32.59,4.7-2.48,4.68-5.01,0-1.54-.11-3.7-1.05-4.99Z"/>
          <ellipse class="cls-1" cx="121.73" cy="120.88" rx="2.96" ry="2"/>
        </g>
        <g>
          <path class="cls-1" d="M26.12,191.68c-.17-.21-.34-.42-.51-.63.1-.03.2-.05.3-.07.06.23.13.47.2.7Z"/>
          <path class="cls-1" d="M58.06,219.23c-.4-.23-.79-.47-1.19-.71-.4-.24-.8-.49-1.2-.73-6.74-4.19-13.03-9.04-18.77-14.46-.91-.86-1.81-1.74-2.7-2.63-.04-.04-.09-.09-.13-.14.06.02.13.04.19.06.02,0,.04.01.06.02.16.05.31.1.47.15,0,0,.01,0,.02,0,.16.05.33.09.49.13,0,0,.01,0,.02,0,.09.02.18.04.27.06.27.06.55.11.82.16.08.01.15.02.23.03.05,0,.1.01.16.02.08,0,.15.02.23.03.05,0,.11.01.16.02.08,0,.17.02.25.02,5.17.4,10.15-2.2,12.26-5.3.02-.03.05-.07.07-.11.02-.03.04-.07.06-.1.01-.02.03-.04.04-.06.02-.04.05-.08.07-.12.06-.11.12-.22.17-.34.02-.05.05-.1.07-.15.01-.03.03-.05.04-.08.02-.04.04-.09.06-.14.1-.23.19-.47.27-.72.03-.1.07-.2.1-.3.03-.1.07-.21.1-.31.03-.09.06-.18.08-.27.2-.65.39-1.35.58-2.03.91.03,1.55.34,2,.76,1.11,1.02,1.11,2.69,1.11,2.69.05.46.11.91.16,1.37.97,8,2.18,15.78,3.38,23.16Z"/>
          <path class="cls-5" d="M62.37,180.31c.1.86-.07,1.72-.47,2.5-.54,1.06-1.49,1.98-2.77,2.6-1.81.92-3.42.12-5.18,1.15-.84.5-1.42,1.46-1.88,2.61-.03.08-.06.16-.1.24-.22.57-.41,1.19-.59,1.81-.2.68-.39,1.37-.58,2.03-.03.09-.05.18-.08.27-.03.1-.07.21-.1.31-.03.1-.07.2-.1.3-.09.25-.18.49-.27.72-.02.05-.04.09-.06.14-.01.03-.02.05-.04.08-.02.05-.04.1-.07.15-.06.12-.11.23-.17.34-.02.04-.05.08-.07.12-.01.02-.03.04-.04.06-.02.03-.04.07-.06.1-.02.04-.05.07-.07.11-2.11,3.11-7.09,5.71-12.26,5.3-.08,0-.17-.01-.25-.02-.05,0-.11,0-.16-.02-.08,0-.15-.02-.23-.03-.05,0-.1-.01-.16-.02-.07,0-.15-.02-.23-.03-.27-.04-.55-.1-.82-.16-.09-.02-.18-.04-.27-.06,0,0-.01,0-.02,0-.16-.04-.33-.09-.49-.13,0,0-.01,0-.02,0-.16-.04-.31-.09-.47-.15-.02,0-.04-.01-.06-.02-.06-.02-.13-.04-.19-.06h0c-.42-.43-.83-.85-1.24-1.28-.05-.05-.09-.09-.13-.14-.5-.52-.98-1.04-1.47-1.56-.27-.3-.55-.59-.82-.89-1.17-1.29-2.31-2.61-3.42-3.95-.29-.35-.58-.7-.87-1.06h0c-.07-.24-.14-.47-.2-.71-.2-.73-.36-1.44-.48-2.08-.35-1.89-.39-3.25-.39-3.25-.58-13.32-.9-27.18,5.19-33.92.47-.52.97-.99,1.52-1.43.1-.08.2-.15.3-.23,0,0,.02-.02.03-.03.03-.02.05-.04.08-.06.11-.08.23-.17.35-.24.09-.06.18-.12.27-.17.33-.21.68-.4,1.04-.58.05-.03.1-.05.14-.07,0,0,.01,0,.02,0,.07-.03.14-.07.21-.1,0,0,.02-.01.03-.02.09-.04.18-.08.28-.12.03-.01.05-.02.08-.03.13-.05.27-.11.41-.16.14-.05.28-.1.42-.15.14-.05.28-.1.42-.15.06-.02.11-.04.17-.06.06-.02.11-.04.17-.06.26-.09.53-.17.8-.25.09-.03.18-.05.27-.08.06-.02.12-.03.18-.05.11-.03.22-.06.33-.09.28-.07.56-.14.84-.21.1-.03.21-.05.31-.07.05,0,.09-.02.14-.03.12-.03.25-.05.37-.08.07-.02.14-.03.21-.04.07-.01.14-.03.21-.04.14-.03.29-.05.43-.08s.29-.05.43-.07c.11-.02.21-.03.32-.05.03,0,.06,0,.09-.01.13-.02.27-.04.4-.05.35-.04.71-.08,1.07-.11.18-.02.36-.03.54-.04.03,0,.06,0,.1,0,.15,0,.3-.02.44-.03.71-.03,1.43-.04,2.14-.02,1.16.03,2.33.14,3.49.32,5.04.44,11.42,2.44,10.03,8.54-.03.12-.06.24-.09.37,0,0-.46,1.23-.96,1.66.45.08.89.17,1.34.27.28.13.54.29.78.48,2.23,1.65,3.13,5.17,1.37,7.41-.18.24-.4.46-.64.66,0,0-.61.57-1.05.89.26.08.52.19.77.32.39.25.74.57,1.03.94,1.51,1.9,1.64,5.04.04,6.92-.19.22-.4.43-.64.61,0,0-.53.58-1.05.84.2.09.37.18.53.3.42.39.75.8,1.01,1.22.37.61.59,1.24.66,1.87Z"/>
          <path class="cls-5" d="M40.57,126.53c3.09,4.25,4.1,9.98,3.56,15.14-.14,1.38-.25,2.44-.37,3.5l-.13,1.53c-2.96.14-5.88.75-8.63,1.78-1.21.45-2.28,1.06-3.23,1.81,1.84-8.04.56-15.25.74-21.76.03-1.27.09-2.65.91-3.63.9-1.06,2.52-1.35,3.88-.93,1.35.41,2.44,1.42,3.27,2.55Z"/>
          <g>
            <path class="cls-1" d="M26.99,192.74c-.29-.35-.58-.7-.87-1.06,0,.03.02.05.02.08,0-.03-.02-.05-.03-.08-.17-.21-.34-.42-.51-.63-.46-.58-.92-1.16-1.37-1.75.29-.13.59-.24.9-.33.1-.03.2-.05.3-.07,2.17-.33,3.16,2.68,1.55,3.85Z"/>
            <path class="cls-1" d="M60.44,220.59c-.4-.22-.79-.44-1.19-.67-.4-.23-.8-.46-1.19-.69-.4-.23-.79-.47-1.19-.71-.4-.24-.8-.49-1.2-.73-.87-5.37-1.69-10.75-2.41-16.14-.23-1.69-.45-3.37-.65-5.06-.05-.44-.17-.91-.22-1.38-.03-.24-.04-.48-.02-.7-.03-.12-.06-.24-.09-.36-.02-.09-.06-.18-.09-.27.03.09.05.15.06.19-.03-.07-.07-.19-.1-.24-.01-.02-.06-.09-.1-.15-.03-.03-.09-.08-.13-.12-.09-.04-.25-.11-.28-.13,0,0,.02,0,.05.02-.04-.02-.07-.03-.09-.04-.04,0-.1,0-.2,0-.2-.01-.4-.05-.58-.11-.88-.27-1.55-1.02-1.55-2.03,0-.12.01-.24.04-.37.02-.1.04-.19.08-.29,0-.02.01-.04.02-.05.3-.82,1.1-1.49,2.01-1.43.23.02.46.04.68.08.11.02.21.04.32.07.62.14,1.19.36,1.7.67,1.12.69,1.96,1.77,2.33,3.21.14.51.17,1.04.22,1.57.17,1.76.43,3.51.66,5.26.91,6.9,2,13.77,3.13,20.64Z"/>
            <path class="cls-1" d="M63.3,177.02s0,0,0,0c1.25-1.45,1.96-3.24,1.83-5.27-.11-1.74-.73-3.43-1.83-4.69.95-1.2,1.55-2.6,1.47-4.34-.11-2.49-1.4-4.98-3.51-6.34,0,0,0,0,0,0,.68-2.27.36-4.89-1.06-6.78-1.82-2.45-4.8-3.66-7.71-4.25-2.15-.43-4.34-.7-6.53-.75.26-2.46.54-4.92.36-7.4-.29-4.03-1.4-8.14-3.74-11.48-1.22-1.74-2.85-3.34-4.98-3.85-1.91-.45-4.09-.06-5.52,1.36-1.58,1.57-1.7,3.85-1.73,5.94-.03,2.01.07,4.02.15,6.03.19,4.68.26,9.36-.68,13.97-4.46,3.92-5.97,10.13-6.67,15.81-.86,6.86-.6,13.89-.23,20.78.03.67.09,1.35.18,2.03.38.51.76,1.02,1.15,1.52.45.59.91,1.17,1.37,1.75.17.21.34.42.51.63,0,.03.02.05.03.08,0-.03-.02-.05-.02-.08.29.36.57.71.87,1.06,1.11,1.34,2.25,2.66,3.42,3.95.27.3.54.6.82.89.49.52.97,1.04,1.47,1.56.04.05.09.09.13.14.41.43.83.85,1.24,1.28h0s0,0,0,0c.04.05.09.09.13.14.89.89,1.78,1.77,2.7,2.63,2.89.29,5.87-.22,8.6-1.43,2.01-.89,3.94-2.21,5.32-3.93.69-.86,1.17-1.79,1.56-2.77.41-1.03.71-2.11,1.02-3.2.03-.09.05-.18.08-.27.21-.72.38-1.27.61-1.8.13-.31.27-.61.46-.95.04-.08.1-.16.15-.23,0,0,0,0,0,0,.09-.1.35-.32.29-.29.43-.26.89-.31,1.38-.35,1.6-.1,3.05-.31,4.44-1.17,1-.62,1.92-1.44,2.57-2.44.1-.16.2-.32.29-.49.4-.74.65-1.51.75-2.29.1-.75.07-1.51-.09-2.25-.18-.86-.54-1.69-1.05-2.46ZM34.65,128.25c.02-.58.01-1.26.29-1.78.22-.42.58-.51,1.04-.53,1.19-.06,2.32,1.04,3.01,2.05,1.85,2.7,2.84,5.94,3.07,9.19.18,2.53-.11,5.05-.38,7.56,0,0,0,0,0,0-.38.04-.75.09-1.13.14-2,.28-4.05.73-5.97,1.47.28-2.48.37-4.99.32-7.49-.07-3.54-.38-7.08-.25-10.61ZM60.21,181.24c-.03.18-.09.36-.16.51-.37.75-.94,1.29-1.74,1.7-1.12.57-2.49.32-3.7.59-2.14.5-3.43,2.01-4.29,3.87-.11.23-.21.47-.3.71-.24.62-.44,1.26-.62,1.9,0,.02,0,.03-.01.05-.03.1-.05.19-.08.29-.3,1.06-.57,2.13-.99,3.15,0,0-.17.36-.18.37-.09.17-.19.33-.29.49-.04.06-.06.1-.08.13-.02.03-.05.06-.09.1-.14.17-.28.33-.43.48-.74.78-1.24,1.16-2.11,1.69-2.83,1.72-6.15,2.28-9.27,1.52-.76-.18-1.5-.45-2.23-.79-.62-.3-1.23-.65-1.82-1.07-.02-.01-.03-.02-.05-.04-.79-.58-1.57-1.52-2.12-2.45-.7-1.16-1-1.9-1.39-3.11-.34-1.05-.6-2.12-.79-3.21-.04-.22-.08-.45-.11-.67,0-.05-.02-.1-.02-.13,0-.01,0-.03,0-.05-.04-.35-.08-.69-.11-1.04-.45-5.59-.5-11.33-.19-16.93.3-5.33,1-11.07,4.12-15.39.44-.61.99-1.18,1.61-1.69,0,0,0,0,0,0,.23-.11.44-.26.62-.47,0,0,0,0,0,0h0c.91-.65,1.94-1.17,2.99-1.53,3.69-1.25,7.57-1.69,11.45-1.28,1.71.18,2.66.26,4.31.66.7.17,1.39.38,2.06.64.01,0,.08.03.13.05,0,0,0,0,0,0,0,0,.02,0,.03.01,0,0,0,0,0,0,0,0,0,0,0,0h0s0,0,0,0c0,0,0,0,0,0,0,0,0,0,0,0,0,0,0,0,0,0s0,0,0,0c0,0,0,0,0,0,.13.06.26.12.39.19.29.15.56.3.83.48.8.52,1.41,1.23,1.63,2.17.08.34.1.97.04,1.37,0,.07-.12.45-.17.66,0,0,0,0,0,0-.41-.04-.81-.08-1.19-.13-1.63-.2-3.27-.3-4.92-.3-3.47,0-6.93.45-10.35,1.07-1.14.21-1.78,1.59-1.49,2.63.33,1.19,1.49,1.7,2.63,1.49,5.12-.93,10.38-1.31,15.53-.4,1.15.2,1.59.21,2.27.95.39.43.7,1.07.86,1.82.02.1.03.15.04.17,0,.01,0,.06,0,.17,0,.19,0,.39,0,.59-.01,0-.09.41-.09.42-.03.1-.04.16-.04.19-.02.03-.04.07-.08.14-.15.29-.45.62-.76.92-2.24-.42-4.72-.07-6.94.03-2.86.13-5.7.37-8.54.72-1.14.14-2.14.88-2.14,2.14,0,1.05.98,2.28,2.14,2.14,4.42-.54,8.95-.92,13.42-.9.91,0,2.08.14,2.53.61.33.34.35.38.58.87-.11-.24.12.35.12.36.06.2.11.41.15.61-.01-.01.03.45.03.44,0,.2,0,.41-.02.62-.01,0-.09.44-.09.44-.01.05-.14.42-.13.43-.19.42-.49.76-.85,1.1-.77-.19-1.57-.28-2.38-.33-2.51-.17-5.04.12-7.52.46-1.91.26-3.84.57-5.71,1.09-2.65.73-1.52,4.85,1.13,4.12,3.31-.92,6.3-1.3,9.67-1.42,1.84-.07,2.95-.08,4.39.4-.4-.14-.13-.08,0,0,0,0,0,0,0,0t0,0s.04.03.05.04c.04.06.06.09.07.09.01,0-.26-.45.12.13.19.29.42.55.55.9.11.3.14.77.06,1.19Z"/>
          </g>
          <path class="cls-5" d="M59.25,219.92c-.4-.23-.8-.46-1.19-.69-.4-.23-.79-.47-1.19-.71-1.15-7.13-2.24-14.27-3.14-21.44-.09-.68.41-1.02.94-1.02.53,0,1.11.34,1.19,1.02.7,5.59,1.52,11.17,2.39,16.73.32,2.04.65,4.08.99,6.11Z"/>
        </g>
      </g>
    </g>
  </g>
</svg>