<?xml version="1.0" encoding="UTF-8"?>
<svg id="_レイヤー_2" data-name="レイヤー 2" xmlns="http://www.w3.org/2000/svg" width="235.45" height="235.45" viewBox="0 0 235.45 235.45">
  <defs>
    <style>
      .cls-1 {
        fill: #323232;
      }

      .cls-2 {
        fill: #e6e6e6;
      }

      .cls-3 {
        fill: #fff;
      }

      .cls-4 {
        fill: #32c8c8;
      }
    </style>
  </defs>
  <g id="_レイヤー_3" data-name="レイヤー 3">
    <g>
      <path class="cls-2" d="M235.45,117.72c0,24.13-7.26,46.57-19.72,65.24-.77,1.16-1.57,2.31-2.38,3.44,0,0,0,0,0,0-1.01,1.4-2.04,2.78-3.11,4.13-3.27,4.15-6.81,8.07-10.6,11.74-.55.53-1.11,1.06-1.67,1.59-.57.53-1.14,1.05-1.72,1.57-2.81,2.52-5.74,4.9-8.78,7.14-1.71,1.26-3.45,2.47-5.23,3.64-.1.07-.2.13-.3.19-.61.4-1.23.8-1.85,1.19-.62.39-1.24.77-1.87,1.14-17.68,10.61-38.37,16.71-60.49,16.71s-43.09-6.18-60.85-16.93c-.62-.37-1.24-.76-1.85-1.14-.59-.37-1.17-.75-1.75-1.13-.03-.02-.06-.04-.09-.06-1.75-1.14-3.46-2.34-5.13-3.57-2.93-2.16-5.76-4.44-8.47-6.86-.58-.52-1.16-1.04-1.73-1.57-.56-.52-1.11-1.04-1.66-1.57-4.26-4.1-8.22-8.51-11.83-13.2-1-1.3-1.98-2.63-2.92-3.97h0c-.77-1.09-1.51-2.18-2.24-3.3C7.05,163.65,0,141.51,0,117.72,0,52.71,52.71,0,117.72,0s117.72,52.71,117.72,117.72Z"/>
      <g>
        <path class="cls-3" d="M141.87,173.2c2.63,2.2,17.5,7.86,28.85,12.2-16.4,6.12-28.82,9-42.86,9.53-2.23.08-7.64,14.17-9.78,14.16-2.19-.01-8.28-14.12-10.37-14.22-26.14-1.23-41.74-8.91-42.69-9.39,11.38-4.35,26.39-10.06,29.04-12.28,0,0,4.03-2.54,4.86-8.75.21-1.59.21-3.42-.11-5.52,0,0-.14-1.18-.28-1.52,11.91,7.27,26.63,7.28,38.5-.23l-.16.81c-.28,2.07-.26,3.91-.05,5.54.88,6.68,5.06,9.68,5.06,9.68Z"/>
        <path class="cls-3" d="M141.99,38.9c13.06,7.81,23.81,27.34,27.61,41.19,4.48,14.11,6.89,25.7,8.8,38.86,1.64,11.32,2.68,24.99-4.06,34.94-1.21,1.78-7.82,13.55-27.31,11.1,0,0-1.28-.16-3.16-.71h-.02c-1.85.08-3.82-.08-5.91-.5,0,0-.77-.15-1.12-.26-.21-1.62-.23-3.47.05-5.54l.16-.81c7.02-4.44,13.05-11.51,16.91-21.26h0c.51-.11,1.47-.44,1.47-.44,4.43-1.67,8.34-5.22,10.84-9.86,2.5-4.64,3.58-10.33,2.98-15.79-.46-4.23-2.3-7.79-6.21-7.98-2.91-.14-4.68,3-5.14,6.17-8.4-28.83-43.53-20.17-60.54-40.77-12.96,11.15-20.35,32.46-20.37,40.81h-.02c-.46-3.18-2.26-6.3-5.17-6.16-3.91.19-5.76,3.74-6.22,7.98-.59,5.46.48,11.15,2.98,15.79,2.5,4.64,6.41,8.19,10.84,9.86,0,0,1.27.39,1.8.61,3.9,9.75,10.1,16.86,17.34,21.28.14.35.28,1.52.28,1.52.33,2.09.33,3.92.11,5.52-.21.08-.45.13-.45.13-2.8.68-5.36.9-7.68.72l-.18.06c-2.01.67-4.83.75-4.83.75-33.19,1.89-30.69-31.85-30.69-31.85.89-16.21,4.51-29.62,8.62-45.33,2.59-9.89,6.65-19.6,11.37-28.68,4.72-9.08,11.63-17.34,20.73-22.11,15.05-7.89,34.07-7.73,46.18.76Z"/>
        <path class="cls-3" d="M163.01,101.84c3.91.19,5.75,3.75,6.21,7.98.59,5.46-.48,11.15-2.98,15.79-2.5,4.64-6.41,8.19-10.84,9.86,0,0-.96.33-1.47.44h0c-3.86,9.75-9.89,16.82-16.91,21.26-11.87,7.51-26.59,7.5-38.5.23-7.24-4.42-13.45-11.53-17.34-21.28-.54-.22-1.8-.61-1.8-.61-4.43-1.67-8.34-5.22-10.84-9.86-2.5-4.64-3.57-10.33-2.98-15.79.46-4.23,2.31-7.79,6.22-7.98,2.91-.14,4.71,2.98,5.17,6.16h.02c.02-8.34,7.41-29.66,20.37-40.81,17.01,20.6,52.14,11.94,60.54,40.77.47-3.17,2.24-6.31,5.14-6.17Z"/>
        <path class="cls-4" d="M197.96,203.87c-.57.53-1.14,1.05-1.72,1.57-2.81,2.52-5.74,4.9-8.78,7.14-1.71,1.26-3.45,2.47-5.23,3.64-.1.07-.2.13-.3.19-.61.4-1.23.8-1.85,1.19-.62.39-1.24.77-1.87,1.14-17.68,10.61-38.37,16.71-60.49,16.71s-43.09-6.18-60.85-16.93c-.62-.37-1.24-.76-1.85-1.14-.59-.37-1.17-.75-1.75-1.13-.03-.02-.06-.04-.09-.06-1.75-1.14-3.46-2.34-5.13-3.57-2.93-2.16-5.76-4.44-8.47-6.86-.58-.52-1.16-1.04-1.73-1.57,1.98-5.66,5.03-8.84,10.46-11.75,1.73-.93,3.69-1.83,5.94-2.77,1.29-.54,3.04-1.23,5.08-2.02.99-.38,2.04-.79,3.16-1.22.17-.06.34-.13.51-.19.07-.03.14-.05.2-.08.57-.22,1.15-.44,1.75-.67.02,0,.05-.02.07-.03h0s.03.01.04.02c.03.02.06.03.11.05.02.01.05.03.08.04,0,0,.02,0,.02.01.03.01.06.03.09.04.26.13.66.31,1.19.55.07.03.15.07.23.1.2.09.42.18.66.28.08.03.17.07.26.11.01,0,.02,0,.03.01.05.02.1.04.16.06.11.04.22.09.34.14.02,0,.04.02.06.02.09.04.18.07.27.11.61.24,1.29.5,2.04.78.11.04.22.08.33.12.07.03.14.05.2.07s.14.05.21.07c.14.05.28.1.43.15l.08.03.08.03s.03,0,.04.01c.03,0,.06.02.09.03.09.03.18.06.27.09s.19.06.28.1c.27.09.55.19.84.28.12.04.24.08.37.12.27.09.55.18.83.27.1.03.21.07.31.1.21.07.42.13.64.2.27.08.54.17.82.25.17.05.34.1.51.15,0,0,.01,0,.02,0,.18.05.36.1.54.16.04.01.09.03.13.04.14.04.28.08.42.12.18.05.37.1.56.16.19.05.38.1.57.16.33.09.67.18,1.02.27.13.03.25.07.38.1.03,0,.07.02.11.03.14.03.28.07.42.11.14.03.28.07.42.1,0,0,0,0,.01,0,.43.1.86.21,1.3.31.22.05.43.1.65.15.39.09.79.18,1.2.27.28.06.57.12.86.18.67.14,1.36.28,2.06.42.07.01.13.03.2.04.3.06.61.12.92.17.38.07.76.14,1.15.21.26.05.52.09.78.14.22.04.45.08.67.11.26.04.51.09.77.13h.03c.25.04.5.08.75.12.25.04.5.08.76.11.23.03.46.07.69.1.19.03.39.05.58.08.19.03.39.05.59.08.21.03.42.06.63.08.19.02.38.05.57.07.02,0,.03,0,.05,0,.63.08,1.28.16,1.93.23h0c.27.03.54.06.81.09.3.03.6.06.9.09.28.03.56.05.84.08.02,0,.03,0,.05,0,.3.03.59.05.89.08.07,0,.14.01.21.02.38.03.77.06,1.16.09.11,0,.23.02.34.03.28.02.56.04.84.06.2.01.4.03.6.04.2.01.4.03.61.04.29.02.57.03.86.05.32.02.63.03.95.05,2.09.1,8.17,14.21,10.37,14.22,2.14.01,7.55-14.07,9.78-14.16.44-.02.88-.03,1.31-.06.38-.02.75-.04,1.13-.06.19-.01.38-.02.56-.03.19-.01.37-.02.56-.04.12,0,.23-.02.35-.02.29-.02.57-.04.85-.06.24-.02.47-.04.71-.06.24-.02.47-.04.71-.06.32-.03.63-.06.95-.09.21-.02.43-.04.64-.07.21-.02.43-.04.64-.07.08,0,.17-.02.25-.03.03,0,.06,0,.1-.01.31-.03.62-.07.93-.11h0c.36-.04.71-.09,1.07-.14.08,0,.15-.02.23-.03.36-.05.73-.1,1.09-.16.4-.06.8-.12,1.19-.18.15-.02.29-.05.44-.07.15-.02.29-.05.44-.07.14-.02.28-.05.42-.07.17-.03.34-.06.51-.09.16-.03.32-.05.47-.08,0,0,.01,0,.02,0,0,0,.01,0,.02,0,.16-.03.31-.06.47-.09.14-.03.29-.05.43-.08.07-.01.15-.03.22-.04.21-.04.42-.08.63-.12.37-.07.75-.15,1.12-.23.19-.04.38-.08.56-.12.19-.04.38-.08.57-.12.38-.08.75-.16,1.13-.25.38-.09.76-.17,1.14-.26.22-.05.43-.1.65-.16.22-.05.44-.1.65-.16.44-.11.88-.22,1.32-.33.22-.06.44-.11.66-.17.22-.06.44-.12.66-.18.21-.06.43-.11.64-.17.23-.06.47-.13.7-.19.16-.04.32-.09.49-.14.03,0,.07-.02.1-.03.24-.07.48-.14.72-.2.24-.07.48-.14.72-.21.43-.12.85-.25,1.28-.38.03,0,.06-.02.09-.03.46-.14.92-.28,1.38-.43.23-.07.47-.15.7-.22.47-.15.93-.3,1.41-.45.23-.08.47-.15.71-.23.48-.16.95-.32,1.44-.48.24-.08.48-.16.72-.25.24-.08.49-.17.73-.25.24-.08.49-.17.73-.26.24-.09.49-.17.74-.26.24-.09.49-.17.74-.26.65-.23,1.3-.47,1.96-.71.36-.13.71-.26,1.07-.4.26.1.52.2.78.3.43.17.86.33,1.28.49.06.02.11.04.17.07,1,.38,1.97.76,2.88,1.11,2.38.92,4.4,1.72,5.85,2.32,1.81.76,3.43,1.49,4.9,2.23,5.98,3.01,9.28,6.16,11.39,11.96Z"/>
        <path class="cls-1" d="M95.13,175.04c1.66-1.06,3.01-2.74,3.96-4.43.93-1.66,1.57-3.51,1.85-5.39.19-1.26.29-2.53.24-3.8-.02-.61-.08-1.23-.16-1.84.03.26-.19-1.35-.1-.73-.07-.47-.12-.93-.2-1.4-.18-1.14-1.6-1.77-2.63-1.49-1.21.33-1.67,1.48-1.49,2.63.26,1.63.44,4.12.18,5.74-.14.89-.37,1.78-.68,2.63-.2.57-.35.89-.79,1.66-.15.27-.32.53-.49.78-.09.13-.18.25-.27.38-.28.42.3-.33-.02.03-.31.35-.61.71-.95,1.03-.18.17-1.05.97-.33.32-.08.08-.19.14-.28.2-2.31,1.47-.17,5.17,2.16,3.69h0Z"/>
        <path class="cls-1" d="M142.95,171.35c-.14-.1.57.5.14.1-.23-.22-.47-.42-.69-.65-.16-.16-.32-.33-.47-.51-.09-.1-.52-.64-.35-.41.21.27-.06-.08-.1-.14-.09-.13-.18-.26-.27-.39-.19-.28-.37-.57-.54-.87-.81-1.41-1.2-2.46-1.57-4.22-.41-1.94-.37-4.17-.09-6.27.15-1.15-1.09-2.14-2.14-2.14-1.28,0-1.99.99-2.14,2.14-.79,6.04.86,13.29,6.06,17.06.94.68,2.38.16,2.92-.77.63-1.08.17-2.24-.77-2.92h0Z"/>
        <path class="cls-1" d="M63.88,187.29c4.08,2.11,8.6,3.55,13,4.81,4.88,1.4,9.85,2.47,14.86,3.26,3.21.51,6.44.91,9.68,1.2,1.72.16,3.45.28,5.17.37.25.01.49.03.74.04.14,0,.65.13.14-.01-.06-.02-.65-.23-.5-.14.33.18-.18-.2-.14-.12.05.1.21.19.29.28.09.1.18.2.27.3.29.32-.01-.03.03.03.22.31.44.61.66.93.49.73.94,1.47,1.39,2.22,1.01,1.68,1.97,3.39,2.98,5.08,1.31,2.18,3.79,7.11,7.06,5.29,1.28-.71,2.12-2.18,2.86-3.39.98-1.61,1.86-3.29,2.75-4.95.85-1.58,1.69-3.18,2.7-4.66.1-.14.2-.28.29-.42.27-.4-.21.21.03-.04.14-.15.47-.41.56-.59.02-.05-.45.29-.13.11.13-.07.08.02-.13.05-.19.02-.16.02-.36.09-.4.16-.11.02.08.02.21,0,.41-.02.62-.03.41-.02.82-.04,1.23-.06,12.44-.69,24.51-3.59,36.24-7.69,1.72-.6,3.43-1.22,5.13-1.86,1.08-.4,1.82-1.45,1.49-2.63-.29-1.04-1.54-1.9-2.63-1.49-11.67,4.35-23.68,7.94-36.12,9.09-1.47.14-2.94.24-4.42.32-1.1.06-2.31-.06-3.3.5-1.29.73-2.15,2.21-2.9,3.43-1.89,3.09-3.35,6.45-5.36,9.48-.1.14-.19.28-.29.43-.17.24-.28.35-.03.05-.18.21-.38.4-.55.61-.25.31.38-.25.13-.1-.33.21.31-.11.23-.09.14-.04.79-.02.82,0-.2-.05.57.28.19.06-.24-.14.33.36.15.11-.07-.09-.18-.17-.26-.26-.1-.1-.19-.2-.28-.31-.15-.18-.35-.46-.09-.1-.47-.65-.92-1.31-1.35-1.99-1.92-3.05-3.49-6.35-5.64-9.25-1.11-1.5-2.1-2.47-4.05-2.57-3.32-.17-6.63-.45-9.93-.85-5.33-.64-10.63-1.63-15.83-2.96-3.65-.93-7.26-2.03-10.79-3.36-.6-.23-1.2-.46-1.8-.7-.23-.09-.45-.19-.68-.28.56.21.01,0-.26-.12-.54-.24-1.08-.49-1.61-.74-.07-.03-.13-.06-.19-.1-1.02-.53-2.32-.27-2.92.77-.56.96-.26,2.39.77,2.92h0Z"/>
        <path class="cls-1" d="M97.63,101.92c.4-.08.79-.16,1.19-.23.24-.05.46-.05.09-.02.19-.02.39-.04.58-.04,1.05-.05,2.12.07,3.16.17,1.15.11,2.14-1.06,2.14-2.14,0-1.25-.98-2.03-2.14-2.14-2.15-.2-4.05-.14-6.16.28-1.13.22-1.78,1.57-1.49,2.63.32,1.18,1.49,1.72,2.63,1.49h0Z"/>
        <path class="cls-1" d="M137.72,97.8c-2.11-.42-4.01-.48-6.16-.28-1.15.11-2.14.9-2.14,2.14,0,1.07.98,2.25,2.14,2.14,1.05-.1,2.11-.22,3.16-.17.17,0,.33.02.5.04.16.01-.4-.08.09.02.43.08.85.16,1.28.25,1.13.22,2.31-.32,2.63-1.49.29-1.05-.35-2.4-1.49-2.63h0Z"/>
        <path class="cls-1" d="M171.08,107.87c-.67-3.48-2.71-7.05-6.39-7.93-2.23-.54-4.45-.06-6.11,1.58-1.58,1.55-2.44,3.79-2.78,5.94-.18,1.14.29,2.3,1.49,2.63,1.02.28,2.45-.35,2.63-1.49.21-1.32.61-2.83,1.42-3.79.72-.85,1.3-.99,2.32-.72.95.25,1.66.86,2.22,1.81.63,1.07.97,2.33,1.17,3.66.97,6.65-1.03,14.2-5.63,19.21-1.14,1.24-2.45,2.37-3.89,3.28.07-.22.14-.45.2-.67.78-2.64-3.34-3.77-4.12-1.14-.46,1.57-.96,3.06-1.51,4.5-.1.17-.17.35-.21.54-.8,2.01-1.72,3.95-2.84,5.93-1.88,3.33-3.75,5.89-6.34,8.57-1.17,1.21-2.42,2.35-3.73,3.4-.46.37-.19.16-.66.51-.34.25-.69.5-1.04.74-.69.48-1.4.94-2.12,1.37-1.36.82-2.78,1.54-4.23,2.18-.07.03-.1.05-.11.05-.03.01-.08.03-.16.06-.17.07-.35.14-.52.21-.38.15-.76.29-1.14.42-.73.26-1.47.49-2.22.7-1.52.43-3.05.73-4.61.97-.03,0-.06,0-.08.01-.02,0-.05,0-.09,0-.18.02-.37.04-.55.06-.4.04-.79.08-1.19.11-.76.06-1.53.09-2.29.09-1.56.01-3.12-.09-4.67-.26-.06,0-.12-.01-.18-.02-.18-.03-.35-.05-.53-.08-.39-.06-.79-.13-1.18-.21-.79-.15-1.57-.33-2.34-.53-1.5-.39-2.98-.89-4.42-1.46-.07-.03-.23-.1-.29-.12-.14-.06-.27-.12-.41-.18-.4-.18-.8-.36-1.2-.56-.71-.35-1.42-.72-2.11-1.11-1.43-.81-2.81-1.72-4.13-2.71-.05-.04-.22-.17-.27-.21-.13-.1-.26-.2-.38-.3-.33-.27-.66-.55-.99-.83-.63-.55-1.25-1.12-1.85-1.7-2.64-2.59-4.48-4.96-6.38-8.08-1.39-2.29-2.5-4.52-3.44-6.87-.02-.05-.04-.09-.06-.14-.45-1.14-.87-2.31-1.25-3.52-.32-1-.6-2-.87-3.02-.7-2.66-4.82-1.53-4.12,1.14.21.79.43,1.57.67,2.36-1.01-.6-1.96-1.3-2.84-2.09-2.47-2.24-4.39-5.09-5.55-8.22-1.29-3.44-1.83-7.1-1.61-10.77.09-1.51.3-3.02.89-4.45.4-.96,1.08-1.87,1.87-2.32.41-.23.97-.4,1.43-.41.58-.02.9.1,1.24.38,1.17.96,1.63,2.69,1.87,4.21.18,1.14,1.6,1.77,2.63,1.49,1.22-.33,1.67-1.48,1.49-2.63-.59-3.76-3.15-8.04-7.49-7.71-4.01.3-6.57,3.4-7.57,7.09-1.15,4.23-.84,9.03.2,13.24,1.06,4.29,3.11,8.33,6.09,11.61,1.51,1.67,3.29,3.13,5.23,4.28,1.32.78,2.71,1.28,4.12,1.8,2.11,5,4.95,9.67,8.59,13.73,4.74,5.28,10.81,9.32,17.55,11.54,6.38,2.11,13.29,2.45,19.86,1.07,6.81-1.43,13.12-4.82,18.26-9.48,5.15-4.67,8.99-10.58,11.67-16.95,7.44-2.28,12.83-9.42,14.88-16.67,1.2-4.22,1.53-8.84.7-13.15Z"/>
        <path class="cls-1" d="M143.07,37.06c-7-4.85-15.71-6.88-24.14-6.82-9.09.07-18.41,2.49-26.21,7.19-7.72,4.64-13.8,11.69-18.24,19.45-2.5,4.38-4.65,8.99-6.62,13.63-2.07,4.86-3.92,9.82-5.4,14.89-1.47,5.04-2.73,10.15-3.99,15.25-1.2,4.84-2.32,9.7-3.22,14.61-1.19,6.5-2.17,13.16-2.34,19.77-.17,6.69,1.26,13.74,4.53,19.61,2.4,4.31,5.98,7.96,10.36,10.26,5.62,2.95,12.06,3.7,18.33,3.34,1.75-.1,3.56-.31,5.22-.87,1.09-.37,1.81-1.47,1.49-2.63-.29-1.06-1.53-1.86-2.63-1.49-2.82.96-6.1.91-9.09.76-2.91-.14-5.57-.58-8.5-1.62-.3-.11-.6-.22-.9-.34-.1-.04-.49-.2-.1-.04-.14-.06-.29-.12-.43-.19-.58-.26-1.15-.55-1.71-.86-.51-.28-1.02-.59-1.51-.91-.24-.16-.48-.32-.71-.49-.14-.1-.28-.2-.41-.3-.36-.27.28.23-.1-.08-.89-.73-1.73-1.5-2.51-2.34-.36-.39-.7-.79-1.04-1.2-.39-.47.12.18-.24-.31-.17-.23-.34-.46-.5-.69-.59-.86-1.13-1.75-1.62-2.67-.23-.44-.45-.88-.66-1.33-.1-.22-.2-.45-.3-.67-.21-.46.17.45-.01-.03-.05-.13-.11-.27-.16-.4-.71-1.79-1.26-3.65-1.67-5.54-.18-.83-.33-1.67-.46-2.51-.03-.19-.05-.39-.08-.58-.05-.29.07.59.02.17-.01-.09-.02-.19-.03-.28-.05-.38-.09-.75-.12-1.13-.11-1.2-.18-2.41-.18-3.62-.02-4.37.53-8.78,1.13-13.09,1.36-9.62,3.7-19.05,6.15-28.44,1.29-4.95,2.6-9.88,4.32-14.7,1.66-4.64,3.58-9.17,5.71-13.61,3.8-7.92,8.28-15.38,15-21.18,6.46-5.57,14.72-8.84,23.11-10.05,7.77-1.12,16.2-.4,23.37,2.94,1.73.8,3.38,1.75,4.94,2.84.95.66,2.37.17,2.92-.77.62-1.06.18-2.26-.77-2.92h0Z"/>
        <path class="cls-1" d="M71.4,147.78c.88,4.72,2.76,9.27,5.89,12.95,3.08,3.62,7.41,5.93,12.11,6.56,3.23.43,6.48.11,9.64-.64,2.67-.64,1.54-4.76-1.14-4.12-2.37.57-4.78.84-7.22.64-1.72-.14-3.98-.77-5.47-1.53-3.51-1.79-5.87-4.61-7.6-8.24-.31-.65-.38-.81-.61-1.42-.21-.55-.4-1.11-.58-1.68-.37-1.19-.66-2.41-.89-3.64-.21-1.13-1.58-1.78-2.63-1.49-1.19.33-1.7,1.49-1.49,2.63h0Z"/>
        <path class="cls-1" d="M159.2,146.49c-.15,1.75-.64,3.87-1.38,5.75-.21.54-.81,1.72-1.26,2.47-.58.95-.96,1.48-1.61,2.21-2.63,2.96-6.2,4.77-10.08,5.14-2.48.23-5.1.09-7.5-.61-2.64-.77-3.77,3.35-1.14,4.12,5.04,1.47,10.77,1.11,15.55-1.04,4.25-1.92,7.69-5.56,9.59-9.79,1.19-2.64,1.86-5.37,2.11-8.25.1-1.15-1.05-2.14-2.14-2.14-1.24,0-2.04.98-2.14,2.14h0Z"/>
        <path class="cls-1" d="M140.91,40.74c9.15,5.52,15.7,15.22,20.53,24.59,2.37,4.61,4.39,9.42,5.84,14.4,1.89,6.5,3.86,12.95,5.37,19.55,1.46,6.4,2.61,12.87,3.57,19.37.85,5.79,1.48,11.64,1.2,17.5-.28,5.76-1.56,11.53-4.76,16.4-.39.59-.77,1.19-1.19,1.76-.13.18-.28.36-.4.55.4-.58-.09.11-.24.3-.39.47-.8.92-1.22,1.36-.49.51-1.01.99-1.54,1.44-.14.12-.28.24-.42.35-.08.07-.17.13-.25.2.01-.01.3-.23.11-.08-.34.25-.68.5-1.03.74-.76.51-1.55.98-2.37,1.4-.38.2-.77.38-1.16.56-.43.19-.02.02-.34.15-.26.1-.52.21-.79.3-2.14.78-4.45,1.28-6.55,1.47-1.37.12-2.74.16-4.11.12-.72-.02-1.44-.06-2.16-.12-.38-.03-.75-.07-1.13-.11-.16-.02-.33-.04-.49-.05-.91-.1.2.04.14.02-1.03-.25-2.09-.34-3.09-.71-1.08-.4-2.34.45-2.63,1.49-.33,1.19.41,2.23,1.49,2.63,2.34.86,5.11,1.02,7.56,1.11,2.84.1,5.71-.12,8.5-.71,4.16-.88,8.03-2.71,11.33-5.38,5.64-4.57,9.11-11.79,10.33-18.8,1.09-6.24.88-12.6.16-18.87-.75-6.62-1.85-13.23-3.16-19.77-1.38-6.88-3.09-13.68-5.1-20.4-1.67-5.56-3.4-11.03-5.82-16.32-4.8-10.51-11.52-20.92-20.83-27.97-1.02-.78-2.08-1.5-3.18-2.16-2.36-1.42-4.51,2.27-2.16,3.69h0Z"/>
        <path class="cls-1" d="M79.1,108.08c0-.42.02-.84.05-1.25.01-.2.03-.41.05-.61.01-.13.03-.26.04-.4,0-.06.08-.61.03-.29-.04.26.07-.46.09-.57.04-.24.08-.48.12-.71.11-.6.23-1.2.37-1.79.6-2.68,1.41-5.31,2.35-7.9,2.19-6.03,5.18-11.9,8.93-17.21,2.11-3,4.53-5.78,7.27-8.22,2.05-1.84-.97-4.85-3.02-3.02-5.21,4.66-9.32,10.53-12.58,16.69-2.96,5.59-5.39,11.58-6.88,17.74-.59,2.46-1.08,5.01-1.09,7.55-.01,2.75,4.26,2.75,4.27,0h0Z"/>
        <path class="cls-1" d="M90.51,60.19c2.52,5.64,6.38,10.47,11.28,14.21,4.47,3.41,9.63,5.74,14.88,7.68,5.17,1.91,10.48,3.4,15.68,5.23,1.27.45,2.53.92,3.78,1.42.83.33.74.29,1.51.63.6.26,1.2.54,1.79.82,2.33,1.12,4.58,2.43,6.66,3.97.1.08.21.15.31.23-.34-.26.18.15.25.2.27.22.55.45.81.68.54.47,1.06.95,1.56,1.46,1.14,1.15,1.96,2.14,2.72,3.22,1.96,2.81,3.14,5.49,4.07,8.65.77,2.63,4.9,1.51,4.12-1.14-1.68-5.71-4.69-10.97-9.15-14.96-4.09-3.66-8.99-6.13-14.07-8.12-5.1-2-10.39-3.5-15.58-5.26-5.33-1.8-9.96-3.57-14.75-6.7-2.54-1.66-4.67-3.43-6.83-5.87-1.14-1.29-1.82-2.2-2.78-3.71-.98-1.54-1.83-3.15-2.57-4.82-.47-1.05-2-1.3-2.92-.77-1.08.63-1.24,1.86-.77,2.92h0Z"/>
        <path class="cls-1" d="M131.39,58.62c9.44,4.38,17.05,11.99,21.73,21.26,1.32,2.62,2.36,5.35,3.16,8.17.75,2.64,4.87,1.52,4.12-1.14-3.09-10.87-9.78-20.51-18.85-27.23-2.5-1.85-5.18-3.44-8.01-4.75-1.05-.49-2.3-.3-2.92.77-.54.92-.29,2.43.77,2.92h0Z"/>
        <path class="cls-1" d="M95.56,174.7c-.14.11-.28.22-.42.33,0,0,0,0,0,0s0,0,0,0c-.58.43-1.19.8-1.83,1.14-5.7,3.04-11.91,5.25-17.92,7.58-1.57.61-3.13,1.21-4.7,1.81-.98.38-1.96.75-2.95,1.12-.48.18-.96.37-1.44.55-.47.18-.94.36-1.41.54-.2.07-.39.15-.58.22-.69.26-1.37.53-2.06.79-1.97.76-3.94,1.53-5.91,2.32-.48.19-.96.39-1.44.59,0,0,0,0,0,0-1.76.73-3.54,1.53-5.26,2.45-.38.2-.77.41-1.14.63-.66.38-1.3.77-1.93,1.2-.25.17-.49.35-.74.52-.03.02-.2.15-.26.2-.01,0-.02.02-.02.02-.04.03-.08.06-.12.09-.96.79-1.83,1.65-2.64,2.6-.06.07-.1.11-.12.14,0,0-.02.03-.06.08-.08.11-.17.23-.25.34-.18.25-.35.51-.52.77-.31.49-.59,1-.86,1.51-.16.32-.32.65-.47.98-.01.02-.07.15-.1.24,0,0,0,.01,0,.01,0,.01-.01.02-.02.04,0,0,0,0,0,0h0s0,.03-.01.03h0s0,0,0,0t0,0c-.05.12-.1.24-.14.36-.23.59-.43,1.2-.63,1.8-.58-.52-1.16-1.04-1.73-1.57-.56-.52-1.11-1.04-1.66-1.57,1.26-3.22,3.08-6.18,5.8-8.5,3.17-2.7,6.94-4.56,10.79-6.16,1.7-.71,3.43-1.37,5.12-2.03.26-.1.53-.21.79-.31.96-.37,1.91-.74,2.87-1.11.29-.11.59-.23.88-.34h0c.48-.18.96-.37,1.44-.55,0,0,0,0,0,0,0,0,0,0,0,0,.2-.08.41-.15.61-.23,4.6-1.76,9.2-3.51,13.79-5.32,3.23-1.28,6.15-2.45,9.12-3.78,1.16-.52,2.32-1.05,3.45-1.64.42-.22.85-.45,1.25-.7.14-.09.28-.18.42-.27.03-.02.07-.04.09-.06,0,0,0,0,0,0,0,0,0,0,0,0s0,0,0,0c.12-.09.24-.17.37-.23,0,0,0,0,0,0,0,0,0,0,0,0,.83-.44,1.81-.42,2.55.31.03.03.06.06.08.09.68.78.78,2.23-.08,2.93Z"/>
        <path class="cls-1" d="M199.63,202.28c-.55.53-1.11,1.06-1.67,1.59-.57.53-1.14,1.05-1.72,1.57-.16-.5-.33-.99-.52-1.47-.21-.54-.29-.74-.68-1.53-.29-.57-.6-1.13-.94-1.67-.18-.29-.37-.57-.57-.84-.06-.09-.13-.18-.2-.27,0,0-.01-.02-.02-.03,0,0,0,0,0,0,0,0,0,0,0,0-.02-.02-.03-.03-.05-.06-.79-.96-1.65-1.83-2.61-2.62-.08-.07-.17-.14-.25-.2h0s0,0,0,0c0,0,0,0,0,0,0,0,0,0,0,0t0,0s0,0,0,0c-.06-.05-.23-.17-.26-.2-.24-.17-.49-.35-.74-.52-.57-.39-1.16-.75-1.76-1.1-.61-.35-1.23-.69-1.85-1.01-.76-.39-1.52-.75-2.29-1.11-1.59-.73-3.18-1.39-4.81-2.04-.89-.35-1.79-.7-2.71-1.06-1-.39-1.99-.77-2.99-1.15-.72-.28-1.44-.55-2.16-.83-.03-.01-.06-.03-.1-.04-.64-.25-1.29-.49-1.93-.74h0c-.37-.14-.73-.28-1.09-.42-1.03-.39-2.05-.79-3.08-1.18-3.1-1.19-6.19-2.39-9.28-3.62-3.18-1.27-6.36-2.56-9.48-3.97-1.73-.78-3.52-1.56-5.05-2.7-.08-.06-.16-.12-.24-.18t0,0c-.06-.05-.13-.1-.19-.15-.89-.73-.76-2.24-.02-3,0,0,.01-.02.02-.02.77-.77,1.85-.75,2.71-.22,0,0,0,0,0,0,.03.02.06.04.09.06,0,0,0,0,0,0s0,0,0,0c.05.03.1.06.14.1.03.02.06.03.09.06.14.09.28.18.42.27.39.24.79.45,1.19.66,5.74,3,11.6,5.07,17.77,7.46,2.73,1.06,5.47,2.09,8.2,3.13,0,0,0,0,0,0,.32.12.65.25.97.37.41.15.81.31,1.22.46h0s.02,0,.03.01c.94.36,1.87.72,2.81,1.08h0c1.6.62,3.19,1.25,4.78,1.9h0c.26.1.52.21.78.32,5.35,2.2,11.1,4.67,14.8,9.31,1.37,1.72,2.42,3.62,3.24,5.62Z"/>
        <ellipse class="cls-1" cx="117.49" cy="127.74" rx="2.96" ry="2"/>
        <path class="cls-1" d="M103.05,107.97c-1.79-2.55-4.58-1.94-5.92.17-1.51,2.35-1.31,6.51.2,8.84.52.76,1.24,1.22,2.09,1.38,3.32.61,4.7-2.57,4.68-5.2,0-1.6-.11-3.85-1.05-5.18Z"/>
        <path class="cls-1" d="M137.24,107.97c-1.79-2.55-4.58-1.94-5.92.17-1.51,2.35-1.31,6.51.2,8.84.52.76,1.24,1.22,2.09,1.38,3.32.61,4.7-2.57,4.68-5.2,0-1.6-.11-3.85-1.05-5.18Z"/>
        <g>
          <path class="cls-3" d="M128.09,136.5s-9.7,22.58-20.84.14c0,0,11.2,1.48,20.84-.14Z"/>
          <path class="cls-1" d="M130.15,135.93c-.09-.33-.24-.6-.44-.82-.03-.03-.05-.06-.08-.09,0,0,0,0-.01-.01-.13-.13-.27-.25-.45-.35-.43-.25-1.01-.33-1.55-.23-.03,0-.07,0-.1.01-6.6,1.09-13.64.93-20.27.06-1.74-.23-2.48,1.95-1.84,3.21,2.6,5.18,7.19,12.31,14.02,10.77,4.07-.91,7.04-4.73,9.06-8.14.53-.9,1.04-1.82,1.45-2.78,0-.02.02-.05.03-.07.25-.49.32-1.08.19-1.58ZM114.55,143.23c-.08-.06-.16-.13,0,0h0ZM123.44,140.27c-.09.12-.18.24-.27.36,0,0-.25.31-.34.42-.57.69-1.19,1.34-1.87,1.92-.08.07-.17.14-.25.2-.16.11-.32.23-.49.34-.16.1-.32.2-.49.3-.07.04-.35.18-.49.25-.12.04-.37.14-.42.16-.18.06-.36.11-.54.15-.08.02-.15.03-.23.05-.22.01-.44.03-.67.02-.19,0-.81-.14-.23,0-.2-.05-.4-.08-.59-.13-.09-.03-.59-.21-.56-.19-.21-.1-.41-.2-.61-.32-.27-.16-.53-.33-.78-.51-.01,0-.03-.02-.05-.04-.16-.13-.32-.27-.47-.41-.59-.53-1.13-1.12-1.63-1.74-.49-.61-.94-1.25-1.36-1.92,4.35.36,8.77.36,13.11-.06-.04.05-.07.11-.1.17-.22.33-.44.66-.67.98Z"/>
        </g>
      </g>
      <g>
        <path class="cls-3" d="M64.85,191.27c-.39,1.82-1.78,3.14-3.23,4.33-.56.46-1.13.9-1.65,1.35-.04.7-.06,1.41-.08,2.12-.19,6.62.07,13.25-4.86,18.31-.59-.37-1.17-.75-1.75-1.13-.03-.02-.06-.04-.09-.06-1.75-1.14-3.46-2.34-5.13-3.57-2.93-2.16-5.76-4.44-8.47-6.86-.58-.52-1.16-1.04-1.73-1.57-.56-.52-1.11-1.04-1.66-1.57-4.26-4.1-8.22-8.51-11.83-13.2-1-1.3-1.98-2.63-2.92-3.97h0c-.33-3.06-.06-6.06,1.23-8.47,2.73-5.08,8.36-7.64,13.19-10.24,2.45-1.32,5.96-2.1,8.72-1.74.79.1,1.51.3,2.14.59.07.03.15.07.22.11.06.03.12.06.17.1.02,0,.03.02.04.03.04.03.09.05.13.08.03.02.06.04.09.06.04.03.08.06.12.09.03.02.06.04.08.06.04.03.08.06.11.09.02.01.03.03.05.04.05.04.1.09.15.14.06.05.11.11.16.17.05.05.09.11.14.17,0,0,.01.02.02.03.04.05.07.1.1.15.01.02.02.03.03.05.03.05.06.1.09.15.02.03.04.07.05.1.02.04.04.08.06.12,0,0,0,.02.01.03.02.05.04.1.06.15.01.03.03.06.04.09.03.08.06.16.08.24.02.06.04.12.05.19,0,.01,0,.03.01.05.01.05.02.1.03.14,0,.03.02.07.02.11,0,0,0,.01,0,.02.01.07.02.14.03.21,0,0,.2,1.1-.14,2.19.54-.23,1.09-.45,1.64-.67.05,0,.11-.01.16-.02.11-.01.22-.02.32-.02.05,0,.11,0,.16,0,.04,0,.08,0,.12,0,.08,0,.16,0,.24,0,.1,0,.19,0,.29.02.07,0,.13.01.2.02,0,0,.02,0,.03,0,.06,0,.13.02.19.03.02,0,.04,0,.05,0,.08.01.15.03.23.05.09.02.18.04.27.07.06.02.12.03.18.05.02,0,.03.01.05.02.05.02.1.03.14.05.03,0,.05.02.08.03.07.02.13.05.2.08.07.03.14.06.21.09.09.04.17.08.26.13.05.03.1.06.16.09.09.05.17.1.25.16.05.03.1.07.15.1.15.11.3.22.43.35.05.04.09.08.13.13.04.04.09.09.13.13.02.02.04.04.06.07.04.04.08.09.11.13.1.12.2.24.29.38.03.05.07.1.1.15,0,0,0,.01.01.02.03.05.06.09.08.14.01.02.02.03.03.05.03.04.05.09.07.13.02.03.03.05.04.08.02.04.04.08.05.12.06.13.11.27.16.4.02.06.04.13.06.2.02.05.03.11.04.17.03.11.05.22.07.34,0,.06.02.11.03.17.01.07.02.14.03.21,0,.07.01.15.02.22,0,.01,0,.02,0,.03,0,.07,0,.15,0,.22v.05c0,.06,0,.11,0,.17,0,.06,0,.12,0,.18,0,.1-.02.21-.03.32-.02.21-.06.42-.11.64,0,0-.13.92-.44,1.3.28-.07.57-.12.86-.15.41,0,.81.06,1.21.17h0c.09.03.18.05.26.08,2.34.81,4.25,3.47,3.64,6.39-.03.16-.07.32-.12.48-.03.09-.06.18-.09.28,0,0-.38.9-.68,1.3.6,0,1.18.11,1.71.35.16.07.31.14.45.23.55.32,1.01.78,1.36,1.33.53.87.77,1.99.56,3.27Z"/>
        <path class="cls-3" d="M60.27,173.05c-.74,1.31-2.07,2.26-3.54,2.55,0,0-.36.08-.5,0,.45-3.71-2.71-5.94-5.84-5.52-.56.21-1.11.44-1.64.67.34-1.09.14-2.19.14-2.19-.17-1.44-.99-2.4-2.19-2.97-.16-1.14.58-1.63.58-1.63.32-.58.98-.89,1.62-1.08,3.02-.87,6.3.37,8.8,2.26,1.24.94,2.4,2.09,2.93,3.55.51,1.41.37,3.04-.36,4.35Z"/>
        <path class="cls-1" d="M63.73,184.67s-.02,0-.03-.01c.38-1.68.19-3.47-.57-5.06-.61-1.29-1.66-2.47-2.93-3.28.92-.72,1.67-1.65,2.13-2.63,1.39-2.97.67-6.21-1.49-8.6-1.82-2.01-4.46-3.59-7.09-4.26-2.69-.69-6.24-.58-8.09,1.75-.11.12-.22.24-.32.36,0,0,0,0,0,0-1.17-.2-2.39-.21-3.53-.1-2.47.24-4.86.9-7.06,2.05-2.46,1.29-4.95,2.56-7.26,4.11-2.45,1.65-4.68,3.62-6.25,6.14-1.32,2.11-1.94,4.55-2.06,7.01.73,1.11,1.47,2.21,2.24,3.29h0c.95,1.35,1.92,2.67,2.92,3.97-.1-.37-.2-.75-.29-1.13-.54-2.35-.87-4.95-.49-7.3.39-2.39,1.55-4.33,3.28-6.03,1.8-1.77,3.97-3.08,6.16-4.29,1.13-.62,2.27-1.22,3.41-1.82,1-.53,1.43-.75,2.43-1.08.59-.19,1.19-.35,1.8-.47.27-.05.54-.1.81-.15,0,0,0,0,.01,0s0,0,0,0c0,0,.01,0,.02,0,.18-.02.36-.04.54-.05.56-.04,1.12-.06,1.68-.03.11,0,.47.04.56.04,0,0,0,0,0,0,.07.01.48.09.62.12.22.05.44.12.65.19.03,0,.07.03.11.05,0,0,0,0,0,0h0s.03.02.05.03c.03.01.05.03.08.04s.05.03.08.04c.06.04.24.16.34.22h0c.05.07.18.2.25.25,0,0,0,0,0,0,.03.06.08.14.13.21-.02-.02.13.36.16.48.01.06.02.15.02.23v.06c0,.07,0,.12,0,.12v.1c-.38.19-.75.38-1.1.55-1.36.66-2.69,1.38-3.98,2.16-2.91,1.74-5.63,3.76-8.31,5.85-.91.71-.74,2.28,0,3.02.9.9,2.11.71,3.02,0,4.01-3.12,8.25-5.96,12.91-8.02.42-.19.93-.47,1.32-.59.13-.04.4-.06.6-.06.07,0,.37.02.35,0,.87.12,1.35.4,1.83.87.43.43.67.96.72,1.5.04.4,0,.78-.07,1.17,0,.04-.01.07-.02.11-1.91.76-3.61,2.14-5.29,3.27-2.63,1.76-5.26,3.5-7.77,5.44-.91.71-.74,2.28,0,3.02.9.9,2.1.71,3.02,0,1.92-1.48,3.96-2.81,5.97-4.15.9-.6,1.79-1.19,2.67-1.81.91-.64,1.81-1.35,2.85-1.76,1.48-.58,2.69-.12,3.57,1.22.46.7.67,1.45.56,2.29-.02.15-.08.3-.1.44,0,.07-.01.11,0,.13-.03.09-.07.17-.11.26-1.37.32-2.68,1.01-3.9,1.85-2.07,1.43-4.08,2.94-6.17,4.34-.96.64-1.37,1.88-.77,2.92.56.95,1.96,1.41,2.92.77,1.56-1.04,3.09-2.12,4.61-3.22,1.1-.79,2.17-1.58,3.37-2.21.41-.21.61-.32,1.07-.39-.15.03.4,0,.41,0,.07,0,.12,0,.16,0,.03.01.08.03.15.04.62.16.94.39,1.26.94.09.15.23.59.25.72.06.47.03.87-.13,1.29-.66,1.74-2.76,3.01-4.19,4.21-.42.35-.61.87-.62,1.4,0,0,0,.01,0,.02h0v.02s0,.05,0,.07c-.24,4.79.14,9.66-1.4,14.17-.63,1.85-1.74,3.57-3.18,5-.02.02-.04.04-.06.06.03.02.06.04.09.06.58.38,1.16.76,1.75,1.13.61.39,1.23.77,1.85,1.14,1.59-1.74,2.78-3.79,3.58-6.02,1.66-4.62,1.42-9.67,1.6-14.53,2.04-1.67,4.29-3.42,4.85-6.13.58-2.78-.58-5.84-3.18-7.17ZM50.93,167.91c-.23-1.12-.75-2.16-1.56-2.99,0,0,0,0,0,0,.48-.18,1.22-.19,1.67-.18,1.9.02,3.68.9,5.2,1.97,1.32.93,2.71,2.29,2.55,4.04-.06.68-.34,1.3-.79,1.79-.2-.57-.46-1.11-.79-1.56-1.43-2.02-3.83-3.17-6.29-3.08Z"/>
      </g>
      <g>
        <path class="cls-3" d="M187.61,163.97s.74.49.58,1.63c-1.19.57-2.02,1.53-2.19,2.97,0,0-.2,1.1.14,2.19-.54-.23-1.09-.45-1.64-.67-3.13-.42-6.29,1.8-5.84,5.52-.13.08-.5,0-.5,0-1.47-.29-2.8-1.25-3.54-2.55-.74-1.31-.87-2.94-.36-4.35.53-1.47,1.69-2.62,2.93-3.55,2.51-1.89,5.79-3.13,8.8-2.26.64.19,1.3.5,1.62,1.08Z"/>
        <path class="cls-3" d="M213.35,186.4s0,0,0,0c-1.01,1.4-2.04,2.78-3.11,4.13-3.27,4.15-6.81,8.07-10.6,11.74-.55.53-1.11,1.06-1.67,1.59-.57.53-1.14,1.05-1.72,1.57-2.81,2.52-5.74,4.9-8.78,7.14-1.71,1.26-3.45,2.47-5.23,3.64-.1.07-.2.13-.3.19-.61.4-1.23.8-1.85,1.19-5.15-5.08-4.88-11.81-5.07-18.53-.02-.7-.04-1.41-.08-2.11-.52-.44-1.09-.89-1.65-1.35-1.45-1.19-2.84-2.51-3.23-4.33-.24-1.44.09-2.67.77-3.57.03-.03.05-.07.08-.1.3-.38.66-.69,1.07-.93.23-.14.48-.26.74-.35.08-.03.16-.05.24-.08.37-.11.77-.16,1.17-.16-.3-.39-.68-1.3-.68-1.3-.09-.25-.16-.5-.21-.74,0,0,0,0,0-.02-.62-2.92,1.3-5.58,3.64-6.39.09-.03.17-.06.26-.08.4-.11.81-.17,1.22-.17.29.03.58.08.86.15-.31-.38-.44-1.3-.44-1.3-.05-.22-.09-.43-.11-.64-.01-.11-.02-.21-.03-.32,0-.02,0-.03,0-.05,0-.05,0-.11,0-.16,0-.07,0-.13,0-.2,0-.08,0-.15,0-.22,0-.01,0-.02,0-.03,0-.07,0-.15.02-.22,0-.07.01-.14.03-.21,0-.06.02-.12.03-.17.02-.12.04-.23.07-.34.01-.06.03-.11.04-.17.02-.07.04-.14.06-.2.07-.21.15-.41.25-.6.02-.04.04-.09.07-.13,0-.02.02-.04.03-.06.02-.04.04-.08.07-.11.02-.03.03-.06.05-.08.03-.04.05-.08.08-.11.11-.17.24-.33.37-.48.03-.03.06-.07.1-.1.03-.03.05-.06.09-.09.18-.19.39-.36.6-.51.05-.04.1-.07.15-.1.08-.05.16-.11.25-.16.05-.03.1-.06.16-.09.2-.11.4-.2.61-.28.06-.02.12-.05.19-.07.06-.02.13-.04.19-.06.06-.02.13-.04.19-.05.13-.03.26-.06.4-.09.07-.01.13-.02.2-.03.06,0,.12-.02.18-.03.01,0,.02,0,.04,0,.06,0,.12-.01.19-.02.07,0,.14,0,.21-.01.12,0,.24,0,.36,0,.04,0,.08,0,.12,0,.02,0,.04,0,.06,0,.04,0,.08,0,.13,0,.1,0,.21.02.31.03.56.21,1.11.44,1.64.67-.34-1.09-.14-2.19-.14-2.19,0-.08.02-.16.03-.23,0-.05.02-.11.03-.16,0-.03,0-.05.02-.07.01-.05.02-.1.04-.14.07-.25.16-.49.28-.71.05-.1.1-.19.16-.28.05-.07.1-.15.15-.22.05-.06.1-.12.15-.18.03-.04.07-.08.11-.12.02-.02.04-.04.06-.06.04-.04.09-.09.13-.13.04-.04.09-.08.14-.11.04-.03.09-.07.13-.1.03-.03.07-.05.1-.07.03-.02.05-.03.07-.05.05-.03.09-.06.14-.09.02-.01.04-.03.07-.04.05-.03.1-.06.16-.09.07-.04.14-.08.22-.11.63-.3,1.35-.49,2.14-.59,2.77-.36,6.27.42,8.72,1.74,4.83,2.6,10.45,5.16,13.19,10.24,1.43,2.66,1.6,6.04,1.11,9.42Z"/>
        <path class="cls-1" d="M214.64,177.13c-1.17-2.82-3.24-5.1-5.64-6.95-2.29-1.77-4.83-3.14-7.39-4.49-2.19-1.16-4.36-2.2-6.83-2.62-1.7-.29-3.51-.42-5.23-.11-.1-.13-.21-.26-.33-.38-1.82-2.29-5.28-2.42-7.94-1.78-2.67.64-5.4,2.25-7.24,4.3-2.1,2.35-2.88,5.51-1.55,8.45.46,1.03,1.24,2.01,2.2,2.77-1.24.78-2.28,1.92-2.88,3.16-.79,1.63-1.01,3.46-.62,5.18,0,0-.02,0-.03.01-2.58,1.32-3.78,4.4-3.18,7.17.59,2.72,2.8,4.45,4.85,6.13.17,4.85-.06,9.9,1.6,14.53.83,2.32,2.09,4.45,3.78,6.23.63-.37,1.25-.76,1.87-1.14.62-.39,1.24-.78,1.85-1.19-1.58-1.48-2.8-3.31-3.47-5.28-1.55-4.52-1.16-9.38-1.4-14.17,0-.04,0-.07,0-.11h0s0-.03,0-.03c-.02-.52-.21-1.03-.62-1.37-1.42-1.19-3.55-2.46-4.19-4.21-.29-.78-.15-1.55.12-2.02.33-.59.6-.77,1.26-.94.09-.02.13-.04.15-.05.03,0,.08,0,.16,0,.06,0,.54.03.43,0,.45.07.67.19,1.05.39,1.2.63,2.27,1.42,3.37,2.21,1.52,1.1,3.05,2.17,4.61,3.22.96.64,2.37.19,2.92-.77.61-1.05.19-2.28-.77-2.92-2.09-1.4-4.1-2.91-6.17-4.34-1.21-.84-2.53-1.53-3.89-1.84-.04-.08-.07-.16-.1-.24-.09-.22-.02-.21.02-.01-.04-.2-.12-.39-.14-.59-.11-.84.11-1.58.56-2.29.86-1.34,2.1-1.81,3.57-1.22,1.98.79,3.76,2.39,5.53,3.57,2.01,1.34,4.06,2.67,5.97,4.15.91.7,2.13.89,3.02,0,.74-.74.92-2.31,0-3.02-2.46-1.91-5.05-3.62-7.64-5.35-1.72-1.15-3.46-2.58-5.42-3.36,0-.04-.01-.07-.02-.11-.06-.35-.09-.67-.08-1.03.03-.62.27-1.18.72-1.63.48-.49.92-.72,1.8-.86.02,0,.67-.09.98,0,.31.1.9.44,1.31.62,4.66,2.06,8.9,4.9,12.91,8.02.91.71,2.13.89,3.02,0,.74-.74.92-2.31,0-3.02-2.67-2.08-5.4-4.1-8.31-5.85-1.3-.78-2.62-1.5-3.98-2.16-.36-.17-.74-.37-1.12-.56,0,0,0,0,0,0,0-.06,0-.12,0-.18,0-.03,0-.05,0-.07.04-.17.07-.35.11-.53.02-.09.03-.14.03-.17.02-.01.05-.05.11-.14.03-.04.05-.08.08-.12.09-.09.29-.27.27-.27.1-.07.21-.13.32-.19.02-.01.05-.03.07-.04,0,0,0,0,0,0,.01,0,.02-.01.03-.02.04-.02.08-.04.11-.06,0,0,0,0,0,0,.01,0,.02-.01.03-.02h0s0,0,0,0c.02,0,.04-.02.06-.02,1.62-.54,3.42-.45,5.14-.07,2.26.5,3.67,1.32,5.76,2.43,2.17,1.15,4.38,2.33,6.32,3.86,1.82,1.44,3.59,3.33,4.32,5.5.76,2.25.75,4.73.37,7.09-.23,1.46-.57,2.9-1,4.31,1.07-1.36,2.1-2.73,3.11-4.13,0,0,0,0,0,0,.81-1.13,1.61-2.28,2.38-3.44-.01-2-.33-4-1.09-5.84ZM177.67,170.99c-.32.46-.59.99-.79,1.56-.42-.45-.69-1.02-.78-1.64-.26-1.81,1.19-3.25,2.54-4.2,1.47-1.04,3.21-1.91,5.05-1.97.5-.01,1.27-.02,1.8.18-.8.83-1.28,1.87-1.49,2.99-2.47-.11-4.89,1.05-6.33,3.08Z"/>
      </g>
    </g>
  </g>
</svg>