<?xml version="1.0" encoding="UTF-8"?>
<svg id="_レイヤー_2" data-name="レイヤー 2" xmlns="http://www.w3.org/2000/svg" width="235.45" height="235.45" viewBox="0 0 235.45 235.45">
  <defs>
    <style>
      .cls-1 {
        fill: #323232;
      }

      .cls-2 {
        fill: #e6e6e6;
      }

      .cls-3, .cls-4 {
        fill: #fff;
      }

      .cls-4 {
        stroke: #323232;
        stroke-linecap: round;
        stroke-linejoin: round;
        stroke-width: 4px;
      }
    </style>
  </defs>
  <g id="_レイヤー_3" data-name="レイヤー 3">
    <g>
      <path class="cls-2" d="M235.45,117.72c0,28.75-10.3,55.09-27.42,75.53-.47.56-.94,1.11-1.42,1.66-.47.54-.94,1.08-1.43,1.61-14.32,15.88-32.9,27.85-53.94,34.09-.73.22-1.46.43-2.19.63-.72.2-1.45.39-2.18.58-9.32,2.37-19.09,3.64-29.15,3.64-6.97,0-13.79-.6-20.42-1.77-.73-.13-1.45-.26-2.17-.4-.73-.14-1.45-.29-2.17-.44-11.24-2.41-21.88-6.41-31.68-11.78-.4-.22-.8-.44-1.19-.66-.4-.23-.8-.45-1.19-.68-.39-.22-.77-.45-1.16-.68-.41-.24-.83-.49-1.24-.74-4.66-2.85-9.12-6.01-13.32-9.45-.9-.73-1.78-1.48-2.65-2.23-.9-.78-1.78-1.57-2.66-2.38-1.27-1.17-2.51-2.37-3.72-3.59-.5-.51-1-1.02-1.49-1.53-.49-.51-.98-1.03-1.46-1.55-1.03-1.11-2.04-2.25-3.02-3.4-1.01-1.18-1.99-2.38-2.96-3.6-1.11-1.41-2.19-2.84-3.24-4.3,0,0,0,0,0,0C8.15,166.94,0,143.29,0,117.72,0,52.71,52.71,0,117.72,0s117.72,52.71,117.72,117.72Z"/>
      <path class="cls-4" d="M149.47,32.14s8.1-4.88,21.2,5.42c16.41,12.9,25.44,56.55,13.58,88.53-6.84,18.44-17.74,25.7-37.22,25.7"/>
      <g>
        <g>
          <path class="cls-3" d="M160.4,128.14s-.85.31-1.3.34h-.01c-12.59,38.28-62.54,38.49-75.36.29h0c-.18.02-1.36-.31-1.36-.31-10.75-3.07-17.1-14.78-15.68-25.56.22-4.53,2.46-7.25,5.12-7.86,2.84-.66,6.16,1.09,7.98,5.58,4.96-9.34,14.37-13.25,19.21-15.01,3.55-1.29,7.15-2.36,10.63-3.68,5.98-.25,17.39.13,23.16-1.54,5.77-1.67,11.34-4.8,15.06-9.76.27-.35.52-.72.76-1.08,6.56,6.53,12.49,17.81,13.65,31.08,1.88-4.62,5.34-6.34,8.24-5.51,2.54.72,4.65,3.41,4.87,7.8,1.35,10.42-4.55,22.11-14.97,25.24Z"/>
          <path class="cls-3" d="M148.62,69.54c-.24.37-.5.73-.76,1.08-3.72,4.96-9.29,8.09-15.06,9.76-5.77,1.67-17.18,1.29-23.16,1.54-3.48,1.32-7.09,2.39-10.63,3.68-4.84,1.76-14.25,5.67-19.21,15.01-1.82-4.49-5.14-6.24-7.98-5.58h0c-5.37-13.97-5.76-29.96.96-42.03,6.72-12.08,18.14-22.17,31.26-27.3,3.17-1.24,6.44-2.32,9.82-2.84,18.73-2.9,35.8,5.32,41.58,15.5,19.53,8.59,22.84,35.51,15.09,56.74-2.9-.83-6.36.89-8.24,5.51-1.16-13.27-7.09-24.55-13.65-31.08Z"/>
          <path class="cls-1" d="M95.13,233.28c-.73-.14-1.45-.29-2.17-.44-11.24-2.41-21.88-6.41-31.68-11.78-.4-.22-.8-.44-1.19-.66-.4-.23-.8-.45-1.19-.68-.39-.22-.77-.45-1.16-.68-.41-.24-.83-.49-1.24-.74-4.66-2.85-9.12-6.01-13.32-9.45-.9-.73-1.78-1.48-2.65-2.23-.9-.78-1.78-1.57-2.66-2.38-1.27-1.17-2.51-2.37-3.72-3.59-.5-.51-1-1.02-1.49-1.53,3.04-3.63,7.6-6.26,14.73-9.57,1.53-.71,4.78-2.19,8.88-4.05h0c.71-.32,1.44-.66,2.19-1,.2-.1.41-.19.61-.28t0,0c.26-.12.52-.23.78-.36.27-.12.55-.25.83-.38,8.99-4.1,20.17-9.24,27.05-12.58,0,0,.02,0,.03-.01.72-.35,1.4-.69,2.02-.99.03.37.07.74.1,1.11.03.39.07.78.1,1.17.03.31.06.63.08.94.09.98.17,1.97.26,2.95.06.73.13,1.46.19,2.2.08.88.15,1.75.23,2.62,1.52,17.54,2.93,34.7,4.39,52.43Z"/>
          <path class="cls-1" d="M151.24,230.6c-.73.22-1.46.43-2.19.63,1.42-17.17,2.79-33.85,4.27-50.91.08-.91.16-1.83.24-2.75.06-.73.13-1.46.19-2.19.07-.75.13-1.51.2-2.26.02-.27.05-.53.07-.8.04-.43.08-.86.11-1.29.03-.33.06-.66.09-.99.62.31,1.3.64,2.03,1,0,0,0,0,.02,0,11.57,5.61,35.29,16.13,40.34,18.47,4.12,1.91,7.38,3.6,9.99,5.38-.47.54-.94,1.08-1.43,1.61-14.32,15.88-32.9,27.85-53.94,34.09Z"/>
          <path class="cls-3" d="M145.09,149.81c-.42,2.99-.33,7.16-.01,11.41.3,4.6,3.46,7.22,9.07,9.81-.2,2.19-.39,4.37-.58,6.54-14.04,10.08-40.79,14.36-63.05.65-.21-2.41-.42-4.82-.64-7.25,5.23-2.68,8.43-5.34,8.72-9.75.32-4.25.41-8.42-.01-11.41,13.91,10.27,33.06,9.97,46.67-.87-.05.2-.16.87-.16.87Z"/>
          <path class="cls-3" d="M90.74,180.85c-.08-.87-.15-1.75-.23-2.62.75.46,1.5.9,2.25,1.32,20.63,11.46,44.53,8.19,58.54-.46.79-.49,1.54-.99,2.27-1.51-.08.92-.16,1.83-.24,2.75-1.48,17.06-2.85,33.74-4.27,50.91-.72.2-1.45.39-2.18.58-9.32,2.37-19.09,3.64-29.15,3.64-6.97,0-13.79-.6-20.42-1.77-.73-.13-1.45-.26-2.17-.4-1.46-17.73-2.87-34.89-4.39-52.43Z"/>
          <path class="cls-1" d="M177.12,100.03c-.85-3.61-3.48-6.79-7.31-7.21-4.66-.52-7.97,3.33-9.6,7.23-.44,1.07.48,2.35,1.49,2.63,1.23.34,2.18-.42,2.63-1.49.27-.64.68-1.35,1.1-1.94.12-.17.24-.32.51-.61.14-.15.29-.3.45-.44.01-.01.27-.23.3-.26.22-.16.46-.31.7-.44.11-.06.22-.12.34-.17.04-.02.11-.04.15-.05.28-.08.56-.15.84-.22-.51.11.39,0,.61,0,.13,0,.62.11.09,0,.11.02.22.04.32.07.11.03.6.21.59.19.2.1.4.22.6.34.04.02.16.12.23.18.1.09.2.18.3.28.13.13.26.27.38.41.05.06.23.32.02.02.19.28.37.56.53.86.09.16.17.33.24.5.01.04.03.09.06.17.15.44.28.89.38,1.35,1.4,6.56-.6,14.27-5.12,19.35-1.3,1.46-2.66,2.64-4.3,3.63-.44.27-.9.52-1.37.75.24-.98.46-1.96.65-2.95.22-1.13-.32-2.31-1.49-2.63-1.05-.29-2.41.35-2.63,1.49-.43,2.22-.98,4.42-1.67,6.57-.32.99-.67,1.97-1.05,2.93-.18.47-.37.92-.45,1.1-.21.49-.43.98-.66,1.46-.84,1.77-1.8,3.49-2.87,5.14-.53.81-1.08,1.59-1.66,2.37-.02.02-.1.14-.15.2-.03.03-.05.07-.06.07-.14.18-.28.36-.43.53-.31.38-.62.75-.94,1.11-1.21,1.38-2.51,2.68-3.9,3.88-.3.26-.61.52-.93.78-.17.14-.34.27-.51.4,0,0-.02.01-.03.02-.09.07-.18.14-.27.21-.71.53-1.44,1.03-2.18,1.52-1.44.93-2.94,1.76-4.49,2.49-.35.16-.7.32-1.05.47-.09.04-.25.1-.32.13-.22.09-.44.18-.66.26-.8.31-1.61.59-2.43.84-1.6.49-3.23.88-4.88,1.16-.2.03-.4.07-.61.1-.07.01-.3.04-.41.06-.11.01-.34.04-.41.05-.23.03-.46.05-.7.07-.84.08-1.69.14-2.54.16-1.66.05-3.33,0-4.99-.17-.37-.04-.73-.08-1.1-.13-.09-.01-.25-.04-.34-.05-.23-.04-.46-.07-.69-.11-.84-.14-1.67-.31-2.5-.51-1.63-.39-3.24-.89-4.81-1.5-.19-.07-.39-.15-.58-.23-.09-.04-.18-.07-.27-.11-.4-.17-.79-.35-1.18-.53-.79-.37-1.56-.77-2.32-1.19-1.51-.84-2.96-1.79-4.35-2.83-.07-.06-.15-.11-.22-.17,0,0,0,0,0,0-.17-.13-.34-.27-.51-.4-.36-.29-.72-.59-1.07-.9-.69-.6-1.35-1.22-1.99-1.87-.63-.63-1.24-1.29-1.83-1.96-.3-.34-.59-.69-.88-1.04-.14-.18-.29-.36-.43-.53,0-.01-.01-.02-.02-.02-.08-.11-.16-.22-.25-.32-1.15-1.54-2.19-3.16-3.13-4.83-1.38-2.49-2.44-4.89-3.31-7.48-.03-.11-.06-.22-.1-.32-.38-1.17-.73-2.38-1.05-3.66-.28-1.12-.53-2.25-.75-3.39-.22-1.13-1.58-1.78-2.63-1.49-1.19.33-1.71,1.49-1.49,2.63.22,1.18.49,2.35.79,3.51-.16-.07-.33-.15-.49-.23-1.64-.82-3.1-1.81-4.41-3.03-2.57-2.39-4.54-5.43-5.69-8.7-1.29-3.66-1.47-7.08-1.12-10.94.13-1.48.48-2.72,1.27-3.95.03-.05.06-.09.08-.12.1-.12.2-.23.3-.35.07-.08.57-.51.47-.46.2-.14.42-.27.63-.39.05-.03.26-.11.31-.13.09-.03.18-.06.28-.09.13-.04.26-.06.39-.09.06,0,.13-.01.19-.01.19,0,1.12.12.61,0,.34.08.67.15.99.27.22.11.44.23.65.36.11.07.22.14.32.21.02.01.04.03.05.04.1.08.2.17.29.26.31.28.6.59.86.92.02.03.05.08.09.13.16.23.31.46.45.71.23.39.49.85.65,1.24.44,1.06,1.41,1.83,2.63,1.49,1-.28,1.94-1.56,1.49-2.63-1.54-3.68-4.39-7.13-8.68-7.27-3.89-.13-6.82,2.88-7.97,6.36-.67,2.01-.8,4.31-.84,6.41-.04,2.3.25,4.64.8,6.88,1.08,4.37,3.28,8.48,6.36,11.76,1.67,1.79,3.65,3.34,5.81,4.5,1.44.78,3.13,1.58,4.82,1.98,1.97,5.41,4.83,10.47,8.63,14.84,4.94,5.67,11.45,9.91,18.64,12.14,6.89,2.13,14.34,2.34,21.35.68,7.24-1.71,13.95-5.51,19.22-10.75,4.86-4.84,8.43-10.83,10.73-17.27,3.6-.9,7.02-3.2,9.54-5.78,3.05-3.12,5.23-7.07,6.41-11.26,1.19-4.19,1.46-8.98.45-13.25ZM76.52,99.08c-.04-.06-.07-.1,0,0h0ZM74.35,97.32c-.36-.13-.09-.04,0,0h0ZM143.49,147.63c-.08.06-.22.16,0,0h0Z"/>
          <path class="cls-1" d="M107.77,40.57c-6.75,3.54-12.64,8.72-17.48,14.56-5.04,6.08-9.12,12.94-11.79,20.38-1.43,3.99-2.37,8.13-2.75,12.36-.1,1.15,1.05,2.14,2.14,2.14,1.24,0,2.03-.98,2.14-2.14.61-6.88,3.14-13.7,6.51-19.77,3.6-6.47,8.26-12.35,13.83-17.24,2.92-2.56,6.11-4.8,9.56-6.6,2.44-1.28.28-4.96-2.16-3.69h0Z"/>
          <path class="cls-1" d="M147.09,71.03c7.7,7.71,12.06,18.8,13.04,29.58.1,1.15.91,2.14,2.14,2.14,1.07,0,2.24-.98,2.14-2.14-1.08-11.91-5.74-24.04-14.29-32.61-1.95-1.95-4.97,1.07-3.02,3.02h0Z"/>
          <path class="cls-1" d="M151.09,49.81c.35,8.62-1.62,17.48-8.5,23.23-3.05,2.55-6.83,4.32-10.66,5.35-3.32.89-6.68,1-10.21,1.13-4.03.15-8.06.09-12.09.25-2.74.11-2.75,4.38,0,4.27,3.79-.15,7.58-.11,11.37-.23,3.84-.12,7.8-.28,11.56-1.18,4.29-1.03,8.49-3.05,11.99-5.73,3.82-2.94,6.65-6.77,8.45-11.24,2.01-4.99,2.58-10.52,2.36-15.86-.11-2.74-4.38-2.75-4.27,0h0Z"/>
          <path class="cls-1" d="M131.49,56.6c-1.58,4.73-4.09,9.19-7.36,12.96-3.38,3.89-7.37,6.92-12.06,9.06-7.7,3.51-16.2,4.95-23.39,9.6-4.43,2.86-8.22,6.66-10.73,11.32-1.3,2.42,2.38,4.58,3.69,2.16,2.09-3.89,5.17-7.11,8.78-9.51,1.56-1.04,3.2-1.95,4.88-2.75,1.49-.71,2.3-1.04,3.98-1.66,4.88-1.8,9.89-3.2,14.65-5.32,4.91-2.2,9.23-5.38,12.81-9.39,3.98-4.45,6.98-9.65,8.87-15.31.87-2.61-3.25-3.73-4.12-1.14h0Z"/>
          <path class="cls-1" d="M157.26,37.28c-4.09-7.12-11.67-11.76-19.25-14.41-9.62-3.36-20.68-3.79-30.43-.71-9.5,3-18.2,8.24-25.37,15.16-6.89,6.65-12.76,14.98-15.14,24.35-2.83,11.17-1.4,23.24,2.67,33.92.41,1.08,1.44,1.82,2.63,1.49,1.03-.28,1.91-1.54,1.49-2.63-3.4-8.9-4.99-18.78-3.39-28.25.76-4.45,2.18-8.73,4.42-12.65,2.17-3.81,4.78-7.35,7.75-10.58,6.07-6.58,13.59-11.95,21.93-15.22,4.85-1.9,9.76-3.12,14.98-3.32,4.58-.18,9.16.28,13.61,1.43,4.49,1.16,8.79,2.98,12.64,5.58,3.13,2.11,5.92,4.79,7.76,7.99,1.37,2.38,5.06.23,3.69-2.16h0Z"/>
          <path class="cls-1" d="M154.34,40.21c3.66,1.63,6.6,3.73,9.24,6.67,2.35,2.61,4.43,6.18,5.69,9.44,3,7.78,3.52,16.07,2.54,24.35-.54,4.58-1.75,9.42-3.36,13.88-.39,1.08.44,2.34,1.49,2.63,1.19.33,2.23-.4,2.63-1.49,3.08-8.5,4.49-17.76,3.78-26.78-.68-8.63-3.29-17.2-8.83-23.98-2.95-3.61-6.76-6.51-11.02-8.4-1.05-.47-2.3-.31-2.92.77-.53.91-.29,2.45.77,2.92h0Z"/>
          <path class="cls-1" d="M152.55,175.69c-6.13,4.4-13.2,6.93-20.62,8.23-8.51,1.5-17.44,1.08-25.79-1.21-5.16-1.42-10.05-3.56-14.61-6.36-2.35-1.44-4.5,2.25-2.16,3.69,15.94,9.78,36.4,11.76,53.94,5.24,4.02-1.49,7.89-3.4,11.38-5.9.94-.67,1.39-1.86.77-2.92-.54-.93-1.98-1.44-2.92-.77h0Z"/>
          <path class="cls-1" d="M151.24,230.6c-.73.22-1.46.43-2.19.63-.72.2-1.45.39-2.18.58,1.38-16.71,2.76-33.41,4.2-50.11.07-.87.15-1.74.23-2.61.08-.9.16-1.8.23-2.7.12-1.36.24-2.72.36-4.07.06-.66.12-1.33.17-1.99,0-.09.02-.19.03-.28,0,0,0-.01,0-.02.02-.16.05-.32.09-.46,0-.02,0-.03.02-.05.13-.4.36-.72.65-.97.14-.12.29-.22.45-.3.52-.26,1.12-.32,1.66-.2,0,0,0,0,0,0,.27.06.52.17.73.33,0,0,0,0,0,0,.45.34.73.89.66,1.65-.03.34-.06.67-.09,1.01-.07.76-.13,1.52-.2,2.28-.11,1.29-.23,2.57-.34,3.86-.03.31-.05.63-.08.94,0,.03,0,.05,0,.07-1.53,17.46-2.96,34.93-4.41,52.4Z"/>
          <path class="cls-1" d="M97.3,233.68c-.73-.13-1.45-.26-2.17-.4-.73-.14-1.45-.29-2.17-.44-1.49-18.04-2.97-36.08-4.54-54.11-.01-.17-.03-.34-.04-.51-.15-1.69-.3-3.38-.45-5.07-.06-.76-.13-1.51-.2-2.27-.03-.34-.06-.67-.09-1.01-.07-.77.22-1.32.67-1.65.21-.16.45-.26.72-.33,0,0,0,0,0,0,.55-.13,1.17-.06,1.7.21.16.08.31.18.45.3,0,0,.02.02.03.03.26.23.47.54.59.91,0,.02.01.03.02.05.04.15.08.31.09.48h0c0,.1.02.19.03.28.06.69.12,1.37.18,2.06.14,1.58.28,3.16.42,4.74.04.43.08.86.11,1.29.04.44.08.87.11,1.31.08.84.15,1.69.22,2.53,1.49,17.2,2.9,34.4,4.32,51.61Z"/>
          <path class="cls-1" d="M96.44,149.81c.29,2.2.32,4.42.26,6.63-.05,2.09.01,4.44-.53,6.21-.39,1.26-1.25,2.35-2.41,3.36-1.44,1.27-3.24,2.23-4.96,3.12-1.02.53-1.33,1.96-.77,2.92.61,1.04,1.89,1.3,2.92.77,3.77-1.95,7.67-4.43,9.19-8.6.8-2.2.73-4.75.81-7.06.09-2.45.09-4.92-.24-7.35-.15-1.14-.87-2.14-2.14-2.14-1.03,0-2.29.98-2.14,2.14h0Z"/>
          <path class="cls-1" d="M155.22,169.19c-1.83-.85-3.89-1.88-5.32-3.1-.35-.3-.69-.62-1.01-.97-.34-.37-.39-.43-.56-.69-.53-.82-.69-1.14-.91-1.95-.25-.93-.25-1.61-.32-2.75-.09-1.44-.15-2.89-.17-4.34-.01-1.2,0-2.4.08-3.59.04-.57.08-1.15.16-1.72-.05.34-.03.21.02-.06.03-.17.06-.34.1-.51.24-1.13-.33-2.31-1.49-2.63-1.06-.29-2.39.36-2.63,1.49-.5,2.35-.55,4.8-.52,7.19.04,2.68-.07,5.68.7,8.27,1.36,4.57,5.62,7.15,9.69,9.05,1.04.49,2.3.29,2.92-.77.54-.92.28-2.43-.77-2.92h0Z"/>
          <path class="cls-1" d="M111.28,133.96c6.24,3.25,14.13,3.11,20.33-.16,2.43-1.28.28-4.97-2.16-3.69-4.81,2.54-11.22,2.65-16.02.16-2.44-1.27-4.6,2.42-2.16,3.69h0Z"/>
          <path class="cls-1" d="M192.29,189.89c-12.08-5.47-24.28-10.74-36.21-16.55-.3-.15-.59-.29-.89-.44-.39-.19-.77-.38-1.16-.57-.29-.15-.58-.29-.88-.43-.74-.37-1.06-.96-1.08-1.56,0-.1,0-.2.01-.31.02-.15.05-.3.1-.45,0-.02,0-.03.02-.05.13-.36.36-.7.65-.97.13-.12.27-.23.42-.31.48-.28,1.07-.38,1.69-.18,0,0,0,0,0,0,.11.04.22.08.34.14.13.06.26.13.39.19,0,0,0,0,0,0,1.15.57,2.3,1.13,3.46,1.68,12.62,6.03,25.46,11.58,38.16,17.43,3.59,1.65,7.38,3.41,10.7,5.74-.47.56-.94,1.11-1.42,1.66-.47.54-.94,1.08-1.43,1.61-1.73-1.16-3.72-2.24-5.58-3.19-2.41-1.22-4.86-2.34-7.32-3.45Z"/>
          <path class="cls-1" d="M91.94,170.15c-.02.61-.35,1.2-1.08,1.57-.29.15-.58.29-.88.43-.42.21-.84.41-1.27.62h0c-.26.13-.52.25-.78.38-.3.15-.61.29-.91.44-8.78,4.22-17.65,8.25-26.51,12.28-.74.34-1.48.67-2.21,1.01h0c-.72.33-1.45.66-2.17.99-2.33,1.06-4.65,2.13-6.98,3.2-5.49,2.53-11.19,5.06-15,9.58-.5-.51-1-1.02-1.49-1.53-.49-.51-.98-1.03-1.46-1.55.71-.85,1.5-1.65,2.37-2.39,4.65-3.96,10.39-6.41,15.89-8.92,2.32-1.06,4.65-2.12,6.98-3.17.1-.04.19-.09.29-.13.66-.3,1.31-.59,1.97-.89t0,0c.65-.29,1.3-.58,1.95-.88,1.54-.7,3.07-1.39,4.61-2.09,7.74-3.51,15.45-7.08,23.05-10.86.13-.06.26-.13.39-.19.11-.06.22-.1.33-.14,0,0,0,0,0,0,.64-.21,1.24-.1,1.73.2.15.09.29.2.42.32,0,0,.02.02.03.03.26.26.47.57.59.91,0,.02.01.03.02.05.05.16.09.31.11.47,0,.1.01.19,0,.29Z"/>
          <path class="cls-1" d="M107.05,100.43c-1.79-2.46-4.58-1.87-5.92.16-1.51,2.26-1.31,6.27.2,8.51.52.73,1.24,1.18,2.09,1.33,3.32.59,4.7-2.48,4.68-5.01,0-1.54-.11-3.7-1.05-4.99Z"/>
          <path class="cls-1" d="M141.24,100.43c-1.79-2.46-4.58-1.87-5.92.16-1.51,2.26-1.31,6.27.2,8.51.52.73,1.24,1.18,2.09,1.33,3.32.59,4.7-2.48,4.68-5.01,0-1.54-.11-3.7-1.05-4.99Z"/>
          <ellipse class="cls-1" cx="121.47" cy="121.39" rx="2.96" ry="2"/>
          <path class="cls-1" d="M101.17,93.45c.77-.04,1.52-.07,2.29-.04.47.02-.04-.02.15,0,.22.03.43.07.64.11.64.12,1.28.28,1.91.43,2.67.64,3.81-3.48,1.14-4.12-2.07-.5-4.01-.78-6.13-.66-1.15.06-2.14.94-2.14,2.14,0,1.11.98,2.2,2.14,2.14h0Z"/>
          <path class="cls-1" d="M141.06,89.11c-2.13-.06-4.06.26-6.12.81-2.65.71-1.53,4.83,1.14,4.12.59-.16,1.19-.32,1.79-.45.22-.05.44-.09.66-.14.13-.02.25-.05.38-.07-.25.03-.29.04-.13.02.76-.07,1.52-.04,2.29-.02,2.75.08,2.75-4.19,0-4.27h0Z"/>
        </g>
        <g>
          <path class="cls-1" d="M58.9,219.72c-.39-.22-.77-.45-1.16-.68-.41-.24-.83-.49-1.24-.74-4.66-2.85-9.12-6.01-13.32-9.45-.9-.73-1.78-1.48-2.65-2.23.19.01.38.03.57.03.1,0,.2,0,.3.02.22,0,.43.02.64.03h.19c.16,0,.33.02.49.02.12,0,.24,0,.37,0,.19,0,.37,0,.56,0,.21,0,.42,0,.63,0,.09,0,.17,0,.26,0,.18,0,.36,0,.54-.01.44-.01.88-.03,1.32-.06.08,0,.16,0,.24-.02.18-.01.36-.03.53-.04.19-.02.38-.03.58-.05.09,0,.19-.02.28-.03.17-.02.33-.03.49-.05.02,0,.03,0,.05,0,.22-.03.43-.05.65-.08,1.52-.21,2.96-.52,4.25-.91.31-.1.61-.19.9-.3.73-.26,1.4-.56,2.01-.88.11.72.22,1.45.33,2.17v.04c.7,4.49,1.44,8.92,2.18,13.26Z"/>
          <path class="cls-3" d="M56.72,159.69s-.21.02-.53.03c.45-2.34-.52-4.19-2.1-5.24-1.02-.68-2-1.12-3.6-.93-.64.2-1.27.41-1.89.64.5-.93.43-2.32.43-2.32-.07-1.39-.76-2.39-1.82-3.07-.29-.74.45-1.81.45-1.81.37-.58,1.07-.87,1.75-1.02,3.19-.71,6.51.79,8.99,2.91,1.23,1.06,2.36,2.33,2.81,3.88.44,1.5.19,3.18-.66,4.49-.85,1.31-2.29,2.22-3.84,2.42Z"/>
          <path class="cls-3" d="M64.12,176.49c-.53,1.89-2.09,3.17-3.69,4.32-.58.42-1.17.82-1.72,1.23t0,0s-.01.01-.02.02c-.08.71-.15,1.43-.2,2.13,0,.09-.02.19-.02.28-.06.8-.11,1.6-.16,2.4h0c-.38,6.15-.73,12-5.83,16.63h0c-.5.46-1.05.9-1.64,1.33,0,0-1.49,1.37-1.6,1.51-.21.03-.43.06-.65.08-.02,0-.03,0-.05,0-.16.02-.33.04-.49.05-.09.01-.19.02-.28.03-.19.02-.38.04-.58.05-.18.02-.35.03-.53.04-.08,0-.16,0-.24.02-.43.03-.87.05-1.32.06-.18,0-.36.01-.54.01-.09,0-.17,0-.26,0-.21,0-.42,0-.63,0-.18,0-.37,0-.56,0-.12,0-.24,0-.37,0-.16,0-.33,0-.49-.01h-.19c-.21-.01-.43-.02-.64-.03-.1,0-.2,0-.3-.02-.19,0-.38-.02-.57-.03-.9-.78-1.78-1.57-2.66-2.38-1.27-1.17-2.51-2.37-3.72-3.59-.5-.51-1-1.02-1.49-1.53-.49-.51-.98-1.03-1.46-1.55-1.03-1.11-2.04-2.25-3.02-3.4-1.01-1.18-1.99-2.38-2.96-3.6-1.04-4.64-2.23-8.9-3.17-11.28-2.25-5.71-4.24-14.82-.8-20.36,3.17-5.1,9.17-7.39,14.35-9.77,2.72-1.25,6.56-1.83,9.44-1.18.82.18,1.56.46,2.17.85.07.04.13.09.2.13.06.04.12.09.18.13.06.05.12.09.17.15,0,0,0,0,.02.01.05.05.1.09.15.14.05.05.1.1.15.15,0,0,0,0,0,.01.04.04.08.09.12.14.02.02.03.04.05.06.03.04.06.07.08.11.03.03.05.07.08.11.03.04.05.08.08.12.03.05.06.11.09.17.04.06.07.13.1.2,0,.02.02.04.03.07.02.04.04.09.05.13.01.03.02.06.03.1.02.06.04.13.06.19.02.06.04.12.05.19,0,.02,0,.03.01.05.01.05.03.1.03.16,0,.03,0,.05.01.08,0,.03,0,.05.01.08.02.1.03.2.03.31,0,.03,0,.06,0,.09,0,0,.07,1.38-.43,2.31.62-.22,1.25-.43,1.89-.64.08,0,.16-.02.24-.03.04,0,.08,0,.12,0,.06,0,.12,0,.18,0h0c.2,0,.4,0,.58.01.01,0,.03,0,.04,0,.13.01.25.03.38.05.13.02.25.05.37.09.06.02.12.03.18.05.32.1.61.24.9.4.09.05.18.1.27.15.11.07.21.13.32.21.06.04.12.08.18.13.1.07.2.15.29.23.04.03.08.06.11.1.04.03.07.06.11.1.03.03.06.06.09.09.01.01.03.03.04.04.05.05.09.09.14.14.1.11.19.22.28.34.04.05.08.1.11.16.19.27.35.56.48.87.03.06.05.13.08.19,0,0,0,0,0,0,.03.07.05.15.07.22,0,0,0,0,0,0,.02.07.04.14.06.21,0,.01,0,.03,0,.04.02.07.03.14.05.22,0,0,0,0,0,.01h0c.01.07.03.13.03.19,0,.02,0,.04,0,.07.01.07.02.15.03.22,0,0,0,.02,0,.03,0,.07.01.15.02.22,0,.01,0,.03,0,.04,0,.08,0,.16,0,.24,0,.07,0,.14,0,.21,0,.06,0,.11,0,.17,0,.06,0,.12-.02.19,0,.08-.02.17-.03.25,0,0,0,.02,0,.03-.01.09-.03.18-.05.28-.04.2-.09.4-.14.6,0,0-.21.8-.72,1.36.36-.08.72-.12,1.08-.14.33.02.66.08.98.17.12.03.24.07.35.12h0c2.48.92,4.42,3.91,3.52,7.01-.07.23-.15.47-.25.7,0,0-.33.75-.87,1.3.8.03,1.54.26,2.18.67,1.46.93,2.31,2.75,1.8,4.98Z"/>
          <path class="cls-1" d="M63.26,169.58c.62-1.98.39-4.18-.59-6.05-.59-1.11-1.5-2.14-2.6-2.9,1.6-1.01,2.82-2.58,3.27-4.52.82-3.49-.92-6.63-3.55-8.84-2.53-2.12-5.75-3.78-9.14-3.61-1.75.09-3.6.54-4.68,2.04-.05.07-.1.14-.15.22,0,0,0,0,0,0-1.36-.35-2.8-.43-4.16-.37-2.82.14-5.36.91-7.91,2.07-2.82,1.28-5.68,2.5-8.27,4.21-2.67,1.76-5.24,4.06-6.63,7-1.37,2.89-1.74,6.13-1.54,9.3.2,3.15.85,6.27,1.82,9.27.72,2.23,1.6,4.39,2.24,6.65.21.72.41,1.45.61,2.18,0,0,0,0,0,0,1.04,1.46,2.12,2.89,3.24,4.3.96,1.22,1.95,2.42,2.96,3.6-.48-2.45-1.04-4.89-1.64-7.31-.57-2.29-1.18-4.59-1.94-6.82-.79-2.32-1.68-4.57-2.24-6.96-1.18-5.03-1.6-10.83,2.08-14.83,1.89-2.04,4.29-3.47,6.75-4.71,1.3-.65,2.62-1.25,3.95-1.84,1.28-.58,1.8-.87,3.09-1.25.59-.17,1.2-.31,1.8-.42.52-.09.91-.14,1.63-.17.64-.03,1.28-.03,1.92.03.11,0,.22.02.33.03,0,0,.02,0,.03,0h0s0,0,.02,0c.03,0,.06.02.13.03.27.05.54.11.8.18.13.03.26.07.38.11.03,0,.19.07.29.11.07.04.27.15.4.22,0,0,0,0,0,0,.11.09.22.16.35.22,0,0,0,0,0,0,.08.08.16.16.24.24,0,0,.02.02.02.02,0,0,0,0,0,.02.06.11.19.42.2.42.04.17.09.4.09.31.02.26,0,.51-.03.77,0,0,0,0,0,0-5.02,1.95-9.66,4.67-14.12,7.72-.95.65-1.38,1.88-.77,2.92.55.94,1.97,1.42,2.92.77,4.15-2.84,8.48-5.51,13.19-7.33.96-.37,2.18-1.04,3.2-1.01.69.02,1.43.42,1.87.79.99.85,1.21,2.26.77,3.4-2.1.68-3.99,2.04-5.88,3.14-2.66,1.55-5.34,3.06-7.88,4.79-.95.65-1.38,1.88-.77,2.92.55.95,1.96,1.42,2.92.77,2.09-1.42,4.28-2.7,6.47-3.96.96-.56,1.93-1.11,2.88-1.69.96-.58,1.9-1.25,2.95-1.68,1.64-.67,2.88-.51,3.94.89.51.67.78,1.43.79,2.22,0,.42-.07.75-.18,1.15-.02.08-.04.14-.05.18-.01.02-.03.05-.06.1-.03.06-.07.11-.1.17-1.53.26-3.03.97-4.41,1.81-2.19,1.33-4.34,2.73-6.56,4.02-2.37,1.38-.23,5.08,2.16,3.69,1.69-.98,3.35-2,5-3.04,1.09-.68,2.16-1.4,3.33-1.94.37-.17.8-.35,1.26-.41.15-.02.6.02.83.08.56.15,1.04.5,1.34,1.09.08.16.2.62.22.74.05.48.01.86-.15,1.3-.66,1.78-2.89,2.94-4.37,4.03,0,0-.02.01-.03.02-.32.21-.57.5-.75.85-.15.28-.25.58-.27.89,0,.03,0,.05-.01.08-.52,4.61-.28,9.26-1.61,13.64-.62,2.02-1.64,3.91-3.17,5.49-1.26,1.32-2.84,2.28-4.06,3.64-1.83,2.04,1.18,5.08,3.02,3.02,1.49-1.67,2.74-2.18,4.36-3.96,1.79-1.97,3.08-4.28,3.89-6.82,1.42-4.46,1.31-9.23,1.72-13.86,2.21-1.58,4.53-3.2,5.39-5.9.91-2.87-.2-6.2-2.83-7.73ZM51.11,151.37h0c-.15-1.18-.62-2.3-1.42-3.21,0,0,0,0,0,0,.67-.08,1.43-.27,2.21-.17,1.88.24,3.71,1.29,5.12,2.52,1.26,1.1,2.54,2.52,2.24,4.33-.12.75-.49,1.43-1.06,1.93-.21-.79-.54-1.54-1.01-2.2-1.37-1.9-3.71-3.25-6.08-3.2Z"/>
          <path class="cls-1" d="M57.46,206.09c-.19.1-.39.2-.58.29-.05.03-.1.05-.15.07-.17.08-.34.16-.51.23-.49.22-1,.41-1.51.58-1.32.45-2.69.77-4.06,1-.19.03-.38.06-.57.09-.36.05-.71.1-1.07.15-1.93.24-3.88.35-5.83.33-.9-.73-1.78-1.48-2.65-2.23-.9-.78-1.78-1.57-2.66-2.38,2.04.26,4.1.37,6.2.35,1.13-.01,2.26-.06,3.39-.17.27-.03.5-.05.72-.07.72-.08,1.25-.16,2.11-.33.73-.14,1.45-.31,2.17-.51h0c.26-.07.52-.15.77-.23.23-.07.45-.15.67-.23.12-.04.25-.09.37-.14,0,0,.03-.01.06-.02h0s0,0,.01,0h.01s.01-.01.02-.01c.09-.04.29-.13.34-.16.18-.08.35-.17.53-.26.02,0,.03-.02.04-.02.41-.22.81-.29,1.18-.26,1.84.15,3,2.88.97,3.95Z"/>
          <path class="cls-1" d="M61.28,221.06c-.4-.22-.8-.44-1.19-.66-.4-.23-.8-.45-1.19-.68-.39-.22-.77-.45-1.16-.68-.41-.24-.83-.49-1.24-.74-.62-3.67-1.22-7.34-1.8-11.02-.11-.71-.22-1.43-.33-2.14-.02-.1-.03-.21-.05-.31,0-.04-.01-.08-.02-.12-.1-.91.19-1.8.95-2.27.16-.1.35-.18.56-.24.22-.06.45-.08.69-.06.88.07,1.81.65,1.94,1.55.89,5.8,1.85,11.59,2.84,17.38Z"/>
          <path class="cls-3" d="M60.09,220.4c-.4-.23-.8-.45-1.19-.68-.39-.22-.77-.45-1.16-.68-.66-3.77-1.3-7.55-1.89-11.32-.07-.43.1-.79.37-1.02.15-.13.32-.22.51-.27.05-.02.11-.03.16-.03.47-.07.93.15,1.03.76.7,4.42,1.43,8.84,2.19,13.25Z"/>
        </g>
      </g>
      <path class="cls-4" d="M147.03,151.8s13.38-4.12,17.38-15.47"/>
    </g>
  </g>
</svg>