<svg id="_レイヤー_2" data-name="レイヤー 2" xmlns="http://www.w3.org/2000/svg" width="235.45" height="235.45"><defs><style>.cls-1{fill:#323232}.cls-3{fill:#fff}</style></defs><g id="_レイヤー_3" data-name="レイヤー 3"><path d="M235.45 117.72c0 29.05-10.52 55.63-27.95 76.16-.46.54-.92 1.07-1.39 1.6-.47.54-.95 1.07-1.43 1.6-20.34 22.27-49.11 36.69-81.26 38.22-.71.03-1.42.06-2.14.08-.71.02-1.42.03-2.14.04h-1.41c-22.83 0-44.14-6.5-62.18-17.74-.66-.41-1.32-.83-1.97-1.26-.66-.43-1.31-.86-1.96-1.3a118.63 118.63 0 0 1-17.36-14.4c-.5-.5-1-1.01-1.49-1.52s-.97-1.03-1.45-1.54c-1.5-1.62-2.96-3.29-4.37-4.99-.57-.69-1.12-1.38-1.67-2.07-.15-.19-.3-.39-.45-.58-.32-.42-.64-.83-.96-1.25-.08-.11-.17-.22-.25-.33C8.78 168.75 0 144.26 0 117.72 0 52.71 52.71 0 117.72 0s117.72 52.71 117.72 117.72Z" style="fill:#e6e6e6"/><path class="cls-3" d="M123.41 235.31c-.71.03-1.42.06-2.14.08v-40.37c.17-.66.36-1.33.57-2 .17-.54.36-1.08.57-1.61 1.31-3.44 3.2-6.73 5.2-8.91.52-.57 1.04-1.06 1.56-1.46l.03-.03c.18-.12.37-.09.37-.09.76.13 1.46.4 2.12.79 4.83 2.86 7.05 12.16 9.72 18.52.13.31.27.62.4.92.22.49.44.96.68 1.4.12-.16.39-.58.75-1.22.16-.29.35-.62.54-.99 2.8-5.2 8.91-18.19 9.02-27.16v-.33c0-.74-.05-1.46-.14-2.13.58.3 1.22.62 1.9.97.11.06.23.12.35.17 2.43 1.22 5.36 2.64 8.18 3.87 10.74 4.45 27.29 11.65 32.66 14.14 4.29 1.99 7.67 3.74 10.36 5.61-.47.54-.95 1.07-1.43 1.6-20.34 22.27-49.11 36.69-81.26 38.22Z"/><path class="cls-3" d="M152.66 170.73c1.49 10.74-9.13 30.53-10.18 31.83-3.59-6.88-5.83-20.44-12.91-21.63 0 0-.18-.04-.37.09-.01 0-.02.02-.03.03 12.48-10.25 14.43-14.03 15.81-17.68.57-1.5 1.04-2.98 2.11-4.88l5.13 11.06.44 1.19ZM98 164.46c1.44 3.37 4.14 7.35 15.37 16.58s-.03-.01-.04-.02c-.18-.13-.37-.09-.37-.09-7.08 1.19-9.32 14.75-12.91 21.63-1.05-1.3-11.67-21.09-10.17-31.83l.44-1.19 5.13-11.06c1.32 2.36 1.73 4.07 2.55 5.98Z"/><path class="cls-3" d="M121.27 195.02v40.37c-.71.02-1.42.03-2.14.04h-1.41c-22.83 0-44.14-6.5-62.18-17.74-.66-.41-1.32-.83-1.97-1.26-.66-.43-1.31-.86-1.96-1.3a118.63 118.63 0 0 1-17.36-14.4c-.5-.5-1-1.01-1.49-1.52 1.17-1.35 2.57-2.55 4.23-3.72.76-.53 1.58-1.06 2.47-1.58.9-.53 1.85-1.06 2.88-1.59 1.51-.79 3.17-1.59 4.99-2.44 3.44-1.6 11.44-5.11 19.57-8.6 1.86-.8 3.72-1.6 5.54-2.37 1.46-.62 2.88-1.22 4.25-1.8 1.14-.48 2.24-.94 3.29-1.37 3.09-1.35 5.45-2.6 7.63-3.78l.39-.21c.63-.35 1.25-.69 1.87-1.02-.05.34-.08.69-.1 1.04l-.03.53c0 .19 0 .37-.01.57v.79c0 .14.01.29.02.43 0 .14.02.29.03.43 0 .15.02.29.03.44 0 .11.02.23.03.34 0 .06.01.12.02.19.01.12.03.24.04.37.03.27.07.55.11.83.03.18.05.36.09.54.03.16.05.31.08.46l.09.47c.09.47.19.94.3 1.42.12.51.24 1.03.38 1.55.07.28.15.57.23.85.04.16.09.32.14.48.05.16.09.32.14.49.05.16.1.32.14.48.15.49.31.98.47 1.48.05.15.1.3.15.46.22.64.44 1.28.67 1.91.06.16.11.31.17.47.06.16.12.31.18.47.41 1.1.84 2.18 1.28 3.22.12.28.23.55.35.82.23.54.46 1.07.69 1.58.08.17.15.34.23.51s.15.33.23.5c.06.12.11.24.17.36.97 2.08 1.87 3.87 2.57 5.16.2.37.38.7.54.98.04.08.09.16.13.23.02.04.04.07.06.11.07.11.13.22.18.31.03.05.06.1.09.14v.02c.03.04.05.09.08.13.08.13.15.23.2.29.23-.44.46-.91.68-1.4.14-.3.27-.61.4-.92.25-.6.5-1.22.74-1.86.12-.32.24-.64.37-.97l.12-.33c.08-.21.15-.42.23-.63.05-.14.1-.28.16-.43.05-.14.1-.28.16-.43.16-.43.31-.86.47-1.29.05-.14.1-.29.16-.43.37-1.01.76-2.03 1.15-3.02.06-.14.11-.27.17-.41.29-.7.59-1.4.9-2.07.06-.13.12-.25.18-.38s.13-.26.19-.39c.08-.15.15-.31.23-.46.05-.1.1-.2.16-.3.3-.56.61-1.1.94-1.6.03-.06.07-.11.11-.17.07-.11.15-.22.22-.33.04-.05.08-.11.11-.16.27-.38.55-.73.83-1.06.03-.04.07-.08.1-.12.29-.32.58-.61.89-.88.04-.03.08-.07.12-.1l.01-.01c.09-.07.18-.15.27-.22a.36.36 0 0 1 .1-.07c.13-.1.26-.18.39-.27.08-.05.17-.1.25-.16.08-.05.16-.1.25-.14.08-.04.17-.09.25-.13.09-.04.17-.08.26-.12.09-.04.17-.07.26-.1l.27-.09c.09-.03.18-.05.27-.08.09-.03.18-.05.27-.07l.29-.06s.18-.03.37.09c.01 0 .03.02.04.02.2.12.39.27.6.43.07.05.13.11.2.17.05.04.1.09.15.14.09.08.18.17.27.26l.18.18s0 .01.02.02c.06.07.12.13.19.2.06.06.12.13.18.2s.12.13.18.2a16.33 16.33 0 0 1 .54.66c.06.08.12.15.18.23.06.08.12.16.17.24.05.08.11.15.17.23.12.17.24.35.36.53.06.09.12.17.17.26.35.53.68 1.1 1.01 1.69.09.15.17.31.25.47.17.31.33.63.49.95l.07.15c.07.13.13.27.19.4.09.18.17.36.25.54.08.17.16.34.23.52.2.46.39.92.57 1.39.04.11.09.22.13.33l.3.81c.03.1.07.2.1.3.03.07.05.15.07.22.03.09.06.19.09.28.05.17.11.33.16.5.06.19.11.38.17.57.04.15.08.3.12.44.04.17.09.33.13.49Z"/><path class="cls-3" d="M121.27 195.02c-1.37-5.52-4.93-12.12-7.9-13.98-11.23-9.23-13.94-13.21-15.37-16.58.15-.57.25-2.25.3-2.88.32-4.25.41-8.42-.01-11.41l.33.24c.1.08.21.15.31.22l.32.23c.11.08.21.15.32.22.43.29.87.58 1.31.85.11.07.22.14.33.2.09.06.19.11.28.17.13.08.26.15.39.23.33.2.67.38 1.01.56.57.31 1.14.6 1.71.87.58.28 1.16.53 1.75.78.12.05.23.1.35.14.12.05.24.1.35.14.35.14.71.27 1.07.4.36.13.72.25 1.08.37.12.04.24.08.36.11.24.08.48.15.72.22.12.04.24.07.36.1.85.24 1.7.45 2.56.63l.74.15c.37.07.74.13 1.11.19.36.06.71.11 1.07.15h.05c.62.08 1.24.14 1.87.19a37.706 37.706 0 0 0 3.79.11h.03c.25 0 .5-.01.75-.03.26 0 .52-.02.78-.04.65-.04 1.3-.09 1.95-.17.13-.01.26-.03.4-.05.13-.01.26-.03.39-.05.13-.02.26-.03.39-.05.78-.11 1.56-.25 2.33-.41.39-.08.77-.16 1.15-.26.51-.12 1.02-.26 1.53-.4l.31-.09c.28-.08.55-.16.83-.25.12-.04.23-.07.35-.11.05-.02.1-.03.15-.05.21-.07.42-.14.63-.22.12-.04.25-.09.37-.13.12-.04.25-.09.37-.14.24-.09.47-.18.71-.27.52-.21 1.03-.42 1.54-.66l.33-.15c.12-.05.24-.11.36-.17.24-.11.48-.23.72-.35l.36-.18a27.758 27.758 0 0 0 1.4-.76c.36-.2.71-.41 1.07-.63.12-.07.23-.14.35-.21.11-.07.23-.14.34-.21.12-.07.23-.15.35-.23.11-.07.23-.15.34-.23.45-.3.9-.62 1.35-.94.11-.08.22-.16.33-.25.11-.08.22-.16.33-.25.11-.08.22-.17.33-.26-.42 2.99-.28 7.87.04 12.12.03.49.1 1.34.2 1.78-1.38 3.65-3.34 7.43-15.81 17.68-3.25 2.51-6.53 8.46-7.9 13.98Z"/><path class="cls-1" d="M136.72 27.9c34.14 5.61 20.02 21.46 39.67 30.32-1.12 1.32-3.04 2.78-6.06 2.83 3.12 4.95 4.72 12.18 3.75 18.28-.85 5.33-4.19 10.59-4.71 15.96-2.7-.3-5.69 1.5-7.39 5.68.14-3.53-.87-9.63-2.18-14.41-4.75-1.03-9.72-4.26-13.32-7.18-9.33-7.51-14.45-20.25-26.35-24.33-5.28-1.88-12.05-3.37-20.22 3.8-13.14 11.98-18.47 27.18-20.41 42.12-1.7-4.19-4.71-5.99-7.42-5.67-.54-5.35-3.48-10.66-4.32-15.97-.58-3.65.3-7.79 1.68-11.27V68c-3.46.09-5.93-1.86-6.1-2.37C75.48 59.38 73.01 44.05 83.67 37c1.96-1.3 5.87-2.01 9.28-1.44 3.21-9.55 14.34-13.91 22.57-14.89 8.23-.97 17.62 3.62 27.64 3.68-.24 1.68-4.64 2.66-6.44 3.55Z"/><path class="cls-3" d="M146.48 79.38c3.6 2.92 8.57 6.15 13.32 7.18 1.31 4.78 2.31 10.88 2.18 14.41 1.7-4.18 4.69-5.98 7.39-5.68 2.91.33 5.47 3.1 5.71 7.97 1.35 10.42-4.55 22.11-14.97 25.24 0 0-.85.31-1.3.34h-.01c-2.95 8.97-7.95 15.85-14.05 20.63-13.6 10.67-32.63 10.93-46.46.71-6.43-4.75-11.73-11.76-14.85-21.04-.18.02-1.36-.31-1.36-.31-10.75-3.07-17.1-14.78-15.68-25.56.24-4.85 2.79-7.62 5.69-7.96 2.71-.32 5.71 1.48 7.42 5.67 1.94-14.95 7.27-30.14 20.41-42.12 8.17-7.17 14.95-5.68 20.22-3.8 11.9 4.07 17.02 16.82 26.35 24.33Z"/><path class="cls-1" d="M96.15 150.17c.33 2.49.32 5.02.23 7.53-.05 1.35-.14 2.69-.23 4.03-.03.44-.06.88-.1 1.32-.02.2-.03.4-.06.6-.02.17-.02.15 0-.05l-.06.3c-.62 2.67 3.49 3.82 4.12 1.14.52-2.22.48-4.71.58-6.97.11-2.63.13-5.28-.22-7.89-.15-1.14-.87-2.14-2.14-2.14-1.03 0-2.29.98-2.14 2.14Zm46.46-.71c-.31 2.3-.29 4.63-.23 6.95.07 2.48.08 5.08.54 7.52.21 1.13 1.58 1.78 2.63 1.49 1.19-.33 1.71-1.49 1.49-2.63-.37-1.98-.35-4.56-.4-6.73-.05-2.2-.05-4.42.24-6.6.15-1.15-1.09-2.14-2.14-2.14-1.28 0-1.98.99-2.14 2.14Zm-19.2 54.28v31.57c-.71.03-1.42.06-2.14.08-.71.02-1.42.03-2.14.04v-40.55c.01-.23.05-.43.12-.62.24-.68.8-1.09 1.44-1.24.37-.09.77-.09 1.15 0 .63.15 1.19.57 1.44 1.24.07.19.11.4.12.63v.5c.05 2.78 0 5.57 0 8.35Z"/><path class="cls-1" d="M123.33 194.46c-.94-3.69-2.49-7.33-4.56-10.53-.87-1.35-1.86-2.72-3.08-3.78-.59-.52-1.26-1.08-2.04-1.27-.8-.2-1.69.05-2.45.34-5.44 2.05-7.7 8.64-9.55 13.61-.63 1.7-1.2 3.37-1.82 4.98-.79-1.54-1.54-3.09-2.25-4.67a89.61 89.61 0 0 1-2.81-6.94c-.9-2.54-1.7-5.12-2.26-7.75-.54-2.52-.87-4.93-.5-7.71.15-1.15-1.09-2.14-2.14-2.14-1.28 0-1.98.99-2.14 2.14-.69 5.22.91 10.77 2.58 15.66 1.65 4.82 3.71 9.52 6.05 14.04.65 1.25 1.29 2.53 2.16 3.64.83 1.07 2.78.69 3.35-.43 1.2-2.32 2.09-4.8 2.98-7.25.93-2.54 1.79-5.02 2.9-7.32.53-1.1 1.12-2.19 1.82-3.19.33-.48.26-.41.73-.93.17-.19.35-.38.54-.56.09-.09.57-.49.51-.46.32-.23.65-.43 1-.61-.01.01.18-.07.33-.12.04.04.08.07.12.11.22.2.43.41.63.63.47.51.78.91 1.16 1.45 2.13 3.07 3.67 6.59 4.59 10.21.68 2.66 4.8 1.53 4.12-1.14Z"/><path class="cls-1" d="M114.89 179.53c-4.41-3.63-8.94-7.38-12.52-11.87-.05-.07-.23-.31-.28-.37-.11-.15-.22-.3-.33-.46-.21-.3-.41-.61-.61-.92-.34-.54-.65-1.1-.92-1.68-.12-.24-.22-.49-.33-.73-.06-.14-.11-.29-.17-.43-.19-.5-.37-1-.56-1.5-.53-1.43-1.13-2.84-1.87-4.18-.73-1.31-3.01-1.47-3.69 0-1.96 4.22-4.16 8.4-5.78 12.76-.4 1.08.45 2.34 1.49 2.63 1.2.33 2.22-.41 2.63-1.49.11-.31.24-.61.34-.93.11-.23.21-.46.32-.69l1.77-3.81c.34-.74.69-1.48 1.03-2.22.3.8.61 1.6.97 2.37 1.51 3.3 4.03 6.09 6.58 8.62 2.82 2.8 5.85 5.38 8.92 7.91.89.73 2.15.87 3.02 0 .76-.76.9-2.28 0-3.02Zm39.9-8.8c-.15-1.14-.87-2.14-2.14-2.14-1.04 0-2.29.98-2.14 2.14.15 1.12.17 2.25.11 3.38-.07 1.38-.17 2.02-.41 3.29-.5 2.67-1.25 5.29-2.13 7.85-1.52 4.42-3.23 8.36-5.38 12.54-.44-1.15-.85-2.33-1.31-3.58-1.02-2.79-2.04-5.6-3.42-8.23-1.21-2.31-2.78-4.57-5.02-5.99-1.09-.69-2.76-1.44-4.07-1.12-1.58.39-2.97 2.26-3.92 3.49-2.74 3.54-4.66 7.78-5.76 12.1-.68 2.67 3.44 3.8 4.12 1.14.68-2.67 1.69-5.23 3.05-7.64.97-1.72 2.08-3.38 3.53-4.73.13.05.28.11.27.1.32.16.63.35.92.55.03.02.05.03.07.04a9.094 9.094 0 0 1 .63.59c.3.3.59.63.85.96.02.04.31.43.34.48.12.18.24.36.35.54.32.5.61 1.02.89 1.54.45.85 1 2.03 1.28 2.7 1.8 4.26 3 8.78 5.12 12.9.58 1.12 2.52 1.5 3.35.43.73-.94 1.29-1.99 1.85-3.04 1-1.88 1.93-3.8 2.8-5.74 2.31-5.12 4.4-10.43 5.54-15.94.58-2.81.98-5.75.61-8.61Z"/><path class="cls-1" d="M154.72 170.16c-1.62-4.36-3.83-8.54-5.78-12.76-.68-1.47-2.96-1.31-3.69 0-.67 1.21-1.23 2.48-1.72 3.77-.19.5-.37 1-.56 1.51-.09.25-.19.5-.29.75 0 .02-.03.07-.05.13-.04.08-.08.18-.1.22-.55 1.22-1.24 2.37-2.03 3.46-.03.04-.19.26-.28.37-.08.1-.24.31-.27.35-.33.4-.66.8-1.01 1.19-.78.89-1.6 1.74-2.44 2.57-2.8 2.77-5.8 5.33-8.84 7.83-.89.73-.76 2.26 0 3.02.88.88 2.13.74 3.02 0 4.5-3.7 9.13-7.52 12.73-12.14 1.64-2.11 2.78-4.32 3.73-6.77.34.74.69 1.48 1.03 2.23l1.77 3.81c.11.23.21.46.32.69.11.31.23.62.34.92.4 1.08 1.45 1.82 2.63 1.49 1.04-.29 1.9-1.54 1.49-2.63Zm22.1-69.77c-.85-3.61-3.48-6.79-7.31-7.21-4.66-.52-7.97 3.33-9.6 7.23-.44 1.07.48 2.35 1.49 2.63 1.23.34 2.18-.42 2.63-1.49.27-.64.68-1.35 1.1-1.94.12-.17.24-.32.51-.61.14-.15.29-.3.45-.44.01-.01.27-.23.3-.26.22-.16.46-.31.7-.44.11-.06.22-.12.34-.17a.88.88 0 0 1 .15-.05c.28-.08.56-.15.84-.22-.51.11.39 0 .61 0 .13 0 .62.11.09 0 .11.02.22.04.32.07.11.03.6.21.59.19.2.1.4.22.6.34.04.02.16.12.23.18.1.09.2.18.3.28.13.13.26.27.38.41.05.06.23.32.02.02.19.28.37.56.53.86.09.16.17.33.24.5.01.04.03.09.06.17.15.44.28.89.38 1.35 1.4 6.56-.6 14.27-5.12 19.35-1.3 1.46-2.66 2.64-4.3 3.63-.44.27-.9.52-1.37.75.24-.98.46-1.96.65-2.95.22-1.13-.32-2.31-1.49-2.63-1.05-.29-2.41.35-2.63 1.49-.43 2.22-.98 4.42-1.67 6.57-.32.99-.67 1.97-1.05 2.93a38.303 38.303 0 0 1-1.11 2.56c-.84 1.77-1.8 3.49-2.87 5.14-.53.81-1.08 1.59-1.66 2.37-.02.02-.1.14-.15.2-.03.03-.05.07-.06.07-.14.18-.28.36-.43.53-.31.38-.62.75-.94 1.11a39.678 39.678 0 0 1-4.83 4.66c-.17.14-.34.27-.51.4 0 0-.02.01-.03.02l-.27.21c-.71.53-1.44 1.03-2.18 1.52-1.44.93-2.94 1.76-4.49 2.49-.35.16-.7.32-1.05.47-.09.04-.25.1-.32.13-.22.09-.44.18-.66.26-.8.31-1.61.59-2.43.84-1.6.49-3.23.88-4.88 1.16-.2.03-.4.07-.61.1-.07.01-.3.04-.41.06-.11.01-.34.04-.41.05-.23.03-.46.05-.7.07-.84.08-1.69.14-2.54.16-1.66.05-3.33 0-4.99-.17-.37-.04-.73-.08-1.1-.13-.09-.01-.25-.04-.34-.05-.23-.04-.46-.07-.69-.11-.84-.14-1.67-.31-2.5-.51a37.175 37.175 0 0 1-5.39-1.73c-.09-.04-.18-.07-.27-.11-.4-.17-.79-.35-1.18-.53-.79-.37-1.56-.77-2.32-1.19-1.51-.84-2.96-1.79-4.35-2.83-.07-.06-.15-.11-.22-.17-.17-.13-.34-.27-.51-.4-.36-.29-.72-.59-1.07-.9-.69-.6-1.35-1.22-1.99-1.87-.63-.63-1.24-1.29-1.83-1.96-.3-.34-.59-.69-.88-1.04-.14-.18-.29-.36-.43-.53 0-.01-.01-.02-.02-.02-.08-.11-.16-.22-.25-.32a44.092 44.092 0 0 1-6.44-12.31c-.03-.11-.06-.22-.1-.32-.38-1.17-.73-2.38-1.05-3.66a63.89 63.89 0 0 1-.75-3.39c-.22-1.13-1.58-1.78-2.63-1.49-1.19.33-1.71 1.49-1.49 2.63.22 1.18.49 2.35.79 3.51-.16-.07-.33-.15-.49-.23-1.64-.82-3.1-1.81-4.41-3.03a21.882 21.882 0 0 1-5.69-8.7c-1.29-3.66-1.47-7.08-1.12-10.94.13-1.48.48-2.72 1.27-3.95.03-.05.06-.09.08-.12.1-.12.2-.23.3-.35.07-.08.57-.51.47-.46.2-.14.42-.27.63-.39.05-.03.26-.11.31-.13l.27-.09c.13-.04.26-.06.39-.09.06 0 .13-.01.19-.01.19 0 1.12.12.61 0 .34.08.67.15.99.27.22.11.44.23.65.36.11.07.22.14.32.21.02.01.04.03.05.04.1.08.2.17.29.26.31.28.6.59.86.92.02.03.05.08.09.13.16.23.31.46.45.71.23.39.49.85.65 1.24.44 1.06 1.41 1.83 2.63 1.49 1-.28 1.94-1.56 1.49-2.63-1.54-3.68-4.39-7.13-8.68-7.27-3.89-.13-6.82 2.88-7.97 6.36-.67 2.01-.8 4.31-.84 6.41-.04 2.3.25 4.64.8 6.88 1.08 4.37 3.28 8.48 6.36 11.76 1.67 1.79 3.65 3.34 5.81 4.5 1.44.78 3.13 1.58 4.82 1.98 1.97 5.41 4.83 10.47 8.63 14.84a40.898 40.898 0 0 0 18.64 12.14c6.89 2.13 14.34 2.34 21.35.68 7.24-1.71 13.95-5.51 19.22-10.75 4.86-4.84 8.43-10.83 10.73-17.27 3.6-.9 7.02-3.2 9.54-5.78 3.05-3.12 5.23-7.07 6.41-11.26 1.19-4.19 1.46-8.98.45-13.25Zm-100.6-.96c-.04-.06-.07-.1 0 0Zm-2.16-1.76c-.36-.13-.09-.04 0 0Zm69.14 50.31c-.08.06-.22.16 0 0Z"/><path class="cls-1" d="M101.32 94.25c.4-.08.79-.16 1.19-.23.24-.05.46-.05.09-.02.19-.02.39-.04.58-.04 1.05-.05 2.12.07 3.16.17 1.15.11 2.14-1.06 2.14-2.14 0-1.25-.98-2.03-2.14-2.14-2.15-.2-4.05-.14-6.16.28-1.13.22-1.78 1.57-1.49 2.63.32 1.18 1.49 1.72 2.63 1.49Zm40.08-4.12c-2.11-.42-4.01-.48-6.16-.28-1.15.11-2.14.9-2.14 2.14 0 1.07.98 2.25 2.14 2.14 1.05-.1 2.11-.22 3.16-.17.17 0 .33.02.5.04.16.01-.4-.08.09.02.43.08.85.16 1.28.25 1.13.22 2.31-.32 2.63-1.49.29-1.05-.35-2.4-1.49-2.63Zm16.34-3c1.21 4.45 2.25 9.21 2.1 13.84-.09 2.75 4.19 2.75 4.27 0 .16-4.99-.95-10.18-2.25-14.97-.72-2.65-4.84-1.53-4.12 1.14Z"/><path class="cls-1" d="M177.46 56.37c-1.71-.78-3.36-1.68-4.88-2.79-.07-.05-.25-.19-.31-.23-.12-.09-.23-.18-.35-.28-.31-.26-.62-.53-.92-.81-.53-.49-1.02-1.01-1.49-1.56-.19-.22-.37-.44-.55-.67.08.09-.34-.47-.45-.62-.39-.55-.75-1.12-1.09-1.7-.65-1.11-1.23-2.26-1.8-3.42-1.15-2.33-2.29-4.68-3.88-6.76-2.09-2.74-4.71-4.94-7.74-6.58-3.24-1.75-6.76-2.95-10.34-3.83.75-.56 1.35-1.28 1.55-2.21.28-1.36-.61-2.69-2.06-2.7-4.51-.05-8.89-1.02-13.28-2.01-4.13-.93-8.37-1.92-12.62-1.8-6.81.2-14.03 2.76-19.39 6.95-2.72 2.13-4.89 4.8-6.3 7.92-3.21-.21-6.66.27-9.29 2.08-2.55 1.76-4.6 4.08-6.19 6.72-3.01 5.01-4.2 10.49-7.17 15.37-1.64 2.69-3.76 4.81-6.66 6.32-1.11.58-1.2 1.9-.77 2.92.7 1.63 3.3 2.65 4.85 3.06l.24.06c-1.16 3.88-1.47 7.9-.52 11.91 1.09 4.58 3.39 8.92 3.89 13.64.12 1.15.89 2.14 2.14 2.14 1.06 0 2.26-.98 2.14-2.14-.51-4.81-2.53-9.15-3.79-13.77-.58-2.14-.85-4.21-.64-6.43.17-1.77.63-3.52 1.21-5.21 1.72-.29 3.37-.96 4.86-1.94 2.29-1.5.15-5.2-2.16-3.69-1.07.7-2.21 1.28-3.49 1.47-1.04.16-1.85.08-2.75-.16-.06-.02-.11-.03-.17-.05 3.67-2.88 6.07-6.92 7.92-11.29 2.09-4.93 3.73-10.29 7.65-13.99 1.11-1.04 2.21-1.85 3.68-2.29 1.85-.55 3.9-.71 5.81-.42.65.18 1.27.04 1.75-.31.41-.25.73-.64.87-1.18 2-5.82 7.61-9.6 13.23-11.57 1.46-.51 2.96-.93 4.48-1.26.68-.15 1.37-.27 2.05-.38.54-.08.22-.04.75-.11.48-.06.96-.09 1.45-.12 3.88-.17 7.7.72 11.46 1.57 2.56.57 5.13 1.15 7.73 1.57-.17.07-.34.15-.51.23-.43.21-.73.59-.89 1.03-.03.08-.06.16-.09.25-.07.26-.08.54-.05.82.03.3.12.58.26.83.02.04.05.07.07.11.27.44.68.78 1.2.87 2.94.49 5.86 1.09 8.72 1.93 2.18.64 4.16 1.35 5.99 2.25.86.42 1.69.88 2.5 1.39.33.21.66.43.98.65.17.12.33.24.5.36a2.722 2.722 0 0 1 .24.19c1.13.93 2.11 1.96 3.06 3.07l.03.03c.01.01.02.03.03.05.1.13.2.27.29.4.19.27.38.54.55.81.36.56.7 1.13 1.03 1.71.61 1.1 1.17 2.23 1.72 3.36 1.22 2.47 2.5 4.85 4.23 7.01 1.75 2.18 3.95 3.96 6.35 5.37-.01 0-.02 0-.03.01-.19.07-.39.13-.59.18-.75.19-1.67.26-2.74.13-1.14-.15-2.44-.57-3.55-1.06-1.05-.47-2.29-.31-2.92.77-.53.91-.29 2.45.77 2.92 1.84.81 3.77 1.45 5.74 1.64 2.45 4.42 3.51 9.67 3.07 14.69-.26 2.93-1.37 5.71-2.4 8.43-1.12 2.96-2.15 5.89-2.49 9.05-.12 1.15 1.07 2.14 2.14 2.14 1.26 0 2.01-.98 2.14-2.14.33-3.08 1.63-6.02 2.71-8.89 1.13-3 2.03-6 2.23-9.22.3-4.9-.7-10.06-2.83-14.55 1.65-.57 3.15-1.59 4.28-2.9.81-.94.91-2.74-.43-3.35ZM65.29 64.62c.31.2.12.09 0 0Zm75.94-41.02s-.02.02-.05.04c.02-.02.03-.03.05-.04Z"/><path class="cls-1" d="M145.51 57.59c3.33 8.41 8.32 16.04 14.75 22.42 1.95 1.94 4.98-1.08 3.02-3.02-5.88-5.83-10.6-12.83-13.65-20.53-.42-1.07-1.43-1.82-2.63-1.49-1.02.28-1.92 1.55-1.49 2.63Zm-63.87 43.38c1.07-8.17 3.23-16.32 6.95-23.7 1.96-3.88 4.32-7.58 7.1-10.92 2.99-3.59 6.38-7.22 10.63-9.29.76-.37 1.56-.66 2.38-.9.86-.24 1.73-.41 2.41-.47.78-.07 1.57-.07 2.35-.03.99.06 1.16.09 2.09.28 3.32.68 6.48 1.96 9.28 3.87 6.18 4.22 10.33 10.96 15.33 16.46 3.11 3.42 6.7 6.4 10.66 8.78 4.28 2.57 9.21 4.56 14.27 3.75 1.14-.18 1.77-1.6 1.49-2.63-.33-1.21-1.48-1.67-2.63-1.49-3.9.62-8.23-1.6-11.51-3.65-3.42-2.13-6.46-4.71-9.17-7.68-5.33-5.84-9.65-12.7-16.29-17.22-5.89-4.02-14.12-6.25-20.97-3.55-4.63 1.82-8.32 5.15-11.63 8.79a62.13 62.13 0 0 0-8.26 11.46c-4.85 8.69-7.46 18.33-8.75 28.15-.15 1.15 1.09 2.14 2.14 2.14 1.28 0 1.99-.99 2.14-2.14Zm10.37 70.16c-.01.1-.03.21-.07.3-.13.44-.44.85-.98 1.14-.41.22-.81.44-1.22.66-.71.39-1.42.77-2.13 1.16-.8.43-1.6.85-2.41 1.25-3.73 1.88-7.62 3.41-11.46 5.03-.3.12-.6.25-.9.38-1.6.68-3.19 1.36-4.78 2.04-2.5 1.07-4.99 2.15-7.48 3.23-.36.16-.72.31-1.09.47-4.42 1.91-8.9 3.79-13.23 5.92-1.18.58-2.36 1.18-3.52 1.81-.26.14-.51.28-.77.42-.76.42-1.48.83-2.17 1.26-1.7 1.04-3.22 2.15-4.63 3.56-.37.37-.66.68-.92.98-.5-.5-1-1.01-1.49-1.52s-.97-1.03-1.45-1.54c.97-1.09 2.05-2.07 3.2-2.97.69-.54 1.41-1.06 2.15-1.55.8-.53 1.63-1.04 2.47-1.51 1.6-.92 3.26-1.75 4.9-2.55 6.58-3.18 13.35-6.02 20.06-8.91 2.37-1.02 4.73-2.03 7.1-3.04 1.38-.59 2.76-1.17 4.14-1.75.42-.18.84-.36 1.26-.53.74-.31 1.48-.63 2.21-.96 3.2-1.44 6.3-3.02 9.39-4.69.21-.11.41-.22.62-.33h.01c.67-.36 1.32-.33 1.85-.08a2.38 2.38 0 0 1 1.34 1.96v.38Zm104.76 21.59c-13.74-6.62-28.16-11.79-41.86-18.49-.7-.34-1.41-.69-2.11-1.04-.41-.21-.82-.41-1.22-.62-.52-.26-.83-.64-.97-1.05a1.8 1.8 0 0 1-.1-.46c-.01-.13 0-.25 0-.38.09-.77.62-1.53 1.36-1.87.52-.24 1.15-.27 1.8.04s.03.02.05.03c.2.1.41.21.61.31 1.96 1 3.92 1.98 5.91 2.92 8.19 3.88 16.69 7.16 25.01 10.79 6.28 2.74 12.72 5.34 18.68 8.73 1.23.7 2.42 1.45 3.55 2.26-.46.54-.92 1.07-1.39 1.6-.47.54-.95 1.07-1.43 1.6-2.49-1.69-5.19-3.06-7.9-4.37Z"/><path class="cls-1" d="M106.76 100.78c-1.79-2.46-4.58-1.87-5.92.16-1.51 2.26-1.31 6.27.2 8.51.52.73 1.24 1.18 2.09 1.33 3.32.59 4.7-2.48 4.68-5.01 0-1.54-.11-3.7-1.05-4.99Zm34.19 0c-1.79-2.46-4.58-1.87-5.92.16-1.51 2.26-1.31 6.27.2 8.51.52.73 1.24 1.18 2.09 1.33 3.32.59 4.7-2.48 4.68-5.01 0-1.54-.11-3.7-1.05-4.99Z"/><ellipse class="cls-1" cx="121.18" cy="121.74" rx="2.96" ry="2"/><path class="cls-3" d="M132.52 130.39s-10.29 24.16-22.13.33c0 0 11.9 1.39 22.13-.33Z"/><path class="cls-1" d="M134.58 129.83c-.09-.33-.24-.6-.44-.82-.03-.03-.05-.06-.08-.09-.13-.13-.28-.25-.45-.35-.43-.25-1.01-.33-1.54-.23-.03 0-.07 0-.1.01-7.03 1.16-14.48 1.07-21.56.25-1.74-.2-2.49 1.93-1.84 3.21 2.72 5.42 7.57 13.01 14.75 11.32 4.32-1.01 7.44-5.1 9.56-8.73.55-.94 1.08-1.92 1.51-2.92 0-.02.02-.04.03-.07.25-.5.33-1.08.19-1.58Zm-6.9 4.71c-.1.14-.21.29-.32.43.05-.07-.23.3-.33.41-.62.75-1.29 1.46-2.02 2.09-.13.12-.51.4-.31.25-.16.12-.32.23-.49.34-.4.26-.82.47-1.25.69.55-.28-.11.04-.27.09-.18.06-.36.11-.54.15-.11.03-.22.04-.32.07-.24 0-.47.03-.71.02-.18 0-.83-.12-.23 0-.25-.05-.49-.1-.74-.16-.08-.02-.37-.12-.49-.16-.09-.04-.2-.09-.21-.09a6.74 6.74 0 0 1-.46-.25c-.27-.15-.53-.32-.78-.5-.05-.03-.08-.06-.11-.07-.02-.02-.05-.04-.09-.07-.16-.13-.32-.27-.48-.41-.65-.59-1.24-1.23-1.78-1.91-.56-.71-1.08-1.46-1.56-2.24 4.81.35 9.68.31 14.48-.18-.1.15-.19.31-.29.46-.23.35-.47.7-.71 1.04Z"/><path class="cls-3" d="M61.64 151.7h-.01l-1.21 1.4c-3.28 3.81-4.59 6.32-2.28 11.08 1.21 2.5 3.27 4.46 5.52 5.31 1.76-.07 3.36-1.91 4.53-2.82.2-3.87 2.17-8.81 5.26-10.41 1.68-.88 3.7-.76 5.96 1.05.11.22.04 1.08.03 1.33-.08 2.17-.47 4.18-.53 6.35-.05 1.57.38 2.61-.28 4.13-4 11.82-18.95 20.17-26.13 24.56 0 0-.66.46-.79.91-7.53 1.05-16.17-.83-24.03-5.33.92-3.59-1.14-7.91-1.14-7.91-3.5-8.77-5.31-14.84-6.52-24.29-.88-6.86-1.45-18.38-2.24-25.25-.29-1.94-.44-4.99 1.79-5.45 6.98-1.45 7.65 10.97 7.99 15.97.43 4.27.9 5.99 1.63 10.22l.22.57.11-.48c.18-.83.08-7.52.08-8.37-.04-7.72-.1-14.91-.61-22.63-.09-1.37-.1-2.96.97-3.82.77-.62 1.93-.64 2.87-.26.94.38 1.7 1.11 2.33 1.89 3.13 3.9 3.21 8.62 3.92 13.48.16 1.1.29 2.16.39 3.21l.03-1.18c.17-4.94.05-15.69.09-16.84.13-4.15 4.43-2.42 4.43-2.42 4.51 1.2 5.19 10.14 5.19 10.14.36 8.23.3 16.42-.09 24.63 3.27-3.45 11.26-12.36 15.68-10.08.84.44 1.46 1.21 2.05 1.96 2.26 2.87 4.71 5.24 6.97 8.11 1.62 1.86.37 4.12-2.22 4.9-2.52.76-6.32.12-9.95-3.64Z"/><path class="cls-3" d="M56.92 193.31c0 .06-.02.12-.03.18-.12.73-.24 1.46-.35 2.19-1.12 7.06-2.08 14.04-2.97 20.76-.66-.43-1.31-.86-1.96-1.3a118.63 118.63 0 0 1-17.36-14.4c-.5-.5-1-1.01-1.49-1.52s-.97-1.03-1.45-1.54c-1.5-1.62-2.96-3.29-4.37-4.99-.57-.69-1.12-1.38-1.67-2.07l.06-.26c.07-.26.13-.53.2-.79.11-.46.23-.92.34-1.38.59.38 1.19.74 1.8 1.08.04.02.08.04.12.07a66.822 66.822 0 0 0 1.63.89c.05.03.1.05.16.08.2.1.41.21.61.31.18.09.35.17.53.26.18.09.36.17.55.25.24.11.48.22.72.32.41.18.81.35 1.22.51.23.09.45.18.68.27.18.07.36.14.54.2.15.06.3.11.45.16.15.05.3.1.44.16.3.1.6.2.89.3.15.05.3.1.45.14.22.07.43.13.65.19.03 0 .06.02.09.03l.53.15c.52.14 1.03.27 1.55.39.1.02.21.05.31.07l.15.03c.12.03.24.05.37.08.14.03.27.06.41.08.14.03.27.05.41.08.13.02.25.05.38.07h.03c.16.03.31.05.46.08l.6.09c.06 0 .11.02.17.02.17.02.34.05.51.07l.49.06c.04 0 .08 0 .12.01.17.02.33.03.5.05l.4.03.39.03c.2.02.4.03.6.04l.56.03c.16 0 .31.01.46.01.62.02 1.24.01 1.85 0 .18 0 .37-.01.55-.02.18 0 .37-.02.55-.03.2-.01.39-.03.58-.05.14-.01.27-.03.41-.04.33-.03.66-.07.98-.12 1.01-.14 2-.33 2.96-.58.77-.2 1.53-.43 2.26-.69Z"/><path class="cls-1" d="M20.93 128.38c.16.04.21.05.21.04-.06-.02-.12-.03-.19-.04h-.02Z"/><path class="cls-1" d="M81.47 160.06c.11-1.31.47-3.23-.56-4.27-1.14-1.15-2.8-1.92-4.47-2.13.3-.85.35-1.79.04-2.78-.27-.87-.8-1.53-1.37-2.23-.97-1.2-1.99-2.36-3.03-3.51-.87-.97-1.74-1.93-2.58-2.92-.86-1.02-1.62-2.17-2.66-3.02-3.26-2.65-7.39-.74-10.34 1.41-1.8 1.32-3.46 2.8-5.04 4.36.16-5.54.17-11.09-.02-16.64-.12-3.47-.53-6.82-1.97-10.03-1.36-3.02-4.3-5.38-7.75-5.08-2.68.23-4.16 2.33-4.26 4.91-.01.27-.02.55-.02.82-.32-.47-.67-.93-1.06-1.37-1.89-2.14-5.22-3.39-7.71-1.45-2.49 1.94-1.8 5.44-1.66 8.18.09 1.61.15 3.22.21 4.83-1.49-3.19-3.99-5.67-8.03-4.88-1.78.35-3.05 1.76-3.47 3.49-.18.75-.25 1.56-.23 2.34 0 .37.04.74.08 1.11.06.51.11.85.13 1.08.4 3.64.66 7.29.94 10.94.6 7.79 1.13 15.62 2.84 23.26.98 4.38 2.38 8.64 3.98 12.82.4 1.06.8 2.13 1.26 3.17 0 .02.02.04.02.06.11.31.23.61.34.92.57 1.7.96 3.55.53 5.32-.66 2.67 3.46 3.81 4.12 1.14.8-3.26-.04-6.47-1.27-9.49-.07-.17-.04-.12.02.03-.22-.55-.43-1.09-.64-1.64-.36-.94-.72-1.88-1.06-2.83-.66-1.81-1.27-3.64-1.82-5.48-2.08-7.02-2.98-14.23-3.57-21.5-.3-3.67-.56-7.34-.86-11.01-.14-1.66-.28-3.32-.45-4.98-.03-.32-.07-.64-.1-.96 0-.08-.08-.63-.1-.78 0-.07-.02-.15-.02-.17-.07-.67-.12-1.37-.03-2.04 0 .04.15-.7.14-.5-.01.14.06 0 .08-.07.16-.04.08-.04 0-.03.08-.02.16-.04.25-.06.05 0 .1-.01.14-.01h.55c-.01 0-.03 0-.05-.01.02 0 .04 0 .07.01.09.01.18.04.19.04.02 0 .04 0 .05.01.21.08.6.29.21.06.19.11.38.22.57.34 0 0 0 .01.02.02.1.12.23.22.34.33.08.09.26.32.29.34.12.17.23.34.33.51.14.23.26.47.38.71.05.11.11.22.16.34.01.03.02.05.03.07.01.03.02.06.04.11.44 1.17.76 2.37 1.01 3.6.14.68.25 1.37.35 2.06 0 .04.08.64.09.73.04.33.07.65.1.98.11 1.16.18 2.32.27 3.47.16 2.06.48 4.12.84 6.16.32 1.76.45 3.74 1.11 5.41.35.89 1.05 1.57 2.06 1.57.91 0 1.85-.66 2.06-1.57.6-2.68.3-5.64.27-8.37-.05-4.87-.06-9.74-.2-14.61-.08-2.9-.21-5.8-.39-8.69-.04-.69-.3-2.06.13-2.53.2-.22.95.09 1.32.37 1.79 1.34 2.71 3.85 3.23 5.93.6 2.42.8 4.92 1.14 7.38.14 1.03.26 2.06.36 3.1 0 .18.02.35.05.51.45 4.86.51 9.74.84 14.61.08 1.15.93 2.14 2.14 2.14 1.09 0 2.22-.98 2.14-2.14-.35-5.05-.4-10.11-.89-15.15.1-3.79.13-7.58.13-11.37 0-1.79-.01-3.59-.01-5.38v-1.31c0-.06.01-.25.01-.29.01-.05.06-.2.1-.34.04-.02.03-.02 0 0 0-.01 0-.03.01-.04.03 0 .06-.02.09-.02h.49c.34.09.67.17 1 .27.09.03.19.06.28.09h.01c.04.02.08.04.12.07.05.03.28.18.33.2.01 0 .02.02.02.02.11.1.22.2.32.31.04.04.18.2.25.27.06.08.19.26.22.31.25.38.47.77.66 1.18.03.06.14.3.17.38.03.09.14.38.17.47.14.39.26.79.38 1.19.21.74.38 1.5.51 2.26l.12.75c0 .08.02.17.03.25.07.69.08 1.38.1 2.07.28 7.63.19 15.27-.16 22.89-.09 1.84 2.4 2.83 3.65 1.51 2.03-2.14 4.04-4.3 6.27-6.24 1.19-1.03 2.24-1.86 3.67-2.67.63-.36 1-.53 1.35-.64.29-.09.6-.16.89-.24.02 0 .04-.01.06-.02h.54c.13.03.25.07.38.1-.48-.11.18.11.39.28.89.75 1.56 1.83 2.3 2.71 1.53 1.8 3.16 3.51 4.68 5.32.35.41.71.82 1.03 1.25-.06-.07.1.19.2.35-.13-.2-.05.13 0 .18-.02.02-.04.05-.08.1-.03.05-.06.08-.07.11-.02.02-.06.05-.1.1-.08.08-.11.12-.13.15-.03.02-.08.04-.14.07-.13.08-.65.33-.48.28-1.32.51-2.31.44-3.68.03-1.91-.57-3.65-1.99-5.07-3.55-1.49-1.64-3.74 0-3.59 1.77-2.11 2.42-4.17 5.06-4.22 8.39-.04 2.38.94 4.88 2.24 6.84 1.37 2.06 3.19 3.64 5.42 4.66.24.17.51.28.8.32.34.08.7.04 1.03-.09 1.25-.24 2.29-.82 3.32-1.63.85-.67 2.29-1.58 2.59-2.67.09-.32.08-.67.11-1 0-.02.05-.43.04-.43.07-.47.16-.93.27-1.39.2-.84.57-1.97.82-2.54.37-.81.8-1.62 1.35-2.33.02-.01.29-.34.33-.38.14-.15.29-.3.45-.45.04-.04.27-.22.34-.29.09-.06.39-.24.44-.27.06-.03.3-.13.34-.16l.4-.12c.04-.01.08-.02.1-.03h.54c.02.01.34.06.41.07.2.05.41.12.61.2-.03 0 .43.24.51.29v.06c-.02.41-.04.81-.07 1.21-.09 1.11-.23 2.22-.34 3.33-.1 1.01-.17 2.03-.1 3.05.06.92.08 1.59-.23 2.46-.98 2.72-2.63 5.41-4.55 7.67-4.08 4.8-9.17 8.49-14.45 11.84-1.3.82-2.61 1.62-3.92 2.42-1.36.82-2.69 1.5-3.67 2.79-.7.92-.14 2.39.77 2.92 1.07.63 2.16.17 2.87-.7h.03c-.03.09-.07.21.12-.05.14-.08.29-.19.41-.27.37-.23.75-.45 1.12-.68.83-.5 1.66-1.01 2.49-1.52 1.94-1.2 3.86-2.43 5.73-3.73 4.17-2.9 8.21-6.11 11.51-9.99 1.63-1.92 3.12-3.98 4.26-6.24.59-1.17 1.1-2.39 1.52-3.63.49-1.46.2-2.89.23-4.38.03-1.65.29-3.28.44-4.92Zm-61.48-31.59Zm-.03-.01h-.04c.02 0 .03 0 .05-.01Zm.2-.05c-.08.02-.06.01 0 0Zm21.66-10.9c-.01.02-.02.03-.03.04-.07.02-.15.05.03-.04Zm11.82 77.92.01-.01v.01Zm12.5-29.81c-.69.64-1.51 1.45-2.23 1.67-2.81-1.31-5.06-5-4.79-7.89 0-.03.02-.16.03-.21.04-.19.09-.38.15-.57.13-.44.16-.5.34-.83.36-.69.79-1.34 1.27-1.96.29-.38.6-.75.92-1.11 2.04 1.62 4.45 2.79 7.01 2.99-1.54 2.33-2.39 5.29-2.69 7.91Zm11.15-7.89c-.04-.15-.02-.1 0 0Z"/><path class="cls-1" d="M23.85 188.78c-.08-.11-.17-.22-.25-.33l.21-.84c.19-.77.66-1.23 1.23-1.42.21-.07.44-.11.66-.11.93 0 1.9.56 2.2 1.49.11.34.13.74.03 1.17-.05.19-.09.39-.14.58l-.51 2.05c0 .03-.02.06-.02.1-.1.41-.21.81-.31 1.22-.57-.69-1.12-1.38-1.67-2.07-.15-.19-.3-.39-.45-.58 0 0-.02 0-.03-.02-.52-.33-.82-.77-.94-1.24Z"/><path class="cls-1" d="M58.99 193.81c-.19.71-.76 1.3-1.5 1.56-.31.11-.63.22-.95.31-.74.23-1.49.43-2.24.6-4.75 1.07-9.69.93-14.49-.09-.94-.2-1.88-.43-2.81-.7-.84-.24-1.67-.5-2.49-.79-2.52-.88-4.95-1.98-7.25-3.25l-.48-.27h-.01c-.12-.07-.23-.13-.35-.2-.36-.21-.72-.42-1.07-.64-.17-.1-.35-.21-.52-.32 0 0-.02 0-.03-.02-.52-.33-.82-.77-.94-1.24-.26-1 .29-2.14 1.18-2.59.2-.1.42-.17.65-.19.39-.04.82.05 1.26.33.31.2.63.39.95.58.68.41 1.38.8 2.09 1.17 2.88 1.52 5.96 2.75 9.13 3.57 1.07.28 2.14.5 3.23.68 1.3.21 2.61.35 3.91.39 1.44.06 2.89.01 4.33-.15 1.95-.22 3.88-.64 5.76-1.31a1.875 1.875 0 0 1 1.4.1h.01c.3.14.57.36.79.61.09.11.17.23.24.35a1.944 1.944 0 0 1 .18 1.5Z"/><path class="cls-1" d="M58.99 193.81v.07c-.94 5.79-1.78 11.59-2.58 17.4-.29 2.14-.58 4.28-.86 6.43-.66-.41-1.32-.83-1.97-1.26-.66-.43-1.31-.86-1.96-1.3.84-6.29 1.71-12.58 2.69-18.85l.21-1.35.15-.93c.07-.42.13-.84.2-1.26.04-.26.15-.5.3-.7.31-.41.8-.69 1.31-.8.34-.08.7-.08 1.01 0 .1.03.19.06.27.1h.01c.33.14.59.35.79.61.09.11.16.23.22.36.21.44.28.97.21 1.49Z"/></g></svg>