<svg data-name="レイヤー 2" xmlns="http://www.w3.org/2000/svg" width="243" height="160"><g data-name="Layer 1"><path d="M78.31 109.94c-.87 0-1.58.71-1.58 1.58v5.59c0 .87.71 1.58 1.58 1.58h86.37c.87 0 1.58-.71 1.58-1.58v-5.59c0-.87-.71-1.58-1.58-1.58h-7.5V70.51h7.5c.87 0 1.58-.71 1.58-1.58v-5.59c0-.87-.71-1.58-1.58-1.58H78.31c-.87 0-1.58.71-1.58 1.58v5.59c0 .87.71 1.58 1.58 1.58h7.5v39.43h-7.5Zm38.52 0V70.51h9.35v39.43h-9.35Zm29.52 0H137V70.51h9.35v39.43Zm-49.7-39.43H106v39.43h-9.35V70.51Zm-24.71 52.94h99.12c.87 0 1.58.71 1.58 1.58v5.59c0 .87-.71 1.58-1.58 1.58H71.94c-.87 0-1.58-.71-1.58-1.58v-5.59c0-.87.71-1.58 1.58-1.58Zm99.7-73.4-47.4-21.66a6.58 6.58 0 0 0-5.49 0l-47.4 21.66c-.61.28-1 .89-1 1.56v3.67c0 .94.77 1.71 1.71 1.71h98.86c.94 0 1.71-.77 1.71-1.71v-3.67c0-.67-.39-1.28-1-1.56Zm-50.14-.6a6.31 6.31 0 1 1 0-12.62 6.31 6.31 0 0 1 0 12.62Z" style="fill:#2e3192"/><path style="fill:none" d="M0 0h243v160H0z"/></g></svg>