<svg id="_レイヤー_2" data-name="レイヤー 2" xmlns="http://www.w3.org/2000/svg" width="243" height="160"><defs><style>.cls-2{fill:#eb6100}.cls-3{fill:#2e3192}</style></defs><g id="Layer_1" data-name="Layer 1"><path class="cls-3" d="M104.22 74.61a6.335 6.335 0 0 0-4.08-7.99l-11.31-3.67-9.26-11.41c-3.3-4.07-8.2-6.4-13.44-6.4H53.79c-14.55 0-25.58 24.9-28.62 32.53-1.29 3.25.3 6.94 3.55 8.24a6.348 6.348 0 0 0 8.24-3.55c2.6-6.52 6.14-12.96 9.43-17.62l-.88 26.57-10 47.07c-.82 3.81 1.6 7.56 5.41 8.37.5.11.99.16 1.49.16 3.25 0 6.18-2.26 6.88-5.57l9.88-46.49h2.77v45.01c0 3.89 3.16 7.05 7.05 7.05 3.89 0 7.05-3.16 7.05-7.05V91.94l-.85-25.64 4.95 6.1c.77.95 1.8 1.66 2.97 2.04l13.1 4.25c3.35 1.1 6.92-.75 7.99-4.08Z"/><circle class="cls-3" cx="60.77" cy="27.19" r="14.11" transform="rotate(-45 60.775 27.196)"/><circle class="cls-2" cx="192.59" cy="46.42" r="12.83" transform="rotate(-45 192.595 46.414)"/><path class="cls-3" d="M178.38 117.85h18.98c4.27 0 7.85-3.06 8.5-7.28l4.93-31.65a3.765 3.765 0 0 1 7.44 1.16l-4.93 31.65c-1.24 7.9-7.94 13.64-15.94 13.64h-2.84v13.89h3.9c2.08 0 3.76 1.68 3.76 3.76s-1.68 3.76-3.76 3.76h-15.33c-2.08 0-3.76-1.68-3.76-3.76s1.69-3.76 3.76-3.76h3.9v-13.89h-8.62c-2.08 0-3.76-1.68-3.76-3.76s1.68-3.76 3.76-3.76Z"/><path class="cls-2" d="M161.03 146.79c3.39 0 6.22-2.54 6.59-5.92l2.95-27.47 23.99.03c3.3 0 6.06-2.36 6.56-5.61l4.66-31.94c.52-3.58-.53-7.19-2.87-9.89-1.19-1.38-3.5-3.18-7.78-3.91-1.04-.18-2.1-.27-3.16-.27-3.92 0-7.81 1.19-11.24 3.45l-4.98 3.27c-2.56 1.7-5.54 2.59-8.62 2.59h-10.28c-1.6 0-3.13.68-4.21 1.86a5.665 5.665 0 0 0-1.45 4.38c.27 2.88 2.85 5.14 5.87 5.14h10.08c4.23 0 8.45-1.04 12.29-3.02l-1.27 20.65-13.52-.02c-3.53.11-6.23 2.54-6.6 5.92l-3.6 33.38c-.19 1.77.31 3.5 1.42 4.88a6.586 6.586 0 0 0 4.45 2.44c.25.03.49.04.73.04Z"/><path class="cls-3" d="M133.55 146.79c2.67 0 4.84-2.17 4.84-4.84V98.84c0-1.86 1.51-3.38 3.38-3.38h25.79c1.24 0 2.41-.55 3.21-1.51.79-.96 1.11-2.22.87-3.47-.37-1.93-2.15-3.34-4.22-3.34H95.08c-2.69 0-4.88 2.19-4.88 4.88v49.92c0 2.67 2.17 4.84 4.84 4.84h38.51Z"/><path class="cls-2" d="M115.53 75.28h25c1.11 0 2.02.9 2.02 2.02v2.89c0 1.11-.9 2.02-2.02 2.02h-25c-1.11 0-2.02-.9-2.02-2.02V77.3c0-1.11.9-2.02 2.02-2.02Zm0-10.1h25c1.11 0 2.02.9 2.02 2.02v2.89c0 1.11-.9 2.02-2.02 2.02h-25c-1.11 0-2.02-.9-2.02-2.02V67.2c0-1.11.9-2.02 2.02-2.02Zm0-10.1h25c1.11 0 2.02.9 2.02 2.02v2.89c0 1.11-.9 2.02-2.02 2.02h-25c-1.11 0-2.02-.9-2.02-2.02V57.1c0-1.11.9-2.02 2.02-2.02Z"/><path style="fill:none" d="M0 0h243v160H0z"/></g></svg>