<svg data-name="レイヤー 2" xmlns="http://www.w3.org/2000/svg" width="243.05" height="160"><g data-name="Layer 1"><path d="M125.82 89.84c-2.87-6.74-13.19-5.79-17.18-4.53-1.77.56-2.95 1.52-4.13 2.75l-11.96 12.37-12.86 4.89a6.065 6.065 0 0 0-3.51 7.81 6.05 6.05 0 0 0 5.66 3.9c.71 0 1.44-.13 2.15-.4l14.12-5.37c.83-.32 1.58-.81 2.2-1.45l1.03-1.06c.14 7.19 1.15 19.48 1.24 20.1.15 1.06.63 1.79 1.95 1.79h21.8c1.15 0 1.9-.88 1.91-2.04.11-13.19.62-31.63-2.41-38.76Zm-12.59-8.51c7.3 0 13.22-5.92 13.22-13.23s-5.92-13.22-13.22-13.22S100 60.8 100 68.1s5.92 13.23 13.23 13.23ZM18.29 70.9c8.85 0 16.02-7.17 16.02-16.02s-7.17-16.02-16.02-16.02S2.27 46.03 2.27 54.88 9.44 70.9 18.29 70.9Zm49.63 14.31a7.328 7.328 0 0 0-9.86-3.2L44.36 89s-7.59-5.26-10.03-7.04c-1.54-1.12-6.05-4.73-10.46-6.24-4.8-1.65-17.34-2.68-20.82 5.49C-.63 89.85 0 112.2.12 128.17c.01 1.4.91 2.47 2.31 2.47h26.41c1.61 0 2.18-.88 2.37-2.17.12-.82 1.61-18.91 1.52-26.86 0-.85 0-1.78.02-2.76l6.97 4.72a7.31 7.31 0 0 0 4.11 1.26c1.14 0 2.28-.26 3.33-.8l17.56-8.96a7.328 7.328 0 0 0 3.2-9.86Z" style="fill:#2e3192"/><path d="M171.72 84.22c7.34 0 13.3-5.95 13.3-13.3s-5.95-13.3-13.3-13.3-13.3 5.95-13.3 13.3 5.95 13.3 13.3 13.3Zm27.69 25.81V99.44c0-.91-.43-1.76-1.16-2.3a2.88 2.88 0 0 0-2.54-.44l-2.41.73c-1.36-5.45-5.95-9.56-11.48-10.68a18.699 18.699 0 0 1-20.22 0c-5.53 1.12-10.12 5.24-11.48 10.69l-2.41-.73c-.87-.27-1.81-.1-2.54.44s-1.16 1.39-1.16 2.3v10.59c-2.47.39-4.38 2.53-4.38 5.11v2.36c0 2.58 1.91 4.72 4.38 5.11v9.63c0 1.26.82 2.37 2.03 2.74l24.83 7.56a2.923 2.923 0 0 0 1.66 0l24.83-7.56a2.862 2.862 0 0 0 2.03-2.74v-9.63c2.47-.39 4.38-2.53 4.38-5.11v-2.36c0-2.58-1.91-4.72-4.38-5.11Zm-30.55 25.91-19.12-5.82v-26.83l19.12 5.82v26.83Zm24.83-5.82-19.11 5.82v-26.83l19.11-5.82v26.83Zm3.44-76.93c-.62 1.83-1.84 4.2-4.31 7.06-1.56 1.81.27 4.5 2.52 3.67 4.65-1.72 9.97-4.15 14.9-6.56 1.5.17 3.02.29 4.59.29 15.59 0 28.23-9.02 28.23-20.15s-12.64-20.15-28.23-20.15-28.23 9.02-28.23 20.15c0 6.35 4.12 12 10.54 15.69Zm31.66-20.06c2.41 0 4.37 1.95 4.37 4.37s-1.95 4.37-4.37 4.37-4.37-1.95-4.37-4.37 1.96-4.37 4.37-4.37Zm-13.96 0c2.41 0 4.37 1.95 4.37 4.37s-1.95 4.37-4.37 4.37-4.37-1.95-4.37-4.37 1.95-4.37 4.37-4.37Zm-13.97 0c2.41 0 4.37 1.95 4.37 4.37s-1.95 4.37-4.37 4.37-4.37-1.95-4.37-4.37 1.95-4.37 4.37-4.37Z" style="fill:#eb6100"/><path style="fill:none" d="M.03 0h243v160H.03z"/></g></svg>