<svg id="_レイヤー_2" data-name="レイヤー 2" xmlns="http://www.w3.org/2000/svg" width="243" height="160"><defs><style>.cls-3{fill:#2e3192}</style></defs><g id="Layer_1" data-name="Layer 1"><path d="M174.89 81.29c0 29.49-23.9 53.39-53.39 53.39V27.9c29.49 0 53.39 23.9 53.39 53.39Z" style="fill:rgba(235,97,0,.85)"/><path class="cls-3" d="M86.8 26.56c.04.32.21.6.49.75l6.35 3.43c-4.84 2.51-8.33 4.78-10.48 6.82-18.9 17.89-23.69 45.24-11.58 68.19 7.76 14.7 20.54 25.28 36.36 29.48 17.86 4.74 37.76-1.22 51.45-13.36 9.67-8.58 15.63-19.28 17.87-32.12 2.63-15.09-1.41-30.15-10.06-42.7-9.22-13.41-24.32-21.63-40.38-23.71-1.92-.25-3.72-.25-5.39 0-1.05.16-1.87 1.03-2 2.14-.19 1.64 1.35 2.07 2.82 2.17 10.99.76 21.02 4.39 30.09 10.88 5.62 4.02 9.01 8.9 12.36 13.76 2.01 2.91 3.62 5.91 4.82 9 7.86 20.08 3.35 42.12-12.51 56.59-6.08 5.55-13.03 9.49-20.84 11.83-18.02 5.38-36.49 1.23-49.77-12.06-9.15-9.16-15.11-20.31-16.42-33.42-1.48-14.84 3.04-28.35 13.58-40.52 2.28-2.63 6.54-5.93 12.75-9.91.44.58.65.99.62 1.2-.73 4.54-1.13 7-1.2 7.37-.26 1.3-.06 2.31.57 3.03.94 1.08 2.67.87 3.27-.41.49-1.06.83-2.18 1-3.37.28-1.88.72-5.16 1.32-9.82.12-.97-.38-1.92-1.26-2.35-1.14-.57-4.46-2.38-9.96-5.43-2.33-1.3-4.12 0-3.86 2.55Z"/><path class="cls-3" d="M120.65 34.87h.25c1.29 0 2.33 1.05 2.33 2.33v4.96c0 1.29-1.05 2.34-2.34 2.34h-.25c-1.29 0-2.33-1.05-2.33-2.33v-4.96c0-1.29 1.05-2.33 2.33-2.33Z" transform="rotate(-.4 120.186 39.094)"/><path class="cls-3" d="M118.02 111.64c.05 1.59.47 3.04 2.28 3.03 1.81-.01 2.21-1.47 2.24-3.05.15-7.26.1-13.66-.13-19.17 0-.27.17-.51.42-.58 7.54-2.24 11.4-11.3 5.91-17.61-2.56-2.94-5.48-4.4-8.74-4.38-3.27.02-6.16 1.52-8.68 4.5-5.4 6.39-1.42 15.39 6.15 17.52.26.08.43.32.43.58-.16 5.51-.11 11.9.14 19.16ZM82.99 78.85l-6.73.07c-1.25 0-2.26 1.04-2.25 2.29v.25a2.283 2.283 0 0 0 2.3 2.25l6.73-.07c1.25 0 2.26-1.04 2.25-2.29v-.25a2.283 2.283 0 0 0-2.3-2.25Zm83.65 0-6.73.07c-1.25 0-2.26 1.04-2.25 2.29v.25a2.283 2.283 0 0 0 2.3 2.25l6.73-.07c1.25 0 2.26-1.04 2.25-2.29v-.25a2.283 2.283 0 0 0-2.3-2.25Zm-46.52 37.05c-1.3 0-2.35 1.04-2.36 2.34l-.02 5.54c0 1.3 1.04 2.35 2.34 2.36h.47c1.3 0 2.35-1.04 2.36-2.34l.02-5.54c0-1.3-1.04-2.35-2.34-2.36h-.47Z"/><path style="fill:none" d="M0 0h243v160H0z"/></g></svg>