<svg id="_レイヤー_2" data-name="レイヤー 2" xmlns="http://www.w3.org/2000/svg" width="243" height="160"><defs><style>.cls-2{fill:#eb6100}.cls-3{fill:#2e3192}</style></defs><g id="Layer_1" data-name="Layer 1"><path class="cls-3" d="M79.29 111.84v-72.4c0-2.58 2.07-4.65 4.65-4.65h35.82c1.36 0 2.5 1.11 2.5 2.47v13.47c0 2.78 2.24 5.05 5.02 5.05h13.47c1.36 0 2.5 1.11 2.5 2.47v29.01c.4.09.74.2 1.11.34l5.64 2.16V56.61c0-3.06-1.16-5.93-3.32-8.08l-17.19-17.16c-2.18-2.16-5.05-3.35-8.08-3.35H83.95c-6.32 0-11.46 5.13-11.46 11.43v72.41c0 6.3 5.13 11.43 11.46 11.43h34.23v-6.81H83.95c-2.58 0-4.65-2.07-4.65-4.62Z"/><path class="cls-3" d="M92.62 99.59c-1.87 0-3.4 1.5-3.4 3.37s1.53 3.37 3.4 3.37h14.8c-.54-.88-.82-1.9-.82-3.01 0-1.42.48-2.72 1.36-3.74H92.62ZM133.3 86.1c0-1.87-1.52-3.39-3.39-3.39h-37.3c-1.87 0-3.39 1.52-3.39 3.39s1.52 3.39 3.39 3.39h37.3c1.87 0 3.39-1.52 3.39-3.39Zm-3.39-20.26h-37.3c-1.87 0-3.39 1.52-3.39 3.39s1.52 3.39 3.39 3.39h37.3c1.87 0 3.39-1.52 3.39-3.39s-1.52-3.39-3.39-3.39Zm-37.3-10.08h17.38c1.87 0 3.39-1.52 3.39-3.39s-1.52-3.39-3.39-3.39H92.61c-1.87 0-3.39 1.52-3.39 3.39s1.52 3.39 3.39 3.39Z"/><path class="cls-2" d="M140.83 119.53c-1.1 0-2.19-.2-3.22-.6l-14.89-5.66v10.12c0 1.19.72 2.24 1.82 2.67l13.81 5.46c1.6.64 3.37.64 4.98 0l13.81-5.46c1.1-.43 1.82-1.49 1.82-2.67v-10.12l-14.89 5.66c-1.04.4-2.12.6-3.22.6Z"/><path class="cls-2" d="m169.63 102.06-26.88-10.22c-1.24-.47-2.6-.47-3.84 0l-26.88 10.22c-1.18.45-1.18 2.11 0 2.56l26.88 10.22c1.24.47 2.6.47 3.84 0l22.16-8.43v6.16c-.94.51-1.58 1.49-1.58 2.63s.63 2.1 1.55 2.61l-1.46 3.11c-.31.66.17 1.42.9 1.42h4c.73 0 1.22-.76.9-1.42l-1.46-3.11c.92-.51 1.55-1.48 1.55-2.61s-.64-2.12-1.58-2.63v-7.24l1.89-.72c1.18-.45 1.18-2.11 0-2.56Z"/><path style="fill:none" d="M0 0h243v160H0z"/></g></svg>