<svg id="_レイヤー_2" data-name="レイヤー 2" xmlns="http://www.w3.org/2000/svg" width="235.45" height="235.45"><defs><style>.cls-1{fill:#323232}.cls-3{fill:#fff}.cls-4{fill:#32c8c8}</style></defs><g id="_レイヤー_3" data-name="レイヤー 3"><path d="M235.45 117.72c0 33.1-13.66 63-35.64 84.39-.55.53-1.1 1.06-1.65 1.58-.57.53-1.14 1.06-1.72 1.58-11.8 10.62-25.77 18.89-41.15 24.06-.73.25-1.47.49-2.2.72a116.532 116.532 0 0 1-21.59 4.61c-1.91.22-3.83.4-5.77.53h-.03c-.76.05-1.52.1-2.28.13-.75.03-1.5.06-2.24.08h-.05c-1.12.03-2.25.05-3.38.05-1.19 0-2.38-.02-3.57-.05h-.05c-.75-.02-1.5-.05-2.24-.09-.76-.04-1.51-.08-2.27-.13h-.01c-2.04-.14-4.07-.33-6.09-.57a117.73 117.73 0 0 1-21.25-4.58c-.74-.23-1.47-.47-2.2-.72-15.09-5.09-28.81-13.16-40.46-23.51-.59-.52-1.17-1.04-1.74-1.57-.57-.53-1.13-1.06-1.69-1.59C13.87 181.2 0 151.08 0 117.72 0 52.71 52.71 0 117.72 0s117.72 52.71 117.72 117.72Z" style="fill:#e6e6e6"/><path class="cls-3" d="m137.18 156.72-.19.94c-.73 5.35.38 9.26 1.47 11.87-3.26 1.13-6.54 4.21-7.22 7.07-3.56-4.32-10.37-3.8-13.36 1.02-2.99-4.82-9.8-5.34-13.36-1.02-.66-2.77-3.74-5.74-6.89-6.95 1.18-2.5 2.1-5.96 1.3-11.04 0 0-.11-.94-.23-1.39 11.94 7.18 26.65 7.09 38.48-.5Z"/><path class="cls-3" d="M166.23 177.4c-.07 2.95 1.25 6.13 3.69 7.38-7.38-2.77-16.03-6.02-21.82-8.56-4.36-2.42-2.89-5.15-4.97-6.59-1.32-.76-3-.69-4.68-.11-1.09-2.61-2.2-6.52-1.47-11.87l.19-.94c6.94-4.45 12.89-11.47 16.71-21.13.51-.11 1.65-.44 1.65-.44 3.71-1.39 7.04-4.11 9.5-7.67-1.04 10.69 9.04 21.76 7.3 32.5-1.03 6.13-5.95 11.05-6.11 17.42Zm-78.58-1.18c-6.03 2.63-14.93 6.02-22.33 8.85 2.72-1.09 4.18-4.55 4.1-7.67-.16-6.37-5.08-11.29-6.11-17.42-1.74-10.74 8.03-21.09 7.02-31.76 2.4 3.22 5.54 5.67 9 6.97 0 0 1.27.39 1.8.61 3.94 9.85 10.23 17 17.57 21.42.12.45.23 1.39.23 1.39.8 5.08-.12 8.54-1.3 11.04-1.79-.69-3.61-.82-5.01-.01-2.08 1.44-.61 4.17-4.96 6.59Z"/><path class="cls-3" d="M167.19 103.53c1.23 1.47 1.91 3.62 2.17 5.97.59 5.46-.48 11.15-2.98 15.79-.41.76-.86 1.49-1.34 2.19-2.46 3.57-5.79 6.28-9.5 7.67 0 0-1.14.33-1.65.44-3.82 9.65-9.77 16.68-16.71 21.13-11.83 7.59-26.54 7.68-38.48.5-7.34-4.41-13.63-11.57-17.57-21.42-.54-.22-1.8-.61-1.8-.61-3.46-1.3-6.6-3.75-9-6.97-.67-.91-1.29-1.87-1.84-2.89-2.5-4.64-3.57-10.33-2.98-15.79.24-2.23.87-4.27 1.98-5.73 1-1.31 2.39-2.16 4.24-2.25 2.24-.11 3.81 1.71 4.64 3.99-.24.81-.51 1.62-.81 2.43.46-.07.91-.15 1.34-.25 22.54-5.18 13.81-51.78 41.05-52.98 27.06 1.2 18.11 47.18 40.07 52.87.57.15 1.17.27 1.79.36a35.39 35.39 0 0 1-1-3.13c.87-1.97 2.33-3.44 4.35-3.34 1.74.09 3.07.83 4.05 2.01Z"/><path class="cls-3" d="M170.29 74.97c-1.87-9.84-6.28-19.17-12.88-26.72-3.76-4.3-8.25-7.95-13.16-10.85-.07-.05-.14-.09-.22-.13-.08-.05-.16-.08-.23-.12a60.968 60.968 0 0 0-8.3-3.49c-.97-6.92-6.44-12.43-13.28-14-6.65-1.53-14.16.56-18.54 5.94-2.02 2.48-3.28 5.41-3.6 8.56-5.22 1.91-10.11 4.55-14.5 7.97-4.26 3.32-7.68 7.4-10.64 11.89a64.957 64.957 0 0 0-10.51 30.65c-.52 6.52-.11 13.24 1.23 19.64.28 1.32 2.33 1.97 3.21.85.81-1.03 2.02-1.9 3.4-1.67.97.16 1.66 1.2 2.08 2.13-.2.62-.4 1.24-.62 1.85-.56 1.52 1.06 2.57 2.36 2.36 4.78-.76 8.86-3.39 11.81-7.18 3.02-3.88 4.93-8.47 6.57-13.07 1.69-4.76 3.07-9.62 4.78-14.37.43-1.21.89-2.4 1.38-3.59a50.894 50.894 0 0 1 1.34-2.94 36.95 36.95 0 0 1 1.7-3.08c.28-.45.57-.89.87-1.33.16-.23.32-.45.48-.67.02-.03.14-.18.18-.24.07-.09.14-.18.22-.27.67-.83 1.41-1.61 2.2-2.33.2-.18.4-.35.6-.52.12-.1.24-.19.36-.29.47-.35.95-.68 1.45-.98a15.757 15.757 0 0 1 1.92-.99c.09-.04.26-.11.25-.1.16-.06.31-.12.47-.18 1.15-.41 2.35-.7 3.56-.88h.05c.15-.02.3-.03.46-.05.32-.03.64-.06.96-.07.65-.03 1.31.04 1.95.12-.14-.01.54.08.64.1.29.05.59.11.88.18a18.152 18.152 0 0 1 2.46.73c.12.05.24.09.36.14.04.02.08.03.1.04.54.25 1.07.52 1.58.81a19.154 19.154 0 0 1 1.6 1.06c.01.01.03.02.04.03l.01.01c.23.18.45.37.67.56a21.21 21.21 0 0 1 2.53 2.66c.02.03.04.05.05.07.16.21.32.43.48.65.34.47.66.96.96 1.45.62.99 1.18 2.01 1.7 3.06.25.5.48 1 .71 1.5l.36.81c0 .02.1.24.13.31.05.13.11.26.16.39 1.91 4.69 3.29 9.57 4.82 14.39 2.7 8.52 6.14 18.98 15.08 22.81 1.42.61 2.85 1.03 4.38 1.27 1.3.21 2.92-.84 2.36-2.36-.29-.8-.56-1.61-.8-2.43.41-.73.97-1.43 1.76-1.59 1.26-.25 2.45.55 3.22 1.44.99 1.13 2.82.45 3.21-.85 2.82-9.28 3.04-19.58 1.24-29.07Zm-61.77-15c-.08.06-.21.16 0 0Zm7.74-3.16c.1-.01.21-.03 0 0Z"/><path class="cls-4" d="M198.15 203.69c-.57.53-1.14 1.06-1.72 1.58-11.8 10.62-25.77 18.89-41.15 24.06-.73.25-1.47.49-2.2.72a116.532 116.532 0 0 1-21.59 4.61c-1.91.22-3.83.4-5.77.53h-.03c-.76.05-1.52.1-2.28.13-.75.03-1.5.06-2.24.08h-.05c-1.12.03-2.25.05-3.38.05-1.19 0-2.38-.02-3.57-.05h-.05c-.75-.02-1.5-.05-2.24-.09-.76-.04-1.51-.08-2.27-.13 0 0-.01 0-.02.01v-.01c-2.04-.14-4.07-.33-6.09-.57a117.73 117.73 0 0 1-21.25-4.58c-.74-.23-1.47-.47-2.2-.72-15.09-5.09-28.81-13.16-40.46-23.51-.59-.52-1.17-1.04-1.74-1.57 2.59-7.7 7.06-10.88 16.52-14.85 2.04-.86 5.23-2.09 8.94-3.51.65-.25 1.31-.5 1.99-.76h.02c1.58-.6 3.23-1.23 4.9-1.88 2.58-.99 5.22-2.01 7.77-3.01.04-.02.09-.03.13-.05.16-.06.32-.13.48-.19 1.42-.56 2.81-1.12 4.14-1.66.92-.37 1.81-.74 2.66-1.1l.36-.15c.06-.03.13-.05.19-.08.19-.08.37-.16.55-.23.4-.17.79-.34 1.16-.5.27-.15.52-.3.75-.46.08-.05.15-.1.22-.15.07-.05.14-.1.21-.16.07-.05.13-.1.19-.15.13-.1.24-.21.36-.31.17-.16.33-.32.47-.48.03-.03.05-.06.08-.1.03-.03.05-.06.08-.1a.36.36 0 0 0 .07-.1.36.36 0 0 0 .07-.1c.12-.16.22-.32.31-.48.02-.03.04-.06.05-.1.05-.09.1-.19.15-.28.03-.06.06-.12.09-.19.01-.03.03-.06.04-.09.03-.06.05-.12.08-.19.01-.03.03-.06.04-.09.03-.06.05-.12.07-.18.02-.06.04-.12.07-.18.08-.24.16-.47.24-.7.01-.04.03-.09.04-.13.04-.12.09-.24.13-.36.02-.04.03-.09.05-.13.11-.25.23-.49.39-.71.02-.03.03-.05.05-.08.03-.04.06-.08.09-.11.04-.04.08-.09.12-.13.04-.04.09-.08.13-.12.04-.03.07-.07.11-.1.01 0 .03-.02.04-.03.04-.04.09-.07.14-.11.67-.38 1.44-.56 2.25-.56h.38c.06 0 .11 0 .17.01.07 0 .15.01.22.02h.02c.04 0 .08 0 .12.02.07.01.15.02.22.04.19.03.38.08.57.12.05.01.1.03.15.04.3.08.6.18.9.3.08.03.16.06.24.1.06.02.11.05.17.07.17.07.33.15.5.23.05.02.09.05.14.07l.39.21c.08.04.16.09.24.14.08.04.16.09.23.14.09.05.18.11.27.17.07.04.13.09.2.13.07.04.14.09.21.14.58.4 1.13.86 1.64 1.34.08.07.15.15.23.22.08.08.17.17.24.25.08.09.16.17.24.26.08.09.15.18.23.26.07.09.15.18.22.27.07.09.14.18.2.27.06.08.12.16.17.24 0 .02.02.03.03.04.05.08.1.15.15.23 0 .01.02.03.03.04.02.03.04.06.05.09.03.05.07.11.1.16s.07.11.1.17c.04.06.07.13.11.2.02.04.04.07.06.11l.09.18c.07.15.14.31.2.46.03.07.05.14.08.21.04.1.07.2.1.3.03.09.05.17.07.26l.16-.19c.05-.05.1-.11.14-.16.04-.05.09-.1.14-.15l.18-.18c.07-.07.15-.14.22-.21.18-.16.37-.32.56-.46.06-.04.11-.09.17-.12.05-.04.1-.07.15-.11l.26-.17c.09-.05.17-.1.26-.15.17-.1.35-.19.53-.28l.27-.12c.07-.03.15-.06.22-.09s.1-.04.15-.06c.07-.03.14-.05.21-.07.07-.02.14-.04.2-.07.02 0 .04-.01.05-.02.26-.08.53-.14.8-.19.06-.01.13-.03.19-.03.06-.01.12-.02.19-.03h.02c.06 0 .13-.02.19-.02.79-.1 1.59-.08 2.37.06l.34.06c.1.02.2.04.3.07.01 0 .03 0 .04.01l.33.09c.11.03.22.07.33.11.07.03.14.05.21.08l.15.06c.11.04.21.09.32.13.03.02.07.03.1.05.07.03.14.07.21.1.08.04.16.08.23.12a8.768 8.768 0 0 1 .69.42c.06.04.11.08.17.12.16.11.32.23.47.36.14.11.27.23.4.35.17.16.32.32.48.49.04.05.09.1.13.15l.16.19c.05.06.1.12.14.18v.01c.04.06.09.11.13.17.04.05.07.1.11.15.08.12.17.24.24.37.05-.08.1-.16.16-.24l.15-.21c.05-.08.11-.15.17-.23.1-.14.21-.27.32-.4h.01c.15-.18.3-.35.46-.5.04-.05.09-.09.14-.13.08-.08.16-.15.25-.22h.01c.08-.07.16-.14.24-.2l.02-.02.24-.18.3-.21c.23-.15.46-.29.7-.42l.36-.18c.06-.03.12-.05.18-.08s.12-.05.19-.08c.19-.08.38-.15.58-.21.06-.02.13-.04.19-.06l.2-.06c.07-.02.13-.04.2-.05l.4-.09.19-.03h.03c.06 0 .12-.02.19-.03.13-.02.27-.04.4-.05.07 0 .14-.01.2-.02.07 0 .14 0 .2-.01h.2c.24 0 .49 0 .73.01.17.01.35.03.52.05.16.02.32.04.48.07.07.01.13.03.2.04.04 0 .08.02.12.03.1.02.2.05.3.08l.31.09c.09.03.17.06.26.09.12.04.24.09.36.14.1.04.2.08.3.13.1.04.2.09.3.14.1.05.2.1.29.16.1.05.19.11.29.17.09.05.17.11.26.17.17.11.33.23.49.36l.14.11c.09.07.17.14.25.22.08.07.15.14.22.21l.18.18c.05.05.1.1.14.15.05.05.1.1.14.16.05.06.11.12.16.19.03-.11.06-.23.1-.35.02-.06.04-.13.06-.19.03-.08.06-.17.09-.25.03-.07.05-.14.09-.21.03-.08.07-.15.1-.23l.09-.18c.01-.03.03-.06.04-.09.03-.05.06-.11.09-.16.08-.15.17-.3.27-.45.06-.1.13-.2.2-.3.07-.1.14-.2.21-.29.06-.08.12-.17.19-.25.06-.07.12-.15.18-.22 0-.01.02-.02.03-.03.04-.05.08-.1.12-.14.05-.06.1-.11.15-.17.06-.06.11-.13.18-.19.06-.07.12-.13.19-.2l.33-.33c.06-.06.13-.12.19-.18.08-.08.17-.16.26-.23.27-.23.55-.46.83-.67.06-.05.13-.1.2-.14.08-.06.15-.11.23-.16.07-.05.14-.1.22-.15.03-.02.07-.04.1-.06.07-.05.14-.09.21-.13.03-.02.07-.04.1-.06.08-.05.15-.09.23-.14.02-.01.04-.03.06-.04.04-.02.07-.04.11-.06.07-.04.15-.08.22-.12.2-.11.41-.21.61-.3.05-.02.1-.05.15-.07.06-.03.12-.05.17-.08.06-.03.12-.05.18-.08.07-.03.14-.06.21-.08l.24-.09c.18-.06.35-.12.53-.17.08-.02.17-.05.25-.07h.04c.06-.02.12-.03.18-.04l.13-.03c.06-.01.11-.03.17-.03.02 0 .04 0 .07-.01l.21-.03.26-.03c.09 0 .17-.02.25-.02h.14c.44-.02.87.02 1.28.1.07.02.14.03.21.05.02 0 .04.01.07.02.08.02.16.05.24.08.23.08.44.18.65.3.05.03.1.07.14.11.01 0 .03.02.04.03.04.03.08.06.11.1.04.04.09.08.13.12.04.04.08.09.12.13.03.04.06.08.09.11.02.03.04.05.05.08.16.22.28.46.39.71.02.04.03.08.05.13.1.25.18.5.27.77l.03.1.03.1c.03.07.05.14.07.21.02.06.04.12.07.18 0 .03.02.06.03.09.02.06.04.11.07.17.08.19.16.38.26.58.03.06.07.13.1.19.04.07.08.13.12.2.03.06.07.11.11.17.13.2.28.39.45.59.06.07.13.14.2.22.08.09.17.18.27.27.08.07.16.15.25.22.08.07.17.14.26.21.35.27.76.54 1.24.81.6.26 1.24.54 1.9.82.63.27 1.28.54 1.95.81a351.907 351.907 0 0 0 6.46 2.57c.65.25 1.3.5 1.96.76.36.14.71.27 1.07.41.58.22 1.17.44 1.75.67.73.28 1.46.55 2.18.83 1.54.58 3.07 1.15 4.54 1.71.83.31 1.65.62 2.44.92 3.93 1.48 7.31 2.77 9.44 3.66 9.25 3.88 13.72 7 16.34 14.33Z"/><path class="cls-1" d="M99.55 170.56c.87-1.94 1.43-3.88 1.68-5.99.14-1.16.17-2.33.1-3.49-.09-1.53-.26-2.58-.47-3.94-.18-1.14-1.6-1.77-2.63-1.49-1.21.33-1.67 1.48-1.49 2.63.27 1.72.47 4.04.25 6.02-.08.67-.26 1.51-.46 2.23-.1.37-.22.74-.35 1.1-.06.17-.13.34-.2.51.13-.32-.1.22-.12.26-.47 1.05-.3 2.3.77 2.92.92.54 2.45.29 2.92-.77Zm40.91-1.75c-.71-1.74-1.25-3.58-1.45-5.45-.23-2.14-.11-4.38.23-6.07.23-1.13-.32-2.31-1.49-2.63-1.05-.29-2.4.36-2.63 1.49-.92 4.6-.55 9.44 1.22 13.8.43 1.07 1.42 1.82 2.63 1.49 1.01-.28 1.93-1.55 1.49-2.63Zm-42.7-67.21c.4-.08.79-.16 1.19-.23.24-.05.46-.05.09-.02.19-.02.39-.04.58-.04 1.05-.05 2.12.07 3.16.17 1.15.11 2.14-1.06 2.14-2.14 0-1.25-.98-2.03-2.14-2.14-2.15-.2-4.05-.14-6.16.28-1.13.22-1.78 1.57-1.49 2.63.32 1.18 1.49 1.72 2.63 1.49Zm40.09-4.12c-2.11-.42-4.01-.48-6.16-.28-1.15.11-2.14.9-2.14 2.14 0 1.07.98 2.25 2.14 2.14 1.05-.1 2.11-.22 3.16-.17.17 0 .33.02.5.04.16.01-.4-.08.09.02.43.08.85.16 1.28.25 1.13.22 2.31-.32 2.63-1.49.29-1.05-.35-2.4-1.49-2.63Zm-48.8 80.4c-.1.08-.2.14-.32.19-.17.07-.34.15-.51.22-1.54.67-3.1 1.31-4.65 1.95-7.54 3.08-15.19 5.92-22.79 8.86-5.16 1.99-10.29 3.84-14.88 7.11l-.21.15s-.01 0-.02.02c0 0-.01 0-.02.01-.1.08-.19.15-.28.23-.22.18-.43.36-.64.55-.39.35-.77.72-1.12 1.1-.21.22-.41.44-.6.67l-.3.36c-.32.44-.63.89-.91 1.36-.31.52-.6 1.05-.87 1.59-.13.27-.26.54-.38.81v.04c0 .02-.01.03-.02.05-.05.11-.1.23-.14.35-.3.75-.55 1.52-.79 2.29-.59-.52-1.17-1.04-1.74-1.57-.57-.53-1.13-1.06-1.69-1.59.1-.26.2-.52.31-.78 2.02-4.9 5.47-8.5 10.06-11.1 5.48-3.11 11.57-5.18 17.44-7.42.17-.06.33-.13.5-.19 1.38-.53 2.77-1.06 4.16-1.59.86-.33 1.71-.65 2.57-.98 2.19-.83 4.38-1.68 6.55-2.54 2.2-.87 4.38-1.75 6.53-2.66.77-.32 1.53-.65 2.29-.98 1.01-.44 2.16-.34 2.82.61.04.05.07.1.1.16.47.81.33 2.13-.45 2.73Zm110.75 24.23c-.55.53-1.1 1.06-1.65 1.58-.57.53-1.14 1.06-1.72 1.58-.2-.63-.42-1.25-.66-1.86-.02-.05-.12-.29-.16-.38V203c-.03-.06-.05-.12-.08-.17-.12-.27-.25-.54-.38-.8-.26-.51-.54-1.01-.84-1.5-.16-.26-.33-.51-.51-.77-.05-.08-.28-.39-.37-.5 0 0-.01-.02-.02-.03-.09-.11-.28-.33-.33-.4-.18-.21-.36-.41-.55-.61-.42-.44-.86-.86-1.32-1.26-.21-.19-.43-.37-.65-.54-.01-.01-.03-.02-.04-.03l-.36-.27a30.31 30.31 0 0 0-3.16-1.97c-5.46-2.99-11.33-4.93-17.24-7.15h-.02c-.2-.08-.4-.15-.61-.23-7.23-2.71-14.5-5.38-21.58-8.46-.17-.07-.34-.14-.5-.22-.12-.05-.22-.11-.32-.19-.79-.61-.92-1.92-.45-2.73.03-.05.07-.11.1-.16.65-.93 1.82-1.05 2.82-.61.58.25 1.15.5 1.72.74.93.39 1.87.78 2.87 1.18 1.2.49 2.41.97 3.62 1.44 2.35.92 4.71 1.82 7.07 2.71.84.32 1.68.63 2.52.95 1.32.5 2.64.99 3.95 1.49 1.95.73 3.91 1.47 5.85 2.21 5.33 2.03 11 4.02 15.64 7.42 3.45 2.53 5.81 5.79 7.37 9.59Z"/><path class="cls-1" d="M171.56 110.17c-.3-3.57-1.31-7.43-4.45-9.55-1.58-1.06-3.81-1.56-5.66-1.04-2.12.6-3.65 2.32-4.52 4.28-.47 1.05-.3 2.3.77 2.92.91.53 2.45.29 2.92-.77.26-.58.57-1.19.96-1.63.38-.42.59-.61 1.13-.72.31-.06.75 0 1.22.13.29.08.88.38 1.05.52.85.69 1.35 1.64 1.7 2.68.45 1.38.62 2.74.69 4.18.3 6.55-1.8 13.35-6.53 18.03a17.835 17.835 0 0 1-3.37 2.64c.08-.26.16-.52.24-.79.78-2.64-3.34-3.77-4.12-1.14a54.75 54.75 0 0 1-1.49 4.43c-.13.2-.21.42-.25.65-.8 1.99-1.71 3.92-2.83 5.89-1.88 3.33-3.75 5.89-6.34 8.57a39.986 39.986 0 0 1-3.73 3.4c-.46.37-.19.16-.66.51-.34.25-.69.5-1.04.74a37.549 37.549 0 0 1-6.35 3.55c-.07.03-.1.05-.11.05-.03.01-.08.03-.16.06-.17.07-.35.14-.52.21-.38.15-.76.29-1.14.42-.73.26-1.47.49-2.22.7-1.52.43-3.05.73-4.61.97-.03 0-.06 0-.08.01h-.09l-.55.06c-.4.04-.79.08-1.19.11-.76.06-1.53.09-2.29.1-1.56.01-3.12-.09-4.67-.26-.06 0-.12-.01-.18-.02-.18-.03-.35-.05-.53-.08-.39-.06-.79-.13-1.18-.21-.79-.15-1.57-.33-2.34-.53-1.5-.39-2.98-.89-4.42-1.46-.07-.03-.23-.1-.29-.12-.14-.06-.27-.12-.41-.18-.4-.18-.8-.36-1.2-.56-.71-.35-1.42-.72-2.11-1.11-1.43-.81-2.81-1.72-4.13-2.71l-.27-.21c-.13-.1-.26-.2-.38-.3-.33-.27-.66-.55-.99-.83-.63-.55-1.25-1.12-1.85-1.7-2.64-2.59-4.48-4.96-6.38-8.08-1.39-2.29-2.5-4.53-3.44-6.87-.02-.05-.04-.09-.06-.14-.45-1.14-.87-2.31-1.25-3.52-.32-1-.6-2-.87-3.02-.7-2.66-4.82-1.53-4.12 1.14.21.79.43 1.58.67 2.36-.84-.5-1.65-1.06-2.39-1.7-2.47-2.13-4.4-4.81-5.68-7.8-1.35-3.16-1.99-6.63-1.97-10.06 0-1.57.11-3.09.5-4.59.29-1.11.77-2.29 1.43-2.97.75-.77 1.74-1.3 2.78-1.12.43.07.75.3 1.16.76.37.41.75 1.12.98 1.73.4 1.08 1.45 1.82 2.63 1.49 1.04-.29 1.89-1.54 1.49-2.63-.68-1.87-1.71-3.67-3.44-4.75-1.62-1-3.62-1.1-5.41-.52-3.52 1.14-5.38 4.62-5.98 8.07-1.46 8.38 1.02 17.64 6.89 23.86 1.5 1.59 3.26 3 5.17 4.09 1.24.71 2.55 1.18 3.87 1.66 2.11 5 4.95 9.67 8.59 13.72 4.74 5.28 10.81 9.32 17.55 11.54 6.38 2.11 13.29 2.45 19.86 1.07 6.81-1.43 13.12-4.82 18.26-9.48 5.14-4.66 8.99-10.57 11.67-16.94 6.9-2.03 12.04-8.21 14.46-14.8 1.44-3.92 2-8.26 1.66-12.42Z"/><path class="cls-1" d="M169.2 104.26c3.6-11.86 3.22-25.32-.72-37.04-4.18-12.42-12.56-23.14-23.86-29.85-3.44-2.05-7.42-3.5-11.26-4.6a55.29 55.29 0 0 0-11.63-1.99c-7.12-.45-14.38.57-21.11 2.93-6.18 2.17-11.96 5.39-16.94 9.66-4.73 4.07-8.46 9.27-11.49 14.7-7.04 12.64-9.45 27.18-7.55 41.48.22 1.62.45 3.25.79 4.85.24 1.13 1.57 1.78 2.63 1.49 1.17-.32 1.73-1.49 1.49-2.63-2.7-12.89-1.37-26.84 4.18-38.81 2.51-5.42 5.76-10.78 9.89-15.13 4.03-4.25 8.91-7.52 14.26-9.95 12.59-5.74 27.21-5.78 39.97-.55 11.44 4.7 20.43 14.66 25.18 25.95 4.72 11.23 5.49 23.94 2.76 35.81-.2.85-.45 1.68-.7 2.52-.8 2.64 3.32 3.76 4.12 1.14Z"/><path class="cls-1" d="M113.89 33.94c.75-2.89 2.85-5.03 5.52-6.48 1.25-.68 2.48-1.13 4.02-1.43.18-.03.36-.07.54-.09-.3.04.04 0 .17-.01.34-.03.68-.05 1.02-.05.33 0 .65.02.98.05.27.02-.33-.07.08.02.18.04.35.07.53.12 2.67.67 3.81-3.45 1.14-4.12-3.58-.89-7.46.11-10.63 1.83-3.53 1.92-6.47 5.09-7.49 9.04-.69 2.66 3.43 3.8 4.12 1.14Z"/><path class="cls-1" d="M104.04 35.59c.05-5.29 3.79-9.89 8.9-11.59 5.32-1.77 11.41-.51 15.28 3.49 2.03 2.1 3.24 4.86 3.35 7.71.1 2.74 4.38 2.75 4.27 0-.27-7.2-5.33-13.1-12.06-15.33-6.82-2.26-14.96-.38-19.8 5.02-2.65 2.96-4.18 6.71-4.22 10.7-.03 2.75 4.25 2.75 4.27 0Zm58.86 91.89c-.75 8.55 4.39 16.17 6.6 24.12 1.06 3.82 1.24 7.47-.18 11.21-1.47 3.86-3.91 7.31-4.82 11.38-1.01 4.52 0 10.61 4.78 12.64 1.06.45 2.29.32 2.92-.77.53-.9.3-2.47-.77-2.92-3.27-1.39-3.47-5.56-2.6-8.67 1.09-3.89 3.47-7.28 4.81-11.08 2.82-8.04-1-15.93-3.86-23.35-1.56-4.03-3-8.2-2.61-12.56.1-1.15-1.05-2.14-2.14-2.14-1.24 0-2.03.98-2.14 2.14Zm-11.56 28.87c-3.38 7.8-2.86 17.39 2.77 24.03.75.88 2.25.77 3.02 0 .87-.87.75-2.14 0-3.02-4.27-5.03-4.66-12.96-2.1-18.86.46-1.06.31-2.29-.77-2.92-.9-.53-2.46-.3-2.92.77Zm-83.15-28.16c.7 7.92-4.21 15.05-6.23 22.45-1.06 3.89-1.41 8.01-.23 11.91 1.14 3.79 3.44 7.08 4.73 10.8.66 1.89 1.09 4.01.66 5.91-.41 1.81-1.22 3.26-2.89 3.97-1.06.45-1.3 2.02-.77 2.92.64 1.1 1.86 1.22 2.92.77 3.86-1.65 5.49-6.52 5.12-10.43-.41-4.39-2.64-8.13-4.47-12.04-.78-1.68-1.48-3.49-1.7-5.34-.23-1.89-.06-3.81.33-5.66.87-4.08 2.61-7.9 4.11-11.77 1.66-4.29 3.1-8.84 2.69-13.5-.1-1.15-.91-2.14-2.14-2.14-1.08 0-2.24.98-2.14 2.14Zm12.07 30.32c2.56 5.9 2.17 13.82-2.1 18.86-.75.88-.86 2.16 0 3.02.77.77 2.27.88 3.02 0 5.64-6.64 6.15-16.23 2.77-24.03-.46-1.06-2.01-1.3-2.92-.77-1.09.64-1.23 1.86-.77 2.92Zm68.92 15.87c-1.09-.63-1.77-1.23-2.27-2.18a.88.88 0 0 0-.07-.14l-.09-.24c-.06-.17-.12-.34-.17-.51-.17-.49-.34-.99-.57-1.46-1.05-2.2-3.46-3.09-5.79-2.87-3.71.35-7.64 2.83-9.76 6.14-1.84-1.17-4.06-1.76-6.25-1.57-2.44.22-4.62 1.2-6.35 2.79-1.73-1.59-3.91-2.57-6.35-2.79-2.18-.2-4.4.39-6.25 1.57-2.12-3.31-6.05-5.79-9.76-6.14-2.29-.22-4.69.65-5.76 2.8-.23.47-.41.96-.57 1.45-.07.2-.13.39-.2.59-.03.08-.06.16-.09.25 0 .01-.01.02-.02.04-.51 1.01-1.18 1.62-2.31 2.27-2.38 1.37-.23 5.06 2.16 3.69 2.17-1.25 3.62-2.93 4.44-5.29.1-.28.19-.57.29-.85-.07.23.31-.47.24-.44.03-.04.07-.07.08-.09.02 0 .06 0 .13-.03.15-.05.3-.09.46-.12-.04.02.42-.03.5-.03.55 0 1.54.22 2.13.47.8.33 1.76.91 2.35 1.37.68.52 1.54 1.37 1.93 1.87.66.85.94 1.39 1.16 2.25.38 1.47 2.52 2.18 3.57.94.7-.83 1.58-1.53 2.39-1.86 1.09-.44 1.73-.52 2.88-.44 1.75.11 3.64 1.18 4.74 2.89a2.162 2.162 0 0 0 3.69 0 6.23 6.23 0 0 1 2.24-2.12c.52-.3.65-.35 1.23-.52.61-.18.8-.22 1.27-.25 2.11-.13 3.82.6 5.27 2.3 1.05 1.24 3.19.53 3.57-.94.05-.2.11-.4.18-.59.01-.04.03-.07.04-.1.05-.1.09-.19.14-.29.23-.4.46-.8.74-1.17.42-.55 1.28-1.42 2-1.97.59-.45 1.5-1.01 2.31-1.35-.02.01.39-.14.43-.15.22-.07.45-.14.67-.2.19-.05.37-.09.56-.12 0 .01.45-.02.51-.02.05 0 .33.02.44.02.1.03.37.09.42.1.05.02.1.04.16.05.01 0 .04.02.08.04l.12.12c.07.17.23.5.21.41.1.27.19.55.28.82.83 2.36 2.27 4.03 4.44 5.29 2.39 1.37 4.54-2.32 2.16-3.69Zm-55.49-2.9s.07-.06.09-.08c-.02.02-.05.04-.09.08Zm54.48-106.84c3.63 4.66 5.53 10.27 6.17 16.1.64 5.8.41 11.66 1.08 17.46.41 3.54 1.1 7.01 2.32 10.36.4 1.08 1.45 1.82 2.63 1.49 1.04-.29 1.89-1.54 1.49-2.63-2.12-5.79-2.51-11.84-2.73-17.95-.22-5.96-.44-12.05-2.38-17.75-1.26-3.7-3.16-7.03-5.56-10.11-.71-.91-2.28-.75-3.02 0-.9.9-.71 2.11 0 3.02ZM84.7 61.62c-4.06 5.2-6.48 11.14-7.41 17.66-.86 5.97-.77 12.01-1.45 17.99-.39 3.46-1.15 6.88-2.34 10.15-.4 1.08.44 2.34 1.49 2.63 1.19.33 2.23-.4 2.63-1.49 2.1-5.73 2.67-11.81 3.01-17.86.32-5.71.52-11.46 2.28-16.94a29.76 29.76 0 0 1 4.82-9.11c.71-.91.89-2.13 0-3.02-.74-.74-2.31-.91-3.02 0Z"/><path class="cls-1" d="M121.38 57.37c.53.13 1.05.28 1.56.45.28.09.55.2.82.31.09.03.38.16-.03-.01.16.07.31.14.47.21.94.44 1.84.98 2.68 1.59.11.08.22.16.34.25-.06-.04-.34-.27-.04-.03.19.16.39.32.57.48a19.74 19.74 0 0 1 2.17 2.22c.16.2.32.39.48.59.21.27-.3-.41.03.04.1.14.2.28.31.42 1.29 1.79 2.35 3.74 3.27 5.74.12.25.23.51.34.76.05.11.36.84.19.44.23.55.46 1.11.67 1.67.43 1.11.83 2.23 1.22 3.36 1.6 4.65 2.9 9.4 4.52 14.05 1.49 4.28 3.22 8.63 5.94 12.29 3.04 4.09 7.21 7.06 12.32 7.85 1.14.18 2.3-.29 2.63-1.49.28-1.01-.34-2.45-1.49-2.63-1.09-.17-2.17-.43-3.21-.8-.21-.08-.42-.16-.62-.24.51.21-.29-.14-.39-.19-.46-.22-.91-.47-1.34-.74-.41-.25-.8-.53-1.19-.81-.27-.2.39.33 0 0-.08-.07-.17-.13-.25-.2-.2-.17-.4-.35-.6-.53-.76-.7-1.45-1.46-2.09-2.27l.03.04c-.07-.09-.13-.18-.2-.27-.16-.23-.33-.45-.48-.68-.29-.42-.56-.85-.83-1.29-.58-.95-1.1-1.93-1.58-2.94-.24-.49-.46-.98-.68-1.48-.1-.22-.2-.45-.29-.67.17.4 0 .01-.03-.09-.07-.17-.14-.34-.21-.52-.44-1.09-.84-2.18-1.23-3.29-1.63-4.64-2.93-9.39-4.52-14.04-1.51-4.42-3.24-8.89-5.9-12.76-2.98-4.32-7.07-7.63-12.22-8.91-2.67-.66-3.81 3.46-1.14 4.12Zm-45.26 52.68c4.39-.68 8.34-3.01 11.21-6.38 3.02-3.55 4.98-7.81 6.62-12.14 1.75-4.6 3.11-9.34 4.69-14 .38-1.11.77-2.22 1.18-3.32.2-.54.41-1.08.62-1.62.12-.3.24-.59.36-.89.05-.12.1-.23.15-.35-.18.43.07-.15.08-.19.91-2.06 1.91-4.09 3.14-5.98.33-.51.69-1.01 1.05-1.51.07-.09.31-.41.03-.05.11-.14.21-.27.32-.4.18-.22.36-.44.55-.65.78-.89 1.63-1.7 2.55-2.44.07-.06.32-.24-.03.03.13-.1.27-.2.41-.3.23-.16.46-.32.7-.47.53-.33 1.07-.64 1.63-.92.26-.13.52-.25.78-.36-.45.2.32-.12.47-.17.62-.23 1.26-.41 1.9-.57 2.67-.66 1.54-4.78-1.14-4.12-9.68 2.39-14.54 11.34-17.75 20.01-1.72 4.63-3.08 9.38-4.69 14.05-.38 1.09-.77 2.18-1.18 3.27-.2.53-.41 1.06-.63 1.58-.06.14-.12.29-.18.43-.14.34.2-.46-.04.09-.12.28-.25.56-.37.84-.89 1.98-1.91 3.92-3.15 5.71-.16.23-.32.46-.49.68 0 0-.34.44-.14.18.18-.23-.16.19-.19.24-.36.44-.74.87-1.14 1.29-.39.41-.8.8-1.23 1.16-.08.07-.16.14-.25.21-.05.04-.47.37-.22.18.27-.21-.15.11-.17.12-.13.09-.26.19-.39.28-.44.3-.9.58-1.38.84-.26.14-.53.28-.8.4-.12.06-.25.11-.37.17.33-.15.1-.04-.1.04-1.15.43-2.32.73-3.53.92-1.14.18-1.77 1.61-1.49 2.63.33 1.22 1.48 1.67 2.63 1.49Z"/><ellipse class="cls-1" cx="117.62" cy="127.42" rx="2.96" ry="2"/><path class="cls-1" d="M103.18 107.64c-1.79-2.55-4.58-1.94-5.92.17-1.51 2.35-1.31 6.51.2 8.84.52.76 1.24 1.22 2.09 1.38 3.32.61 4.7-2.57 4.68-5.2 0-1.6-.11-3.85-1.05-5.18Zm34.19 0c-1.79-2.55-4.58-1.94-5.92.17-1.51 2.35-1.31 6.51.2 8.84.52.76 1.24 1.22 2.09 1.38 3.32.61 4.7-2.57 4.68-5.2 0-1.6-.11-3.85-1.05-5.18Z"/><path class="cls-3" d="M128.2 136.2s-9.7 22.58-20.84.14c0 0 11.2 1.48 20.84-.14Z"/><path class="cls-1" d="M130.26 135.63c-.09-.33-.24-.6-.44-.82-.03-.03-.05-.06-.08-.09l-.01-.01a2 2 0 0 0-.45-.35c-.43-.25-1.01-.33-1.55-.23-.03 0-.07 0-.1.01-6.6 1.09-13.64.93-20.27.06-1.74-.23-2.48 1.95-1.84 3.21 2.6 5.18 7.19 12.31 14.02 10.77 4.07-.91 7.04-4.73 9.06-8.14.53-.9 1.04-1.82 1.45-2.78 0-.02.02-.05.03-.07a2.3 2.3 0 0 0 .19-1.58Zm-15.6 7.3c-.08-.06-.16-.13 0 0Zm8.9-2.96-.27.36-.34.42c-.57.69-1.19 1.34-1.87 1.92-.08.07-.17.14-.25.2-.16.11-.32.23-.49.34-.16.1-.32.2-.49.3-.07.04-.35.18-.49.25-.12.04-.36.14-.42.16-.18.06-.36.11-.54.15-.08.02-.15.03-.23.05-.22.01-.44.03-.67.02-.19 0-.81-.14-.23 0-.2-.05-.4-.08-.59-.13-.09-.03-.59-.21-.56-.19-.21-.1-.41-.2-.61-.32-.27-.16-.53-.33-.78-.51-.01 0-.03-.02-.05-.04a14.919 14.919 0 0 1-2.1-2.15c-.49-.61-.94-1.25-1.36-1.92 4.35.36 8.77.36 13.11-.06a.95.95 0 0 0-.1.17c-.22.33-.44.66-.67.98Z"/><path class="cls-4" d="M153.07 230.05a116.532 116.532 0 0 1-21.59 4.61c-1.91.22-3.83.4-5.77.53h-.03c-.76.05-1.52.1-2.28.13-.15-.33-.3-.65-.44-.97.78.25 1.57.43 2.36.53.07 0 .15.02.23.03 1.24.14 2.5.1 3.75-.08.13-.02.26-.04.39-.07.15-.03.3-.05.45-.08.08-.02.15-.03.23-.05.18-.04.36-.08.54-.13.09-.02.17-.04.25-.07.09-.02.17-.05.26-.07.05-.01.1-.03.14-.04l.3-.09c.32-.1.64-.22.97-.34.13-.05.26-.1.39-.16h.01c.14-.06.28-.11.41-.17.1-.05.21-.09.31-.14.18-.08.36-.17.54-.26.11-.05.22-.11.33-.17.05-.03.1-.05.15-.08.1-.05.21-.11.31-.17.43-.23.84-.49 1.25-.75.1-.06.2-.13.3-.2.48-.33.95-.67 1.41-1.04.06-.05.13-.1.19-.16.22-.18.43-.37.65-.56l.3-.27c.19-.17.37-.35.55-.53l.19-.19c.13-.13.25-.26.37-.39l.3-.33c.26-.29.51-.59.75-.9 1.02-1.3 1.85-2.71 2.43-4.17.04-.11.09-.22.13-.33.31-.83.53-1.67.67-2.51.57.68 1.14 1.36 1.73 2.05 2.1 2.47 4.31 5.03 6.57 7.61Zm-40.77 4.29c-.14.32-.29.64-.44.96-.76-.04-1.51-.08-2.27-.13 0 0-.01 0-.02.01v-.01c-2.04-.14-4.07-.33-6.09-.57a117.73 117.73 0 0 1-21.25-4.58c2.26-2.58 4.46-5.11 6.55-7.58.58-.69 1.16-1.37 1.73-2.05.14.84.37 1.68.67 2.51.03.08.06.16.1.24.57 1.47 1.4 2.89 2.41 4.2l.33.42a8.75 8.75 0 0 0 .32.38c.03.04.06.07.1.11l.21.24c.05.06.1.12.16.17.1.11.21.22.31.33l.09.09.25.25c.41.4.83.79 1.28 1.17.08.06.16.13.23.19 1.11.91 2.33 1.7 3.6 2.36.09.05.18.09.27.14.03.02.06.03.09.05.04.02.09.04.14.07.1.05.21.1.31.14.1.05.21.09.31.14.14.06.28.12.42.17.09.03.17.07.26.1.1.04.19.08.29.11.1.04.2.07.3.11.1.03.19.07.29.1.1.03.2.06.3.1.09.03.17.05.26.08l.2.06c.05.01.1.03.14.04l.35.09c.05.01.1.03.15.04.06.01.13.03.19.04l.26.06c.07.01.13.03.2.04a14.77 14.77 0 0 0 4.41.2c.09 0 .17-.02.26-.03.78-.1 1.56-.28 2.33-.53Z"/><path class="cls-3" d="M116.69 169.58c.63 2.7.37 5.57.15 8.36-.65 8.37-.86 16.77-.61 25.16.16 5.57.52 11.2-.43 16.68s-4.46 12.11-8.87 14.56c0 0-.74.4-1.3.4v.02c-4.64-.81-9.05-3.7-11.92-7.42l-.12-1.04c-1.02-8.19 1.36-15.14 4.16-22.68 2.04-5.76 3.26-11.85 5.44-17.54 1.26-3.28 2.46-10.29 4.12-16.34 1.52-5.51 3.41-10.22 6.09-10.59.92.11 1.59.52 2.07 1.12 1.33 1.67 1.22 4.8 1.19 6.86l.05 2.46h-.01Zm2-.46h-.01l-.07-2c-.03-2.06-.13-5.17 1.18-6.85.48-.61 1.15-1.03 2.08-1.14 2.67.37 4.57 5.09 6.09 10.59 1.66 6.05 2.86 13.06 4.12 16.34 2.18 5.69 3.4 11.78 5.44 17.54 2.79 7.55 5.17 14.49 4.16 22.68l-.12 1.1c-2.95 3.79-7.51 6.71-12.24 7.42-.34-.11-.97-.47-.97-.47-4.41-2.45-7.92-9.07-8.87-14.56-.95-5.48-.59-11.11-.43-16.68.25-8.39.04-16.79-.61-25.16-.23-2.95-.51-6 .27-8.83Z"/><path class="cls-3" d="M124.91 155.81c1.54 3.64 1.86 9.25 3.08 13.91h-.03c-1.52-5.5-3.41-10.21-6.09-10.58-.93.11-1.6.53-2.08 1.14l-.13-.56a8.3 8.3 0 0 1 .04-3.71c.33-1.36 1.27-2.79 2.57-2.76 1.25.03 2.11 1.33 2.63 2.56Zm-11.52 3.32c-2.67.37-4.57 5.09-6.09 10.59h-.03c1.22-4.66 1.54-10.28 3.08-13.92.52-1.23 1.39-2.53 2.63-2.56 1.3-.03 2.24 1.39 2.57 2.76.3 1.21.31 2.49.04 3.71l-.15.54c-.48-.6-1.14-1.02-2.07-1.12Z"/><path class="cls-1" d="M114.11 235.39c-.75-.02-1.5-.05-2.24-.09-.76-.04-1.51-.08-2.27-.13 0 0-.01 0-.02.01v-.01c-2.04-.14-4.07-.33-6.09-.57-2.06-.25-4.1-.55-6.12-.9-3.38-2.21-6.18-5.35-7.75-8.94-.33-.75-.61-1.53-.82-2.32-.14-.49-.25-.98-.33-1.48-.12-.71.02-1.43.44-1.95l.02-.02c.25-.3.59-.53 1.04-.66.2-.06.42-.08.64-.06h.18c.04 0 .07.01.11.02.04 0 .07.02.11.02s.07.02.1.03c.07.02.14.04.21.07.03.01.07.03.1.04.02 0 .04.02.06.02.56.26 1.01.73 1.11 1.34.16.91.42 1.8.76 2.66.58 1.44 1.4 2.8 2.4 4.04 2.5 3.08 6.13 5.36 9.93 6.07 1.11.21 2.24.28 3.37.2.74-.05 1.47-.17 2.2-.37.16-.04.32-.09.48-.14.28-.09.54-.12.78-.11s.07 0 .1 0c.05 0 .1.01.14.02.03 0 .06.01.09.02.03 0 .06.01.09.02 1.22.37 1.77 2 1.18 3.15Z"/><path class="cls-1" d="M92.04 221.89c-.25.3-.5.59-.75.89-.03.03-.06.07-.09.11-.52.62-1.05 1.24-1.57 1.86-1.7 1.99-3.41 3.97-5.13 5.94-.75-.22-1.5-.45-2.24-.68-.74-.23-1.47-.47-2.2-.72 2.98-3.4 5.95-6.82 8.85-10.29l.02-.02c.03-.04.06-.07.09-.11.38-.44.94-.63 1.51-.62.07 0 .13 0 .2.01h.06c.04 0 .07.01.11.02.04 0 .07.02.11.02s.07.02.1.03c.07.02.14.04.21.07.03.01.07.03.1.04.02 0 .04.02.06.03.21.1.4.23.56.39.87.87.74 2.14 0 3.02Zm22.13 13.47s0 .02-.01.03h-.05c-.75-.02-1.5-.05-2.24-.09-.76-.04-1.51-.08-2.27-.13 0 0-.01 0-.02.01v-.01c.04-.09.08-.18.13-.27.26-.56.52-1.13.77-1.69.16-.35.43-.62.77-.79.38-.2.83-.28 1.25-.24s.07 0 .1 0c.05 0 .1.01.14.02.03 0 .06.01.09.02.03 0 .06.01.09.02.17.04.33.11.47.19 1.07.63 1.24 1.87.77 2.92Zm-.93-73.88s.08-.05.1-.07c-.03.02-.06.04-.09.05l-.01.01Z"/><path class="cls-1" d="M143.6 216.98c-.6-4.04-1.85-7.93-3.23-11.76-1.45-4.03-2.64-8.1-3.82-12.22-.9-3.16-2.12-6.21-3.02-9.36-1.21-4.21-1.99-8.52-3.06-12.77 0-.19-.04-.38-.1-.59-.82-2.72-1.23-5.54-1.71-8.33-.45-2.62-.92-5.36-2.15-7.75-.66-1.28-1.73-2.52-3.15-2.93-1.61-.46-3.27.17-4.33 1.43-.7.83-1.14 1.78-1.4 2.79-.26-1.02-.71-1.97-1.4-2.79-1.03-1.23-2.62-1.86-4.2-1.46-1.49.37-2.6 1.64-3.28 2.96-1.23 2.39-1.69 5.13-2.15 7.75-.48 2.79-.89 5.61-1.71 8.33-.06.2-.09.38-.1.56-.93 3.66-1.67 7.36-2.59 11.02-.65 2.6-1.65 5.06-2.45 7.61-1.3 4.15-2.32 8.39-3.71 12.52-1.48 4.41-3.23 8.71-4.11 13.3-.78 4.06-.82 8.01-.36 12.1.13 1.15.89 2.14 2.14 2.14 1.06 0 2.26-.98 2.14-2.14-.28-2.55-.46-5.08-.25-7.65.25-3.04.99-6.02 1.9-8.93.95-3.06 2.16-6.03 3.12-9.08 1.02-3.22 1.86-6.49 2.82-9.72.71-2.36 1.64-4.65 2.34-7.01.49-1.65.87-3.33 1.26-5.01.91-3.97 1.75-7.97 2.96-11.87.31-1.01.67-2.01 1.05-3 .05-.13.07-.18.07-.19.01-.02.03-.07.08-.17.09-.19.17-.39.26-.58.19-.41.4-.81.63-1.2.18-.31.39-.61.59-.91.05-.06.09-.11.14-.16.1-.11.21-.22.32-.33.04-.04.08-.08.12-.1-.02.01-.05.03-.08.05l.09-.06c.1-.08.15-.1.09-.05.04-.03.09-.06.13-.08l.15.09.04.04c.07.08.11.12.12.13.04.06.08.12.12.19.04.07.2.43.16.3.32.84.39 1.39.42 2.1-.07 0-.15 0-.23-.01-.48-.01-.9.06-1.28.19-1.5.54-2.22 2.14-2.57 3.77-.24 1.15-.5 2.3-.74 3.45-.16.74-.32 1.49-.47 2.24-.02.1-.04.19-.06.28-.14.67-.27 1.35-.39 2.03-1.41 7.7-2.19 15.67-5.35 22.89-.46 1.05-.31 2.29.77 2.92.91.53 2.46.3 2.92-.77 2.83-6.45 3.97-13.35 5.14-20.25.27-1.56.55-3.12.86-4.67.14-.71.28-1.42.43-2.12.14-.69.28-1.38.43-2.07.1-.5.21-1 .32-1.5.07-.35.15-.69.22-1.04l.09.29c.02.2.06.38.13.54.14.68.2 1.38.22 2.07.02.4.02.8.02 1.18 0 .39 0 .77-.02 1.16-.02.84-.07 1.69-.12 2.54-.16 2.5-.42 5.01-.54 7.51-.18 3.75-.28 7.5-.28 11.25 0 3.72.12 7.43.23 11.15.11 3.63.18 7.31-.31 10.92-.43 3.18-1.48 6.23-3.1 9-.78 1.33-1.67 2.57-2.76 3.67-.44.44-.93.88-1.37 1.18-.28.19-.57.38-.86.54-.08.04-.11.07-.14.08-.02 0-.03.01-.06.01-.99.09-1.86.7-2.08 1.66-.03.11-.04.22-.05.34 2.02.24 4.04.43 6.09.57v.01s.01 0 .02-.01c.13-.1.25-.2.37-.3.95-.8 1.8-1.75 2.54-2.69.19-.23.37-.47.54-.7 1.98-2.65 3.42-5.77 4.31-8.95.1-.35.19-.71.28-1.07.7 3.12 2.01 6.16 3.75 8.83.42.64.87 1.28 1.36 1.89.77.98 1.64 1.9 2.59 2.7.11.09.23.18.34.27.01.01.03.02.04.03 1.94-.13 3.86-.3 5.77-.53 0-.1-.03-.21-.05-.31-.18-.71-.74-1.29-1.48-1.56.07.02.1.03.11.03-.03-.02-.33-.15-.42-.2-.02 0-.04-.02-.05-.03-.13-.07-.25-.14-.38-.21-.57-.34-.93-.6-1.41-1.03-.98-.88-1.83-1.88-2.56-2.97a24.031 24.031 0 0 1-3.42-7.81c-.8-3.32-.86-6.8-.83-10.2.03-3.76.24-7.51.28-11.26.09-7.16-.23-14.29-.72-21.43-.03-.39-.06-.78-.08-1.17-.03-.48-.07-.96-.1-1.45-.05-.8-.07-1.6-.04-2.4.02-.53.06-1.05.14-1.57.05-.33.11-.66.18-1 .06-.13.11-.28.14-.43.07.27.13.48.14.54.15.68.29 1.35.43 2.03.06.3.13.6.19.9.08.39.17.79.25 1.18.15.71.29 1.43.43 2.14.11.57.22 1.14.32 1.72 1.41 7.81 2.41 15.69 5.62 23.02.46 1.06 2.01 1.3 2.92.77 1.09-.64 1.23-1.86.77-2.92-3.04-6.93-3.86-14.62-5.19-22-.06-.35-.13-.69-.19-1.03-.14-.75-.29-1.5-.45-2.25-.15-.73-.3-1.46-.46-2.19-.02-.1-.04-.2-.06-.29l-.63-2.93c-.21-.98-.4-1.96-1.02-2.77-.46-.6-1.05-.98-1.69-1.18-.45-.14-.92-.18-1.39-.14.05-.75.14-1.51.42-2.16.05-.12.14-.28.24-.42l.12-.15c.02-.03.05-.05.07-.07l-.02.02c.06-.04.12-.07.18-.1.05.02.09.04.13.06.02 0 .03.02.04.02.18.21.4.4.59.6a12.75 12.75 0 0 1 .35.5c.41.63.76 1.31 1.07 2 .03.08.14.33.19.42.04.09.13.32.15.37.18.47.35.94.52 1.42 1.32 3.85 2.18 7.84 3.08 11.8.41 1.79.8 3.58 1.28 5.36.52 1.94 1.26 3.78 1.89 5.69 1.05 3.21 1.9 6.47 2.84 9.71.91 3.13 2.07 6.16 3.12 9.24 1.11 3.26 2.12 6.62 2.53 10.04.36 2.97.2 5.9-.14 8.86-.13 1.15 1.08 2.14 2.14 2.14 1.26 0 2-.98 2.14-2.14.4-3.52.45-6.93-.07-10.44Zm-29.62-48.58s.05.11.1.2c-.09.02-.14-.03-.1-.2Zm-1.93-11.12c.11-.32.24-.64.38-.92.16-.32.35-.65.59-.89.33.33.5 1.06.57 1.57-.54-.03-1.06.06-1.54.24Zm9.64-.23c.09-.52.27-1.02.57-1.5.14.21.39.48.49.68.18.33.33.7.46 1.07-.52-.19-1.03-.26-1.52-.25Z"/><path class="cls-1" d="M146.83 220.95a16.027 16.027 0 0 1-1.16 3.8c-1.58 3.61-4.41 6.77-7.83 8.98-2.1.36-4.23.67-6.37.92-1.91.22-3.83.4-5.77.53h-.03c-.76.05-1.52.1-2.28.13-.75.03-1.5.06-2.24.08-.62-1.17-.02-2.87 1.28-3.17.03 0 .06-.01.09-.02.04 0 .08-.01.12-.02h.09c.25-.02.51.01.8.1.16.05.31.1.47.14.72.2 1.46.32 2.2.37 1.12.08 2.25 0 3.37-.2 3.79-.71 7.41-2.97 9.92-6.02 1-1.22 1.83-2.57 2.41-3.99.34-.83.6-1.68.76-2.54v-.01c.01-.06.03-.12.03-.18v-.02c.1-.59.53-1.05 1.06-1.31h.01c.05-.03.11-.05.16-.07.06-.02.11-.04.17-.06.06-.02.11-.03.17-.05.06-.01.12-.03.17-.03.06 0 .12-.02.17-.02h.17c.18 0 .36.02.52.07 1.19.33 1.69 1.49 1.49 2.63Z"/><path class="cls-1" d="M146.28 218.87c2.95 3.53 5.97 7 8.99 10.46-.73.25-1.47.49-2.2.72-.74.23-1.49.46-2.24.68a598.59 598.59 0 0 1-5.16-5.98c-.53-.62-1.05-1.24-1.57-1.86s-.08-.1-.12-.14c-.24-.28-.48-.57-.72-.85-.45-.54-.68-1.21-.59-1.86v-.01c.01-.06.03-.12.03-.18.08-.35.26-.68.55-.97.15-.15.32-.27.52-.37h.01c.05-.03.11-.05.16-.07.06-.02.11-.04.17-.06.75-.24 1.64-.11 2.16.51Zm-20.6 16.31c-.76.05-1.52.1-2.28.13-.75.03-1.5.06-2.24.08h-.05c0-.01 0-.02-.02-.03-.48-1.05-.31-2.29.77-2.92.18-.1.37-.18.58-.22.03 0 .06-.01.09-.02.04 0 .08-.01.12-.02h.09c.43-.04.89.04 1.27.24.33.17.61.44.77.79.25.57.51 1.13.77 1.69.04.08.08.16.11.24 0 .01 0 .03.02.04Z"/></g></svg>