<svg id="_レイヤー_2" data-name="レイヤー 2" xmlns="http://www.w3.org/2000/svg" width="235.45" height="235.45"><defs><style>.cls-1{fill:#323232}.cls-3{fill:#fff}.cls-4{fill:#32c8c8}</style></defs><g id="_レイヤー_3" data-name="レイヤー 3"><path d="M235.45 117.72c0 31.86-12.66 60.76-33.22 81.96-.51.52-1.02 1.04-1.54 1.56-.53.52-1.06 1.04-1.59 1.55a118.107 118.107 0 0 1-28.8 20.29c-5.19 2.6-10.6 4.82-16.19 6.63-.68.22-1.36.43-2.04.64a117.847 117.847 0 0 1-34.35 5.09c-9.02 0-17.8-1.01-26.23-2.93-.77-.17-1.53-.36-2.29-.55-.76-.19-1.51-.38-2.26-.59-2.33-.63-4.63-1.33-6.91-2.1-.68-.23-1.36-.46-2.03-.71-.67-.24-1.33-.48-1.99-.74a115.74 115.74 0 0 1-14.09-6.44c-.71-.39-1.42-.78-2.13-1.18a119.508 119.508 0 0 1-12.06-7.84c-.89-.66-1.77-1.33-2.64-2.02-.69-.54-1.37-1.09-2.05-1.65-.21-.17-.42-.35-.63-.52-.39-.33-.79-.66-1.18-1-.6-.51-1.18-1.02-1.77-1.54-7.52-6.7-14.17-14.34-19.77-22.74-1.04-1.56-2.04-3.14-3.01-4.76-.69-1.16-1.37-2.32-2.02-3.51C5.32 157.79 0 138.38 0 117.72 0 52.71 52.71 0 117.72 0s117.72 52.71 117.72 117.72Z" style="fill:#e6e6e6"/><path class="cls-3" d="M129.48 223.78c-2.35 1.93-4.83 3.64-7.44 5.07-18.55-10.14-30.62-34.66-35.57-49.57 5.73-2.33 10.37-4.39 11.73-5.53 0 0 6.36-4.02 4.74-14.27 0 0-.28-1.37-.45-1.52 11.98 7.31 26.79 7.27 38.7-.37l-.19.94c-1.45 10.58 5.01 15.21 5.01 15.21 1.35 1.13 5.95 3.18 11.63 5.49-.39 1.17-.82 2.39-1.29 3.66-.16.44-.33.88-.5 1.33-.23.59-.47 1.2-.72 1.81-.18.46-.38.92-.57 1.38-.83 1.99-1.76 4.05-2.78 6.15-.42.86-.85 1.73-1.3 2.61-2.5 4.87-5.47 9.86-8.9 14.54-.16.22-.32.44-.49.66-.83 1.11-1.69 2.21-2.58 3.28-.28.34-.56.68-.85 1.01-.16.19-.33.38-.5.57-.18.2-.35.4-.52.6-.29.32-.57.64-.86.95-.29.32-.59.63-.89.94-.59.62-1.2 1.23-1.81 1.82-.13.12-.25.24-.38.36-.12.11-.24.23-.36.34l-.39.36-.36.33c-.19.18-.39.35-.58.52-.19.16-.37.33-.56.49-.33.28-.65.56-.99.83Z"/><path class="cls-3" d="M157.9 136.47c-3.82 9.65-9.77 16.68-16.71 21.13-11.9 7.64-26.72 7.68-38.7.37-7.25-4.42-13.45-11.54-17.35-21.29-.54-.22-1.8-.61-1.8-.61-4.43-1.67-8.34-5.22-10.84-9.86s-3.57-10.33-2.98-15.79c.46-4.23 2.31-7.79 6.22-7.98 2.91-.14 4.71 2.98 5.17 6.16 1.63-14.33 6.7-28.03 16.82-38.31 1.51-1.54 3.14-3 4.88-4.37 5.41-4.35 13.01-5.76 19.31-2.39 15.95 8.55 26.19 34.68 39.92 45.05.46-3.17 2.23-6.32 5.15-6.18 3.91.19 5.75 3.75 6.21 7.98.59 5.46-.48 11.15-2.98 15.79-2.5 4.64-6.41 8.19-10.84 9.86 0 0-.96.33-1.47.44Z"/><path class="cls-4" d="M183.97 145.63c-2.47-16.84-2.77-33.92-5.24-50.75-1.18-8.04-3-16.01-5.75-23.67-2.45-6.82-5.54-13.4-9.99-19.15-8.17-10.54-20.31-17.51-33.48-19.43-6.78-.99-13.8-.99-20.47.67-3.04.76-5.9 2.02-8.75 3.29a51.463 51.463 0 0 0-7.6 4.17c-9.94 6.62-16.79 16.46-21.37 27.36-5.95 14.16-8.05 29.34-9.34 44.55-.71 8.41-1.24 16.83-2.04 25.23-.41 4.28-.87 8.55-1.43 12.81-.53 4.03-1.16 8.04-1.25 12.11-.08 3.98.3 8.06 1.53 11.87 1.15 3.56 3.01 6.78 5.43 9.62.52.62 1.08 1.21 1.65 1.78.66.66 1.48 1.71 2.4 1.96.91.25 1.86-.32 2.69-.64.96-.37 1.92-.73 2.88-1.1 3.48-1.33 6.96-2.68 10.42-4.06 3.63-1.45 7.27-2.91 10.82-4.56 1.12-.52 2.25-1.06 3.3-1.7.19-.12.38-.24.56-.37.14-.1.69-.51.5-.37 3.09-2.33 4.96-5.96 5.49-9.76.22-1.57.27-3.13.11-4.71-.11-1.11-.19-2.8-.87-3.76-.01-.02-.03-.03-.04-.05a1.99 1.99 0 0 0-.65-.64c-4.1-2.52-7.74-5.84-10.62-9.71a45.892 45.892 0 0 1-4.23-6.85c-.63-1.25-1.12-2.56-1.72-3.81-.55-1.14-1.88-1.32-2.97-1.7-4.66-1.61-8.29-5.81-10.34-10.15-1.17-2.47-1.89-5.23-2.16-7.95-.25-2.6-.26-5.37.48-7.89.56-1.92 1.67-3.62 3.58-3.86 2.33-.29 3.26 2.75 3.58 4.73.15.93 1.26 1.5 2.11 1.38 1.01-.15 1.55-.91 1.67-1.89 1.04-8.99 3.52-17.92 7.96-25.84 2.22-3.96 4.91-7.62 8.07-10.88 3.26-3.35 6.9-6.57 11.51-7.78 4.09-1.07 8.16-.39 11.77 1.78 2.99 1.8 5.59 4.11 8.01 6.65 5.42 5.68 9.79 12.26 14.29 18.67 4.8 6.84 9.71 13.95 16.42 19.06.93.71 2.64 0 2.82-1.15.21-1.35.58-2.81 1.48-3.88.71-.85 1.48-1.05 2.53-.77 2.25.59 3.19 3.29 3.53 5.62 1 6.77-1.03 14.35-5.68 19.42-1.2 1.31-2.54 2.45-4.05 3.38-.73.45-1.5.87-2.3 1.19-.22.09-.44.16-.66.24-.15.05-.3.1-.45.14-.19.06-.85.12-.18.12-.92 0-1.53.61-1.85 1.41-1.84 4.61-4.38 9.02-7.63 12.79-1.48 1.72-3.1 3.31-4.85 4.76-.79.65-1.61 1.26-2.45 1.84-.55.37-1.24.69-1.59 1.28-.22.37-.28.83-.35 1.25-1.12 6.25.66 13.41 5.78 17.47-.34-.26-.29-.22.17.13.27.2.56.39.85.57.81.49 1.67.91 2.52 1.32 2.8 1.34 5.69 2.53 8.57 3.7.02 0 .05.02.07.03 6.84 2.78 13.75 5.39 20.65 8.02.6.23 1.45-.03 1.87-.49 2.56-2.81 4.54-5.92 5.77-9.53 1.15-3.37 1.61-6.99 1.65-10.54.09-7.76-1.99-15.31-3.11-22.93Z"/><path class="cls-3" d="M200.69 201.24c-.53.52-1.06 1.04-1.59 1.55a118.107 118.107 0 0 1-28.8 20.29c-5.19 2.6-10.6 4.82-16.19 6.63-.68.22-1.36.43-2.04.64a117.847 117.847 0 0 1-34.35 5.09c-9.02 0-17.8-1.01-26.23-2.93-.77-.17-1.53-.36-2.29-.55-.76-.19-1.51-.38-2.26-.59-2.33-.63-4.63-1.33-6.91-2.1-.68-.23-1.36-.46-2.03-.71-.67-.24-1.33-.48-1.99-.74a115.74 115.74 0 0 1-14.09-6.44c-.71-.39-1.42-.78-2.13-1.18a119.508 119.508 0 0 1-12.06-7.84c-.89-.66-1.77-1.33-2.64-2.02-.69-.54-1.37-1.09-2.05-1.65-.21-.17-.42-.35-.63-.52-.39-.33-.79-.66-1.18-1 2.49-9.28 6.87-12.66 17.16-16.97 1.18-.5 2.74-1.11 4.56-1.82.83-.32 1.72-.67 2.64-1.02.31-.12.63-.24.95-.37.06-.02.11-.04.17-.07.49-.19.99-.38 1.5-.57.18-.07.37-.14.55-.21l1.08-.42c.3-.11.59-.23.9-.34.07-.03.13-.05.2-.08.06-.02.12-.05.18-.07l.1-.04c.28-.1.55-.21.83-.32.19-.07.37-.14.56-.22.42-.16.84-.32 1.27-.49.14-.05.27-.1.41-.16.29-.11.59-.23.88-.34.83-.32 1.67-.64 2.51-.97.34-.13.67-.26 1-.39.06-.02.12-.05.18-.07l1.32-.51.99-.39c.02 0 .03-.01.05-.02.48-.19.95-.37 1.42-.56.23-.09.47-.19.7-.28.19-.08.38-.15.57-.23.02 0 .03-.01.04-.02.03 0 .05-.02.08-.03.14-.06.28-.11.42-.17.13-.05.26-.11.4-.16.13-.05.26-.1.39-.16.09-.04.18-.07.27-.11.2-.08.41-.17.61-.24.11-.04.21-.09.32-.13.05.15.1.3.15.44l.15.45c.1.3.21.61.32.92.03.09.06.17.09.26l.03.09c.01.04.03.07.04.11.16.45.33.92.5 1.38.1.25.19.51.29.77l.3.78c.1.26.2.52.31.79.21.53.43 1.06.65 1.61.11.27.22.54.34.82.11.27.23.55.35.83.12.28.24.55.36.83.12.28.24.56.37.84a242.155 242.155 0 0 0 1.17 2.55c.13.29.27.57.41.86.11.22.22.44.33.67.11.22.22.45.33.67.11.22.22.45.34.67.11.23.23.45.34.68.12.23.24.47.37.71.02.04.04.09.07.13.02.03.03.06.05.09.13.25.26.5.39.74.11.2.22.4.33.61.08.15.16.29.24.44 0 .02.02.04.03.06.11.21.23.43.35.64.02.03.03.06.05.08.15.27.3.54.46.81.15.26.29.52.44.77 0 .02.02.03.03.05.04.07.08.13.11.2.11.19.23.39.34.58.05.08.1.17.15.25.15.26.31.52.47.78.33.55.67 1.1 1.01 1.64.04.06.08.13.12.19.11.18.23.36.34.54.02.02.03.05.05.07 0 .02.02.03.03.05.02.04.05.08.07.12l.49.76c.02.03.05.07.07.11.17.25.33.5.5.76l.36.54c.07.11.15.22.22.32.13.2.27.39.41.59.41.59.83 1.17 1.25 1.75.07.1.15.2.23.3.1.13.19.26.29.39l.06.09c.19.26.39.52.58.77.15.2.31.4.46.6.17.21.33.42.5.63.16.19.31.39.47.58.16.2.32.4.49.6.12.15.24.29.36.43.09.11.18.22.27.32.09.11.18.22.27.32.04.05.09.1.13.15.16.18.31.36.47.54.16.18.32.37.49.55.37.41.74.82 1.12 1.22.16.17.31.33.47.49.08.09.16.17.24.25.08.08.16.17.24.25l.24.24c.23.24.46.47.7.7l.03.03c.08.08.16.15.24.23l.09.09c.13.12.25.24.38.36.16.15.31.3.47.44.23.21.45.42.68.63.14.12.27.25.41.37.25.22.5.44.76.66.02.02.04.04.07.06.01 0 .02.02.03.03l.4.34c.08.07.17.14.25.21.09.07.17.14.26.21.23.19.46.37.69.56.16.13.33.26.49.39.02.01.04.03.06.04l.6.45c.18.14.37.28.55.41.02.01.03.02.05.03.2.15.4.29.61.43.15.1.3.21.45.31l.3.21.09.06c.32.22.65.43.98.64.13.09.27.17.4.25.02.01.04.02.05.03.19.12.38.23.57.35.14.08.28.17.42.25.14.08.28.17.43.25.23.13.47.26.7.39.15-.08.29-.16.43-.24.07-.04.14-.08.22-.12.07-.04.14-.08.22-.12.18-.1.36-.21.54-.31.18-.11.36-.21.53-.32l.48-.3c.33-.21.67-.43.99-.64.14-.09.28-.19.42-.28.15-.1.31-.21.46-.32l.49-.34.43-.31c.15-.11.3-.22.45-.34.15-.11.3-.23.45-.34.15-.11.3-.23.45-.35.15-.11.3-.23.45-.35.15-.12.3-.24.44-.36l.54-.45c.09-.08.18-.15.27-.23.09-.08.18-.15.27-.23.36-.3.71-.62 1.06-.93l.36-.33c.07-.06.13-.12.2-.18.12-.11.25-.23.37-.35.1-.1.21-.2.31-.3.51-.49 1.02-.99 1.52-1.5.12-.12.24-.25.36-.37.15-.16.3-.31.45-.47.08-.09.17-.18.25-.27.11-.11.22-.23.32-.35.25-.27.49-.54.74-.81.12-.13.23-.26.35-.39.03-.03.05-.06.08-.09.1-.11.2-.23.3-.34.1-.12.2-.23.3-.35.2-.23.39-.46.58-.69l.42-.51c.44-.53.88-1.08 1.31-1.62.15-.19.31-.39.46-.59.05-.06.1-.12.14-.19a.7.7 0 0 0 .08-.1l.54-.72c.02-.02.03-.04.04-.06.16-.22.32-.44.49-.66l.08-.11c.22-.3.43-.6.65-.9s0 0 .01-.02c.18-.25.35-.5.53-.75.03-.03.05-.07.07-.1.18-.26.36-.52.54-.79.11-.16.22-.32.32-.47.1-.14.19-.28.28-.43 0 0 .01-.02.02-.03.19-.29.38-.58.57-.86.16-.25.32-.5.48-.74.04-.07.09-.13.13-.2.03-.04.06-.09.08-.13 0-.02.02-.03.03-.05.11-.18.23-.36.34-.53l.15-.24c.17-.28.35-.56.52-.84.16-.27.33-.54.49-.82l.09-.15c.16-.28.33-.55.49-.83.12-.2.23-.4.35-.6.02-.04.04-.08.06-.11l.12-.21.12-.21c.02-.03.04-.07.06-.1.15-.27.3-.53.45-.8.16-.29.32-.59.48-.88.2-.37.39-.73.59-1.09 0-.02.02-.03.03-.05.13-.24.26-.48.38-.72.13-.26.27-.51.4-.77.15-.29.3-.58.44-.87.13-.25.25-.51.38-.76.05-.11.11-.22.16-.33.23-.48.47-.96.69-1.44.26-.54.51-1.08.75-1.61l.33-.72c.07-.15.13-.3.2-.44.01-.03.02-.05.03-.08a113.288 113.288 0 0 0 2.29-5.48c.09-.24.18-.47.27-.71.17-.44.33-.88.49-1.31.12-.32.23-.63.34-.94l.09-.24c.02-.07.05-.14.07-.2 0-.02.02-.04.02-.07 0-.01 0-.02.01-.03.04-.12.09-.25.13-.37.05-.15.1-.3.16-.45l.15-.45c.05-.15.1-.29.15-.44.47.19.94.38 1.42.57.11.04.23.09.34.14.08.03.15.06.23.09.12.05.25.1.37.15.26.1.53.21.79.32.22.09.44.17.66.26.33.13.65.26.98.39.08.03.17.07.25.1.41.16.83.32 1.24.49.5.2 1 .39 1.5.59h.01c.48.19.96.37 1.44.56.52.2 1.05.41 1.57.61.34.13.67.26 1.01.39.41.16.82.32 1.23.47.09.03.18.07.26.1.21.08.41.16.62.24 1.44.55 2.85 1.09 4.2 1.61.11.04.23.09.34.13.75.29 1.47.57 2.18.83.66.25 1.3.5 1.91.74.07.03.14.05.21.08 2.18.84 4.04 1.58 5.4 2.15 7.71 3.24 12.11 5.94 14.87 11.01Z"/><path class="cls-1" d="M99.27 175.59c1.91-1.22 3.43-3.23 4.39-5.25 1.02-2.15 1.55-4.45 1.66-6.83.07-1.48-.05-2.98-.3-4.44-.15-.9-.37-1.97-1.04-2.63-1.96-1.93-4.99 1.09-3.02 3.02-.78-.77-.39-.86-.3-.34.03.21.11.41.15.62.06.28.1.57.14.86.13 1.19.15 2.39.06 3.59-.06.72-.23 1.63-.49 2.5-.12.41-.26.81-.41 1.2-.19.48.1-.19-.1.22-.09.2-.19.39-.29.59-.32.61-.7 1.19-1.11 1.75.34-.46-.16.18-.28.32-.16.18-.32.35-.49.52-.12.12-.6.71-.78.69.17.01.5-.37.16-.13l-.1.07c-2.31 1.47-.17 5.17 2.16 3.69Z"/><path class="cls-1" d="M100.18 174.61a1.584 1.584 0 0 1-.47.65c-.14.12-.29.23-.43.33-.33.25-.67.47-1.03.68-.26.16-.53.31-.8.45-.36.19-.71.37-1.07.56-2.34 1.2-4.76 2.26-7.21 3.27-.66.27-1.32.53-1.98.8l-1.98.78c-1.9.73-3.8 1.45-5.68 2.18-2.17.84-4.34 1.67-6.52 2.5-.8.31-1.6.61-2.4.92l-2.28.87c-.35.13-.7.27-1.05.4-.89.34-1.78.69-2.66 1.03-.9.35-1.79.7-2.68 1.06-.49.19-.98.39-1.47.59-2.6 1.05-5.3 2.22-7.85 3.67-.66.38-1.3.77-1.93 1.2-.25.17-.49.35-.74.52-.03.02-.2.15-.26.2 0 0-.01 0-.02.02a20.915 20.915 0 0 0-2.75 2.69c-.05.06-.09.11-.12.14s0 0-.01.02-.03.04-.05.07c-.08.11-.17.23-.24.34-.18.25-.35.51-.52.77-.31.49-.6 1-.86 1.51-.17.32-.32.65-.47.98 0 .02-.05.13-.09.22s-.02.04-.02.06v.04c-.05.12-.1.24-.14.37-.24.62-.45 1.25-.65 1.89a38.585 38.585 0 0 0-.64 2.33c-.21-.17-.42-.35-.63-.52-.39-.33-.79-.66-1.18-1-.6-.51-1.18-1.02-1.77-1.54 1.26-4.17 3.25-8.08 6.65-10.98.22-.19.44-.37.67-.55 1.17-.93 2.42-1.76 3.71-2.51 3.63-2.11 7.65-3.62 11.52-5.13.63-.25 1.26-.49 1.89-.73.33-.13.66-.25.98-.38.07-.03.14-.05.21-.08.47-.18.93-.36 1.4-.54l.54-.21c.66-.25 1.32-.51 1.98-.76h.02c.1-.03.19-.07.29-.11 4.36-1.67 8.72-3.33 13.06-5.05 1.04-.42 2.06-.82 3.05-1.22l.45-.18c1.91-.77 3.75-1.54 5.62-2.37 1.04-.46 2.07-.94 3.09-1.45l.36-.18c.43-.22.85-.45 1.26-.7.08-.05.17-.1.25-.16l.17-.11c.04-.02.07-.04.09-.06.1-.08.21-.15.32-.21s.08-.05.13-.07.03-.01.04-.02c.13-.06.27-.12.41-.15.26-.07.53-.1.8-.07.43.04.86.23 1.23.59.03.03.06.06.08.09.51.59.7 1.54.39 2.28Zm46.91-2.7s.52.45.09.06c-.27-.25-.54-.5-.79-.77a8.21 8.21 0 0 1-.48-.55c-.09-.1-.17-.21-.26-.32.37.46.04.05-.02-.04-.41-.59-.79-1.19-1.12-1.82-.64-1.23-1.23-3.04-1.43-4.6-.15-1.13-.17-2.28-.11-3.42.02-.31.04-.63.07-.94 0-.09.14-.98.05-.45l.18-.9c.23-1.13-.32-2.31-1.49-2.63-1.05-.29-2.4.36-2.63 1.49-1.29 6.43.16 14.48 5.8 18.56.94.68 2.38.16 2.92-.77.63-1.08.17-2.24-.77-2.92Z"/><path class="cls-1" d="M200.54 197.21c.63.79 1.19 1.61 1.69 2.47-.51.52-1.02 1.04-1.54 1.56-.53.52-1.06 1.04-1.59 1.55-.26-.51-.54-1-.84-1.48-.18-.29-.37-.57-.57-.84-.07-.09-.13-.18-.2-.27 0-.01-.02-.02-.02-.03-.01-.02-.03-.03-.05-.06-.79-.96-1.65-1.83-2.61-2.62-.09-.07-.17-.14-.26-.21l-.02-.02-.02-.02c-.08-.06-.2-.15-.23-.17-.25-.17-.49-.35-.74-.52-.57-.39-1.17-.75-1.76-1.1-1.34-.78-2.74-1.47-4.15-2.11-2.45-1.12-4.91-2.08-7.52-3.1l-1.23-.48c-.72-.28-1.45-.56-2.17-.84l-2.19-.84c-2.55-.98-5.1-1.95-7.65-2.93-1.41-.55-2.83-1.1-4.24-1.65-1.05-.41-2.1-.82-3.14-1.24-.18-.07-.36-.14-.54-.22-.66-.26-1.32-.53-1.98-.8-.66-.27-1.32-.54-1.97-.81-1.67-.69-3.34-1.4-4.99-2.15-.77-.35-1.55-.69-2.31-1.07-.65-.32-1.28-.66-1.89-1.04-.3-.18-.58-.38-.86-.59l-.24-.18a2.8 2.8 0 0 1-.2-.16c-.18-.15-.32-.33-.42-.53a.917.917 0 0 1-.09-.23c-.25-.75-.03-1.69.49-2.24l.02-.02c.24-.24.52-.41.81-.5.43-.14.9-.13 1.34.02.21.07.41.17.6.29.02 0 .03.02.05.03l.12.09s.02.01.03.02c.03.02.06.03.09.06l.42.27c.39.24.79.45 1.19.66l.12.06c2.95 1.53 5.92 2.82 8.96 4.04.2.08.4.16.59.24 1.31.52 2.63 1.03 3.96 1.54 1.36.52 2.74 1.04 4.13 1.58.01 0 .03 0 .04.02 3.55 1.37 7.11 2.71 10.67 4.07.08.03.17.06.25.1.63.24 1.26.49 1.89.73.61.24 1.22.48 1.84.72.07.03.14.05.2.08 1.31.52 2.61 1.04 3.91 1.57 5.34 2.2 11.1 4.67 14.8 9.31Zm-25.49-88.78c-.67-3.48-2.71-7.05-6.39-7.93-2.23-.54-4.45-.06-6.11 1.58-1.58 1.55-2.44 3.79-2.78 5.94-.18 1.14.29 2.3 1.49 2.63 1.02.28 2.45-.35 2.63-1.49.21-1.32.61-2.83 1.42-3.79.72-.85 1.3-.99 2.32-.72.95.25 1.66.86 2.22 1.81.63 1.07.97 2.33 1.17 3.66.97 6.65-1.03 14.2-5.63 19.21-1.14 1.24-2.45 2.37-3.89 3.28.07-.22.14-.45.2-.67.78-2.64-3.34-3.77-4.12-1.14-.46 1.57-.96 3.06-1.51 4.5-.1.17-.17.35-.21.54-.8 2.01-1.72 3.95-2.84 5.93-1.88 3.33-3.75 5.89-6.34 8.57a39.986 39.986 0 0 1-3.73 3.4c-.46.37-.19.16-.66.51-.34.25-.69.5-1.04.74a37.549 37.549 0 0 1-6.35 3.55c-.07.03-.1.05-.11.05-.03.01-.08.03-.16.06-.17.07-.35.14-.52.21-.38.15-.76.29-1.14.42-.73.26-1.47.49-2.22.7-1.52.43-3.05.73-4.61.97-.03 0-.06 0-.08.01h-.09l-.55.06c-.4.04-.79.08-1.19.11-.76.06-1.53.09-2.29.1-1.56.01-3.12-.09-4.67-.26-.06 0-.12-.01-.18-.02-.18-.03-.35-.05-.53-.08-.39-.06-.79-.13-1.18-.21-.79-.15-1.57-.33-2.34-.53-1.5-.39-2.98-.89-4.42-1.46-.07-.03-.23-.1-.29-.12-.14-.06-.27-.12-.41-.18-.4-.18-.8-.36-1.2-.56-.71-.35-1.42-.72-2.11-1.11-1.43-.81-2.81-1.72-4.13-2.71l-.27-.21c-.13-.1-.26-.2-.38-.3a42.302 42.302 0 0 1-2.84-2.53c-2.64-2.59-4.48-4.96-6.38-8.08-1.39-2.29-2.5-4.52-3.44-6.87-.02-.05-.04-.09-.06-.14-.45-1.14-.87-2.31-1.25-3.52-.32-1-.6-2-.87-3.02-.7-2.66-4.82-1.53-4.12 1.14.21.79.43 1.57.67 2.36-1.01-.6-1.96-1.3-2.84-2.09a21.002 21.002 0 0 1-5.55-8.22c-1.29-3.44-1.83-7.1-1.61-10.77.09-1.51.3-3.02.89-4.45.4-.96 1.08-1.87 1.87-2.32.41-.23.97-.4 1.43-.41.58-.02.9.1 1.24.38 1.17.96 1.63 2.69 1.87 4.21.18 1.14 1.6 1.77 2.63 1.49 1.22-.33 1.67-1.48 1.49-2.63-.59-3.76-3.15-8.04-7.49-7.71-4.01.3-6.57 3.4-7.57 7.09-1.15 4.23-.84 9.03.2 13.24 1.06 4.29 3.11 8.33 6.09 11.61 1.51 1.67 3.29 3.13 5.23 4.28 1.32.78 2.71 1.28 4.12 1.8 2.11 5 4.95 9.67 8.59 13.73 4.74 5.28 10.81 9.32 17.55 11.54 6.38 2.11 13.29 2.45 19.86 1.07 6.81-1.43 13.12-4.82 18.26-9.48 5.15-4.67 8.99-10.58 11.67-16.95 7.44-2.28 12.83-9.42 14.88-16.67 1.2-4.22 1.53-8.84.7-13.15Z"/><path class="cls-1" d="M104.12 67.43c4.3-3.4 10.4-4.74 15.56-2.61 4.36 1.8 7.84 5.16 11.02 8.6 7.09 7.67 12.43 16.75 18.75 25.05 3.34 4.39 6.9 8.6 11.31 11.96.92.7 2.39.14 2.92-.77.64-1.1.15-2.22-.77-2.92-.34-.26-.16-.13-.09-.07-.12-.09-.23-.18-.34-.28-.2-.16-.4-.33-.6-.5-.43-.37-.86-.74-1.27-1.13-.89-.83-1.75-1.69-2.58-2.59-1.64-1.76-3.25-3.72-4.66-5.56-3.32-4.34-6.38-8.88-9.54-13.34-3.18-4.49-6.45-8.95-10.2-12.98-3.4-3.67-7.4-7.29-12.05-9.28-6.95-2.98-14.7-1.19-20.49 3.39-.91.72-.75 2.27 0 3.02.89.89 2.11.72 3.02 0ZM83.04 108.6c1.51-13.1 6.19-26.07 15.27-35.84 1.87-2.01-1.14-5.04-3.02-3.02-7.61 8.19-12.49 18.48-14.94 29.34-.71 3.14-1.21 6.32-1.58 9.52-.13 1.15 1.08 2.14 2.14 2.14 1.26 0 2-.98 2.14-2.14Zm69.73-33.72c2.75 7.43 6.16 14.6 10.24 21.39 1.41 2.35 5.11.21 3.69-2.16-3.89-6.48-7.19-13.28-9.81-20.37-.4-1.08-1.45-1.82-2.63-1.49-1.04.29-1.89 1.54-1.49 2.63Zm2.81 103.79c-2.33 6.99-5.21 13.45-8.82 19.95-4.05 7.28-8.85 14.21-14.81 20.06-3.3 3.25-6.93 6.08-11 8.32h2.16c-7.22-3.98-13.21-9.94-18.14-16.5-4.91-6.54-8.95-13.73-12.3-21.18-1.52-3.38-2.92-6.93-4.14-10.62-.36-1.09-1.47-1.81-2.63-1.49-1.07.29-1.86 1.53-1.49 2.63 2.44 7.33 5.61 14.45 9.37 21.2 4.31 7.72 9.51 15.11 15.92 21.24 3.13 2.99 6.58 5.71 10.33 7.88.62.36 1.27.82 2.01.82s1.39-.46 2.01-.82c.93-.54 1.84-1.11 2.72-1.71 1.87-1.27 3.67-2.66 5.38-4.14 6.65-5.76 12.04-12.94 16.54-20.46 4.52-7.57 8.24-15.68 11.03-24.05.87-2.61-3.25-3.74-4.12-1.14Z"/><ellipse class="cls-3" cx="163.86" cy="134" rx="4.55" ry="4.49"/><path class="cls-1" d="M170.55 134c0-.16 0-.3-.03-.44-.24-2.65-1.9-4.86-4.44-5.8-2.51-.93-5.56-.12-7.28 1.92-1.81 2.15-2.17 5.26-.69 7.7 1.48 2.45 4.33 3.62 7.11 3.11 2.96-.55 5.03-3.14 5.3-6.05.02-.14.03-.28.03-.44Zm-6.69 2.36c-1.33 0-2.4-1.06-2.41-2.36-.01-1.3 1.1-2.36 2.41-2.36s2.38 1.06 2.41 2.36c-.04 1.3-1.06 2.36-2.41 2.36Z"/><ellipse class="cls-3" cx="79.22" cy="134" rx="4.55" ry="4.49"/><path class="cls-1" d="M85.9 134c0-.16 0-.3-.03-.44-.24-2.65-1.9-4.86-4.44-5.8-2.51-.93-5.56-.12-7.28 1.92-1.81 2.15-2.17 5.26-.69 7.7 1.48 2.45 4.33 3.62 7.11 3.11 2.96-.55 5.03-3.14 5.3-6.05.02-.14.03-.28.03-.44Zm-6.68 2.36c-1.33 0-2.4-1.06-2.41-2.36-.01-1.3 1.1-2.36 2.41-2.36s2.38 1.06 2.41 2.36c-.04 1.3-1.06 2.36-2.41 2.36Zm22.56-33.88c.4-.08.79-.16 1.19-.23.24-.05.46-.05.09-.02.19-.02.39-.04.58-.04 1.05-.05 2.12.07 3.16.17 1.15.11 2.14-1.06 2.14-2.14 0-1.25-.98-2.03-2.14-2.14-2.15-.2-4.05-.14-6.16.28-1.13.22-1.78 1.57-1.49 2.63.32 1.18 1.49 1.72 2.63 1.49Zm40.08-4.12c-2.11-.42-4.01-.48-6.16-.28-1.15.11-2.14.9-2.14 2.14 0 1.07.98 2.25 2.14 2.14 1.05-.1 2.11-.22 3.16-.17.17 0 .33.02.5.04.16.01-.4-.08.09.02.43.08.85.16 1.28.25 1.13.22 2.31-.32 2.63-1.49.29-1.05-.35-2.4-1.49-2.63Z"/><ellipse class="cls-1" cx="121.63" cy="128.3" rx="2.96" ry="2"/><path class="cls-1" d="M107.2 108.52c-1.79-2.55-4.58-1.94-5.92.17-1.51 2.35-1.31 6.51.2 8.84.52.76 1.24 1.22 2.09 1.38 3.32.61 4.7-2.57 4.68-5.2 0-1.6-.11-3.85-1.05-5.18Zm34.18 0c-1.79-2.55-4.58-1.94-5.92.17-1.51 2.35-1.31 6.51.2 8.84.52.76 1.24 1.22 2.09 1.38 3.32.61 4.7-2.57 4.68-5.2 0-1.6-.11-3.85-1.05-5.18Z"/><path class="cls-4" d="M185.16 168.04c0 2.44-.2 4.85-.68 7.17-.04.23-.09.45-.15.67-.09.41-.2.82-.31 1.22-.14.51-.3 1.02-.47 1.52a22.7 22.7 0 0 1-1.39 3.25c-.19.37-.39.73-.61 1.09-.18.31-.37.61-.57.91l-.3.45c-.03.04-.05.08-.08.12-.26.37-.54.74-.82 1.1-.12.15-.24.3-.36.44-.12.15-.24.29-.37.43-.12.14-.25.29-.38.43s-.25.28-.38.42c-.47.51-.95 1.01-1.44 1.5l-.16.16c-2.14 2.13-4.39 4.17-6.22 6.57-.98 1.29-1.67 2.79-2.1 4.36-.69 2.54-.7 5.28-.2 7.62.42 1.35.86 2.7 1.29 4.04.87 2.69 1.71 5.39 2.34 8.14.18.79.34 1.59.48 2.39-.66.35-1.32.69-1.99 1.02-5.19 2.6-10.6 4.82-16.19 6.63-.68.22-1.36.43-2.04.64-1.94-7.01-4.75-13.52-7.36-20.32-.31-.81-.62-1.63-.92-2.45-.04-.12-.09-.24-.14-.37-.27-.73-.5-1.47-.71-2.21-2.36-8.41-.93-17.62 1.78-25.77.35-1.05.71-2.07 1.08-3.06.03-.07.05-.13.08-.2 0-.03.02-.05.03-.08.23-.59.45-1.17.69-1.74.25-.61.5-1.21.75-1.8.03-.06.05-.12.08-.18 2.62-6.06 5.53-11.31 8.13-18.18l1.96.82 9.09 3.78 1.61.67 1.59.66 13.17 5.48.18.08 1.96.81v.24c0 .22.01.43.02.65v.87Zm-82.12 39.8c-.16.95-.36 1.9-.59 2.83-.21.88-.46 1.74-.74 2.6-.85 2.62-2 5.15-3.48 7.51-2.36 3.77-5.45 7.01-8.35 10.38-.23.26-.45.53-.68.8-.76-.19-1.51-.38-2.26-.59-2.33-.63-4.63-1.33-6.91-2.1-.68-.23-1.36-.46-2.03-.71.47-1.51 1.02-2.99 1.63-4.44 5.64-11.81 5.77-15.79 5.77-15.79.75-3.6-.55-7.4-2.73-10.36-2.18-2.96-5.17-5.22-8.18-7.34-1.35-.95-2.65-1.91-3.9-2.91l-.16-.13c-.57-.47-1.13-.94-1.67-1.43-.1-.09-.2-.19-.3-.28l-.06-.06c-.08-.07-.16-.15-.24-.22l-.53-.5c-.19-.19-.39-.38-.57-.57l-.02-.02-.05-.05c-.07-.07-.14-.14-.21-.22-.02-.03-.05-.05-.08-.08s-.09-.1-.13-.14l-.31-.34c-.19-.21-.37-.42-.56-.63-.12-.13-.23-.27-.35-.41 0-.01-.02-.03-.03-.04-.07-.09-.14-.17-.21-.26-.02-.02-.03-.04-.05-.06l-.13-.16c-.25-.31-.5-.64-.73-.97-.11-.15-.22-.31-.33-.47-.03-.04-.06-.08-.09-.13-.1-.15-.2-.3-.3-.44l-.17-.26s0-.02-.01-.02c-.05-.09-.11-.17-.16-.26-.22-.36-.44-.73-.65-1.11l-.27-.51-.06-.12c-.07-.13-.13-.25-.19-.38l-.09-.18s0-.02-.01-.03c-.03-.08-.07-.16-.11-.23-.04-.09-.08-.17-.12-.26 0-.02-.02-.05-.03-.07-.09-.19-.17-.39-.25-.58-.04-.1-.09-.21-.13-.31-.04-.1-.08-.21-.12-.32-.21-.55-.4-1.1-.57-1.65-.03-.09-.05-.18-.08-.27-.06-.22-.13-.43-.18-.65l-.09-.33c-.12-.46-.23-.92-.32-1.39-.02-.11-.05-.23-.07-.35-.02-.12-.05-.24-.07-.37l-.06-.35c-.02-.14-.05-.29-.07-.43-.01-.09-.03-.17-.04-.25l-.06-.43c-.01-.1-.03-.2-.04-.31l-.06-.47-.06-.55c-.02-.18-.03-.36-.05-.55 0-.1-.02-.2-.02-.31-.03-.39-.05-.79-.07-1.18 0-.11 0-.23-.01-.34 0-.15 0-.29-.01-.44s0-.33 0-.33v-1.35c0-.2 0-.41.01-.61 0-.2.01-.41.02-.61 0-.11 0-.22.01-.33 0-.26.02-.53.04-.79v-.1l.06-.87.98-.16.98-.16.2-.03 24.84-3.96 2.13-.34c2.34 5.8 5.33 11.32 8.04 17.12.01.03.03.06.04.09.02.03.03.07.05.11.27.58.54 1.17.81 1.77.24.54.48 1.08.72 1.63l.06.15c.03.06.05.13.08.19 1.36 3.18 2.58 6.48 3.52 9.98 1.88 6.98 2.5 14.5 1.28 21.59Z"/><path class="cls-1" d="M185.81 178.61a25.98 25.98 0 0 1-3.99 7.72c-.44.6-.91 1.18-1.41 1.75-.3.35-.61.69-.93 1.03-.2.22-.41.43-.63.65-2.66 2.68-5.92 5.18-7.65 8.56-1.35 2.63-1.58 5.83-.94 8.74.14.65.32 1.28.55 1.88.38 1.04-.38 2.24-1.36 2.59-.04.02-.09.03-.13.04-1.03.28-1.96-.24-2.44-1.1-.07-.12-.13-.26-.18-.39-.26-.69-.46-1.41-.62-2.13-.67-3.02-.52-6.29.39-9.19.31-.97.71-1.89 1.2-2.75 1.51-2.71 3.78-4.92 6.01-7.11.27-.27.55-.54.82-.81l.16-.16c.5-.49.98-.99 1.46-1.5.47-.5.93-1 1.37-1.52.06-.07.11-.13.16-.2 1.3-1.55 2.43-3.23 3.27-5.14 1.94-4.42 2.37-9.32 2.06-14.18-.18-2.87-.61-5.71-1.14-8.43-1.83-9.44-3.02-18.94-3.88-28.52-.86-9.58-1.51-19.17-2.66-28.72-1.07-8.9-2.9-17.75-5.83-26.23-2.56-7.4-5.93-14.67-11.07-20.65-4.72-5.5-10.67-9.84-17.28-12.81-6.59-2.96-14.12-4.14-21.3-4.02-13.06.2-25.78 6.64-34.38 16.4-9.27 10.52-14.09 24.74-16.66 38.3-1.73 9.14-2.53 18.42-3.23 27.69-.72 9.53-1.42 19.06-2.55 28.55-.49 4.14-1.21 8.37-1.55 12.59l-.09 1.27c-.07 1.12-.1 2.24-.09 3.35.01 1.5.1 2.98.3 4.46.21 1.61.55 3.21 1.05 4.79a21.22 21.22 0 0 0 3.09 6.12c.53.74 1.1 1.45 1.7 2.14a32.405 32.405 0 0 0 1.92 1.99c.06.05.12.11.17.17.52.49 1.05.97 1.6 1.44.55.48 1.12.94 1.7 1.4l.18.15c1.29 1.02 2.63 2 3.97 2.98 3.43 2.5 6.8 5.33 8.83 9.14 1.02 1.91 1.69 3.97 1.9 6.14.11 1.15.01 2.26-.15 3.4 0-.09.02-.18 0-.03-.57 3.7-1.84 7.17-3.29 10.63-1.43 3.42-3.06 6.7-4.2 10.22-.68-.23-1.36-.46-2.03-.71-.67-.24-1.33-.48-1.99-.74.64-2.03 1.43-4.02 2.33-5.96 1.44-3.09 2.8-6.23 3.86-9.47.44-1.36.72-2.72 1.06-4.1.02-.18.04-.37.07-.55.31-1.94.02-3.87-.75-5.68-1.62-3.81-4.97-6.58-8.25-8.94-2.04-1.47-4.1-2.93-6.02-4.55-.23-.19-.46-.39-.69-.59-.37-.32-.74-.65-1.1-.99-.2-.19-.41-.38-.61-.58-.25-.24-.49-.49-.73-.74-.1-.11-.2-.22-.3-.32-.21-.23-.42-.45-.62-.69-2.33-2.66-4.16-5.69-5.38-9.03-1.52-4.16-1.97-8.69-1.85-13.09v-.24c.02-.71.06-1.43.11-2.14.05-.71.11-1.43.18-2.14.32-3.21.83-6.39 1.23-9.59.61-4.93 1.1-9.86 1.53-14.81 1.63-18.71 1.96-37.91 7.53-56 4.01-13 10.39-25.78 21.24-34.38 2.64-2.09 5.44-3.95 8.43-5.5 3.07-1.59 6.36-3.1 9.67-4.13 7.39-2.31 15.45-2.33 23.04-1.16 15.12 2.33 28.57 11.34 36.57 24.38 4.62 7.54 7.62 16.18 9.76 24.72 2.35 9.36 3.45 18.94 4.33 28.53.9 9.76 1.54 19.54 2.69 29.27.57 4.84 1.29 9.66 2.21 14.44.81 4.18 1.55 8.36 1.69 12.63.14 4.07-.22 8.25-1.45 12.15Z"/><path class="cls-1" d="M157.62 154.55c-.03.08-.06.17-.1.25-2.41 6.29-5.59 12.25-8.24 18.43-.03.06-.05.13-.08.2-.25.59-.5 1.18-.74 1.78-.24.6-.47 1.19-.7 1.8-.03.07-.06.14-.08.22-.19.51-.38 1.02-.56 1.54-2.52 7.25-4.17 15.25-2.77 22.92.05.27.1.54.16.8.21.96.46 1.9.75 2.84.27.87.57 1.72.88 2.58.63 1.71 1.33 3.4 1.99 5.08 1.51 3.82 3.04 7.64 4.36 11.53.58 1.72 1.12 3.45 1.61 5.2-.68.22-1.36.43-2.04.64-.66.2-1.33.4-2 .59-1.1-3.89-2.5-7.7-3.93-11.41-.96-2.48-1.95-4.95-2.91-7.43-.31-.8-.62-1.59-.92-2.39-.16-.42-.32-.84-.47-1.25-.15-.39-.29-.79-.42-1.18-1.13-3.39-1.72-6.9-1.8-10.48-.18-7.51 1.7-14.97 4.41-21.93.02-.05.03-.1.05-.14.01-.03.03-.07.04-.1.08-.21.17-.42.25-.63.17-.43.34-.85.52-1.27.14-.33.28-.66.42-.98.14-.32.28-.64.42-.97.03-.07.06-.15.1-.22 2.53-5.73 5.45-11.28 7.68-17.14.41-1.08 1.43-1.82 2.63-1.49 1.04.29 1.9 1.55 1.49 2.63Zm16.62 66.46c-.65.36-1.3.71-1.96 1.05-.66.35-1.32.69-1.99 1.02-.1-.62-.21-1.24-.34-1.84-.76-3.66-1.92-7.21-3.07-10.77-.27-.84-.54-1.68-.81-2.53-.66-2.12-1.28-4.25-1.77-6.41-1.34-5.94-1.83-11.98-1.7-18.02v-.22c.01-.68.04-1.35.07-2.03.03-.67.07-1.34.11-2.01 0-.07 0-.13.01-.2.44-6.47 1.5-12.92 2.89-19.23.12-.53.47-.96.92-1.23.51-.3 1.14-.42 1.71-.26.8.22 1.32.85 1.49 1.59.08.33.08.69 0 1.04-1.42 6.49-2.48 13.06-2.84 19.69 0 .08 0 .15-.01.23-.03.67-.06 1.34-.08 2.01-.02.68-.03 1.37-.03 2.05v.3c0 3.64.27 7.22.82 10.76.2 1.29.43 2.58.7 3.86.46 2.18 1.03 4.35 1.69 6.51.07.23.14.46.21.68 1.44 4.62 3.05 9.22 3.97 13.95Zm-69.49-10.8c-.19.88-.42 1.75-.67 2.62-.24.82-.51 1.63-.81 2.44-.48 1.3-1.02 2.57-1.65 3.83-2.54 5.1-6.5 9.13-10.13 13.42-.77-.17-1.53-.36-2.29-.55-.76-.19-1.51-.38-2.26-.59 3.92-4.77 8.4-9.11 11.13-14.73.86-1.77 1.54-3.62 2.06-5.51.26-.93.47-1.86.66-2.81.2-1.03.36-2.08.47-3.12.32-2.83.34-5.7.14-8.52-.48-6.71-2.41-13.22-5.03-19.39-.03-.07-.06-.13-.09-.2-.17-.4-.35-.81-.52-1.21-.08-.18-.17-.37-.25-.56-.26-.58-.53-1.17-.8-1.75-.03-.07-.06-.13-.09-.2-2.74-5.87-5.8-11.58-8.23-17.58-.03-.07-.05-.15-.07-.23-.24-1.02.62-2.14 1.56-2.4 1.21-.33 2.19.42 2.63 1.49 2.26 5.56 5.07 10.86 7.64 16.28.03.07.07.14.1.21.08.16.15.32.23.49.21.45.42.91.63 1.37.28.6.55 1.21.82 1.82s.04.09.06.14c.01.03.03.06.04.1.26.6.52 1.21.77 1.82 4.28 10.41 6.42 22.3 3.96 33.34Z"/><path class="cls-3" d="M132.28 136.95s-9.7 22.58-20.84.14c0 0 11.2 1.48 20.84-.14Z"/><path class="cls-1" d="M134.34 136.38c-.09-.33-.24-.6-.44-.82-.03-.03-.05-.06-.08-.09l-.01-.01a2 2 0 0 0-.45-.35c-.43-.25-1.01-.33-1.55-.23-.03 0-.07 0-.1.01-6.6 1.09-13.64.93-20.27.06-1.74-.23-2.48 1.95-1.84 3.21 2.6 5.18 7.19 12.31 14.02 10.77 4.07-.91 7.04-4.73 9.06-8.14.53-.9 1.04-1.82 1.45-2.78 0-.02.02-.05.03-.07a2.3 2.3 0 0 0 .19-1.58Zm-15.6 7.3c-.08-.06-.16-.13 0 0Zm8.89-2.96-.27.36-.34.42c-.57.69-1.19 1.34-1.87 1.92-.08.07-.17.14-.25.2-.16.11-.32.23-.49.34-.16.1-.32.2-.49.3-.07.04-.35.18-.49.25-.12.04-.36.14-.42.16-.18.06-.36.11-.54.15-.08.02-.15.03-.23.05-.22.01-.44.03-.67.02-.19 0-.81-.14-.23 0-.2-.05-.4-.08-.59-.13-.09-.03-.59-.21-.56-.19-.21-.1-.41-.2-.61-.32-.27-.16-.53-.33-.78-.51-.01 0-.03-.02-.05-.04a14.919 14.919 0 0 1-2.1-2.15c-.49-.61-.94-1.25-1.36-1.92 4.35.36 8.77.36 13.11-.06a.95.95 0 0 0-.1.17c-.22.33-.44.66-.67.98Z"/><path class="cls-3" d="M60.01 205.89c-.01.17-.03.36-.03.57-.02.37-.04.79-.05 1.26-.01.38-.03.79-.03 1.23-.07 2.78-.09 6.74-.1 11.29a119.508 119.508 0 0 1-12.06-7.84c-.89-.66-1.77-1.33-2.64-2.02.49 0 .98-.03 1.46-.05h.05c.23-.01.47-.03.7-.05l.72-.06c.24-.02.47-.05.7-.07h.09c.19-.02.39-.05.58-.07.25-.03.5-.07.74-.1.17-.03.35-.05.52-.08.18-.03.36-.06.53-.09.2-.03.39-.07.58-.11.37-.08.74-.16 1.09-.24.12-.03.24-.06.35-.09.24-.06.47-.12.7-.18.05-.01.09-.03.14-.04.11-.03.23-.06.34-.1.22-.06.43-.13.64-.2.18-.06.36-.12.53-.18.29-.1.57-.21.84-.32.09-.03.18-.07.27-.11l.15-.06c.09-.03.17-.07.25-.11.2-.09.4-.18.58-.28.04-.02.09-.04.13-.07.83-.43 1.47-.89 1.89-1.34.15-.16.27-.32.36-.48ZM38.17 157.2c1.79-.26 3.57.35 5.09 2.32 1.02 1.01 2.59 4.68 3.81 8.85-.59.87-1.13 1.72-1.55 2.67-1.43 3.19.8 5.74 3.02 5.69.97-.02 1.87-.2 2.71-.49l1.04.08c-1.34 1.77-2.33 3.55-2.99 5.65l-.88-.28c-.68 1.74-2.19 2.27-4.93.62h-.53c0-.18-.02-.35-.04-.53-.19-6.4-4.02-18.63-11.25-19.92.07-.39.76-1.14.76-1.14 1.65-1.81 3.7-3.23 5.74-3.52Z"/><path class="cls-3" d="M31.67 161.86c7.23 1.29 11.05 13.52 11.25 19.92.02.18.03.35.04.52.22 5.14-4.97 4.99-7.39 1.14-.29-1.51-.91-3.29-1.93-5.3-2.19-4.08-5.64-8.91-10.49-9.49.11-1.21.53-2.22.53-2.22 1.1-2.71 3.91-4.64 6.83-4.68.4 0 .79.04 1.16.11Zm19.88.86c-1.63 1.67-3.05 3.52-4.48 5.65-1.22-4.16-2.79-7.84-3.81-8.85-1.52-1.97-3.3-2.58-5.09-2.32-.04-5.07-.78-10.78-2.16-15.71-.77-2.74-1.74-5.54-1.34-8.32.17-1.16.79-2.26 1.98-2.8 1.15-.53 2.6-.49 3.56.23 3.94 2.95 5.23 8.45 6.08 12.92 1.14 6.02 2.78 13.08 5.26 19.2Z"/><path class="cls-3" d="M67.5 181.39c-.02.09-.04.19-.07.29-.02.1-.05.2-.08.3-.17.66-.39 1.39-.65 2.2-.06.19-.12.38-.19.58-.16.47-.32.96-.5 1.47-.03.07-.05.14-.08.22-.11.31-.22.63-.34.95-.31.85-.64 1.74-.98 2.64-1.76 4.64-3.92 9.88-5.53 13.96-.57 1.43-1.06 2.71-1.45 3.78-.19.09-.38.19-.58.28-.08.04-.17.07-.25.11l-.15.06c-.09.04-.18.07-.27.11-.27.11-.55.21-.84.32-.17.06-.35.12-.53.18-.21.07-.42.13-.64.2-.11.03-.22.07-.34.1-.05.01-.09.03-.14.04-.23.06-.46.12-.7.18l-.35.09c-.36.08-.72.16-1.09.24-.19.04-.38.08-.58.11-.17.03-.35.06-.53.09-.17.03-.34.06-.52.08-.24.04-.49.07-.74.1-.19.03-.38.05-.58.07h-.09c-.23.03-.47.05-.7.07l-.72.06c-.23.02-.46.03-.7.05h-.05c-.48.03-.97.05-1.46.05-.69-.54-1.37-1.09-2.05-1.65-.21-.17-.42-.35-.63-.52-.39-.33-.79-.66-1.18-1-.6-.51-1.18-1.02-1.77-1.54-7.52-6.7-14.17-14.34-19.77-22.74-1.04-1.56-2.04-3.14-3.01-4.76-.05-.63-.04-.97-.04-.97.15-2.04.21-3.85 1.23-5.67.78-1.4 2.17-2.18 3.14-2.58.61-.25 1.05-.35 1.05-.35.37 0 .74.01 1.1.06.23.03.45.06.67.11.06.01.12.03.18.04.15.03.29.07.43.11.08.02.17.05.25.08.17.05.33.11.49.17.12.04.23.09.35.14.12.05.23.1.35.16.11.06.23.11.34.17.11.06.23.12.34.19a5.805 5.805 0 0 1 .36.22c.1.06.2.13.3.2.21.15.42.3.63.46l.3.24c.1.08.2.17.3.25.2.17.39.35.58.54l.03.03.25.25c.07.07.14.15.21.22.08.08.16.17.23.25.08.08.15.16.22.24.45.51.88 1.04 1.28 1.59.07.09.14.19.21.28.53.75 1.02 1.51 1.46 2.27.05.09.11.18.16.28.05.08.1.16.14.24.07.12.14.24.2.36.07.13.14.26.21.38.23.45.44.89.63 1.32.04.09.08.19.12.28.03.07.06.14.09.22.05.12.1.23.14.35.03.08.06.16.1.24.03.07.06.14.08.22.14.37.26.74.37 1.09.03.11.06.21.09.31.04.14.08.27.11.4.02.09.04.17.06.25 0 .03.01.05.02.08l.06.26.06.29.12.18.12.18c.03.04.06.09.09.13l.12.15.12.15c.11.13.23.26.34.38l.12.12c.12.11.24.22.36.32l.12.09.12.09c.03.03.07.05.1.08.18.13.37.25.56.35.23.13.47.24.71.32l.09.03c.25.09.49.15.74.18.03 0 .07 0 .1.01.03 0 .06 0 .09.01.23.03.47.03.69 0 .05 0 .09 0 .14-.02.05 0 .1-.01.14-.02.1-.02.2-.04.29-.07.05-.01.09-.03.14-.04.12-.04.23-.09.34-.15.03-.01.06-.03.09-.05.11-.06.22-.14.33-.22.04-.03.07-.06.11-.09.04-.04.09-.08.13-.12l.08-.08c.04-.04.07-.08.11-.13l.09-.12c.03-.03.05-.07.07-.11.11-.17.21-.37.3-.58.01-.03.03-.06.04-.1v-.06c.01-.04.03-.08.04-.11.01-.04.03-.08.04-.12.02-.05.03-.1.04-.16 0-.02.01-.05.02-.07l.03-.15c.01-.06.03-.13.03-.2.05-.36.07-.75.05-1.18h.53c.57.36 1.09.61 1.56.77.17.06.34.11.5.15.27.06.52.09.76.09h.19c.05 0 .1 0 .15-.02h.01c.03 0 .05 0 .08-.01h.04c.04 0 .08-.02.11-.03.12-.03.23-.07.33-.12.04-.02.07-.03.11-.05.04-.02.07-.04.11-.06.03-.02.05-.03.08-.05.02-.01.03-.02.05-.04.02-.02.04-.03.06-.05.02-.02.04-.03.06-.05l.06-.06c.11-.1.21-.22.29-.34.02-.03.04-.06.07-.1 0-.01.02-.03.03-.04.03-.04.05-.08.07-.12.03-.04.05-.09.07-.14v-.02c.02-.05.04-.09.06-.14.02-.05.04-.1.07-.16l.88.28c.08-.26.17-.52.26-.77.03-.09.07-.18.1-.27.02-.06.05-.13.07-.19l.06-.15c.04-.1.08-.19.12-.28.01-.03.03-.06.04-.09.04-.09.08-.17.12-.26.03-.06.06-.13.09-.19.02-.04.04-.09.06-.13l.12-.24c.12-.24.25-.49.39-.73.09-.15.17-.3.26-.45.11-.19.23-.37.35-.56.13-.2.26-.39.4-.59 0-.01.02-.03.03-.04.05-.08.11-.16.17-.23.05-.08.11-.15.16-.23.06-.08.12-.17.18-.25l-1.04-.08c-.1.03-.2.07-.3.1h-.03c-.08.02-.15.04-.23.07-.1.03-.2.05-.3.08-.07.02-.15.03-.23.05-.16.03-.33.07-.49.09-.07 0-.13.02-.2.03-.08 0-.15.02-.23.03-.1 0-.2.02-.3.03h-.13c-.09 0-.18 0-.27.01-.13 0-.26 0-.39-.02-.11 0-.21-.03-.32-.05-.05-.01-.1-.03-.16-.04-.14-.04-.28-.09-.42-.15-.04-.02-.08-.03-.11-.05-.04-.02-.08-.04-.13-.06-.07-.03-.14-.08-.2-.12-.03-.02-.07-.04-.1-.07-.05-.03-.09-.06-.13-.09-.05-.04-.1-.08-.16-.12-.02-.02-.04-.03-.06-.05-.03-.03-.06-.05-.09-.08a3.42 3.42 0 0 1-.44-.49c-.02-.02-.03-.04-.05-.07-.04-.05-.07-.1-.1-.15-.03-.04-.05-.09-.08-.13-.03-.05-.06-.1-.09-.16s-.07-.13-.1-.19c-.02-.04-.04-.09-.06-.14-.02-.04-.03-.09-.05-.13a3.58 3.58 0 0 1-.11-.35c0-.03-.02-.06-.02-.09l-.03-.13c-.03-.14-.05-.29-.06-.44 0-.05 0-.1-.01-.16v-.2c0-.62.14-1.28.45-1.98.05-.12.11-.24.17-.35.06-.12.11-.23.17-.34l.15-.27.12-.21c.07-.13.15-.25.22-.38.15-.24.3-.48.46-.72.09-.13.18-.27.27-.4.15-.22.29-.43.44-.64.11-.17.23-.33.34-.49.26-.37.52-.73.78-1.08.02-.03.04-.05.06-.08.11-.15.23-.3.34-.45.13-.17.27-.34.4-.51.14-.17.27-.34.41-.5.14-.17.27-.33.41-.49.09-.1.18-.21.27-.31.33-.38.67-.74 1.02-1.1.53-.55 1.08-1.07 1.66-1.58.07-.07.15-.13.22-.2 1.29-1.11 2.54-1.23 3.72-.74l.21.09c.64.3 1.26.77 1.84 1.35.66.64 1.29 1.42 1.86 2.22.07.1.15.2.22.31 1.19 1.7 2.17 3.49 2.86 4.47 1.74 2.47 3.55 5.09 3.83 8.1.15 1.56-.13 3.13-.48 4.65Z"/><path class="cls-1" d="M62.15 205.89c-.2 2.7-.17 5.42-.19 8.12-.02 2.47-.03 4.94-.03 7.4-.71-.39-1.42-.78-2.13-1.18-.73-.41-1.45-.83-2.17-1.26-.02-2.96-.04-5.92.04-8.88-3.12 1.33-6.53 2.03-9.93 2.3-.89-.66-1.77-1.33-2.64-2.02-.69-.54-1.37-1.09-2.05-1.65-.21-.17-.42-.35-.63-.52.25.02.5.03.76.04 2.79.1 5.62-.14 8.17-.67.95-.2 1.9-.43 2.83-.72.4-.13.8-.26 1.2-.41.19-.07.38-.15.57-.22s.1-.04.14-.07c.6-.29 1.16-.62 1.73-.97l.01-.02c.07-.08.16-.16.24-.23.02-.02.04-.03.06-.05.01-.02.03-.05.05-.09.22-.38.55-.65.91-.81.7-.31 1.57-.23 2.2.16.55.35.93.93.87 1.72Z"/><path class="cls-1" d="M69.86 175.05c-.73-3.32-2.92-5.9-4.66-8.72-1.35-2.18-2.67-4.47-4.53-6.26-2.03-1.95-4.8-3.02-7.44-1.59-.27.15-.54.32-.8.5-1.27-3.66-2.26-7.42-3.09-11.2-.89-4.01-1.38-8.17-2.92-12-1.54-3.8-4.69-8.84-9.5-7.76-6.04 1.36-4.49 8.68-3.26 12.95 1.37 4.78 2.16 9.65 2.35 14.61-.66.25-1.29.57-1.87.93-1.14.72-2.68 1.83-3.66 3.12-2.14.02-4.2.81-5.91 2.18-1.58 1.26-2.58 2.89-3.12 4.72-.03 0-.07.02-.1.02a9.452 9.452 0 0 0-4.02 2.23c-1.57 1.48-2.34 3.67-2.65 5.86a93.38 93.38 0 0 0 2.02 3.5c.97 1.61 1.97 3.2 3.01 4.76-.15-.55-.28-1.11-.4-1.67-.08-.39-.16-.78-.23-1.18-.04-.21-.07-.41-.1-.62-.01-.08-.03-.25-.05-.37-.07-.62-.15-1.25-.14-1.88.02-1.5.17-3.29.93-4.6.29-.49.64-.85 1.04-1.11.27-.18.56-.34.85-.49.04-.02.08-.04.11-.06.11-.04.22-.09.34-.13.12-.04.25-.07.37-.11s.1.02.17.03c.64.09 1.34.2 1.98.46 1.36.56 2.55 1.58 3.57 2.68 2.2 2.37 4.01 5.44 4.96 8.52.13.43.25.86.34 1.29l.12.6c.01.09.02.14.03.16s0 .08 0 .18c.02.34.03.68.02 1.02 0 .11-.01.22-.02.32v-.17c0 .03-.03.26-.04.33-.06.21-.36.8-.09.38a.72.72 0 0 1-.12.21c-.02.02-.03.04-.05.05h-.09c-.06-.02-.12-.04-.19-.05-.06-.02-.11-.03-.17-.04-.03 0-.05-.01-.07-.02s0 0-.02 0c-.26-.16-.53-.29-.79-.46l-.16-.11c-.13-.11-.26-.23-.39-.34-1.48-1.35-2.52-3.07-3.45-4.83-1.28-2.43-4.97-.28-3.69 2.16 1.62 3.07 4.09 6.92 7.72 7.82 2.53.62 4.67-.8 5.48-3.05.38.16.78.3 1.2.38 1.76.37 3.62-.02 4.89-1.35.5-.52.84-1.11 1.07-1.74.58.17 1.17.27 1.75.26-.29 2.45-.26 4.95-.11 7.4.07 1.15.93 2.14 2.14 2.14 1.1 0 2.21-.98 2.14-2.14-.19-3.12-.24-6.28.48-9.19.58-2.35 1.54-4.16 3.08-6.23.07-.09.12-.19.16-.29 1.02-.62 1.96-1.33 2.74-2.01.87-.76.78-2.24 0-3.02-.86-.86-2.15-.76-3.02 0-1.02.89-2.17 1.71-3.46 2.14-.66.22-1.32.35-2.02.38-.05 0-.23-.02-.22 0a.983.983 0 0 1-.16-.05c.01 0-.41-.23-.31-.16-.68-.55-.84-1.42-.37-2.52.68-1.56 1.81-3 2.82-4.37.92-1.24 1.92-2.41 3.01-3.51.5-.5 1.17-1.17 1.6-1.51-.01 0 .35-.23.48-.3.01 0 .03-.01.04-.02l.33-.09h.21c.1.03.2.05.3.08.06.02.1.03.11.03.03.02.06.04.1.06.2.12.4.24.6.37.04.04.29.23.35.29.18.16.35.33.51.5.2.2.38.41.57.63.09.11.18.22.28.33.05.06.08.1.09.11 0 0 0 .01.04.06 1.2 1.58 2.13 3.34 3.24 4.98 1.71 2.53 3.78 5.1 3.73 8.32-.04 2.34-.86 4.7-1.61 6.91-.81 2.38-1.71 4.74-2.62 7.08-2.03 5.2-4.24 10.33-6.14 15.58-.39 1.09.44 2.34 1.49 2.63 1.19.33 2.23-.4 2.63-1.49 1.93-5.33 4.18-10.55 6.24-15.83 1.02-2.62 2.02-5.25 2.89-7.93 1-3.11 1.82-6.44 1.11-9.7Zm-36.73 11.73s-.06-.03-.08-.03c.03 0 .1.03.15.05-.03 0-.05 0-.07-.01Zm4.09-54.29c1.22-1.12 2.53.42 3.27 1.32.99 1.21 1.69 2.69 2.21 4.16 1.23 3.48 1.7 7.19 2.49 10.79 1.01 4.57 2.23 9.11 3.9 13.49-.43.48-.85.98-1.25 1.48-1.29-3.6-3.2-7.25-6.86-8.42-.24-.08-.47-.13-.71-.18-.16-3.89-.67-7.78-1.52-11.58-.48-2.16-1.2-4.26-1.69-6.42-.28-1.22-.85-3.7.17-4.64Zm5.83 39.35c-.73-2.05-1.66-4.02-2.82-5.82-1.27-1.97-2.93-3.85-4.97-5.05.39-.33.8-.63 1.24-.89.69-.41 1.26-.68 2.09-.79.33-.04 1.07.05 1.42.21.76.35 1.3.99 1.82 1.63.09.13.18.27.27.41.18.29.34.6.49.91.9 1.78 1.55 3.68 2.14 5.59-.76 1.18-1.42 2.44-1.68 3.81Zm-2.65 12.19c.02 0 .04-.01.06-.02-.01 0-.04.01-.07.02Zm.26-.36c.04-.17-.17.18-.21.28-.1.02-.41.17-.08.08l-.01.01c-.08.03-.18.06-.19.05h-.07c-.09-.01-.24 0-.33 0h-.06c-.03-.01-.07-.03-.14-.05-.1-.04-.21-.07-.31-.1-.06-.03-.22-.09-.3-.13-.11-.06-.23-.13-.34-.2-.02-.01-.26-.2-.3-.23-.1-.09-.21-.19-.31-.29-.05-.05-.48-.54-.31-.32-.03-.04-.06-.07-.08-.1-.51-2.48-1.67-4.89-2.91-6.98-1.97-3.34-4.6-6.71-8.24-8.3-.24-.11-.5-.21-.77-.31.41-.77.85-1.41 1.53-1.97.55-.45 1.2-.8 1.89-1 .26-.08.57-.16.81-.2.22-.03.44-.03.66-.03.06 0 .45.03.46.02.99.12 1.77.49 2.78 1.22-.05-.03.35.29.43.36a13.91 13.91 0 0 1 1.37 1.43c.22.26.24.29.52.7 1.71 2.46 2.68 4.85 3.49 7.68.39 1.37.69 2.76.92 4.17 0 .05.03.2.04.27l.03.25c.03.28.06.56.08.84.06.71.12 1.43.09 2.14v.11c0 .03-.01.06-.02.1-.03.17-.08.34-.14.5Zm4.87-2.7c-.05-.02-.3-.15-.54-.27-.1-1.23-.28-2.46-.52-3.67.33.37.71.7 1.14.97.36.24.73.42 1.11.56 0 .23 0 .45-.01.68-.02.44-.04.65-.07.81-.06.3-.13.59-.23.88v.02c0 .01-.02.03-.03.05-.01.02-.06.09-.1.16h-.08c-.04 0-.09-.01-.13-.03-.18-.05-.36-.1-.53-.16Zm.75.2Zm-.01 0h-.06.07Zm9.19-19.04c.2-.11.09-.05 0 0Zm.51-.07h.04c.36.06.07.02-.04 0Z"/></g></svg>