<svg id="_レイヤー_2" data-name="レイヤー 2" xmlns="http://www.w3.org/2000/svg" width="51.96" height="2593.83"><defs><style>.cls-1{fill:#2e3192}</style></defs><g style="opacity:.5" id="_レイヤー_3" data-name="レイヤー 3"><path class="cls-1" d="M39.93 33.99a1.92 1.92 0 1 0 .001 3.841 1.92 1.92 0 0 0-.001-3.841ZM51.96 45l-4.6-7.96L42.77 45h9.19z"/><path class="cls-1" d="M25.98 0 0 45h41.63l5.17-8.95L25.98 0Zm13.95 38.65c-1.51 0-2.74-1.23-2.74-2.74s1.23-2.74 2.74-2.74 2.74 1.23 2.74 2.74-1.23 2.74-2.74 2.74ZM25.98 48.83 0 93.83h51.96l-25.98-45zm0 50L0 143.83h51.96l-25.98-45zm0 50L0 193.83h51.96l-25.98-45zm0 50L0 243.83h51.96l-25.98-45zm0 50L0 293.83h51.96l-25.98-45zm0 50L0 343.83h51.96l-25.98-45zm0 50L0 393.83h51.96l-25.98-45zm0 50L0 443.83h51.96l-25.98-45zm0 50L0 493.83h51.96l-25.98-45zm0 50L0 543.83h51.96l-25.98-45zm0 50L0 593.83h51.96l-25.98-45zm0 50L0 643.83h51.96l-25.98-45zm0 50L0 693.83h51.96l-25.98-45zm0 50L0 743.83h51.96l-25.98-45zm0 50L0 793.83h51.96l-25.98-45zm0 50L0 843.83h51.96l-25.98-45zm0 50L0 893.83h51.96l-25.98-45zm0 50L0 943.83h51.96l-25.98-45zm0 50L0 993.83h51.96l-25.98-45zm0 50-25.98 45h51.96l-25.98-45zm0 50-25.98 45h51.96l-25.98-45zm0 50-25.98 45h51.96l-25.98-45zm0 50-25.98 45h51.96l-25.98-45zm0 50-25.98 45h51.96l-25.98-45zm0 50-25.98 45h51.96l-25.98-45zm0 50-25.98 45h51.96l-25.98-45zm0 50-25.98 45h51.96l-25.98-45zm0 50-25.98 45h51.96l-25.98-45zm0 50-25.98 45h51.96l-25.98-45zm0 50-25.98 45h51.96l-25.98-45zm0 50-25.98 45h51.96l-25.98-45zm0 50-25.98 45h51.96l-25.98-45zm0 50-25.98 45h51.96l-25.98-45zm0 50-25.98 45h51.96l-25.98-45zm0 50-25.98 45h51.96l-25.98-45zm0 50-25.98 45h51.96l-25.98-45zm0 50-25.98 45h51.96l-25.98-45zm0 50-25.98 45h51.96l-25.98-45zm0 50-25.98 45h51.96l-25.98-45zm0 50-25.98 45h51.96l-25.98-45zm0 50-25.98 45h51.96l-25.98-45zm0 50-25.98 45h51.96l-25.98-45zm0 50-25.98 45h51.96l-25.98-45zm0 50-25.98 45h51.96l-25.98-45zm0 50-25.98 45h51.96l-25.98-45zm0 50-25.98 45h51.96l-25.98-45zm0 50-25.98 45h51.96l-25.98-45zm0 50-25.98 45h51.96l-25.98-45zm0 50-25.98 45h51.96l-25.98-45zm0 50-25.98 45h51.96l-25.98-45zm0 50-25.98 45h51.96l-25.98-45z"/></g></svg>