<?xml version="1.0" encoding="UTF-8"?>
<svg id="_レイヤー_2" data-name="レイヤー 2" xmlns="http://www.w3.org/2000/svg" width="243" height="160" viewBox="0 0 243 160">
  <defs>
    <style>
      .cls-1 {
        fill: none;
      }

      .cls-2 {
        fill: #eb6100;
      }

      .cls-3 {
        fill: #2e3192;
      }
    </style>
  </defs>
  <g id="Layer_1" data-name="Layer 1">
    <g>
      <g>
        <path class="cls-3" d="M101.88,52.33V9.46h98.38v76.27h-98.38v-8.46c-.35.02-.73.05-1.08.05-1.31,0-2.62-.2-3.83-.6l-4.33-1.41v16.04c0,1.99,1.61,3.6,3.6,3.6h109.65c1.99,0,3.6-1.61,3.6-3.6V3.82c0-1.99-1.61-3.6-3.6-3.6h-109.65c-1.99,0-3.6,1.61-3.6,3.6v42.39l3.42,4.23,5.82,1.89Z"/>
        <path class="cls-3" d="M106.46,66.15c.63-2.96-1.33-5.88-4.21-6.81l-10.04-3.26-8.48-10.45c-3.01-3.71-7.52-5.86-12.3-5.86h-11.31c-13.32,0-23.42,22.8-26.2,29.79-1.19,2.98.27,6.36,3.25,7.54.71.28,1.43.41,2.15.41,2.31,0,4.5-1.38,5.4-3.66,2.38-5.97,5.63-11.87,8.64-16.13l-.78,23.97c-.05,1.67,1.28,3.05,2.95,3.05h21.93c1.67,0,3-1.38,2.95-3.05l-.68-22.56,4.53,5.59c.71.87,1.65,1.52,2.72,1.87l11.99,3.89c3.26,1.08,6.76-.92,7.48-4.34Z"/>
        <circle class="cls-3" cx="66.52" cy="23.34" r="12.92"/>
        <path class="cls-3" d="M118.21,31.41h65.7c2.54,0,4.59-2.06,4.59-4.59s-2.06-4.59-4.59-4.59h-65.7c-2.54,0-4.59,2.06-4.59,4.59s2.06,4.59,4.59,4.59Z"/>
        <path class="cls-3" d="M118.21,52.18h65.7c2.54,0,4.59-2.06,4.59-4.59s-2.06-4.59-4.59-4.59h-65.7c-2.54,0-4.59,2.06-4.59,4.59s2.06,4.59,4.59,4.59Z"/>
        <path class="cls-3" d="M118.21,72.95h65.7c2.54,0,4.59-2.06,4.59-4.59s-2.06-4.59-4.59-4.59h-65.7c-2.54,0-4.59,2.06-4.59,4.59s2.06,4.59,4.59,4.59Z"/>
        <path class="cls-2" d="M125.62,128.25c7.66,0,13.87-6.21,13.87-13.87s-6.21-13.87-13.87-13.87-13.87,6.21-13.87,13.87,6.21,13.87,13.87,13.87Z"/>
        <path class="cls-2" d="M138.52,131.72c-3.61,2.69-8.07,4.3-12.9,4.3s-9.29-1.61-12.9-4.3c-3.69,2.29-6.32,6.17-6.88,10.76l-1.45,12c-.19,1.55.82,3.03,2.35,3.35,5.95,1.27,12.29,1.94,18.87,1.94s12.92-.68,18.87-1.94c1.53-.33,2.54-1.8,2.35-3.35l-1.45-12c-.54-4.59-3.17-8.47-6.87-10.76Z"/>
        <path class="cls-2" d="M180.56,128.25c7.66,0,13.87-6.21,13.87-13.87s-6.21-13.87-13.87-13.87-13.87,6.21-13.87,13.87,6.21,13.87,13.87,13.87Z"/>
        <path class="cls-2" d="M193.46,131.72c-3.61,2.69-8.07,4.3-12.9,4.3s-9.29-1.61-12.9-4.3c-3.69,2.29-6.32,6.17-6.88,10.76l-1.45,12c-.19,1.55.82,3.03,2.35,3.35,5.95,1.27,12.29,1.94,18.87,1.94s12.92-.68,18.87-1.94c1.53-.33,2.54-1.8,2.35-3.35l-1.45-12c-.54-4.59-3.17-8.47-6.87-10.76Z"/>
      </g>
      <rect class="cls-1" width="243" height="160"/>
    </g>
  </g>
</svg>