<?xml version="1.0" encoding="UTF-8"?>
<svg id="_レイヤー_2" data-name="レイヤー 2" xmlns="http://www.w3.org/2000/svg" width="243" height="160" viewBox="0 0 243 160">
  <defs>
    <style>
      .cls-1 {
        fill: none;
      }

      .cls-2 {
        fill: #2e3192;
      }
    </style>
  </defs>
  <g id="Layer_1" data-name="Layer 1">
    <g>
      <g>
        <path class="cls-2" d="M78.31,109.94c-.87,0-1.58.71-1.58,1.58v5.59c0,.87.71,1.58,1.58,1.58h86.37c.87,0,1.58-.71,1.58-1.58v-5.59c0-.87-.71-1.58-1.58-1.58h-7.5v-39.43h7.5c.87,0,1.58-.71,1.58-1.58v-5.59c0-.87-.71-1.58-1.58-1.58h-86.37c-.87,0-1.58.71-1.58,1.58v5.59c0,.87.71,1.58,1.58,1.58h7.5v39.43h-7.5ZM116.83,109.94v-39.43h9.35v39.43h-9.35ZM146.35,109.94h-9.35v-39.43h9.35v39.43ZM96.65,70.51h9.35v39.43h-9.35v-39.43Z"/>
        <path class="cls-2" d="M71.94,123.45h99.12c.87,0,1.58.71,1.58,1.58v5.59c0,.87-.71,1.58-1.58,1.58h-99.12c-.87,0-1.58-.71-1.58-1.58v-5.59c0-.87.71-1.58,1.58-1.58Z"/>
        <path class="cls-2" d="M171.64,50.05l-47.4-21.66c-1.74-.8-3.75-.8-5.49,0l-47.4,21.66c-.61.28-1,.89-1,1.56v3.67c0,.94.77,1.71,1.71,1.71h98.86c.94,0,1.71-.77,1.71-1.71v-3.67c0-.67-.39-1.28-1-1.56ZM121.5,49.45c-3.49,0-6.31-2.83-6.31-6.31s2.83-6.31,6.31-6.31,6.31,2.83,6.31,6.31-2.83,6.31-6.31,6.31Z"/>
      </g>
      <rect class="cls-1" width="243" height="160"/>
    </g>
  </g>
</svg>