<?xml version="1.0" encoding="UTF-8"?>
<svg id="_レイヤー_2" data-name="レイヤー 2" xmlns="http://www.w3.org/2000/svg" viewBox="0 0 406.93 406.93">
  <defs>
    <style>
      .cls-1 {
        fill: #fff;
      }

      .cls-2 {
        fill: #2e3192;
        opacity: .8;
      }
    </style>
  </defs>
  <g id="_レイヤー_3" data-name="レイヤー 3">
    <g>
      <circle class="cls-2" cx="203.46" cy="203.46" r="203.46"/>
      <path class="cls-1" d="M154,115.67c-.14.23-.37.37-.69.41v7.08h4.2c.96-1.19,2.19-2.74,3.33-3.88,4.75,4.06,5.12,4.7,5.12,5.16,0,.59-.27,1-.73,1h-11.92v8.45h10c1.05-1.32,2.33-2.79,3.65-4.2,4.89,4.06,5.39,4.84,5.39,5.34,0,.73-.27,1.14-.73,1.14h-36.63l-4.57.23v-2.74l4.57.23h13.11v-8.45h-6.99l-4.57.18v-2.7l4.57.23h6.99v-7.49h-6.99l-4.57.18v-2.24c-2.24,1.19-4.52,2.24-6.85,3.06l-.37-.59c7.22-4.48,14.39-11.65,19.59-20.69,5.94,2.15,6.21,2.42,6.21,3.01,0,.41-.32.87-1.64,1.14,4.34,4.84,11.42,8.68,19.5,10.55l-.14.69c-1.55.5-2.88,1.6-3.75,3.15-.37.73-.55,1-.91,1-.23,0-.5-.14-.91-.32-6.58-3.15-11.97-8.17-14.93-14.48-3.97,5.39-9.13,9.87-14.98,13.06l3.75.18h13.7c1-1.28,1.87-2.28,3.15-3.7,4.57,3.93,5.07,4.34,5.07,4.98,0,.68-.32,1-.64,1h-8.4Z"/>
      <path class="cls-1" d="M183.6,125.08l-4.57.23v-2.74l4.57.23h14.11c0-2.1-.09-4.02-.23-5.71,2.33.23,3.93.41,4.93.59.91-1.19,1.69-2.37,2.47-3.65h-12.29l-4.57.23v-2.74l4.57.23h12.88c.96-1.37,1.23-1.55,1.78-1.55s.87.05,2.79,1.51c1.96,1.51,2.15,2.01,2.15,2.42,0,.68-.64,1.05-2.92,1.28-1.55.82-3.61,1.83-5.43,2.6.46.18.59.37.59.59,0,.64-.46.91-1.78,1.46v2.74h9.77c1.05-1.32,2.19-2.74,3.47-4.16,4.89,3.97,5.39,4.8,5.39,5.3,0,.73-.27,1.14-.73,1.14h-17.9c.05,4.25.32,7.35.32,8.68,0,2.51-2.51,4.38-5.94,4.38-.82,0-.96-.09-1.14-.91-.5-2.01-1.64-3.06-4.66-4.06l.05-.69c1.64.18,3.01.32,4.52.32,1.64,0,1.92-.18,1.92-1.83v-5.89h-14.11ZM205.29,104.98c1.69-2.79,3.43-6.44,4.52-9.54,5.71,2.28,6.03,2.69,6.03,3.29,0,.5-.5.96-2.15,1-1.83,1.87-3.93,3.7-6.03,5.25h6.39c1-1.69,1.55-2.15,2.06-2.15.59,0,1.32.18,2.83,1.46,2.06,1.78,2.24,2.19,2.24,2.88,0,.96-.64,1.28-2.79,1.51-1.64,1.19-3.7,2.51-5.71,3.56l-.55-.46c.73-1.51,1.28-2.83,1.78-4.52h-27.81c.05.37.09.73.09,1.1,0,3.24-1.87,5.16-4.11,5.16-1.69,0-2.56-1.14-2.56-2.28,0-.96.37-1.87,1.32-2.6,1.74-1.32,2.47-2.47,2.47-3.97,0-.64-.05-1.23-.09-1.87l.69-.14c.59.69,1.1,1.51,1.51,2.33h19.87ZM186.29,96.21c5.07,1.19,7.67,3.42,7.67,5.89,0,1.42-.96,2.65-2.65,2.65-1.46,0-1.96-.91-2.24-2.01-.55-2.15-1.64-4.48-3.2-5.98l.41-.55ZM196.11,95.76c4.75,1.32,6.99,3.38,6.99,5.71,0,1.78-1,3.06-2.69,3.06-1.32,0-2.15-.91-2.33-2.1-.23-2.24-.91-4.43-2.42-6.17l.46-.5Z"/>
      <path class="cls-1" d="M235.03,116.63c0-3.56-.05-4.84-.14-6.26,2.65.73,4.2,1.19,5.12,1.55h7.99v-7.76h-8.49c-2.6,3.61-6.07,7.03-10.87,10.05l-.5-.46c4.7-5.66,7.9-12.1,9.73-18.68,5.8,1.64,6.8,2.15,6.8,2.88,0,.64-.73.96-2.1,1.14-.46.96-.96,1.87-1.55,2.79h20.09c1-1.37,1.96-2.56,3.15-3.88,4.7,3.79,5.34,4.43,5.34,5.12,0,.64-.27,1.05-.73,1.05h-15.07c-.14.32-.41.46-.78.55v7.22h5.02c1-1.37,1.87-2.47,3.06-3.79,4.52,3.79,5.12,4.48,5.12,5.02,0,.64-.27,1.05-.73,1.05h-12.47c0,2.92.05,5.8.05,8.72h9.32c1.05-1.42,2.15-2.83,3.24-4.06,4.98,4.11,5.53,4.93,5.53,5.39,0,.55-.27.96-.73.96h-17.35c.09,7.4.18,9.86.18,10.87,0,1.23-1.96,1.96-4.11,1.96-.96,0-1.42-.37-1.42-1.14,0-1.05.14-3.61.23-11.69h-15.39l-4.57.23v-2.74l4.57.23h2.47v-6.3ZM247.95,122.93c0-2.92.05-5.8.05-8.72h-7.76l-.23.27v8.45h7.95Z"/>
      <path class="cls-1" d="M136.15,201.71c0,4.05.11,4.57,1.37,5.25,1.2.68,2.85.86,7.02.91v2.45h-23.46v-2.45c8.16-.06,8.96-.57,8.96-5.99v-20.32c0-2.57-.23-3.6-.91-3.94-1.48-.69-3.31-.91-7.82-.91v-2.28c5.88-1.14,9.76-2.34,14.84-4.57v31.85Z"/>
      <path class="cls-1" d="M175.6,206.68c0,1.2-1.66,2.4-4.57,2.4-1.03,0-1.6-.51-1.6-1.48,0-1.37.34-8.05.34-30.6,0-3.03-.11-6.79-.23-9.59,3.31,1.08,5.19,1.77,6.22,2.28h5.08c.8-1.83,1.37-2.34,1.94-2.34.74,0,1.48.11,3.6,1.77,2,1.6,2.23,2.23,2.23,2.74,0,.68-.51,1.26-2,1.94v5.54c0,14.9.4,21.86.4,25.52,0,1.77-1.94,2.57-4.68,2.57-.97,0-1.54-.4-1.54-1.43v-2.8h-5.19v3.48ZM180.8,184.93v-12.39h-5.02l-.17.17v12.22h5.19ZM175.6,200.34h5.19v-12.56h-5.19v12.56ZM199.92,175.74h-4.11l-5.71.29v-3.42l5.71.29h4.11c0-3.6-.06-6.11-.23-8.39,7.59.68,8.73,1.14,8.73,1.94s-.63,1.2-2.34,1.88v4.57h3.25c1.14-1.37,2.28-2.74,3.6-4.22,5.14,4.51,5.71,5.25,5.71,5.88,0,.69-.29,1.2-.86,1.2h-11.7v7.19h6.34c1.2-1.43,2.4-3.08,3.71-4.57,5.42,4.62,6.11,5.48,6.11,6.11,0,.69-.29,1.31-.91,1.31h-27.29l-5.71.29v-3.42l5.71.29h5.88v-7.19ZM207.57,193.78c0-3.37-.06-4.79-.23-6.96,7.76.68,8.22,1.08,8.22,1.77,0,.63-.46,1.14-1.83,1.54v3.65h.51c.97-1.31,1.77-2.45,2.91-3.88,4.4,4.34,4.74,4.85,4.74,5.54s-.29,1.2-.86,1.2h-7.31c.06,11.07.23,13.7.23,15.07,0,3.88-2.4,5.88-7.42,5.88-1.03,0-1.2-.11-1.48-1.14-.68-2.4-2.23-3.65-5.48-4.79l.06-.86c1.77.23,3.48.4,5.99.4,1.54,0,1.94-.34,1.94-1.94v-12.62h-13.01l-5.71.29v-3.42l5.71.29h13.01ZM193.81,198.12c6.68.91,9.36,3.54,9.36,6.68,0,2.4-1.31,3.54-3.31,3.54-1.6,0-2.8-.91-3.14-2.68-.63-3.03-1.77-5.37-3.42-6.85l.51-.69Z"/>
      <path class="cls-1" d="M247.48,167.41c.97-1.83,1.43-2.17,2.05-2.17.8,0,1.26.17,3.25,1.66,1.88,1.43,2.23,1.88,2.23,2.51,0,.74-.46,1.31-1.94,1.94v1.48c0,6.17.17,9.36.17,10.67s-1.77,2.17-4.34,2.17c-1.08,0-1.54-.4-1.54-1.26v-.23h-9.36v31c0,1.43-1.71,2.28-4.68,2.28-1.03,0-1.54-.4-1.54-1.26,0-2,.29-8.22.29-42.58,0-3.71-.06-5.88-.17-8.11,3.25.91,5.14,1.43,6.22,1.88h9.36ZM247.37,170.26h-9.08l-.29.29v3.65h9.36v-3.94ZM247.37,177.05h-9.36v4.28h9.36v-4.28ZM250.73,208.68c0,1.31-1.66,2.17-4.4,2.17-.97,0-1.48-.46-1.48-1.43,0-1.14.17-4.05.17-15.13,0-2.91-.06-4.4-.17-5.99,3.08.8,4.85,1.31,5.88,1.71h10.85c.97-1.94,1.48-2.23,2.06-2.23.86,0,1.71.29,3.37,1.6,1.83,1.43,2.17,2,2.17,2.63,0,.74-.46,1.14-1.88,1.83v1.48c0,8.45.17,11.07.17,12.27,0,1.66-1.77,2.4-4.4,2.4-.97,0-1.48-.4-1.48-1.37v-1.08h-10.85v1.14ZM261.58,197.09v-4.22h-10.73l-.11.11v4.11h10.85ZM250.73,204.68h10.85v-4.74h-10.85v4.74ZM264.66,184.19c-.34,1.03-1.88,1.66-4.22,1.66-1.08,0-1.54-.4-1.54-1.26,0-1.37.17-4.85.17-12.44,0-3.14,0-4.28-.17-6.39,2.85.74,4.62,1.25,5.65,1.66h10.22c1.08-2.17,1.71-2.51,2.4-2.51.86,0,1.37.29,3.25,1.77,2,1.6,2.45,2.05,2.45,2.8s-.57,1.31-2.23,2v2.51c0,29.23.34,35.22.34,37.28,0,3.82-2.68,6.17-6.91,6.17-1.03,0-1.14-.11-1.43-1.2-.63-2.57-2.05-3.82-5.42-4.97l.06-.86c1.94.23,4.05.4,5.65.4,1.43,0,1.77-.34,1.77-2.17v-24.43h-10.05ZM274.71,174.2v-3.94h-9.7l-.23.34v3.6h9.93ZM264.78,181.34h9.93v-4.28h-9.93v4.28Z"/>
      <path class="cls-1" d="M97.28,260.58c.69-6.05,1.08-11.64,1.43-20.78h21.06l-1.2,5.99h-17.7c-.17,3.42-.4,5.94-.91,11.99,2.68-2.74,5.71-4,9.36-4,7.25,0,12.56,5.31,12.56,12.44,0,7.82-6.17,13.53-14.78,13.53-6.62,0-11.65-3.43-11.65-8.05,0-2.11,1.66-3.77,3.6-3.77s3.54,1.77,3.54,4.17c0,.4-.06.68-.17,1.26-.06.29-.06.4-.06.51,0,2.11,2,3.48,4.79,3.48,5.08,0,7.82-3.65,7.82-10.5,0-6.34-2.57-9.82-7.19-9.82-3.48,0-5.65,1.14-8.62,4.4l-1.88-.86Z"/>
      <path class="cls-1" d="M132.28,286.66c3.54-2.11,5.42-4.62,5.42-6.45,0-1.03-.57-1.43-1.77-1.43-2.23,0-3.88-1.66-3.88-3.77,0-2.28,1.71-3.82,4.11-3.82,2.91,0,5.31,2.63,5.31,5.94,0,4.57-3.14,8.16-8.51,10.39l-.69-.86Z"/>
      <path class="cls-1" d="M153.63,260.58c.69-6.05,1.08-11.64,1.43-20.78h21.06l-1.2,5.99h-17.7c-.17,3.42-.4,5.94-.91,11.99,2.68-2.74,5.71-4,9.36-4,7.25,0,12.56,5.31,12.56,12.44,0,7.82-6.17,13.53-14.78,13.53-6.62,0-11.65-3.43-11.65-8.05,0-2.11,1.66-3.77,3.6-3.77s3.54,1.77,3.54,4.17c0,.4-.06.68-.17,1.26-.06.29-.06.4-.06.51,0,2.11,2,3.48,4.79,3.48,5.08,0,7.82-3.65,7.82-10.5,0-6.34-2.57-9.82-7.19-9.82-3.48,0-5.65,1.14-8.62,4.4l-1.88-.86Z"/>
      <path class="cls-1" d="M201.36,238.88c7.71,0,13.76,8.96,13.76,20.44s-6.05,20.44-13.76,20.44-13.87-9.25-13.87-20.44,6.17-20.44,13.87-20.44ZM201.3,277.42c4.62,0,6.91-5.99,6.91-18.04s-2.28-18.15-6.85-18.15-7.02,6.05-7.02,17.41c0,12.67,2.23,18.78,6.96,18.78Z"/>
      <path class="cls-1" d="M237.72,238.88c7.71,0,13.76,8.96,13.76,20.44s-6.05,20.44-13.76,20.44-13.87-9.25-13.87-20.44,6.17-20.44,13.87-20.44ZM237.67,277.42c4.62,0,6.91-5.99,6.91-18.04s-2.28-18.15-6.85-18.15-7.02,6.05-7.02,17.41c0,12.67,2.23,18.78,6.96,18.78Z"/>
      <path class="cls-1" d="M276.23,278.53c0,1-1.36,1.64-3.36,1.64-.8,0-1.16-.32-1.16-.92,0-1.48.2-6.72.2-28.36,0-2.6,0-4.32-.12-6.04,2.64.76,4,1.24,4.72,1.6h23.12c.84-1.8,1.16-2,1.68-2,.6,0,1.08.2,2.6,1.36,1.52,1.16,1.76,1.6,1.76,2.12s-.4.96-1.6,1.44v1.8c0,19.12.28,22.76.28,24.2,0,2.8-2.12,4.52-5.44,4.52-.72,0-.8-.08-1-.84-.48-1.96-1.72-2.8-4.28-3.68l.04-.6c1.32.16,2.68.24,4.16.24,1.28,0,1.92-.24,1.92-1.56v-9.36h-23.52v14.44ZM285.39,262.09v-13.64h-8.96l-.2.24v13.4h9.16ZM299.75,248.45h-9.44c-.12.24-.36.32-.6.4v13.24h10.04v-13.64Z"/>
      <path class="cls-1" d="M252.97,297.78c2.5.22,3.47,1.42,3.47,2.5,0,.83-.5,1.35-1.32,1.35-.68,0-1.05-.42-1.2-1.12-.2-.95-.47-1.62-.95-2.12.05,7.92.15,9.85.15,10.57,0,.62-.87,1.05-1.97,1.05-.48,0-.75-.22-.75-.6,0-.72.1-2.47.15-9.02-.87,1.42-2.02,2.8-3.37,3.95l-.3-.22c1.6-2.57,2.75-5.85,3.3-9.07h-.97l-2.2.12v-1.5l2.2.12h1.37v-3.95c-1.15.1-2.32.2-3.5.25l-.05-.38c2.45-.55,5.12-1.67,6.92-2.77,2.1,1.28,2.22,1.47,2.22,1.72s-.2.38-1.17.4c-.5.12-1.05.25-1.62.35-.02.33-.17.5-.4.6v3.77h.27c.4-.53.75-.97,1.32-1.6,2,1.8,2.12,2.12,2.12,2.32,0,.3-.15.53-.4.53h-3.32v2.75ZM253.15,309.85c2.05-.8,3.55-2.02,4.6-4,.82-1.47,1.2-3.12,1.47-4.77-.32.2-.8.33-1.45.33-.55,0-.8-.22-.8-.65,0-.6.12-1.88.12-5,0-1.25-.02-2.17-.07-3.05,1.45.4,2.27.65,2.75.85h3.4c.75-1.67,1.55-3.85,2.25-6.37,3,.88,3.35,1.1,3.35,1.42,0,.3-.3.53-1.02.62-1.1,1.72-2.32,3.25-3.35,4.32h1.7c.38-.78.6-.98.85-.98.33,0,.65.1,1.57.83.85.65,1.05.92,1.05,1.15,0,.3-.17.53-.82.88v.8c0,1.77.12,3.12.12,3.77,0,.77-.8,1.12-2.1,1.12-.42,0-.67-.17-.67-.6h-.15c-.08.15-.18.2-.33.25v5.87c0,.52.27.57,1,.57.95,0,1.4-.17,1.8-.85.33-.55.65-1.37.92-2.2l.38.08c-.12.92-.2,1.8-.2,2.2,0,.47,1,.58,1,1.35,0,.97-.92,1.75-4.07,1.75-2.95,0-3.55-.43-3.55-1.62,0-1.08.12-2.82.12-5.85v-1.55h-3.35c-.05.15-.12.3-.25.4,2.9.5,3.15.67,3.15.95,0,.3-.2.48-.9.67-1.07,4.8-3.87,7.15-8.42,7.62l-.1-.32ZM257.77,287.66c3,.73,4.22,2.27,4.22,3.6,0,1.08-.67,1.7-1.47,1.7-.75,0-1.27-.38-1.42-1.42-.2-1.37-.72-2.7-1.57-3.6l.25-.28ZM259.77,294.81l-.07.08v4.4h6.4v-4.47h-6.32Z"/>
      <path class="cls-1" d="M297.37,306.7c-.58.47-1,1.07-1.27,1.72-.2.62-.3.7-.95.75-1.62.12-3.55.17-6.6.17-6.47,0-8.02-.78-9.75-4.1-.88,1.25-1.88,2.42-2.85,3.38-.1.6-.27.9-.57.9s-.57-.4-1.75-2.9c1.22-.47,2.37-.95,3.45-1.5v-6.85h-.92l-2,.12v-1.5l2,.12h.9c.45-.88.75-1.2,1.02-1.2.35,0,.62.05,1.57.8.92.72,1.02,1,1.02,1.25,0,.3-.23.58-.9.88v6.57c1.5,1.25,3.55,1.55,8.65,1.55,3.17,0,5.92-.17,8.95-.55v.38ZM275.3,287.18c2.77.38,4.47,1.72,4.47,3.2,0,1.1-.67,1.62-1.55,1.62-.6,0-1.07-.38-1.25-1.05-.38-1.47-1-2.72-1.82-3.45l.15-.33ZM288,288.38c.35-.65.58-.78.75-.78.27,0,.57.12,1.2.65.52.42.77.7.77,1s-.25.58-1.25,1.03c.9,5.17,3.87,9.45,8.05,12.17l-.15.35c-.85.17-1.65.65-2.3,1.33-.23.27-.38.4-.5.4s-.27-.12-.48-.35c-2.8-3.12-4.32-6.65-4.9-10.92-1.48,5.05-4.35,9-8.4,11.7l-.25-.27c3.02-3.42,5.45-8.67,6.7-15.05h-3.65l-2.15.12v-1.5l2.15.12h4.4Z"/>
    </g>
  </g>
</svg>